<?xml version="1.0" encoding="UTF-8"?>
<svg xmlns="http://www.w3.org/2000/svg" width="720" height="420" viewBox="0 0 720 420" role="img" aria-labelledby="title desc">
<title id="title">Beer-Lambert decay</title>
<desc id="desc">Training samples and candidate curve for Beer-Lambert decay.</desc>
<rect width="720" height="420" fill="#ffffff"/>
<rect x="18" y="18" width="684" height="384" rx="8" fill="#f8fafc" stroke="#d0d7de"/>
<text x="36" y="42" font-family="Arial, sans-serif" font-size="22" font-weight="700" fill="#111827">Beer-Lambert decay</text>
<text x="36" y="65" font-family="Arial, sans-serif" font-size="13" fill="#4b5563">verified warm-start path, exact candidate overlays the target</text>
<text x="520" y="42" font-family="Arial, sans-serif" font-size="12" fill="#111827">max verifier error < 1e-10</text>
<line x1="64.00" y1="58" x2="64.00" y2="362" stroke="#e5e7eb" stroke-width="1"/>
<text x="64.00" y="386" text-anchor="middle" font-family="Arial, sans-serif" font-size="11" fill="#4b5563">0</text>
<line x1="221.00" y1="58" x2="221.00" y2="362" stroke="#e5e7eb" stroke-width="1"/>
<text x="221.00" y="386" text-anchor="middle" font-family="Arial, sans-serif" font-size="11" fill="#4b5563">1.12</text>
<line x1="378.00" y1="58" x2="378.00" y2="362" stroke="#e5e7eb" stroke-width="1"/>
<text x="378.00" y="386" text-anchor="middle" font-family="Arial, sans-serif" font-size="11" fill="#4b5563">2.25</text>
<line x1="535.00" y1="58" x2="535.00" y2="362" stroke="#e5e7eb" stroke-width="1"/>
<text x="535.00" y="386" text-anchor="middle" font-family="Arial, sans-serif" font-size="11" fill="#4b5563">3.38</text>
<line x1="692.00" y1="58" x2="692.00" y2="362" stroke="#e5e7eb" stroke-width="1"/>
<text x="692.00" y="386" text-anchor="middle" font-family="Arial, sans-serif" font-size="11" fill="#4b5563">4.5</text>
<line x1="64" y1="362.00" x2="692" y2="362.00" stroke="#e5e7eb" stroke-width="1"/>
<text x="54" y="366.00" text-anchor="end" font-family="Arial, sans-serif" font-size="11" fill="#4b5563">0</text>
<line x1="64" y1="286.00" x2="692" y2="286.00" stroke="#e5e7eb" stroke-width="1"/>
<text x="54" y="290.00" text-anchor="end" font-family="Arial, sans-serif" font-size="11" fill="#4b5563">0.28</text>
<line x1="64" y1="210.00" x2="692" y2="210.00" stroke="#e5e7eb" stroke-width="1"/>
<text x="54" y="214.00" text-anchor="end" font-family="Arial, sans-serif" font-size="11" fill="#4b5563">0.56</text>
<line x1="64" y1="134.00" x2="692" y2="134.00" stroke="#e5e7eb" stroke-width="1"/>
<text x="54" y="138.00" text-anchor="end" font-family="Arial, sans-serif" font-size="11" fill="#4b5563">0.84</text>
<line x1="64" y1="58.00" x2="692" y2="58.00" stroke="#e5e7eb" stroke-width="1"/>
<text x="54" y="62.00" text-anchor="end" font-family="Arial, sans-serif" font-size="11" fill="#4b5563">1.12</text>
<line x1="64" y1="362" x2="692" y2="362" stroke="#111827" stroke-width="1.4"/>
<line x1="64" y1="58" x2="64" y2="362" stroke="#111827" stroke-width="1.4"/>
<text x="378.00" y="404" text-anchor="middle" font-family="Arial, sans-serif" font-size="12" fill="#374151">normalized path length</text>
<text x="18" y="210.00" transform="rotate(-90 18 210.00)" text-anchor="middle" font-family="Arial, sans-serif" font-size="12" fill="#374151">intensity</text>
<polyline points="64.00,89.77 66.85,94.19 69.71,98.54 72.56,102.82 75.42,107.02 78.27,111.16 81.13,115.23 83.98,119.24 86.84,123.18 89.69,127.05 92.55,130.87 95.40,134.62 98.25,138.31 101.11,141.94 103.96,145.51 106.82,149.02 109.67,152.48 112.53,155.88 115.38,159.23 118.24,162.52 121.09,165.76 123.95,168.94 126.80,172.07 129.65,175.16 132.51,178.19 135.36,181.17 138.22,184.11 141.07,187.00 143.93,189.84 146.78,192.63 149.64,195.38 152.49,198.08 155.35,200.74 158.20,203.36 161.05,205.94 163.91,208.47 166.76,210.96 169.62,213.41 172.47,215.82 175.33,218.20 178.18,220.53 181.04,222.83 183.89,225.09 186.75,227.31 189.60,229.49 192.45,231.64 195.31,233.76 198.16,235.84 201.02,237.89 203.87,239.90 206.73,241.89 209.58,243.83 212.44,245.75 215.29,247.64 218.15,249.50 221.00,251.32 223.85,253.12 226.71,254.88 229.56,256.62 232.42,258.33 235.27,260.02 238.13,261.67 240.98,263.30 243.84,264.90 246.69,266.48 249.55,268.03 252.40,269.55 255.25,271.05 258.11,272.53 260.96,273.98 263.82,275.41 266.67,276.82 269.53,278.20 272.38,279.56 275.24,280.90 278.09,282.21 280.95,283.51 283.80,284.78 286.65,286.04 289.51,287.27 292.36,288.48 295.22,289.67 298.07,290.85 300.93,292.00 303.78,293.14 306.64,294.26 309.49,295.36 312.35,296.44 315.20,297.50 318.05,298.55 320.91,299.58 323.76,300.59 326.62,301.59 329.47,302.57 332.33,303.53 335.18,304.48 338.04,305.42 340.89,306.33 343.75,307.24 346.60,308.13 349.45,309.00 352.31,309.86 355.16,310.71 358.02,311.54 360.87,312.36 363.73,313.16 366.58,313.96 369.44,314.74 372.29,315.50 375.15,316.26 378.00,317.00 380.85,317.73 383.71,318.45 386.56,319.16 389.42,319.85 392.27,320.54 395.13,321.21 397.98,321.87 400.84,322.52 403.69,323.16 406.55,323.79 409.40,324.41 412.25,325.02 415.11,325.62 417.96,326.21 420.82,326.80 423.67,327.37 426.53,327.93 429.38,328.48 432.24,329.03 435.09,329.56 437.95,330.09 440.80,330.61 443.65,331.12 446.51,331.62 449.36,332.11 452.22,332.59 455.07,333.07 457.93,333.54 460.78,334.00 463.64,334.46 466.49,334.90 469.35,335.34 472.20,335.78 475.05,336.20 477.91,336.62 480.76,337.03 483.62,337.44 486.47,337.84 489.33,338.23 492.18,338.62 495.04,338.99 497.89,339.37 500.75,339.74 503.60,340.10 506.45,340.45 509.31,340.80 512.16,341.15 515.02,341.48 517.87,341.82 520.73,342.15 523.58,342.47 526.44,342.78 529.29,343.10 532.15,343.40 535.00,343.70 537.85,344.00 540.71,344.29 543.56,344.58 546.42,344.86 549.27,345.14 552.13,345.42 554.98,345.68 557.84,345.95 560.69,346.21 563.55,346.47 566.40,346.72 569.25,346.97 572.11,347.21 574.96,347.45 577.82,347.69 580.67,347.92 583.53,348.15 586.38,348.37 589.24,348.59 592.09,348.81 594.95,349.03 597.80,349.24 600.65,349.44 603.51,349.65 606.36,349.85 609.22,350.04 612.07,350.24 614.93,350.43 617.78,350.62 620.64,350.80 623.49,350.98 626.35,351.16 629.20,351.34 632.05,351.51 634.91,351.68 637.76,351.85 640.62,352.01 643.47,352.18 646.33,352.34 649.18,352.49 652.04,352.65 654.89,352.80 657.75,352.95 660.60,353.09 663.45,353.24 666.31,353.38 669.16,353.52 672.02,353.66 674.87,353.79 677.73,353.93 680.58,354.06 683.44,354.19 686.29,354.31 689.15,354.44 692.00,354.56" fill="none" stroke="#9ca3af" stroke-width="6" stroke-linecap="round" stroke-linejoin="round" opacity="0.8"/>
<polyline points="64.00,89.77 66.85,94.19 69.71,98.54 72.56,102.82 75.42,107.02 78.27,111.16 81.13,115.23 83.98,119.24 86.84,123.18 89.69,127.05 92.55,130.87 95.40,134.62 98.25,138.31 101.11,141.94 103.96,145.51 106.82,149.02 109.67,152.48 112.53,155.88 115.38,159.23 118.24,162.52 121.09,165.76 123.95,168.94 126.80,172.07 129.65,175.16 132.51,178.19 135.36,181.17 138.22,184.11 141.07,187.00 143.93,189.84 146.78,192.63 149.64,195.38 152.49,198.08 155.35,200.74 158.20,203.36 161.05,205.94 163.91,208.47 166.76,210.96 169.62,213.41 172.47,215.82 175.33,218.20 178.18,220.53 181.04,222.83 183.89,225.09 186.75,227.31 189.60,229.49 192.45,231.64 195.31,233.76 198.16,235.84 201.02,237.89 203.87,239.90 206.73,241.89 209.58,243.83 212.44,245.75 215.29,247.64 218.15,249.50 221.00,251.32 223.85,253.12 226.71,254.88 229.56,256.62 232.42,258.33 235.27,260.02 238.13,261.67 240.98,263.30 243.84,264.90 246.69,266.48 249.55,268.03 252.40,269.55 255.25,271.05 258.11,272.53 260.96,273.98 263.82,275.41 266.67,276.82 269.53,278.20 272.38,279.56 275.24,280.90 278.09,282.21 280.95,283.51 283.80,284.78 286.65,286.04 289.51,287.27 292.36,288.48 295.22,289.67 298.07,290.85 300.93,292.00 303.78,293.14 306.64,294.26 309.49,295.36 312.35,296.44 315.20,297.50 318.05,298.55 320.91,299.58 323.76,300.59 326.62,301.59 329.47,302.57 332.33,303.53 335.18,304.48 338.04,305.42 340.89,306.33 343.75,307.24 346.60,308.13 349.45,309.00 352.31,309.86 355.16,310.71 358.02,311.54 360.87,312.36 363.73,313.16 366.58,313.96 369.44,314.74 372.29,315.50 375.15,316.26 378.00,317.00 380.85,317.73 383.71,318.45 386.56,319.16 389.42,319.85 392.27,320.54 395.13,321.21 397.98,321.87 400.84,322.52 403.69,323.16 406.55,323.79 409.40,324.41 412.25,325.02 415.11,325.62 417.96,326.21 420.82,326.80 423.67,327.37 426.53,327.93 429.38,328.48 432.24,329.03 435.09,329.56 437.95,330.09 440.80,330.61 443.65,331.12 446.51,331.62 449.36,332.11 452.22,332.59 455.07,333.07 457.93,333.54 460.78,334.00 463.64,334.46 466.49,334.90 469.35,335.34 472.20,335.78 475.05,336.20 477.91,336.62 480.76,337.03 483.62,337.44 486.47,337.84 489.33,338.23 492.18,338.62 495.04,338.99 497.89,339.37 500.75,339.74 503.60,340.10 506.45,340.45 509.31,340.80 512.16,341.15 515.02,341.48 517.87,341.82 520.73,342.15 523.58,342.47 526.44,342.78 529.29,343.10 532.15,343.40 535.00,343.70 537.85,344.00 540.71,344.29 543.56,344.58 546.42,344.86 549.27,345.14 552.13,345.42 554.98,345.68 557.84,345.95 560.69,346.21 563.55,346.47 566.40,346.72 569.25,346.97 572.11,347.21 574.96,347.45 577.82,347.69 580.67,347.92 583.53,348.15 586.38,348.37 589.24,348.59 592.09,348.81 594.95,349.03 597.80,349.24 600.65,349.44 603.51,349.65 606.36,349.85 609.22,350.04 612.07,350.24 614.93,350.43 617.78,350.62 620.64,350.80 623.49,350.98 626.35,351.16 629.20,351.34 632.05,351.51 634.91,351.68 637.76,351.85 640.62,352.01 643.47,352.18 646.33,352.34 649.18,352.49 652.04,352.65 654.89,352.80 657.75,352.95 660.60,353.09 663.45,353.24 666.31,353.38 669.16,353.52 672.02,353.66 674.87,353.79 677.73,353.93 680.58,354.06 683.44,354.19 686.29,354.31 689.15,354.44 692.00,354.56" fill="none" stroke="#0b7285" stroke-width="3" stroke-dasharray="9 6" stroke-linecap="round" stroke-linejoin="round"/>
<circle cx="64.00" cy="89.77" r="4.3" fill="#111827" stroke="#ffffff" stroke-width="1.5"/>
<circle cx="102.06" cy="143.14" r="4.3" fill="#111827" stroke="#ffffff" stroke-width="1.5"/>
<circle cx="140.12" cy="186.04" r="4.3" fill="#111827" stroke="#ffffff" stroke-width="1.5"/>
<circle cx="178.18" cy="220.53" r="4.3" fill="#111827" stroke="#ffffff" stroke-width="1.5"/>
<circle cx="216.24" cy="248.26" r="4.3" fill="#111827" stroke="#ffffff" stroke-width="1.5"/>
<circle cx="254.30" cy="270.56" r="4.3" fill="#111827" stroke="#ffffff" stroke-width="1.5"/>
<circle cx="292.36" cy="288.48" r="4.3" fill="#111827" stroke="#ffffff" stroke-width="1.5"/>
<circle cx="330.42" cy="302.89" r="4.3" fill="#111827" stroke="#ffffff" stroke-width="1.5"/>
<circle cx="368.48" cy="314.48" r="4.3" fill="#111827" stroke="#ffffff" stroke-width="1.5"/>
<circle cx="406.55" cy="323.79" r="4.3" fill="#111827" stroke="#ffffff" stroke-width="1.5"/>
<circle cx="444.61" cy="331.28" r="4.3" fill="#111827" stroke="#ffffff" stroke-width="1.5"/>
<circle cx="482.67" cy="337.30" r="4.3" fill="#111827" stroke="#ffffff" stroke-width="1.5"/>
<rect x="68" y="61" width="245" height="70" rx="6" fill="#ffffff" opacity="0.92" stroke="#e5e7eb"/>
<line x1="78" y1="76" x2="112" y2="76" stroke="#9ca3af" stroke-width="5"/>
<text x="122" y="80" font-family="Arial, sans-serif" font-size="12" fill="#111827">target function</text>
<line x1="78" y1="98" x2="112" y2="98" stroke="#0b7285" stroke-width="3" stroke-dasharray="8 5"/>
<text x="122" y="102" font-family="Arial, sans-serif" font-size="12" fill="#111827">candidate curve</text>
<circle cx="95" cy="120" r="4" fill="#111827"/>
<text x="122" y="124" font-family="Arial, sans-serif" font-size="12" fill="#111827">training samples</text>
</svg>
