<?xml version="1.0" encoding="UTF-8"?>
<svg xmlns="http://www.w3.org/2000/svg" width="660" height="380" viewBox="0 0 660 380" role="img" aria-labelledby="title desc">
<title id="title">Normalized Planck spectrum</title>
<desc id="desc">Target samples and candidate diagnostic curve for Normalized Planck spectrum.</desc>
<rect width="100%" height="100%" fill="#ffffff"/>
<text x="58" y="26" font-family="Arial, sans-serif" font-size="18" font-weight="700" fill="#202020">Normalized Planck spectrum</text>
<text x="58" y="45" font-family="Arial, sans-serif" font-size="12" fill="#555555">bad/stretch: shallow diagnostic misses peak and tail</text>
<line x1="58.0" y1="50" x2="58.0" y2="328" stroke="#d8d8d8" stroke-width="1"/>
<text x="58.0" y="347" text-anchor="middle" font-family="Arial, sans-serif" font-size="10" fill="#555555">0.2</text>
<line x1="202.5" y1="50" x2="202.5" y2="328" stroke="#d8d8d8" stroke-width="1"/>
<text x="202.5" y="347" text-anchor="middle" font-family="Arial, sans-serif" font-size="10" fill="#555555">2.65</text>
<line x1="347.0" y1="50" x2="347.0" y2="328" stroke="#d8d8d8" stroke-width="1"/>
<text x="347.0" y="347" text-anchor="middle" font-family="Arial, sans-serif" font-size="10" fill="#555555">5.1</text>
<line x1="491.5" y1="50" x2="491.5" y2="328" stroke="#d8d8d8" stroke-width="1"/>
<text x="491.5" y="347" text-anchor="middle" font-family="Arial, sans-serif" font-size="10" fill="#555555">7.55</text>
<line x1="636.0" y1="50" x2="636.0" y2="328" stroke="#d8d8d8" stroke-width="1"/>
<text x="636.0" y="347" text-anchor="middle" font-family="Arial, sans-serif" font-size="10" fill="#555555">10</text>
<line x1="58" y1="328.0" x2="636" y2="328.0" stroke="#d8d8d8" stroke-width="1"/>
<text x="50" y="331.0" text-anchor="end" font-family="Arial, sans-serif" font-size="10" fill="#555555">-0.26</text>
<line x1="58" y1="258.5" x2="636" y2="258.5" stroke="#d8d8d8" stroke-width="1"/>
<text x="50" y="261.5" text-anchor="end" font-family="Arial, sans-serif" font-size="10" fill="#555555">0.77</text>
<line x1="58" y1="189.0" x2="636" y2="189.0" stroke="#d8d8d8" stroke-width="1"/>
<text x="50" y="192.0" text-anchor="end" font-family="Arial, sans-serif" font-size="10" fill="#555555">1.8</text>
<line x1="58" y1="119.5" x2="636" y2="119.5" stroke="#d8d8d8" stroke-width="1"/>
<text x="50" y="122.5" text-anchor="end" font-family="Arial, sans-serif" font-size="10" fill="#555555">2.83</text>
<line x1="58" y1="50.0" x2="636" y2="50.0" stroke="#d8d8d8" stroke-width="1"/>
<text x="50" y="53.0" text-anchor="end" font-family="Arial, sans-serif" font-size="10" fill="#555555">3.86</text>
<line x1="58" y1="328" x2="636" y2="328" stroke="#202020" stroke-width="1"/>
<line x1="58" y1="50" x2="58" y2="328" stroke="#202020" stroke-width="1"/>
<text x="347.0" y="368" text-anchor="middle" font-family="Arial, sans-serif" font-size="11" fill="#555555">normalized frequency</text>
<text x="16" y="189.0" transform="rotate(-90 16 189.0)" text-anchor="middle" font-family="Arial, sans-serif" font-size="11" fill="#555555">spectral shape</text>
<polyline points="58.0,308.2 60.2,307.3 62.4,306.2 64.7,305.0 66.9,303.7 69.1,302.3 71.3,300.8 73.6,299.2 75.8,297.6 78.0,295.8 80.2,294.0 82.5,292.2 84.7,290.3 86.9,288.3 89.1,286.4 91.3,284.3 93.6,282.3 95.8,280.2 98.0,278.1 100.2,276.1 102.5,274.0 104.7,271.9 106.9,269.8 109.1,267.7 111.4,265.6 113.6,263.5 115.8,261.5 118.0,259.4 120.2,257.4 122.5,255.5 124.7,253.5 126.9,251.6 129.1,249.7 131.4,247.9 133.6,246.1 135.8,244.4 138.0,242.6 140.3,241.0 142.5,239.4 144.7,237.8 146.9,236.2 149.1,234.8 151.4,233.3 153.6,232.0 155.8,230.7 158.0,229.4 160.3,228.2 162.5,227.0 164.7,225.9 166.9,224.8 169.2,223.8 171.4,222.9 173.6,222.0 175.8,221.2 178.0,220.4 180.3,219.7 182.5,219.0 184.7,218.4 186.9,217.8 189.2,217.3 191.4,216.8 193.6,216.4 195.8,216.0 198.1,215.7 200.3,215.4 202.5,215.2 204.7,215.0 206.9,214.9 209.2,214.8 211.4,214.8 213.6,214.7 215.8,214.8 218.1,214.9 220.3,215.0 222.5,215.1 224.7,215.3 227.0,215.6 229.2,215.8 231.4,216.1 233.6,216.5 235.8,216.9 238.1,217.3 240.3,217.7 242.5,218.1 244.7,218.6 247.0,219.1 249.2,219.7 251.4,220.3 253.6,220.8 255.9,221.5 258.1,222.1 260.3,222.7 262.5,223.4 264.7,224.1 267.0,224.8 269.2,225.6 271.4,226.3 273.6,227.1 275.9,227.8 278.1,228.6 280.3,229.4 282.5,230.2 284.8,231.1 287.0,231.9 289.2,232.7 291.4,233.6 293.6,234.4 295.9,235.3 298.1,236.2 300.3,237.1 302.5,237.9 304.8,238.8 307.0,239.7 309.2,240.6 311.4,241.5 313.7,242.4 315.9,243.3 318.1,244.2 320.3,245.1 322.5,246.0 324.8,246.9 327.0,247.8 329.2,248.7 331.4,249.6 333.7,250.5 335.9,251.4 338.1,252.3 340.3,253.1 342.6,254.0 344.8,254.9 347.0,255.7 349.2,256.6 351.4,257.5 353.7,258.3 355.9,259.2 358.1,260.0 360.3,260.8 362.6,261.7 364.8,262.5 367.0,263.3 369.2,264.1 371.5,264.9 373.7,265.7 375.9,266.5 378.1,267.2 380.3,268.0 382.6,268.8 384.8,269.5 387.0,270.3 389.2,271.0 391.5,271.7 393.7,272.4 395.9,273.1 398.1,273.8 400.4,274.5 402.6,275.2 404.8,275.9 407.0,276.5 409.2,277.2 411.5,277.8 413.7,278.5 415.9,279.1 418.1,279.7 420.4,280.3 422.6,280.9 424.8,281.5 427.0,282.1 429.3,282.7 431.5,283.2 433.7,283.8 435.9,284.3 438.1,284.9 440.4,285.4 442.6,285.9 444.8,286.4 447.0,286.9 449.3,287.4 451.5,287.9 453.7,288.4 455.9,288.9 458.2,289.3 460.4,289.8 462.6,290.2 464.8,290.7 467.0,291.1 469.3,291.5 471.5,291.9 473.7,292.4 475.9,292.8 478.2,293.2 480.4,293.5 482.6,293.9 484.8,294.3 487.1,294.7 489.3,295.0 491.5,295.4 493.7,295.7 495.9,296.0 498.2,296.4 500.4,296.7 502.6,297.0 504.8,297.3 507.1,297.6 509.3,297.9 511.5,298.2 513.7,298.5 516.0,298.8 518.2,299.1 520.4,299.3 522.6,299.6 524.8,299.9 527.1,300.1 529.3,300.4 531.5,300.6 533.7,300.8 536.0,301.1 538.2,301.3 540.4,301.5 542.6,301.7 544.9,302.0 547.1,302.2 549.3,302.4 551.5,302.6 553.7,302.8 556.0,303.0 558.2,303.2 560.4,303.3 562.6,303.5 564.9,303.7 567.1,303.9 569.3,304.0 571.5,304.2 573.8,304.3 576.0,304.5 578.2,304.7 580.4,304.8 582.6,305.0 584.9,305.1 587.1,305.2 589.3,305.4 591.5,305.5 593.8,305.6 596.0,305.8 598.2,305.9 600.4,306.0 602.7,306.1 604.9,306.2 607.1,306.3 609.3,306.5 611.5,306.6 613.8,306.7 616.0,306.8 618.2,306.9 620.4,307.0 622.7,307.1 624.9,307.2 627.1,307.2 629.3,307.3 631.6,307.4 633.8,307.5 636.0,307.6" fill="none" stroke="#202020" stroke-width="2" stroke-linecap="round" stroke-linejoin="round"/>
<polyline points="58.0,308.8 60.2,308.1 62.4,307.3 64.7,306.4 66.9,305.3 69.1,304.2 71.3,303.0 73.6,301.7 75.8,300.3 78.0,298.8 80.2,297.3 82.5,295.7 84.7,294.0 86.9,292.2 89.1,290.4 91.3,288.5 93.6,286.6 95.8,284.6 98.0,282.6 100.2,280.5 102.5,278.4 104.7,276.2 106.9,274.0 109.1,271.8 111.4,269.5 113.6,267.2 115.8,264.8 118.0,262.5 120.2,260.1 122.5,257.6 124.7,255.2 126.9,252.7 129.1,250.3 131.4,247.8 133.6,245.3 135.8,242.7 138.0,240.2 140.3,237.7 142.5,235.1 144.7,232.6 146.9,230.0 149.1,227.5 151.4,224.9 153.6,222.3 155.8,219.8 158.0,217.2 160.3,214.7 162.5,212.1 164.7,209.6 166.9,207.1 169.2,204.5 171.4,202.0 173.6,199.5 175.8,197.0 178.0,194.6 180.3,192.1 182.5,189.7 184.7,187.2 186.9,184.8 189.2,182.4 191.4,180.0 193.6,177.6 195.8,175.3 198.1,173.0 200.3,170.7 202.5,168.4 204.7,166.1 206.9,163.9 209.2,161.6 211.4,159.4 213.6,157.3 215.8,155.1 218.1,153.0 220.3,150.9 222.5,148.8 224.7,146.7 227.0,144.7 229.2,142.7 231.4,140.7 233.6,138.8 235.8,136.8 238.1,134.9 240.3,133.1 242.5,131.2 244.7,129.4 247.0,127.6 249.2,125.8 251.4,124.1 253.6,122.4 255.9,120.7 258.1,119.1 260.3,117.4 262.5,115.9 264.7,114.3 267.0,112.7 269.2,111.2 271.4,109.8 273.6,108.3 275.9,106.9 278.1,105.5 280.3,104.1 282.5,102.8 284.8,101.5 287.0,100.2 289.2,98.9 291.4,97.7 293.6,96.5 295.9,95.3 298.1,94.2 300.3,93.1 302.5,92.0 304.8,90.9 307.0,89.9 309.2,88.9 311.4,87.9 313.7,87.0 315.9,86.0 318.1,85.1 320.3,84.3 322.5,83.4 324.8,82.6 327.0,81.8 329.2,81.1 331.4,80.3 333.7,79.6 335.9,78.9 338.1,78.3 340.3,77.6 342.6,77.0 344.8,76.4 347.0,75.9 349.2,75.3 351.4,74.8 353.7,74.3 355.9,73.9 358.1,73.4 360.3,73.0 362.6,72.6 364.8,72.2 367.0,71.9 369.2,71.6 371.5,71.2 373.7,71.0 375.9,70.7 378.1,70.5 380.3,70.2 382.6,70.0 384.8,69.9 387.0,69.7 389.2,69.6 391.5,69.5 393.7,69.4 395.9,69.3 398.1,69.2 400.4,69.2 402.6,69.2 404.8,69.2 407.0,69.2 409.2,69.2 411.5,69.3 413.7,69.4 415.9,69.4 418.1,69.6 420.4,69.7 422.6,69.8 424.8,70.0 427.0,70.2 429.3,70.3 431.5,70.6 433.7,70.8 435.9,71.0 438.1,71.3 440.4,71.5 442.6,71.8 444.8,72.1 447.0,72.4 449.3,72.8 451.5,73.1 453.7,73.5 455.9,73.8 458.2,74.2 460.4,74.6 462.6,75.0 464.8,75.4 467.0,75.9 469.3,76.3 471.5,76.8 473.7,77.3 475.9,77.7 478.2,78.2 480.4,78.7 482.6,79.2 484.8,79.8 487.1,80.3 489.3,80.9 491.5,81.4 493.7,82.0 495.9,82.6 498.2,83.1 500.4,83.7 502.6,84.3 504.8,85.0 507.1,85.6 509.3,86.2 511.5,86.9 513.7,87.5 516.0,88.2 518.2,88.8 520.4,89.5 522.6,90.2 524.8,90.9 527.1,91.6 529.3,92.3 531.5,93.0 533.7,93.7 536.0,94.4 538.2,95.2 540.4,95.9 542.6,96.6 544.9,97.4 547.1,98.1 549.3,98.9 551.5,99.7 553.7,100.4 556.0,101.2 558.2,102.0 560.4,102.8 562.6,103.6 564.9,104.4 567.1,105.2 569.3,106.0 571.5,106.8 573.8,107.6 576.0,108.4 578.2,109.2 580.4,110.0 582.6,110.9 584.9,111.7 587.1,112.5 589.3,113.4 591.5,114.2 593.8,115.1 596.0,115.9 598.2,116.7 600.4,117.6 602.7,118.5 604.9,119.3 607.1,120.2 609.3,121.0 611.5,121.9 613.8,122.8 616.0,123.6 618.2,124.5 620.4,125.4 622.7,126.2 624.9,127.1 627.1,128.0 629.3,128.8 631.6,129.7 633.8,130.6 636.0,131.5" fill="none" stroke="#8a3b12" stroke-width="2" stroke-dasharray="6 5" stroke-linecap="round" stroke-linejoin="round"/>
<circle cx="58.0" cy="308.2" r="3.2" fill="#111111"/>
<circle cx="98.1" cy="278.1" r="3.2" fill="#111111"/>
<circle cx="138.2" cy="242.5" r="3.2" fill="#111111"/>
<circle cx="178.3" cy="220.3" r="3.2" fill="#111111"/>
<circle cx="218.4" cy="214.9" r="3.2" fill="#111111"/>
<circle cx="258.5" cy="222.2" r="3.2" fill="#111111"/>
<circle cx="298.6" cy="236.4" r="3.2" fill="#111111"/>
<circle cx="338.7" cy="252.5" r="3.2" fill="#111111"/>
<circle cx="378.8" cy="267.5" r="3.2" fill="#111111"/>
<circle cx="419.0" cy="279.9" r="3.2" fill="#111111"/>
<circle cx="459.1" cy="289.5" r="3.2" fill="#111111"/>
<line x1="446" y1="62" x2="472" y2="62" stroke="#202020" stroke-width="2"/>
<text x="480" y="66" font-family="Arial, sans-serif" font-size="11" fill="#202020">target</text>
<line x1="446" y1="80" x2="472" y2="80" stroke="#8a3b12" stroke-width="2" stroke-dasharray="6 5"/>
<text x="480" y="84" font-family="Arial, sans-serif" font-size="11" fill="#202020">candidate</text>
<circle cx="459" cy="98" r="3.2" fill="#111111"/>
<text x="480" y="102" font-family="Arial, sans-serif" font-size="11" fill="#202020">training samples</text>
</svg>
