<?xml version="1.0" encoding="UTF-8"?>
<svg xmlns="http://www.w3.org/2000/svg" width="660" height="380" viewBox="0 0 660 380" role="img" aria-labelledby="title desc">
<title id="title">Michaelis-Menten saturation</title>
<desc id="desc">Target samples and candidate diagnostic curve for Michaelis-Menten saturation.</desc>
<rect width="100%" height="100%" fill="#ffffff"/>
<text x="58" y="26" font-family="Arial, sans-serif" font-size="18" font-weight="700" fill="#202020">Michaelis-Menten saturation</text>
<text x="58" y="45" font-family="Arial, sans-serif" font-size="12" fill="#555555">good: same-AST warm-start overlay</text>
<line x1="58.0" y1="50" x2="58.0" y2="328" stroke="#d8d8d8" stroke-width="1"/>
<text x="58.0" y="347" text-anchor="middle" font-family="Arial, sans-serif" font-size="10" fill="#555555">0.05</text>
<line x1="202.5" y1="50" x2="202.5" y2="328" stroke="#d8d8d8" stroke-width="1"/>
<text x="202.5" y="347" text-anchor="middle" font-family="Arial, sans-serif" font-size="10" fill="#555555">1.79</text>
<line x1="347.0" y1="50" x2="347.0" y2="328" stroke="#d8d8d8" stroke-width="1"/>
<text x="347.0" y="347" text-anchor="middle" font-family="Arial, sans-serif" font-size="10" fill="#555555">3.52</text>
<line x1="491.5" y1="50" x2="491.5" y2="328" stroke="#d8d8d8" stroke-width="1"/>
<text x="491.5" y="347" text-anchor="middle" font-family="Arial, sans-serif" font-size="10" fill="#555555">5.26</text>
<line x1="636.0" y1="50" x2="636.0" y2="328" stroke="#d8d8d8" stroke-width="1"/>
<text x="636.0" y="347" text-anchor="middle" font-family="Arial, sans-serif" font-size="10" fill="#555555">7</text>
<line x1="58" y1="328.0" x2="636" y2="328.0" stroke="#d8d8d8" stroke-width="1"/>
<text x="50" y="331.0" text-anchor="end" font-family="Arial, sans-serif" font-size="10" fill="#555555">0</text>
<line x1="58" y1="258.5" x2="636" y2="258.5" stroke="#d8d8d8" stroke-width="1"/>
<text x="50" y="261.5" text-anchor="end" font-family="Arial, sans-serif" font-size="10" fill="#555555">0.5</text>
<line x1="58" y1="189.0" x2="636" y2="189.0" stroke="#d8d8d8" stroke-width="1"/>
<text x="50" y="192.0" text-anchor="end" font-family="Arial, sans-serif" font-size="10" fill="#555555">1</text>
<line x1="58" y1="119.5" x2="636" y2="119.5" stroke="#d8d8d8" stroke-width="1"/>
<text x="50" y="122.5" text-anchor="end" font-family="Arial, sans-serif" font-size="10" fill="#555555">1.5</text>
<line x1="58" y1="50.0" x2="636" y2="50.0" stroke="#d8d8d8" stroke-width="1"/>
<text x="50" y="53.0" text-anchor="end" font-family="Arial, sans-serif" font-size="10" fill="#555555">2</text>
<line x1="58" y1="328" x2="636" y2="328" stroke="#202020" stroke-width="1"/>
<line x1="58" y1="50" x2="58" y2="328" stroke="#202020" stroke-width="1"/>
<text x="347.0" y="368" text-anchor="middle" font-family="Arial, sans-serif" font-size="11" fill="#555555">normalized substrate</text>
<text x="16" y="189.0" transform="rotate(-90 16 189.0)" text-anchor="middle" font-family="Arial, sans-serif" font-size="11" fill="#555555">reaction rate</text>
<polyline points="58.0,302.7 60.2,291.0 62.4,280.4 64.7,270.6 66.9,261.6 69.1,253.4 71.3,245.7 73.6,238.6 75.8,232.0 78.0,225.9 80.2,220.1 82.5,214.8 84.7,209.7 86.9,205.0 89.1,200.5 91.3,196.3 93.6,192.3 95.8,188.5 98.0,184.9 100.2,181.5 102.5,178.3 104.7,175.2 106.9,172.2 109.1,169.4 111.4,166.8 113.6,164.2 115.8,161.8 118.0,159.4 120.2,157.2 122.5,155.0 124.7,152.9 126.9,151.0 129.1,149.0 131.4,147.2 133.6,145.4 135.8,143.7 138.0,142.0 140.3,140.5 142.5,138.9 144.7,137.4 146.9,136.0 149.1,134.6 151.4,133.2 153.6,131.9 155.8,130.7 158.0,129.4 160.3,128.3 162.5,127.1 164.7,126.0 166.9,124.9 169.2,123.8 171.4,122.8 173.6,121.8 175.8,120.8 178.0,119.9 180.3,119.0 182.5,118.1 184.7,117.2 186.9,116.3 189.2,115.5 191.4,114.7 193.6,113.9 195.8,113.1 198.1,112.4 200.3,111.6 202.5,110.9 204.7,110.2 206.9,109.5 209.2,108.9 211.4,108.2 213.6,107.6 215.8,106.9 218.1,106.3 220.3,105.7 222.5,105.1 224.7,104.6 227.0,104.0 229.2,103.5 231.4,102.9 233.6,102.4 235.8,101.9 238.1,101.4 240.3,100.9 242.5,100.4 244.7,99.9 247.0,99.4 249.2,99.0 251.4,98.5 253.6,98.1 255.9,97.6 258.1,97.2 260.3,96.8 262.5,96.4 264.7,96.0 267.0,95.6 269.2,95.2 271.4,94.8 273.6,94.4 275.9,94.0 278.1,93.7 280.3,93.3 282.5,92.9 284.8,92.6 287.0,92.3 289.2,91.9 291.4,91.6 293.6,91.3 295.9,90.9 298.1,90.6 300.3,90.3 302.5,90.0 304.8,89.7 307.0,89.4 309.2,89.1 311.4,88.8 313.7,88.5 315.9,88.2 318.1,88.0 320.3,87.7 322.5,87.4 324.8,87.2 327.0,86.9 329.2,86.6 331.4,86.4 333.7,86.1 335.9,85.9 338.1,85.7 340.3,85.4 342.6,85.2 344.8,84.9 347.0,84.7 349.2,84.5 351.4,84.3 353.7,84.0 355.9,83.8 358.1,83.6 360.3,83.4 362.6,83.2 364.8,83.0 367.0,82.8 369.2,82.6 371.5,82.4 373.7,82.2 375.9,82.0 378.1,81.8 380.3,81.6 382.6,81.4 384.8,81.2 387.0,81.0 389.2,80.8 391.5,80.7 393.7,80.5 395.9,80.3 398.1,80.1 400.4,80.0 402.6,79.8 404.8,79.6 407.0,79.5 409.2,79.3 411.5,79.1 413.7,79.0 415.9,78.8 418.1,78.7 420.4,78.5 422.6,78.4 424.8,78.2 427.0,78.1 429.3,77.9 431.5,77.8 433.7,77.6 435.9,77.5 438.1,77.3 440.4,77.2 442.6,77.0 444.8,76.9 447.0,76.8 449.3,76.6 451.5,76.5 453.7,76.4 455.9,76.2 458.2,76.1 460.4,76.0 462.6,75.9 464.8,75.7 467.0,75.6 469.3,75.5 471.5,75.4 473.7,75.2 475.9,75.1 478.2,75.0 480.4,74.9 482.6,74.8 484.8,74.6 487.1,74.5 489.3,74.4 491.5,74.3 493.7,74.2 495.9,74.1 498.2,74.0 500.4,73.9 502.6,73.8 504.8,73.7 507.1,73.5 509.3,73.4 511.5,73.3 513.7,73.2 516.0,73.1 518.2,73.0 520.4,72.9 522.6,72.8 524.8,72.7 527.1,72.6 529.3,72.5 531.5,72.4 533.7,72.4 536.0,72.3 538.2,72.2 540.4,72.1 542.6,72.0 544.9,71.9 547.1,71.8 549.3,71.7 551.5,71.6 553.7,71.5 556.0,71.4 558.2,71.4 560.4,71.3 562.6,71.2 564.9,71.1 567.1,71.0 569.3,70.9 571.5,70.9 573.8,70.8 576.0,70.7 578.2,70.6 580.4,70.5 582.6,70.5 584.9,70.4 587.1,70.3 589.3,70.2 591.5,70.1 593.8,70.1 596.0,70.0 598.2,69.9 600.4,69.8 602.7,69.8 604.9,69.7 607.1,69.6 609.3,69.5 611.5,69.5 613.8,69.4 616.0,69.3 618.2,69.3 620.4,69.2 622.7,69.1 624.9,69.1 627.1,69.0 629.3,68.9 631.6,68.9 633.8,68.8 636.0,68.7" fill="none" stroke="#202020" stroke-width="2" stroke-linecap="round" stroke-linejoin="round"/>
<polyline points="58.0,302.7 60.2,291.0 62.4,280.4 64.7,270.6 66.9,261.6 69.1,253.4 71.3,245.7 73.6,238.6 75.8,232.0 78.0,225.9 80.2,220.1 82.5,214.8 84.7,209.7 86.9,205.0 89.1,200.5 91.3,196.3 93.6,192.3 95.8,188.5 98.0,184.9 100.2,181.5 102.5,178.3 104.7,175.2 106.9,172.2 109.1,169.4 111.4,166.8 113.6,164.2 115.8,161.8 118.0,159.4 120.2,157.2 122.5,155.0 124.7,152.9 126.9,151.0 129.1,149.0 131.4,147.2 133.6,145.4 135.8,143.7 138.0,142.0 140.3,140.5 142.5,138.9 144.7,137.4 146.9,136.0 149.1,134.6 151.4,133.2 153.6,131.9 155.8,130.7 158.0,129.4 160.3,128.3 162.5,127.1 164.7,126.0 166.9,124.9 169.2,123.8 171.4,122.8 173.6,121.8 175.8,120.8 178.0,119.9 180.3,119.0 182.5,118.1 184.7,117.2 186.9,116.3 189.2,115.5 191.4,114.7 193.6,113.9 195.8,113.1 198.1,112.4 200.3,111.6 202.5,110.9 204.7,110.2 206.9,109.5 209.2,108.9 211.4,108.2 213.6,107.6 215.8,106.9 218.1,106.3 220.3,105.7 222.5,105.1 224.7,104.6 227.0,104.0 229.2,103.5 231.4,102.9 233.6,102.4 235.8,101.9 238.1,101.4 240.3,100.9 242.5,100.4 244.7,99.9 247.0,99.4 249.2,99.0 251.4,98.5 253.6,98.1 255.9,97.6 258.1,97.2 260.3,96.8 262.5,96.4 264.7,96.0 267.0,95.6 269.2,95.2 271.4,94.8 273.6,94.4 275.9,94.0 278.1,93.7 280.3,93.3 282.5,92.9 284.8,92.6 287.0,92.3 289.2,91.9 291.4,91.6 293.6,91.3 295.9,90.9 298.1,90.6 300.3,90.3 302.5,90.0 304.8,89.7 307.0,89.4 309.2,89.1 311.4,88.8 313.7,88.5 315.9,88.2 318.1,88.0 320.3,87.7 322.5,87.4 324.8,87.2 327.0,86.9 329.2,86.6 331.4,86.4 333.7,86.1 335.9,85.9 338.1,85.7 340.3,85.4 342.6,85.2 344.8,84.9 347.0,84.7 349.2,84.5 351.4,84.3 353.7,84.0 355.9,83.8 358.1,83.6 360.3,83.4 362.6,83.2 364.8,83.0 367.0,82.8 369.2,82.6 371.5,82.4 373.7,82.2 375.9,82.0 378.1,81.8 380.3,81.6 382.6,81.4 384.8,81.2 387.0,81.0 389.2,80.8 391.5,80.7 393.7,80.5 395.9,80.3 398.1,80.1 400.4,80.0 402.6,79.8 404.8,79.6 407.0,79.5 409.2,79.3 411.5,79.1 413.7,79.0 415.9,78.8 418.1,78.7 420.4,78.5 422.6,78.4 424.8,78.2 427.0,78.1 429.3,77.9 431.5,77.8 433.7,77.6 435.9,77.5 438.1,77.3 440.4,77.2 442.6,77.0 444.8,76.9 447.0,76.8 449.3,76.6 451.5,76.5 453.7,76.4 455.9,76.2 458.2,76.1 460.4,76.0 462.6,75.9 464.8,75.7 467.0,75.6 469.3,75.5 471.5,75.4 473.7,75.2 475.9,75.1 478.2,75.0 480.4,74.9 482.6,74.8 484.8,74.6 487.1,74.5 489.3,74.4 491.5,74.3 493.7,74.2 495.9,74.1 498.2,74.0 500.4,73.9 502.6,73.8 504.8,73.7 507.1,73.5 509.3,73.4 511.5,73.3 513.7,73.2 516.0,73.1 518.2,73.0 520.4,72.9 522.6,72.8 524.8,72.7 527.1,72.6 529.3,72.5 531.5,72.4 533.7,72.4 536.0,72.3 538.2,72.2 540.4,72.1 542.6,72.0 544.9,71.9 547.1,71.8 549.3,71.7 551.5,71.6 553.7,71.5 556.0,71.4 558.2,71.4 560.4,71.3 562.6,71.2 564.9,71.1 567.1,71.0 569.3,70.9 571.5,70.9 573.8,70.8 576.0,70.7 578.2,70.6 580.4,70.5 582.6,70.5 584.9,70.4 587.1,70.3 589.3,70.2 591.5,70.1 593.8,70.1 596.0,70.0 598.2,69.9 600.4,69.8 602.7,69.8 604.9,69.7 607.1,69.6 609.3,69.5 611.5,69.5 613.8,69.4 616.0,69.3 618.2,69.3 620.4,69.2 622.7,69.1 624.9,69.1 627.1,69.0 629.3,68.9 631.6,68.9 633.8,68.8 636.0,68.7" fill="none" stroke="#1f4e79" stroke-width="2" stroke-dasharray="6 5" stroke-linecap="round" stroke-linejoin="round"/>
<circle cx="58.0" cy="302.7" r="3.2" fill="#111111"/>
<circle cx="99.2" cy="183.1" r="3.2" fill="#111111"/>
<circle cx="140.3" cy="140.4" r="3.2" fill="#111111"/>
<circle cx="181.5" cy="118.5" r="3.2" fill="#111111"/>
<circle cx="222.7" cy="105.1" r="3.2" fill="#111111"/>
<circle cx="263.8" cy="96.1" r="3.2" fill="#111111"/>
<circle cx="305.0" cy="89.7" r="3.2" fill="#111111"/>
<circle cx="346.2" cy="84.8" r="3.2" fill="#111111"/>
<circle cx="387.3" cy="81.0" r="3.2" fill="#111111"/>
<circle cx="428.5" cy="78.0" r="3.2" fill="#111111"/>
<circle cx="469.7" cy="75.5" r="3.2" fill="#111111"/>
<line x1="446" y1="62" x2="472" y2="62" stroke="#202020" stroke-width="2"/>
<text x="480" y="66" font-family="Arial, sans-serif" font-size="11" fill="#202020">target</text>
<line x1="446" y1="80" x2="472" y2="80" stroke="#1f4e79" stroke-width="2" stroke-dasharray="6 5"/>
<text x="480" y="84" font-family="Arial, sans-serif" font-size="11" fill="#202020">candidate</text>
<circle cx="459" cy="98" r="3.2" fill="#111111"/>
<text x="480" y="102" font-family="Arial, sans-serif" font-size="11" fill="#202020">training samples</text>
</svg>
