<?xml version="1.0" encoding="UTF-8"?>
<svg xmlns="http://www.w3.org/2000/svg" width="720" height="420" viewBox="0 0 720 420" role="img" aria-labelledby="title desc">
<title id="title">Normalized Planck spectrum</title>
<desc id="desc">Training samples and candidate curve for Normalized Planck spectrum.</desc>
<rect width="720" height="420" fill="#ffffff"/>
<rect x="18" y="18" width="684" height="384" rx="8" fill="#f8fafc" stroke="#d0d7de"/>
<text x="36" y="42" font-family="Arial, sans-serif" font-size="22" font-weight="700" fill="#111827">Normalized Planck spectrum</text>
<text x="36" y="65" font-family="Arial, sans-serif" font-size="13" fill="#4b5563">stretch diagnostic: verifies as a catalog curve, not recovered EML</text>
<text x="520" y="42" font-family="Arial, sans-serif" font-size="12" fill="#111827">stretch target, gated honestly</text>
<line x1="64.00" y1="58" x2="64.00" y2="362" stroke="#e5e7eb" stroke-width="1"/>
<text x="64.00" y="386" text-anchor="middle" font-family="Arial, sans-serif" font-size="11" fill="#4b5563">0.2</text>
<line x1="221.00" y1="58" x2="221.00" y2="362" stroke="#e5e7eb" stroke-width="1"/>
<text x="221.00" y="386" text-anchor="middle" font-family="Arial, sans-serif" font-size="11" fill="#4b5563">2.65</text>
<line x1="378.00" y1="58" x2="378.00" y2="362" stroke="#e5e7eb" stroke-width="1"/>
<text x="378.00" y="386" text-anchor="middle" font-family="Arial, sans-serif" font-size="11" fill="#4b5563">5.1</text>
<line x1="535.00" y1="58" x2="535.00" y2="362" stroke="#e5e7eb" stroke-width="1"/>
<text x="535.00" y="386" text-anchor="middle" font-family="Arial, sans-serif" font-size="11" fill="#4b5563">7.55</text>
<line x1="692.00" y1="58" x2="692.00" y2="362" stroke="#e5e7eb" stroke-width="1"/>
<text x="692.00" y="386" text-anchor="middle" font-family="Arial, sans-serif" font-size="11" fill="#4b5563">10</text>
<line x1="64" y1="362.00" x2="692" y2="362.00" stroke="#e5e7eb" stroke-width="1"/>
<text x="54" y="366.00" text-anchor="end" font-family="Arial, sans-serif" font-size="11" fill="#4b5563">0</text>
<line x1="64" y1="286.00" x2="692" y2="286.00" stroke="#e5e7eb" stroke-width="1"/>
<text x="54" y="290.00" text-anchor="end" font-family="Arial, sans-serif" font-size="11" fill="#4b5563">0.4</text>
<line x1="64" y1="210.00" x2="692" y2="210.00" stroke="#e5e7eb" stroke-width="1"/>
<text x="54" y="214.00" text-anchor="end" font-family="Arial, sans-serif" font-size="11" fill="#4b5563">0.79</text>
<line x1="64" y1="134.00" x2="692" y2="134.00" stroke="#e5e7eb" stroke-width="1"/>
<text x="54" y="138.00" text-anchor="end" font-family="Arial, sans-serif" font-size="11" fill="#4b5563">1.19</text>
<line x1="64" y1="58.00" x2="692" y2="58.00" stroke="#e5e7eb" stroke-width="1"/>
<text x="54" y="62.00" text-anchor="end" font-family="Arial, sans-serif" font-size="11" fill="#4b5563">1.59</text>
<line x1="64" y1="362" x2="692" y2="362" stroke="#111827" stroke-width="1.4"/>
<line x1="64" y1="58" x2="64" y2="362" stroke="#111827" stroke-width="1.4"/>
<text x="378.00" y="404" text-anchor="middle" font-family="Arial, sans-serif" font-size="12" fill="#374151">normalized frequency</text>
<text x="18" y="210.00" transform="rotate(-90 18 210.00)" text-anchor="middle" font-family="Arial, sans-serif" font-size="12" fill="#374151">spectral shape</text>
<polyline points="64.00,355.08 66.85,351.89 69.71,348.20 72.56,344.04 75.42,339.47 78.27,334.51 81.13,329.20 83.98,323.59 86.84,317.70 89.69,311.56 92.55,305.22 95.40,298.70 98.25,292.03 101.11,285.23 103.96,278.34 106.82,271.37 109.67,264.36 112.53,257.32 115.38,250.28 118.24,243.25 121.09,236.26 123.95,229.32 126.80,222.45 129.65,215.66 132.51,208.98 135.36,202.40 138.22,195.96 141.07,189.64 143.93,183.48 146.78,177.48 149.64,171.64 152.49,165.97 155.35,160.49 158.20,155.19 161.05,150.09 163.91,145.18 166.76,140.48 169.62,135.99 172.47,131.70 175.33,127.62 178.18,123.76 181.04,120.11 183.89,116.68 186.75,113.46 189.60,110.45 192.45,107.66 195.31,105.09 198.16,102.72 201.02,100.56 203.87,98.62 206.73,96.87 209.58,95.33 212.44,93.98 215.29,92.84 218.15,91.88 221.00,91.11 223.85,90.52 226.71,90.12 229.56,89.89 232.42,89.83 235.27,89.94 238.13,90.21 240.98,90.63 243.84,91.21 246.69,91.94 249.55,92.81 252.40,93.81 255.25,94.95 258.11,96.22 260.96,97.61 263.82,99.11 266.67,100.73 269.53,102.46 272.38,104.29 275.24,106.21 278.09,108.23 280.95,110.34 283.80,112.53 286.65,114.80 289.51,117.14 292.36,119.56 295.22,122.04 298.07,124.58 300.93,127.18 303.78,129.83 306.64,132.53 309.49,135.27 312.35,138.06 315.20,140.88 318.05,143.74 320.91,146.62 323.76,149.54 326.62,152.47 329.47,155.43 332.33,158.41 335.18,161.39 338.04,164.39 340.89,167.40 343.75,170.42 346.60,173.43 349.45,176.45 352.31,179.47 355.16,182.48 358.02,185.49 360.87,188.48 363.73,191.47 366.58,194.45 369.44,197.41 372.29,200.36 375.15,203.29 378.00,206.20 380.85,209.09 383.71,211.95 386.56,214.80 389.42,217.62 392.27,220.42 395.13,223.19 397.98,225.93 400.84,228.64 403.69,231.33 406.55,233.98 409.40,236.61 412.25,239.20 415.11,241.76 417.96,244.29 420.82,246.79 423.67,249.25 426.53,251.68 429.38,254.07 432.24,256.43 435.09,258.76 437.95,261.05 440.80,263.30 443.65,265.52 446.51,267.71 449.36,269.85 452.22,271.97 455.07,274.05 457.93,276.09 460.78,278.10 463.64,280.07 466.49,282.00 469.35,283.91 472.20,285.77 475.05,287.61 477.91,289.40 480.76,291.17 483.62,292.90 486.47,294.60 489.33,296.26 492.18,297.89 495.04,299.49 497.89,301.05 500.75,302.58 503.60,304.09 506.45,305.56 509.31,307.00 512.16,308.40 515.02,309.78 517.87,311.13 520.73,312.45 523.58,313.74 526.44,315.00 529.29,316.24 532.15,317.44 535.00,318.62 537.85,319.77 540.71,320.90 543.56,322.00 546.42,323.07 549.27,324.12 552.13,325.15 554.98,326.15 557.84,327.12 560.69,328.08 563.55,329.01 566.40,329.92 569.25,330.80 572.11,331.66 574.96,332.51 577.82,333.33 580.67,334.13 583.53,334.91 586.38,335.67 589.24,336.41 592.09,337.14 594.95,337.84 597.80,338.53 600.65,339.20 603.51,339.85 606.36,340.49 609.22,341.10 612.07,341.71 614.93,342.29 617.78,342.86 620.64,343.42 623.49,343.96 626.35,344.49 629.20,345.00 632.05,345.50 634.91,345.98 637.76,346.46 640.62,346.91 643.47,347.36 646.33,347.80 649.18,348.22 652.04,348.63 654.89,349.03 657.75,349.42 660.60,349.79 663.45,350.16 666.31,350.52 669.16,350.87 672.02,351.20 674.87,351.53 677.73,351.85 680.58,352.16 683.44,352.46 686.29,352.75 689.15,353.03 692.00,353.31" fill="none" stroke="#9ca3af" stroke-width="6" stroke-linecap="round" stroke-linejoin="round" opacity="0.8"/>
<polyline points="64.00,355.08 66.85,351.89 69.71,348.20 72.56,344.04 75.42,339.47 78.27,334.51 81.13,329.20 83.98,323.59 86.84,317.70 89.69,311.56 92.55,305.22 95.40,298.70 98.25,292.03 101.11,285.23 103.96,278.34 106.82,271.37 109.67,264.36 112.53,257.32 115.38,250.28 118.24,243.25 121.09,236.26 123.95,229.32 126.80,222.45 129.65,215.66 132.51,208.98 135.36,202.40 138.22,195.96 141.07,189.64 143.93,183.48 146.78,177.48 149.64,171.64 152.49,165.97 155.35,160.49 158.20,155.19 161.05,150.09 163.91,145.18 166.76,140.48 169.62,135.99 172.47,131.70 175.33,127.62 178.18,123.76 181.04,120.11 183.89,116.68 186.75,113.46 189.60,110.45 192.45,107.66 195.31,105.09 198.16,102.72 201.02,100.56 203.87,98.62 206.73,96.87 209.58,95.33 212.44,93.98 215.29,92.84 218.15,91.88 221.00,91.11 223.85,90.52 226.71,90.12 229.56,89.89 232.42,89.83 235.27,89.94 238.13,90.21 240.98,90.63 243.84,91.21 246.69,91.94 249.55,92.81 252.40,93.81 255.25,94.95 258.11,96.22 260.96,97.61 263.82,99.11 266.67,100.73 269.53,102.46 272.38,104.29 275.24,106.21 278.09,108.23 280.95,110.34 283.80,112.53 286.65,114.80 289.51,117.14 292.36,119.56 295.22,122.04 298.07,124.58 300.93,127.18 303.78,129.83 306.64,132.53 309.49,135.27 312.35,138.06 315.20,140.88 318.05,143.74 320.91,146.62 323.76,149.54 326.62,152.47 329.47,155.43 332.33,158.41 335.18,161.39 338.04,164.39 340.89,167.40 343.75,170.42 346.60,173.43 349.45,176.45 352.31,179.47 355.16,182.48 358.02,185.49 360.87,188.48 363.73,191.47 366.58,194.45 369.44,197.41 372.29,200.36 375.15,203.29 378.00,206.20 380.85,209.09 383.71,211.95 386.56,214.80 389.42,217.62 392.27,220.42 395.13,223.19 397.98,225.93 400.84,228.64 403.69,231.33 406.55,233.98 409.40,236.61 412.25,239.20 415.11,241.76 417.96,244.29 420.82,246.79 423.67,249.25 426.53,251.68 429.38,254.07 432.24,256.43 435.09,258.76 437.95,261.05 440.80,263.30 443.65,265.52 446.51,267.71 449.36,269.85 452.22,271.97 455.07,274.05 457.93,276.09 460.78,278.10 463.64,280.07 466.49,282.00 469.35,283.91 472.20,285.77 475.05,287.61 477.91,289.40 480.76,291.17 483.62,292.90 486.47,294.60 489.33,296.26 492.18,297.89 495.04,299.49 497.89,301.05 500.75,302.58 503.60,304.09 506.45,305.56 509.31,307.00 512.16,308.40 515.02,309.78 517.87,311.13 520.73,312.45 523.58,313.74 526.44,315.00 529.29,316.24 532.15,317.44 535.00,318.62 537.85,319.77 540.71,320.90 543.56,322.00 546.42,323.07 549.27,324.12 552.13,325.15 554.98,326.15 557.84,327.12 560.69,328.08 563.55,329.01 566.40,329.92 569.25,330.80 572.11,331.66 574.96,332.51 577.82,333.33 580.67,334.13 583.53,334.91 586.38,335.67 589.24,336.41 592.09,337.14 594.95,337.84 597.80,338.53 600.65,339.20 603.51,339.85 606.36,340.49 609.22,341.10 612.07,341.71 614.93,342.29 617.78,342.86 620.64,343.42 623.49,343.96 626.35,344.49 629.20,345.00 632.05,345.50 634.91,345.98 637.76,346.46 640.62,346.91 643.47,347.36 646.33,347.80 649.18,348.22 652.04,348.63 654.89,349.03 657.75,349.42 660.60,349.79 663.45,350.16 666.31,350.52 669.16,350.87 672.02,351.20 674.87,351.53 677.73,351.85 680.58,352.16 683.44,352.46 686.29,352.75 689.15,353.03 692.00,353.31" fill="none" stroke="#6d28d9" stroke-width="3" stroke-dasharray="9 6" stroke-linecap="round" stroke-linejoin="round"/>
<circle cx="64.00" cy="355.08" r="4.3" fill="#111827" stroke="#ffffff" stroke-width="1.5"/>
<circle cx="103.61" cy="279.19" r="4.3" fill="#111827" stroke="#ffffff" stroke-width="1.5"/>
<circle cx="143.23" cy="184.98" r="4.3" fill="#111827" stroke="#ffffff" stroke-width="1.5"/>
<circle cx="182.84" cy="117.91" r="4.3" fill="#111827" stroke="#ffffff" stroke-width="1.5"/>
<circle cx="222.46" cy="90.79" r="4.3" fill="#111827" stroke="#ffffff" stroke-width="1.5"/>
<circle cx="262.07" cy="98.18" r="4.3" fill="#111827" stroke="#ffffff" stroke-width="1.5"/>
<circle cx="301.68" cy="127.88" r="4.3" fill="#111827" stroke="#ffffff" stroke-width="1.5"/>
<circle cx="341.30" cy="167.83" r="4.3" fill="#111827" stroke="#ffffff" stroke-width="1.5"/>
<circle cx="380.91" cy="209.14" r="4.3" fill="#111827" stroke="#ffffff" stroke-width="1.5"/>
<circle cx="420.53" cy="246.53" r="4.3" fill="#111827" stroke="#ffffff" stroke-width="1.5"/>
<circle cx="460.14" cy="277.65" r="4.3" fill="#111827" stroke="#ffffff" stroke-width="1.5"/>
<circle cx="499.76" cy="302.06" r="4.3" fill="#111827" stroke="#ffffff" stroke-width="1.5"/>
<rect x="68" y="61" width="245" height="70" rx="6" fill="#ffffff" opacity="0.92" stroke="#e5e7eb"/>
<line x1="78" y1="76" x2="112" y2="76" stroke="#9ca3af" stroke-width="5"/>
<text x="122" y="80" font-family="Arial, sans-serif" font-size="12" fill="#111827">target function</text>
<line x1="78" y1="98" x2="112" y2="98" stroke="#6d28d9" stroke-width="3" stroke-dasharray="8 5"/>
<text x="122" y="102" font-family="Arial, sans-serif" font-size="12" fill="#111827">candidate curve</text>
<circle cx="95" cy="120" r="4" fill="#111827"/>
<text x="122" y="124" font-family="Arial, sans-serif" font-size="12" fill="#111827">training samples</text>
</svg>
