<?xml version="1.0" encoding="UTF-8"?>
<svg xmlns="http://www.w3.org/2000/svg" width="660" height="380" viewBox="0 0 660 380" role="img" aria-labelledby="title desc">
<title id="title">Beer-Lambert decay</title>
<desc id="desc">Target samples and candidate diagnostic curve for Beer-Lambert decay.</desc>
<rect width="100%" height="100%" fill="#ffffff"/>
<text x="58" y="26" font-family="Arial, sans-serif" font-size="18" font-weight="700" fill="#202020">Beer-Lambert decay</text>
<text x="58" y="45" font-family="Arial, sans-serif" font-size="12" fill="#555555">good: verified warm-start overlay</text>
<line x1="58.0" y1="50" x2="58.0" y2="328" stroke="#d8d8d8" stroke-width="1"/>
<text x="58.0" y="347" text-anchor="middle" font-family="Arial, sans-serif" font-size="10" fill="#555555">0</text>
<line x1="202.5" y1="50" x2="202.5" y2="328" stroke="#d8d8d8" stroke-width="1"/>
<text x="202.5" y="347" text-anchor="middle" font-family="Arial, sans-serif" font-size="10" fill="#555555">1.12</text>
<line x1="347.0" y1="50" x2="347.0" y2="328" stroke="#d8d8d8" stroke-width="1"/>
<text x="347.0" y="347" text-anchor="middle" font-family="Arial, sans-serif" font-size="10" fill="#555555">2.25</text>
<line x1="491.5" y1="50" x2="491.5" y2="328" stroke="#d8d8d8" stroke-width="1"/>
<text x="491.5" y="347" text-anchor="middle" font-family="Arial, sans-serif" font-size="10" fill="#555555">3.38</text>
<line x1="636.0" y1="50" x2="636.0" y2="328" stroke="#d8d8d8" stroke-width="1"/>
<text x="636.0" y="347" text-anchor="middle" font-family="Arial, sans-serif" font-size="10" fill="#555555">4.5</text>
<line x1="58" y1="328.0" x2="636" y2="328.0" stroke="#d8d8d8" stroke-width="1"/>
<text x="50" y="331.0" text-anchor="end" font-family="Arial, sans-serif" font-size="10" fill="#555555">-0.05</text>
<line x1="58" y1="258.5" x2="636" y2="258.5" stroke="#d8d8d8" stroke-width="1"/>
<text x="50" y="261.5" text-anchor="end" font-family="Arial, sans-serif" font-size="10" fill="#555555">0.23</text>
<line x1="58" y1="189.0" x2="636" y2="189.0" stroke="#d8d8d8" stroke-width="1"/>
<text x="50" y="192.0" text-anchor="end" font-family="Arial, sans-serif" font-size="10" fill="#555555">0.51</text>
<line x1="58" y1="119.5" x2="636" y2="119.5" stroke="#d8d8d8" stroke-width="1"/>
<text x="50" y="122.5" text-anchor="end" font-family="Arial, sans-serif" font-size="10" fill="#555555">0.8</text>
<line x1="58" y1="50.0" x2="636" y2="50.0" stroke="#d8d8d8" stroke-width="1"/>
<text x="50" y="53.0" text-anchor="end" font-family="Arial, sans-serif" font-size="10" fill="#555555">1.08</text>
<line x1="58" y1="328" x2="636" y2="328" stroke="#202020" stroke-width="1"/>
<line x1="58" y1="50" x2="58" y2="328" stroke="#202020" stroke-width="1"/>
<text x="347.0" y="368" text-anchor="middle" font-family="Arial, sans-serif" font-size="11" fill="#555555">normalized path length</text>
<text x="16" y="189.0" transform="rotate(-90 16 189.0)" text-anchor="middle" font-family="Arial, sans-serif" font-size="11" fill="#555555">intensity</text>
<polyline points="58.0,69.2 60.2,72.6 62.4,75.9 64.7,79.2 66.9,82.4 69.1,85.7 71.3,88.8 73.6,91.9 75.8,95.0 78.0,98.0 80.2,101.0 82.5,104.0 84.7,106.9 86.9,109.8 89.1,112.6 91.3,115.4 93.6,118.1 95.8,120.8 98.0,123.5 100.2,126.2 102.5,128.8 104.7,131.3 106.9,133.9 109.1,136.4 111.4,138.8 113.6,141.3 115.8,143.7 118.0,146.0 120.2,148.4 122.5,150.7 124.7,152.9 126.9,155.2 129.1,157.4 131.4,159.5 133.6,161.7 135.8,163.8 138.0,165.9 140.3,167.9 142.5,170.0 144.7,172.0 146.9,174.0 149.1,175.9 151.4,177.8 153.6,179.7 155.8,181.6 158.0,183.4 160.3,185.2 162.5,187.0 164.7,188.8 166.9,190.5 169.2,192.3 171.4,194.0 173.6,195.6 175.8,197.3 178.0,198.9 180.3,200.5 182.5,202.1 184.7,203.7 186.9,205.2 189.2,206.7 191.4,208.2 193.6,209.7 195.8,211.1 198.1,212.6 200.3,214.0 202.5,215.4 204.7,216.8 206.9,218.1 209.2,219.5 211.4,220.8 213.6,222.1 215.8,223.4 218.1,224.6 220.3,225.9 222.5,227.1 224.7,228.3 227.0,229.5 229.2,230.7 231.4,231.9 233.6,233.0 235.8,234.2 238.1,235.3 240.3,236.4 242.5,237.5 244.7,238.6 247.0,239.6 249.2,240.7 251.4,241.7 253.6,242.7 255.9,243.7 258.1,244.7 260.3,245.7 262.5,246.6 264.7,247.6 267.0,248.5 269.2,249.4 271.4,250.3 273.6,251.2 275.9,252.1 278.1,253.0 280.3,253.9 282.5,254.7 284.8,255.5 287.0,256.4 289.2,257.2 291.4,258.0 293.6,258.8 295.9,259.6 298.1,260.3 300.3,261.1 302.5,261.8 304.8,262.6 307.0,263.3 309.2,264.0 311.4,264.7 313.7,265.4 315.9,266.1 318.1,266.8 320.3,267.5 322.5,268.1 324.8,268.8 327.0,269.4 329.2,270.1 331.4,270.7 333.7,271.3 335.9,271.9 338.1,272.5 340.3,273.1 342.6,273.7 344.8,274.3 347.0,274.8 349.2,275.4 351.4,275.9 353.7,276.5 355.9,277.0 358.1,277.6 360.3,278.1 362.6,278.6 364.8,279.1 367.0,279.6 369.2,280.1 371.5,280.6 373.7,281.1 375.9,281.5 378.1,282.0 380.3,282.5 382.6,282.9 384.8,283.4 387.0,283.8 389.2,284.3 391.5,284.7 393.7,285.1 395.9,285.5 398.1,285.9 400.4,286.3 402.6,286.7 404.8,287.1 407.0,287.5 409.2,287.9 411.5,288.3 413.7,288.7 415.9,289.0 418.1,289.4 420.4,289.8 422.6,290.1 424.8,290.5 427.0,290.8 429.3,291.2 431.5,291.5 433.7,291.8 435.9,292.2 438.1,292.5 440.4,292.8 442.6,293.1 444.8,293.4 447.0,293.7 449.3,294.0 451.5,294.3 453.7,294.6 455.9,294.9 458.2,295.2 460.4,295.5 462.6,295.7 464.8,296.0 467.0,296.3 469.3,296.5 471.5,296.8 473.7,297.1 475.9,297.3 478.2,297.6 480.4,297.8 482.6,298.1 484.8,298.3 487.1,298.5 489.3,298.8 491.5,299.0 493.7,299.2 495.9,299.5 498.2,299.7 500.4,299.9 502.6,300.1 504.8,300.3 507.1,300.5 509.3,300.7 511.5,300.9 513.7,301.1 516.0,301.3 518.2,301.5 520.4,301.7 522.6,301.9 524.8,302.1 527.1,302.3 529.3,302.5 531.5,302.7 533.7,302.8 536.0,303.0 538.2,303.2 540.4,303.3 542.6,303.5 544.9,303.7 547.1,303.8 549.3,304.0 551.5,304.2 553.7,304.3 556.0,304.5 558.2,304.6 560.4,304.8 562.6,304.9 564.9,305.1 567.1,305.2 569.3,305.4 571.5,305.5 573.8,305.6 576.0,305.8 578.2,305.9 580.4,306.0 582.6,306.2 584.9,306.3 587.1,306.4 589.3,306.6 591.5,306.7 593.8,306.8 596.0,306.9 598.2,307.0 600.4,307.2 602.7,307.3 604.9,307.4 607.1,307.5 609.3,307.6 611.5,307.7 613.8,307.8 616.0,307.9 618.2,308.0 620.4,308.1 622.7,308.2 624.9,308.3 627.1,308.4 629.3,308.5 631.6,308.6 633.8,308.7 636.0,308.8" fill="none" stroke="#202020" stroke-width="2" stroke-linecap="round" stroke-linejoin="round"/>
<polyline points="58.0,69.2 60.2,72.6 62.4,75.9 64.7,79.2 66.9,82.4 69.1,85.7 71.3,88.8 73.6,91.9 75.8,95.0 78.0,98.0 80.2,101.0 82.5,104.0 84.7,106.9 86.9,109.8 89.1,112.6 91.3,115.4 93.6,118.1 95.8,120.8 98.0,123.5 100.2,126.2 102.5,128.8 104.7,131.3 106.9,133.9 109.1,136.4 111.4,138.8 113.6,141.3 115.8,143.7 118.0,146.0 120.2,148.4 122.5,150.7 124.7,152.9 126.9,155.2 129.1,157.4 131.4,159.5 133.6,161.7 135.8,163.8 138.0,165.9 140.3,167.9 142.5,170.0 144.7,172.0 146.9,174.0 149.1,175.9 151.4,177.8 153.6,179.7 155.8,181.6 158.0,183.4 160.3,185.2 162.5,187.0 164.7,188.8 166.9,190.5 169.2,192.3 171.4,194.0 173.6,195.6 175.8,197.3 178.0,198.9 180.3,200.5 182.5,202.1 184.7,203.7 186.9,205.2 189.2,206.7 191.4,208.2 193.6,209.7 195.8,211.1 198.1,212.6 200.3,214.0 202.5,215.4 204.7,216.8 206.9,218.1 209.2,219.5 211.4,220.8 213.6,222.1 215.8,223.4 218.1,224.6 220.3,225.9 222.5,227.1 224.7,228.3 227.0,229.5 229.2,230.7 231.4,231.9 233.6,233.0 235.8,234.2 238.1,235.3 240.3,236.4 242.5,237.5 244.7,238.6 247.0,239.6 249.2,240.7 251.4,241.7 253.6,242.7 255.9,243.7 258.1,244.7 260.3,245.7 262.5,246.6 264.7,247.6 267.0,248.5 269.2,249.4 271.4,250.3 273.6,251.2 275.9,252.1 278.1,253.0 280.3,253.9 282.5,254.7 284.8,255.5 287.0,256.4 289.2,257.2 291.4,258.0 293.6,258.8 295.9,259.6 298.1,260.3 300.3,261.1 302.5,261.8 304.8,262.6 307.0,263.3 309.2,264.0 311.4,264.7 313.7,265.4 315.9,266.1 318.1,266.8 320.3,267.5 322.5,268.1 324.8,268.8 327.0,269.4 329.2,270.1 331.4,270.7 333.7,271.3 335.9,271.9 338.1,272.5 340.3,273.1 342.6,273.7 344.8,274.3 347.0,274.8 349.2,275.4 351.4,275.9 353.7,276.5 355.9,277.0 358.1,277.6 360.3,278.1 362.6,278.6 364.8,279.1 367.0,279.6 369.2,280.1 371.5,280.6 373.7,281.1 375.9,281.5 378.1,282.0 380.3,282.5 382.6,282.9 384.8,283.4 387.0,283.8 389.2,284.3 391.5,284.7 393.7,285.1 395.9,285.5 398.1,285.9 400.4,286.3 402.6,286.7 404.8,287.1 407.0,287.5 409.2,287.9 411.5,288.3 413.7,288.7 415.9,289.0 418.1,289.4 420.4,289.8 422.6,290.1 424.8,290.5 427.0,290.8 429.3,291.2 431.5,291.5 433.7,291.8 435.9,292.2 438.1,292.5 440.4,292.8 442.6,293.1 444.8,293.4 447.0,293.7 449.3,294.0 451.5,294.3 453.7,294.6 455.9,294.9 458.2,295.2 460.4,295.5 462.6,295.7 464.8,296.0 467.0,296.3 469.3,296.5 471.5,296.8 473.7,297.1 475.9,297.3 478.2,297.6 480.4,297.8 482.6,298.1 484.8,298.3 487.1,298.5 489.3,298.8 491.5,299.0 493.7,299.2 495.9,299.5 498.2,299.7 500.4,299.9 502.6,300.1 504.8,300.3 507.1,300.5 509.3,300.7 511.5,300.9 513.7,301.1 516.0,301.3 518.2,301.5 520.4,301.7 522.6,301.9 524.8,302.1 527.1,302.3 529.3,302.5 531.5,302.7 533.7,302.8 536.0,303.0 538.2,303.2 540.4,303.3 542.6,303.5 544.9,303.7 547.1,303.8 549.3,304.0 551.5,304.2 553.7,304.3 556.0,304.5 558.2,304.6 560.4,304.8 562.6,304.9 564.9,305.1 567.1,305.2 569.3,305.4 571.5,305.5 573.8,305.6 576.0,305.8 578.2,305.9 580.4,306.0 582.6,306.2 584.9,306.3 587.1,306.4 589.3,306.6 591.5,306.7 593.8,306.8 596.0,306.9 598.2,307.0 600.4,307.2 602.7,307.3 604.9,307.4 607.1,307.5 609.3,307.6 611.5,307.7 613.8,307.8 616.0,307.9 618.2,308.0 620.4,308.1 622.7,308.2 624.9,308.3 627.1,308.4 629.3,308.5 631.6,308.6 633.8,308.7 636.0,308.8" fill="none" stroke="#1f4e79" stroke-width="2" stroke-dasharray="6 5" stroke-linecap="round" stroke-linejoin="round"/>
<circle cx="58.0" cy="69.2" r="3.2" fill="#111111"/>
<circle cx="96.5" cy="121.7" r="3.2" fill="#111111"/>
<circle cx="135.1" cy="163.1" r="3.2" fill="#111111"/>
<circle cx="173.6" cy="195.6" r="3.2" fill="#111111"/>
<circle cx="212.1" cy="221.2" r="3.2" fill="#111111"/>
<circle cx="250.7" cy="241.3" r="3.2" fill="#111111"/>
<circle cx="289.2" cy="257.2" r="3.2" fill="#111111"/>
<circle cx="327.7" cy="269.6" r="3.2" fill="#111111"/>
<circle cx="366.3" cy="279.4" r="3.2" fill="#111111"/>
<circle cx="404.8" cy="287.1" r="3.2" fill="#111111"/>
<circle cx="443.3" cy="293.2" r="3.2" fill="#111111"/>
<line x1="446" y1="62" x2="472" y2="62" stroke="#202020" stroke-width="2"/>
<text x="480" y="66" font-family="Arial, sans-serif" font-size="11" fill="#202020">target</text>
<line x1="446" y1="80" x2="472" y2="80" stroke="#1f4e79" stroke-width="2" stroke-dasharray="6 5"/>
<text x="480" y="84" font-family="Arial, sans-serif" font-size="11" fill="#202020">candidate</text>
<circle cx="459" cy="98" r="3.2" fill="#111111"/>
<text x="480" y="102" font-family="Arial, sans-serif" font-size="11" fill="#202020">training samples</text>
</svg>
