<?xml version="1.0" encoding="UTF-8"?>
<svg xmlns="http://www.w3.org/2000/svg" width="720" height="420" viewBox="0 0 720 420" role="img" aria-labelledby="title desc">
<title id="title">Michaelis-Menten saturation</title>
<desc id="desc">Training samples and candidate curve for Michaelis-Menten saturation.</desc>
<rect width="720" height="420" fill="#ffffff"/>
<rect x="18" y="18" width="684" height="384" rx="8" fill="#f8fafc" stroke="#d0d7de"/>
<text x="36" y="42" font-family="Arial, sans-serif" font-size="22" font-weight="700" fill="#111827">Michaelis-Menten saturation</text>
<text x="36" y="65" font-family="Arial, sans-serif" font-size="13" fill="#4b5563">same-AST warm-start evidence, not blind discovery</text>
<text x="520" y="42" font-family="Arial, sans-serif" font-size="12" fill="#111827">max verifier error < 1e-10</text>
<line x1="64.00" y1="58" x2="64.00" y2="362" stroke="#e5e7eb" stroke-width="1"/>
<text x="64.00" y="386" text-anchor="middle" font-family="Arial, sans-serif" font-size="11" fill="#4b5563">0.05</text>
<line x1="221.00" y1="58" x2="221.00" y2="362" stroke="#e5e7eb" stroke-width="1"/>
<text x="221.00" y="386" text-anchor="middle" font-family="Arial, sans-serif" font-size="11" fill="#4b5563">1.79</text>
<line x1="378.00" y1="58" x2="378.00" y2="362" stroke="#e5e7eb" stroke-width="1"/>
<text x="378.00" y="386" text-anchor="middle" font-family="Arial, sans-serif" font-size="11" fill="#4b5563">3.52</text>
<line x1="535.00" y1="58" x2="535.00" y2="362" stroke="#e5e7eb" stroke-width="1"/>
<text x="535.00" y="386" text-anchor="middle" font-family="Arial, sans-serif" font-size="11" fill="#4b5563">5.26</text>
<line x1="692.00" y1="58" x2="692.00" y2="362" stroke="#e5e7eb" stroke-width="1"/>
<text x="692.00" y="386" text-anchor="middle" font-family="Arial, sans-serif" font-size="11" fill="#4b5563">7</text>
<line x1="64" y1="362.00" x2="692" y2="362.00" stroke="#e5e7eb" stroke-width="1"/>
<text x="54" y="366.00" text-anchor="end" font-family="Arial, sans-serif" font-size="11" fill="#4b5563">0</text>
<line x1="64" y1="286.00" x2="692" y2="286.00" stroke="#e5e7eb" stroke-width="1"/>
<text x="54" y="290.00" text-anchor="end" font-family="Arial, sans-serif" font-size="11" fill="#4b5563">0.52</text>
<line x1="64" y1="210.00" x2="692" y2="210.00" stroke="#e5e7eb" stroke-width="1"/>
<text x="54" y="214.00" text-anchor="end" font-family="Arial, sans-serif" font-size="11" fill="#4b5563">1.03</text>
<line x1="64" y1="134.00" x2="692" y2="134.00" stroke="#e5e7eb" stroke-width="1"/>
<text x="54" y="138.00" text-anchor="end" font-family="Arial, sans-serif" font-size="11" fill="#4b5563">1.55</text>
<line x1="64" y1="58.00" x2="692" y2="58.00" stroke="#e5e7eb" stroke-width="1"/>
<text x="54" y="62.00" text-anchor="end" font-family="Arial, sans-serif" font-size="11" fill="#4b5563">2.07</text>
<line x1="64" y1="362" x2="692" y2="362" stroke="#111827" stroke-width="1.4"/>
<line x1="64" y1="58" x2="64" y2="362" stroke="#111827" stroke-width="1.4"/>
<text x="378.00" y="404" text-anchor="middle" font-family="Arial, sans-serif" font-size="12" fill="#374151">normalized substrate</text>
<text x="18" y="210.00" transform="rotate(-90 18 210.00)" text-anchor="middle" font-family="Arial, sans-serif" font-size="12" fill="#374151">reaction rate</text>
<polyline points="64.00,335.28 66.85,320.77 69.71,307.75 72.56,296.01 75.42,285.37 78.27,275.67 81.13,266.81 83.98,258.67 86.84,251.17 89.69,244.24 92.55,237.81 95.40,231.84 98.25,226.27 101.11,221.07 103.96,216.20 106.82,211.63 109.67,207.34 112.53,203.29 115.38,199.47 118.24,195.87 121.09,192.45 123.95,189.21 126.80,186.14 129.65,183.22 132.51,180.44 135.36,177.79 138.22,175.27 141.07,172.85 143.93,170.55 146.78,168.34 149.64,166.23 152.49,164.20 155.35,162.26 158.20,160.39 161.05,158.59 163.91,156.87 166.76,155.20 169.62,153.60 172.47,152.06 175.33,150.57 178.18,149.14 181.04,147.75 183.89,146.41 186.75,145.11 189.60,143.86 192.45,142.65 195.31,141.47 198.16,140.33 201.02,139.23 203.87,138.16 206.73,137.12 209.58,136.11 212.44,135.13 215.29,134.18 218.15,133.25 221.00,132.35 223.85,131.48 226.71,130.63 229.56,129.80 232.42,128.99 235.27,128.20 238.13,127.44 240.98,126.69 243.84,125.96 246.69,125.25 249.55,124.56 252.40,123.88 255.25,123.22 258.11,122.58 260.96,121.95 263.82,121.33 266.67,120.73 269.53,120.14 272.38,119.56 275.24,119.00 278.09,118.45 280.95,117.91 283.80,117.38 286.65,116.87 289.51,116.36 292.36,115.87 295.22,115.38 298.07,114.91 300.93,114.44 303.78,113.98 306.64,113.54 309.49,113.10 312.35,112.67 315.20,112.24 318.05,111.83 320.91,111.42 323.76,111.02 326.62,110.63 329.47,110.25 332.33,109.87 335.18,109.50 338.04,109.13 340.89,108.77 343.75,108.42 346.60,108.07 349.45,107.73 352.31,107.40 355.16,107.07 358.02,106.75 360.87,106.43 363.73,106.12 366.58,105.81 369.44,105.50 372.29,105.21 375.15,104.91 378.00,104.62 380.85,104.34 383.71,104.06 386.56,103.78 389.42,103.51 392.27,103.25 395.13,102.98 397.98,102.72 400.84,102.47 403.69,102.22 406.55,101.97 409.40,101.72 412.25,101.48 415.11,101.24 417.96,101.01 420.82,100.78 423.67,100.55 426.53,100.33 429.38,100.10 432.24,99.89 435.09,99.67 437.95,99.46 440.80,99.25 443.65,99.04 446.51,98.84 449.36,98.64 452.22,98.44 455.07,98.24 457.93,98.05 460.78,97.86 463.64,97.67 466.49,97.48 469.35,97.30 472.20,97.11 475.05,96.93 477.91,96.76 480.76,96.58 483.62,96.41 486.47,96.24 489.33,96.07 492.18,95.90 495.04,95.74 497.89,95.57 500.75,95.41 503.60,95.25 506.45,95.10 509.31,94.94 512.16,94.79 515.02,94.63 517.87,94.48 520.73,94.34 523.58,94.19 526.44,94.04 529.29,93.90 532.15,93.76 535.00,93.62 537.85,93.48 540.71,93.34 543.56,93.20 546.42,93.07 549.27,92.94 552.13,92.80 554.98,92.67 557.84,92.54 560.69,92.42 563.55,92.29 566.40,92.17 569.25,92.04 572.11,91.92 574.96,91.80 577.82,91.68 580.67,91.56 583.53,91.44 586.38,91.33 589.24,91.21 592.09,91.10 594.95,90.98 597.80,90.87 600.65,90.76 603.51,90.65 606.36,90.54 609.22,90.44 612.07,90.33 614.93,90.22 617.78,90.12 620.64,90.01 623.49,89.91 626.35,89.81 629.20,89.71 632.05,89.61 634.91,89.51 637.76,89.41 640.62,89.32 643.47,89.22 646.33,89.12 649.18,89.03 652.04,88.94 654.89,88.84 657.75,88.75 660.60,88.66 663.45,88.57 666.31,88.48 669.16,88.39 672.02,88.30 674.87,88.22 677.73,88.13 680.58,88.04 683.44,87.96 686.29,87.88 689.15,87.79 692.00,87.71" fill="none" stroke="#9ca3af" stroke-width="6" stroke-linecap="round" stroke-linejoin="round" opacity="0.8"/>
<polyline points="64.00,335.28 66.85,320.77 69.71,307.75 72.56,296.01 75.42,285.37 78.27,275.67 81.13,266.81 83.98,258.67 86.84,251.17 89.69,244.24 92.55,237.81 95.40,231.84 98.25,226.27 101.11,221.07 103.96,216.20 106.82,211.63 109.67,207.34 112.53,203.29 115.38,199.47 118.24,195.87 121.09,192.45 123.95,189.21 126.80,186.14 129.65,183.22 132.51,180.44 135.36,177.79 138.22,175.27 141.07,172.85 143.93,170.55 146.78,168.34 149.64,166.23 152.49,164.20 155.35,162.26 158.20,160.39 161.05,158.59 163.91,156.87 166.76,155.20 169.62,153.60 172.47,152.06 175.33,150.57 178.18,149.14 181.04,147.75 183.89,146.41 186.75,145.11 189.60,143.86 192.45,142.65 195.31,141.47 198.16,140.33 201.02,139.23 203.87,138.16 206.73,137.12 209.58,136.11 212.44,135.13 215.29,134.18 218.15,133.25 221.00,132.35 223.85,131.48 226.71,130.63 229.56,129.80 232.42,128.99 235.27,128.20 238.13,127.44 240.98,126.69 243.84,125.96 246.69,125.25 249.55,124.56 252.40,123.88 255.25,123.22 258.11,122.58 260.96,121.95 263.82,121.33 266.67,120.73 269.53,120.14 272.38,119.56 275.24,119.00 278.09,118.45 280.95,117.91 283.80,117.38 286.65,116.87 289.51,116.36 292.36,115.87 295.22,115.38 298.07,114.91 300.93,114.44 303.78,113.98 306.64,113.54 309.49,113.10 312.35,112.67 315.20,112.24 318.05,111.83 320.91,111.42 323.76,111.02 326.62,110.63 329.47,110.25 332.33,109.87 335.18,109.50 338.04,109.13 340.89,108.77 343.75,108.42 346.60,108.07 349.45,107.73 352.31,107.40 355.16,107.07 358.02,106.75 360.87,106.43 363.73,106.12 366.58,105.81 369.44,105.50 372.29,105.21 375.15,104.91 378.00,104.62 380.85,104.34 383.71,104.06 386.56,103.78 389.42,103.51 392.27,103.25 395.13,102.98 397.98,102.72 400.84,102.47 403.69,102.22 406.55,101.97 409.40,101.72 412.25,101.48 415.11,101.24 417.96,101.01 420.82,100.78 423.67,100.55 426.53,100.33 429.38,100.10 432.24,99.89 435.09,99.67 437.95,99.46 440.80,99.25 443.65,99.04 446.51,98.84 449.36,98.64 452.22,98.44 455.07,98.24 457.93,98.05 460.78,97.86 463.64,97.67 466.49,97.48 469.35,97.30 472.20,97.11 475.05,96.93 477.91,96.76 480.76,96.58 483.62,96.41 486.47,96.24 489.33,96.07 492.18,95.90 495.04,95.74 497.89,95.57 500.75,95.41 503.60,95.25 506.45,95.10 509.31,94.94 512.16,94.79 515.02,94.63 517.87,94.48 520.73,94.34 523.58,94.19 526.44,94.04 529.29,93.90 532.15,93.76 535.00,93.62 537.85,93.48 540.71,93.34 543.56,93.20 546.42,93.07 549.27,92.94 552.13,92.80 554.98,92.67 557.84,92.54 560.69,92.42 563.55,92.29 566.40,92.17 569.25,92.04 572.11,91.92 574.96,91.80 577.82,91.68 580.67,91.56 583.53,91.44 586.38,91.33 589.24,91.21 592.09,91.10 594.95,90.98 597.80,90.87 600.65,90.76 603.51,90.65 606.36,90.54 609.22,90.44 612.07,90.33 614.93,90.22 617.78,90.12 620.64,90.01 623.49,89.91 626.35,89.81 629.20,89.71 632.05,89.61 634.91,89.51 637.76,89.41 640.62,89.32 643.47,89.22 646.33,89.12 649.18,89.03 652.04,88.94 654.89,88.84 657.75,88.75 660.60,88.66 663.45,88.57 666.31,88.48 669.16,88.39 672.02,88.30 674.87,88.22 677.73,88.13 680.58,88.04 683.44,87.96 686.29,87.88 689.15,87.79 692.00,87.71" fill="none" stroke="#c2410c" stroke-width="3" stroke-dasharray="9 6" stroke-linecap="round" stroke-linejoin="round"/>
<circle cx="64.00" cy="335.28" r="4.3" fill="#111827" stroke="#ffffff" stroke-width="1.5"/>
<circle cx="104.66" cy="215.06" r="4.3" fill="#111827" stroke="#ffffff" stroke-width="1.5"/>
<circle cx="145.32" cy="169.46" r="4.3" fill="#111827" stroke="#ffffff" stroke-width="1.5"/>
<circle cx="185.99" cy="145.45" r="4.3" fill="#111827" stroke="#ffffff" stroke-width="1.5"/>
<circle cx="226.65" cy="130.65" r="4.3" fill="#111827" stroke="#ffffff" stroke-width="1.5"/>
<circle cx="267.31" cy="120.60" r="4.3" fill="#111827" stroke="#ffffff" stroke-width="1.5"/>
<circle cx="307.97" cy="113.33" r="4.3" fill="#111827" stroke="#ffffff" stroke-width="1.5"/>
<circle cx="348.63" cy="107.83" r="4.3" fill="#111827" stroke="#ffffff" stroke-width="1.5"/>
<circle cx="389.29" cy="103.52" r="4.3" fill="#111827" stroke="#ffffff" stroke-width="1.5"/>
<circle cx="429.96" cy="100.06" r="4.3" fill="#111827" stroke="#ffffff" stroke-width="1.5"/>
<circle cx="470.62" cy="97.21" r="4.3" fill="#111827" stroke="#ffffff" stroke-width="1.5"/>
<circle cx="511.28" cy="94.83" r="4.3" fill="#111827" stroke="#ffffff" stroke-width="1.5"/>
<rect x="68" y="61" width="245" height="70" rx="6" fill="#ffffff" opacity="0.92" stroke="#e5e7eb"/>
<line x1="78" y1="76" x2="112" y2="76" stroke="#9ca3af" stroke-width="5"/>
<text x="122" y="80" font-family="Arial, sans-serif" font-size="12" fill="#111827">target function</text>
<line x1="78" y1="98" x2="112" y2="98" stroke="#c2410c" stroke-width="3" stroke-dasharray="8 5"/>
<text x="122" y="102" font-family="Arial, sans-serif" font-size="12" fill="#111827">candidate curve</text>
<circle cx="95" cy="120" r="4" fill="#111827"/>
<text x="122" y="124" font-family="Arial, sans-serif" font-size="12" fill="#111827">training samples</text>
</svg>
