<?xml version="1.0" encoding="UTF-8"?>
<svg xmlns="http://www.w3.org/2000/svg" width="720" height="420" viewBox="0 0 720 420" role="img" aria-labelledby="title desc">
<title id="title">Arrhenius curve</title>
<desc id="desc">Training samples and candidate curve for Arrhenius curve.</desc>
<rect width="720" height="420" fill="#ffffff"/>
<rect x="18" y="18" width="684" height="384" rx="8" fill="#f8fafc" stroke="#d0d7de"/>
<text x="36" y="42" font-family="Arial, sans-serif" font-size="22" font-weight="700" fill="#111827">Arrhenius curve</text>
<text x="36" y="65" font-family="Arial, sans-serif" font-size="13" fill="#4b5563">same-AST warm-start evidence, not blind discovery</text>
<text x="520" y="42" font-family="Arial, sans-serif" font-size="12" fill="#111827">max verifier error < 1e-10</text>
<line x1="64.00" y1="58" x2="64.00" y2="362" stroke="#e5e7eb" stroke-width="1"/>
<text x="64.00" y="386" text-anchor="middle" font-family="Arial, sans-serif" font-size="11" fill="#4b5563">0.5</text>
<line x1="221.00" y1="58" x2="221.00" y2="362" stroke="#e5e7eb" stroke-width="1"/>
<text x="221.00" y="386" text-anchor="middle" font-family="Arial, sans-serif" font-size="11" fill="#4b5563">1.43</text>
<line x1="378.00" y1="58" x2="378.00" y2="362" stroke="#e5e7eb" stroke-width="1"/>
<text x="378.00" y="386" text-anchor="middle" font-family="Arial, sans-serif" font-size="11" fill="#4b5563">2.35</text>
<line x1="535.00" y1="58" x2="535.00" y2="362" stroke="#e5e7eb" stroke-width="1"/>
<text x="535.00" y="386" text-anchor="middle" font-family="Arial, sans-serif" font-size="11" fill="#4b5563">3.28</text>
<line x1="692.00" y1="58" x2="692.00" y2="362" stroke="#e5e7eb" stroke-width="1"/>
<text x="692.00" y="386" text-anchor="middle" font-family="Arial, sans-serif" font-size="11" fill="#4b5563">4.2</text>
<line x1="64" y1="362.00" x2="692" y2="362.00" stroke="#e5e7eb" stroke-width="1"/>
<text x="54" y="366.00" text-anchor="end" font-family="Arial, sans-serif" font-size="11" fill="#4b5563">0.13</text>
<line x1="64" y1="286.00" x2="692" y2="286.00" stroke="#e5e7eb" stroke-width="1"/>
<text x="54" y="290.00" text-anchor="end" font-family="Arial, sans-serif" font-size="11" fill="#4b5563">0.32</text>
<line x1="64" y1="210.00" x2="692" y2="210.00" stroke="#e5e7eb" stroke-width="1"/>
<text x="54" y="214.00" text-anchor="end" font-family="Arial, sans-serif" font-size="11" fill="#4b5563">0.51</text>
<line x1="64" y1="134.00" x2="692" y2="134.00" stroke="#e5e7eb" stroke-width="1"/>
<text x="54" y="138.00" text-anchor="end" font-family="Arial, sans-serif" font-size="11" fill="#4b5563">0.71</text>
<line x1="64" y1="58.00" x2="692" y2="58.00" stroke="#e5e7eb" stroke-width="1"/>
<text x="54" y="62.00" text-anchor="end" font-family="Arial, sans-serif" font-size="11" fill="#4b5563">0.9</text>
<line x1="64" y1="362" x2="692" y2="362" stroke="#111827" stroke-width="1.4"/>
<line x1="64" y1="58" x2="64" y2="362" stroke="#111827" stroke-width="1.4"/>
<text x="378.00" y="404" text-anchor="middle" font-family="Arial, sans-serif" font-size="12" fill="#374151">normalized temperature</text>
<text x="18" y="210.00" transform="rotate(-90 18 210.00)" text-anchor="middle" font-family="Arial, sans-serif" font-size="12" fill="#374151">rate scale</text>
<polyline points="64.00,332.58 66.85,328.35 69.71,324.17 72.56,320.06 75.42,316.02 78.27,312.05 81.13,308.16 83.98,304.33 86.84,300.58 89.69,296.90 92.55,293.29 95.40,289.75 98.25,286.29 101.11,282.89 103.96,279.57 106.82,276.31 109.67,273.13 112.53,270.00 115.38,266.95 118.24,263.95 121.09,261.02 123.95,258.15 126.80,255.34 129.65,252.59 132.51,249.89 135.36,247.25 138.22,244.67 141.07,242.13 143.93,239.65 146.78,237.22 149.64,234.83 152.49,232.50 155.35,230.21 158.20,227.96 161.05,225.76 163.91,223.60 166.76,221.49 169.62,219.41 172.47,217.38 175.33,215.38 178.18,213.42 181.04,211.50 183.89,209.61 186.75,207.76 189.60,205.94 192.45,204.15 195.31,202.40 198.16,200.68 201.02,198.99 203.87,197.33 206.73,195.70 209.58,194.09 212.44,192.52 215.29,190.97 218.15,189.45 221.00,187.95 223.85,186.48 226.71,185.04 229.56,183.61 232.42,182.21 235.27,180.84 238.13,179.49 240.98,178.15 243.84,176.84 246.69,175.55 249.55,174.28 252.40,173.04 255.25,171.81 258.11,170.59 260.96,169.40 263.82,168.23 266.67,167.07 269.53,165.93 272.38,164.81 275.24,163.71 278.09,162.62 280.95,161.55 283.80,160.49 286.65,159.45 289.51,158.42 292.36,157.41 295.22,156.41 298.07,155.42 300.93,154.45 303.78,153.50 306.64,152.55 309.49,151.62 312.35,150.71 315.20,149.80 318.05,148.91 320.91,148.03 323.76,147.16 326.62,146.30 329.47,145.45 332.33,144.62 335.18,143.79 338.04,142.98 340.89,142.17 343.75,141.38 346.60,140.60 349.45,139.82 352.31,139.06 355.16,138.30 358.02,137.56 360.87,136.82 363.73,136.10 366.58,135.38 369.44,134.67 372.29,133.97 375.15,133.28 378.00,132.59 380.85,131.92 383.71,131.25 386.56,130.59 389.42,129.93 392.27,129.29 395.13,128.65 397.98,128.02 400.84,127.40 403.69,126.78 406.55,126.17 409.40,125.57 412.25,124.97 415.11,124.38 417.96,123.80 420.82,123.22 423.67,122.65 426.53,122.09 429.38,121.53 432.24,120.98 435.09,120.43 437.95,119.89 440.80,119.36 443.65,118.83 446.51,118.30 449.36,117.79 452.22,117.27 455.07,116.77 457.93,116.26 460.78,115.77 463.64,115.27 466.49,114.79 469.35,114.30 472.20,113.83 475.05,113.35 477.91,112.89 480.76,112.42 483.62,111.96 486.47,111.51 489.33,111.06 492.18,110.61 495.04,110.17 497.89,109.74 500.75,109.30 503.60,108.87 506.45,108.45 509.31,108.03 512.16,107.61 515.02,107.20 517.87,106.79 520.73,106.38 523.58,105.98 526.44,105.58 529.29,105.19 532.15,104.80 535.00,104.41 537.85,104.03 540.71,103.65 543.56,103.27 546.42,102.90 549.27,102.52 552.13,102.16 554.98,101.79 557.84,101.43 560.69,101.08 563.55,100.72 566.40,100.37 569.25,100.02 572.11,99.67 574.96,99.33 577.82,98.99 580.67,98.66 583.53,98.32 586.38,97.99 589.24,97.66 592.09,97.34 594.95,97.01 597.80,96.69 600.65,96.37 603.51,96.06 606.36,95.75 609.22,95.44 612.07,95.13 614.93,94.82 617.78,94.52 620.64,94.22 623.49,93.92 626.35,93.63 629.20,93.33 632.05,93.04 634.91,92.75 637.76,92.47 640.62,92.18 643.47,91.90 646.33,91.62 649.18,91.34 652.04,91.07 654.89,90.79 657.75,90.52 660.60,90.25 663.45,89.99 666.31,89.72 669.16,89.46 672.02,89.20 674.87,88.94 677.73,88.68 680.58,88.42 683.44,88.17 686.29,87.92 689.15,87.67 692.00,87.42" fill="none" stroke="#9ca3af" stroke-width="6" stroke-linecap="round" stroke-linejoin="round" opacity="0.8"/>
<polyline points="64.00,332.58 66.85,328.35 69.71,324.17 72.56,320.06 75.42,316.02 78.27,312.05 81.13,308.16 83.98,304.33 86.84,300.58 89.69,296.90 92.55,293.29 95.40,289.75 98.25,286.29 101.11,282.89 103.96,279.57 106.82,276.31 109.67,273.13 112.53,270.00 115.38,266.95 118.24,263.95 121.09,261.02 123.95,258.15 126.80,255.34 129.65,252.59 132.51,249.89 135.36,247.25 138.22,244.67 141.07,242.13 143.93,239.65 146.78,237.22 149.64,234.83 152.49,232.50 155.35,230.21 158.20,227.96 161.05,225.76 163.91,223.60 166.76,221.49 169.62,219.41 172.47,217.38 175.33,215.38 178.18,213.42 181.04,211.50 183.89,209.61 186.75,207.76 189.60,205.94 192.45,204.15 195.31,202.40 198.16,200.68 201.02,198.99 203.87,197.33 206.73,195.70 209.58,194.09 212.44,192.52 215.29,190.97 218.15,189.45 221.00,187.95 223.85,186.48 226.71,185.04 229.56,183.61 232.42,182.21 235.27,180.84 238.13,179.49 240.98,178.15 243.84,176.84 246.69,175.55 249.55,174.28 252.40,173.04 255.25,171.81 258.11,170.59 260.96,169.40 263.82,168.23 266.67,167.07 269.53,165.93 272.38,164.81 275.24,163.71 278.09,162.62 280.95,161.55 283.80,160.49 286.65,159.45 289.51,158.42 292.36,157.41 295.22,156.41 298.07,155.42 300.93,154.45 303.78,153.50 306.64,152.55 309.49,151.62 312.35,150.71 315.20,149.80 318.05,148.91 320.91,148.03 323.76,147.16 326.62,146.30 329.47,145.45 332.33,144.62 335.18,143.79 338.04,142.98 340.89,142.17 343.75,141.38 346.60,140.60 349.45,139.82 352.31,139.06 355.16,138.30 358.02,137.56 360.87,136.82 363.73,136.10 366.58,135.38 369.44,134.67 372.29,133.97 375.15,133.28 378.00,132.59 380.85,131.92 383.71,131.25 386.56,130.59 389.42,129.93 392.27,129.29 395.13,128.65 397.98,128.02 400.84,127.40 403.69,126.78 406.55,126.17 409.40,125.57 412.25,124.97 415.11,124.38 417.96,123.80 420.82,123.22 423.67,122.65 426.53,122.09 429.38,121.53 432.24,120.98 435.09,120.43 437.95,119.89 440.80,119.36 443.65,118.83 446.51,118.30 449.36,117.79 452.22,117.27 455.07,116.77 457.93,116.26 460.78,115.77 463.64,115.27 466.49,114.79 469.35,114.30 472.20,113.83 475.05,113.35 477.91,112.89 480.76,112.42 483.62,111.96 486.47,111.51 489.33,111.06 492.18,110.61 495.04,110.17 497.89,109.74 500.75,109.30 503.60,108.87 506.45,108.45 509.31,108.03 512.16,107.61 515.02,107.20 517.87,106.79 520.73,106.38 523.58,105.98 526.44,105.58 529.29,105.19 532.15,104.80 535.00,104.41 537.85,104.03 540.71,103.65 543.56,103.27 546.42,102.90 549.27,102.52 552.13,102.16 554.98,101.79 557.84,101.43 560.69,101.08 563.55,100.72 566.40,100.37 569.25,100.02 572.11,99.67 574.96,99.33 577.82,98.99 580.67,98.66 583.53,98.32 586.38,97.99 589.24,97.66 592.09,97.34 594.95,97.01 597.80,96.69 600.65,96.37 603.51,96.06 606.36,95.75 609.22,95.44 612.07,95.13 614.93,94.82 617.78,94.52 620.64,94.22 623.49,93.92 626.35,93.63 629.20,93.33 632.05,93.04 634.91,92.75 637.76,92.47 640.62,92.18 643.47,91.90 646.33,91.62 649.18,91.34 652.04,91.07 654.89,90.79 657.75,90.52 660.60,90.25 663.45,89.99 666.31,89.72 669.16,89.46 672.02,89.20 674.87,88.94 677.73,88.68 680.58,88.42 683.44,88.17 686.29,87.92 689.15,87.67 692.00,87.42" fill="none" stroke="#2f9e44" stroke-width="3" stroke-dasharray="9 6" stroke-linecap="round" stroke-linejoin="round"/>
<circle cx="64.00" cy="332.58" r="4.3" fill="#111827" stroke="#ffffff" stroke-width="1.5"/>
<circle cx="102.57" cy="281.18" r="4.3" fill="#111827" stroke="#ffffff" stroke-width="1.5"/>
<circle cx="141.15" cy="242.06" r="4.3" fill="#111827" stroke="#ffffff" stroke-width="1.5"/>
<circle cx="179.72" cy="212.38" r="4.3" fill="#111827" stroke="#ffffff" stroke-width="1.5"/>
<circle cx="218.30" cy="189.37" r="4.3" fill="#111827" stroke="#ffffff" stroke-width="1.5"/>
<circle cx="256.87" cy="171.12" r="4.3" fill="#111827" stroke="#ffffff" stroke-width="1.5"/>
<circle cx="295.45" cy="156.33" r="4.3" fill="#111827" stroke="#ffffff" stroke-width="1.5"/>
<circle cx="334.02" cy="144.13" r="4.3" fill="#111827" stroke="#ffffff" stroke-width="1.5"/>
<circle cx="372.60" cy="133.89" r="4.3" fill="#111827" stroke="#ffffff" stroke-width="1.5"/>
<circle cx="411.17" cy="125.20" r="4.3" fill="#111827" stroke="#ffffff" stroke-width="1.5"/>
<circle cx="449.75" cy="117.72" r="4.3" fill="#111827" stroke="#ffffff" stroke-width="1.5"/>
<circle cx="488.32" cy="111.22" r="4.3" fill="#111827" stroke="#ffffff" stroke-width="1.5"/>
<rect x="68" y="61" width="245" height="70" rx="6" fill="#ffffff" opacity="0.92" stroke="#e5e7eb"/>
<line x1="78" y1="76" x2="112" y2="76" stroke="#9ca3af" stroke-width="5"/>
<text x="122" y="80" font-family="Arial, sans-serif" font-size="12" fill="#111827">target function</text>
<line x1="78" y1="98" x2="112" y2="98" stroke="#2f9e44" stroke-width="3" stroke-dasharray="8 5"/>
<text x="122" y="102" font-family="Arial, sans-serif" font-size="12" fill="#111827">candidate curve</text>
<circle cx="95" cy="120" r="4" fill="#111827"/>
<text x="122" y="124" font-family="Arial, sans-serif" font-size="12" fill="#111827">training samples</text>
</svg>
