<?xml version="1.0" encoding="UTF-8"?>
<svg xmlns="http://www.w3.org/2000/svg" width="660" height="380" viewBox="0 0 660 380" role="img" aria-labelledby="title desc">
<title id="title">log(x)</title>
<desc id="desc">Target samples and candidate diagnostic curve for log(x).</desc>
<rect width="100%" height="100%" fill="#ffffff"/>
<text x="58" y="26" font-family="Arial, sans-serif" font-size="18" font-weight="700" fill="#202020">log(x)</text>
<text x="58" y="45" font-family="Arial, sans-serif" font-size="12" fill="#555555">good: exact EML identity recovered</text>
<line x1="58.0" y1="50" x2="58.0" y2="328" stroke="#d8d8d8" stroke-width="1"/>
<text x="58.0" y="347" text-anchor="middle" font-family="Arial, sans-serif" font-size="10" fill="#555555">0.25</text>
<line x1="202.5" y1="50" x2="202.5" y2="328" stroke="#d8d8d8" stroke-width="1"/>
<text x="202.5" y="347" text-anchor="middle" font-family="Arial, sans-serif" font-size="10" fill="#555555">1.24</text>
<line x1="347.0" y1="50" x2="347.0" y2="328" stroke="#d8d8d8" stroke-width="1"/>
<text x="347.0" y="347" text-anchor="middle" font-family="Arial, sans-serif" font-size="10" fill="#555555">2.23</text>
<line x1="491.5" y1="50" x2="491.5" y2="328" stroke="#d8d8d8" stroke-width="1"/>
<text x="491.5" y="347" text-anchor="middle" font-family="Arial, sans-serif" font-size="10" fill="#555555">3.21</text>
<line x1="636.0" y1="50" x2="636.0" y2="328" stroke="#d8d8d8" stroke-width="1"/>
<text x="636.0" y="347" text-anchor="middle" font-family="Arial, sans-serif" font-size="10" fill="#555555">4.2</text>
<line x1="58" y1="328.0" x2="636" y2="328.0" stroke="#d8d8d8" stroke-width="1"/>
<text x="50" y="331.0" text-anchor="end" font-family="Arial, sans-serif" font-size="10" fill="#555555">-1.61</text>
<line x1="58" y1="258.5" x2="636" y2="258.5" stroke="#d8d8d8" stroke-width="1"/>
<text x="50" y="261.5" text-anchor="end" font-family="Arial, sans-serif" font-size="10" fill="#555555">-0.79</text>
<line x1="58" y1="189.0" x2="636" y2="189.0" stroke="#d8d8d8" stroke-width="1"/>
<text x="50" y="192.0" text-anchor="end" font-family="Arial, sans-serif" font-size="10" fill="#555555">0.02</text>
<line x1="58" y1="119.5" x2="636" y2="119.5" stroke="#d8d8d8" stroke-width="1"/>
<text x="50" y="122.5" text-anchor="end" font-family="Arial, sans-serif" font-size="10" fill="#555555">0.84</text>
<line x1="58" y1="50.0" x2="636" y2="50.0" stroke="#d8d8d8" stroke-width="1"/>
<text x="50" y="53.0" text-anchor="end" font-family="Arial, sans-serif" font-size="10" fill="#555555">1.66</text>
<line x1="58" y1="328" x2="636" y2="328" stroke="#202020" stroke-width="1"/>
<line x1="58" y1="50" x2="58" y2="328" stroke="#202020" stroke-width="1"/>
<text x="347.0" y="368" text-anchor="middle" font-family="Arial, sans-serif" font-size="11" fill="#555555">x</text>
<text x="16" y="189.0" transform="rotate(-90 16 189.0)" text-anchor="middle" font-family="Arial, sans-serif" font-size="11" fill="#555555">y</text>
<polyline points="58.0,308.8 60.2,303.8 62.4,299.1 64.7,294.6 66.9,290.3 69.1,286.3 71.3,282.4 73.6,278.7 75.8,275.2 78.0,271.8 80.2,268.5 82.5,265.3 84.7,262.3 86.9,259.4 89.1,256.5 91.3,253.8 93.6,251.1 95.8,248.6 98.0,246.1 100.2,243.6 102.5,241.3 104.7,239.0 106.9,236.7 109.1,234.5 111.4,232.4 113.6,230.3 115.8,228.3 118.0,226.3 120.2,224.4 122.5,222.5 124.7,220.7 126.9,218.9 129.1,217.1 131.4,215.4 133.6,213.7 135.8,212.0 138.0,210.4 140.3,208.7 142.5,207.2 144.7,205.6 146.9,204.1 149.1,202.6 151.4,201.2 153.6,199.7 155.8,198.3 158.0,196.9 160.3,195.5 162.5,194.2 164.7,192.9 166.9,191.5 169.2,190.3 171.4,189.0 173.6,187.7 175.8,186.5 178.0,185.3 180.3,184.1 182.5,182.9 184.7,181.8 186.9,180.6 189.2,179.5 191.4,178.4 193.6,177.2 195.8,176.2 198.1,175.1 200.3,174.0 202.5,173.0 204.7,171.9 206.9,170.9 209.2,169.9 211.4,168.9 213.6,167.9 215.8,166.9 218.1,166.0 220.3,165.0 222.5,164.1 224.7,163.1 227.0,162.2 229.2,161.3 231.4,160.4 233.6,159.5 235.8,158.6 238.1,157.7 240.3,156.9 242.5,156.0 244.7,155.2 247.0,154.3 249.2,153.5 251.4,152.7 253.6,151.8 255.9,151.0 258.1,150.2 260.3,149.4 262.5,148.7 264.7,147.9 267.0,147.1 269.2,146.3 271.4,145.6 273.6,144.8 275.9,144.1 278.1,143.3 280.3,142.6 282.5,141.9 284.8,141.2 287.0,140.4 289.2,139.7 291.4,139.0 293.6,138.3 295.9,137.7 298.1,137.0 300.3,136.3 302.5,135.6 304.8,134.9 307.0,134.3 309.2,133.6 311.4,133.0 313.7,132.3 315.9,131.7 318.1,131.0 320.3,130.4 322.5,129.8 324.8,129.1 327.0,128.5 329.2,127.9 331.4,127.3 333.7,126.7 335.9,126.1 338.1,125.5 340.3,124.9 342.6,124.3 344.8,123.7 347.0,123.1 349.2,122.6 351.4,122.0 353.7,121.4 355.9,120.8 358.1,120.3 360.3,119.7 362.6,119.2 364.8,118.6 367.0,118.1 369.2,117.5 371.5,117.0 373.7,116.4 375.9,115.9 378.1,115.4 380.3,114.9 382.6,114.3 384.8,113.8 387.0,113.3 389.2,112.8 391.5,112.3 393.7,111.8 395.9,111.3 398.1,110.7 400.4,110.2 402.6,109.8 404.8,109.3 407.0,108.8 409.2,108.3 411.5,107.8 413.7,107.3 415.9,106.8 418.1,106.4 420.4,105.9 422.6,105.4 424.8,104.9 427.0,104.5 429.3,104.0 431.5,103.5 433.7,103.1 435.9,102.6 438.1,102.2 440.4,101.7 442.6,101.3 444.8,100.8 447.0,100.4 449.3,99.9 451.5,99.5 453.7,99.1 455.9,98.6 458.2,98.2 460.4,97.8 462.6,97.3 464.8,96.9 467.0,96.5 469.3,96.1 471.5,95.6 473.7,95.2 475.9,94.8 478.2,94.4 480.4,94.0 482.6,93.6 484.8,93.2 487.1,92.7 489.3,92.3 491.5,91.9 493.7,91.5 495.9,91.1 498.2,90.7 500.4,90.3 502.6,90.0 504.8,89.6 507.1,89.2 509.3,88.8 511.5,88.4 513.7,88.0 516.0,87.6 518.2,87.3 520.4,86.9 522.6,86.5 524.8,86.1 527.1,85.7 529.3,85.4 531.5,85.0 533.7,84.6 536.0,84.3 538.2,83.9 540.4,83.5 542.6,83.2 544.9,82.8 547.1,82.4 549.3,82.1 551.5,81.7 553.7,81.4 556.0,81.0 558.2,80.7 560.4,80.3 562.6,80.0 564.9,79.6 567.1,79.3 569.3,78.9 571.5,78.6 573.8,78.2 576.0,77.9 578.2,77.6 580.4,77.2 582.6,76.9 584.9,76.6 587.1,76.2 589.3,75.9 591.5,75.6 593.8,75.2 596.0,74.9 598.2,74.6 600.4,74.2 602.7,73.9 604.9,73.6 607.1,73.3 609.3,72.9 611.5,72.6 613.8,72.3 616.0,72.0 618.2,71.7 620.4,71.4 622.7,71.0 624.9,70.7 627.1,70.4 629.3,70.1 631.6,69.8 633.8,69.5 636.0,69.2" fill="none" stroke="#202020" stroke-width="2" stroke-linecap="round" stroke-linejoin="round"/>
<polyline points="58.0,308.8 60.2,303.8 62.4,299.1 64.7,294.6 66.9,290.3 69.1,286.3 71.3,282.4 73.6,278.7 75.8,275.2 78.0,271.8 80.2,268.5 82.5,265.3 84.7,262.3 86.9,259.4 89.1,256.5 91.3,253.8 93.6,251.1 95.8,248.6 98.0,246.1 100.2,243.6 102.5,241.3 104.7,239.0 106.9,236.7 109.1,234.5 111.4,232.4 113.6,230.3 115.8,228.3 118.0,226.3 120.2,224.4 122.5,222.5 124.7,220.7 126.9,218.9 129.1,217.1 131.4,215.4 133.6,213.7 135.8,212.0 138.0,210.4 140.3,208.7 142.5,207.2 144.7,205.6 146.9,204.1 149.1,202.6 151.4,201.2 153.6,199.7 155.8,198.3 158.0,196.9 160.3,195.5 162.5,194.2 164.7,192.9 166.9,191.5 169.2,190.3 171.4,189.0 173.6,187.7 175.8,186.5 178.0,185.3 180.3,184.1 182.5,182.9 184.7,181.8 186.9,180.6 189.2,179.5 191.4,178.4 193.6,177.2 195.8,176.2 198.1,175.1 200.3,174.0 202.5,173.0 204.7,171.9 206.9,170.9 209.2,169.9 211.4,168.9 213.6,167.9 215.8,166.9 218.1,166.0 220.3,165.0 222.5,164.1 224.7,163.1 227.0,162.2 229.2,161.3 231.4,160.4 233.6,159.5 235.8,158.6 238.1,157.7 240.3,156.9 242.5,156.0 244.7,155.2 247.0,154.3 249.2,153.5 251.4,152.7 253.6,151.8 255.9,151.0 258.1,150.2 260.3,149.4 262.5,148.7 264.7,147.9 267.0,147.1 269.2,146.3 271.4,145.6 273.6,144.8 275.9,144.1 278.1,143.3 280.3,142.6 282.5,141.9 284.8,141.2 287.0,140.4 289.2,139.7 291.4,139.0 293.6,138.3 295.9,137.7 298.1,137.0 300.3,136.3 302.5,135.6 304.8,134.9 307.0,134.3 309.2,133.6 311.4,133.0 313.7,132.3 315.9,131.7 318.1,131.0 320.3,130.4 322.5,129.8 324.8,129.1 327.0,128.5 329.2,127.9 331.4,127.3 333.7,126.7 335.9,126.1 338.1,125.5 340.3,124.9 342.6,124.3 344.8,123.7 347.0,123.1 349.2,122.6 351.4,122.0 353.7,121.4 355.9,120.8 358.1,120.3 360.3,119.7 362.6,119.2 364.8,118.6 367.0,118.1 369.2,117.5 371.5,117.0 373.7,116.4 375.9,115.9 378.1,115.4 380.3,114.9 382.6,114.3 384.8,113.8 387.0,113.3 389.2,112.8 391.5,112.3 393.7,111.8 395.9,111.3 398.1,110.7 400.4,110.2 402.6,109.8 404.8,109.3 407.0,108.8 409.2,108.3 411.5,107.8 413.7,107.3 415.9,106.8 418.1,106.4 420.4,105.9 422.6,105.4 424.8,104.9 427.0,104.5 429.3,104.0 431.5,103.5 433.7,103.1 435.9,102.6 438.1,102.2 440.4,101.7 442.6,101.3 444.8,100.8 447.0,100.4 449.3,99.9 451.5,99.5 453.7,99.1 455.9,98.6 458.2,98.2 460.4,97.8 462.6,97.3 464.8,96.9 467.0,96.5 469.3,96.1 471.5,95.6 473.7,95.2 475.9,94.8 478.2,94.4 480.4,94.0 482.6,93.6 484.8,93.2 487.1,92.7 489.3,92.3 491.5,91.9 493.7,91.5 495.9,91.1 498.2,90.7 500.4,90.3 502.6,90.0 504.8,89.6 507.1,89.2 509.3,88.8 511.5,88.4 513.7,88.0 516.0,87.6 518.2,87.3 520.4,86.9 522.6,86.5 524.8,86.1 527.1,85.7 529.3,85.4 531.5,85.0 533.7,84.6 536.0,84.3 538.2,83.9 540.4,83.5 542.6,83.2 544.9,82.8 547.1,82.4 549.3,82.1 551.5,81.7 553.7,81.4 556.0,81.0 558.2,80.7 560.4,80.3 562.6,80.0 564.9,79.6 567.1,79.3 569.3,78.9 571.5,78.6 573.8,78.2 576.0,77.9 578.2,77.6 580.4,77.2 582.6,76.9 584.9,76.6 587.1,76.2 589.3,75.9 591.5,75.6 593.8,75.2 596.0,74.9 598.2,74.6 600.4,74.2 602.7,73.9 604.9,73.6 607.1,73.3 609.3,72.9 611.5,72.6 613.8,72.3 616.0,72.0 618.2,71.7 620.4,71.4 622.7,71.0 624.9,70.7 627.1,70.4 629.3,70.1 631.6,69.8 633.8,69.5 636.0,69.2" fill="none" stroke="#1f4e79" stroke-width="2" stroke-dasharray="6 5" stroke-linecap="round" stroke-linejoin="round"/>
<circle cx="58.0" cy="308.8" r="3.2" fill="#111111"/>
<circle cx="98.2" cy="245.8" r="3.2" fill="#111111"/>
<circle cx="138.5" cy="210.0" r="3.2" fill="#111111"/>
<circle cx="178.7" cy="184.9" r="3.2" fill="#111111"/>
<circle cx="219.0" cy="165.6" r="3.2" fill="#111111"/>
<circle cx="259.2" cy="149.8" r="3.2" fill="#111111"/>
<circle cx="299.4" cy="136.6" r="3.2" fill="#111111"/>
<circle cx="339.7" cy="125.1" r="3.2" fill="#111111"/>
<circle cx="379.9" cy="115.0" r="3.2" fill="#111111"/>
<circle cx="420.2" cy="105.9" r="3.2" fill="#111111"/>
<circle cx="460.4" cy="97.8" r="3.2" fill="#111111"/>
<line x1="446" y1="62" x2="472" y2="62" stroke="#202020" stroke-width="2"/>
<text x="480" y="66" font-family="Arial, sans-serif" font-size="11" fill="#202020">target</text>
<line x1="446" y1="80" x2="472" y2="80" stroke="#1f4e79" stroke-width="2" stroke-dasharray="6 5"/>
<text x="480" y="84" font-family="Arial, sans-serif" font-size="11" fill="#202020">candidate</text>
<circle cx="459" cy="98" r="3.2" fill="#111111"/>
<text x="480" y="102" font-family="Arial, sans-serif" font-size="11" fill="#202020">training samples</text>
</svg>
