<?xml version="1.0" encoding="UTF-8"?>
<svg xmlns="http://www.w3.org/2000/svg" width="660" height="380" viewBox="0 0 660 380" role="img" aria-labelledby="title desc">
<title id="title">exp(x)</title>
<desc id="desc">Target samples and candidate diagnostic curve for exp(x).</desc>
<rect width="100%" height="100%" fill="#ffffff"/>
<text x="58" y="26" font-family="Arial, sans-serif" font-size="18" font-weight="700" fill="#202020">exp(x)</text>
<text x="58" y="45" font-family="Arial, sans-serif" font-size="12" fill="#555555">good: exact EML identity recovered</text>
<line x1="58.0" y1="50" x2="58.0" y2="328" stroke="#d8d8d8" stroke-width="1"/>
<text x="58.0" y="347" text-anchor="middle" font-family="Arial, sans-serif" font-size="10" fill="#555555">-1</text>
<line x1="202.5" y1="50" x2="202.5" y2="328" stroke="#d8d8d8" stroke-width="1"/>
<text x="202.5" y="347" text-anchor="middle" font-family="Arial, sans-serif" font-size="10" fill="#555555">-0.38</text>
<line x1="347.0" y1="50" x2="347.0" y2="328" stroke="#d8d8d8" stroke-width="1"/>
<text x="347.0" y="347" text-anchor="middle" font-family="Arial, sans-serif" font-size="10" fill="#555555">0.25</text>
<line x1="491.5" y1="50" x2="491.5" y2="328" stroke="#d8d8d8" stroke-width="1"/>
<text x="491.5" y="347" text-anchor="middle" font-family="Arial, sans-serif" font-size="10" fill="#555555">0.88</text>
<line x1="636.0" y1="50" x2="636.0" y2="328" stroke="#d8d8d8" stroke-width="1"/>
<text x="636.0" y="347" text-anchor="middle" font-family="Arial, sans-serif" font-size="10" fill="#555555">1.5</text>
<line x1="58" y1="328.0" x2="636" y2="328.0" stroke="#d8d8d8" stroke-width="1"/>
<text x="50" y="331.0" text-anchor="end" font-family="Arial, sans-serif" font-size="10" fill="#555555">0</text>
<line x1="58" y1="258.5" x2="636" y2="258.5" stroke="#d8d8d8" stroke-width="1"/>
<text x="50" y="261.5" text-anchor="end" font-family="Arial, sans-serif" font-size="10" fill="#555555">1.2</text>
<line x1="58" y1="189.0" x2="636" y2="189.0" stroke="#d8d8d8" stroke-width="1"/>
<text x="50" y="192.0" text-anchor="end" font-family="Arial, sans-serif" font-size="10" fill="#555555">2.41</text>
<line x1="58" y1="119.5" x2="636" y2="119.5" stroke="#d8d8d8" stroke-width="1"/>
<text x="50" y="122.5" text-anchor="end" font-family="Arial, sans-serif" font-size="10" fill="#555555">3.61</text>
<line x1="58" y1="50.0" x2="636" y2="50.0" stroke="#d8d8d8" stroke-width="1"/>
<text x="50" y="53.0" text-anchor="end" font-family="Arial, sans-serif" font-size="10" fill="#555555">4.81</text>
<line x1="58" y1="328" x2="636" y2="328" stroke="#202020" stroke-width="1"/>
<line x1="58" y1="50" x2="58" y2="328" stroke="#202020" stroke-width="1"/>
<text x="347.0" y="368" text-anchor="middle" font-family="Arial, sans-serif" font-size="11" fill="#555555">x</text>
<text x="16" y="189.0" transform="rotate(-90 16 189.0)" text-anchor="middle" font-family="Arial, sans-serif" font-size="11" fill="#555555">y</text>
<polyline points="58.0,306.7 60.2,306.5 62.4,306.3 64.7,306.1 66.9,305.9 69.1,305.7 71.3,305.5 73.6,305.3 75.8,305.0 78.0,304.8 80.2,304.6 82.5,304.4 84.7,304.1 86.9,303.9 89.1,303.7 91.3,303.4 93.6,303.2 95.8,303.0 98.0,302.7 100.2,302.5 102.5,302.2 104.7,302.0 106.9,301.7 109.1,301.5 111.4,301.2 113.6,301.0 115.8,300.7 118.0,300.4 120.2,300.2 122.5,299.9 124.7,299.6 126.9,299.4 129.1,299.1 131.4,298.8 133.6,298.5 135.8,298.2 138.0,297.9 140.3,297.7 142.5,297.4 144.7,297.1 146.9,296.8 149.1,296.5 151.4,296.2 153.6,295.9 155.8,295.5 158.0,295.2 160.3,294.9 162.5,294.6 164.7,294.3 166.9,293.9 169.2,293.6 171.4,293.3 173.6,293.0 175.8,292.6 178.0,292.3 180.3,291.9 182.5,291.6 184.7,291.2 186.9,290.9 189.2,290.5 191.4,290.1 193.6,289.8 195.8,289.4 198.1,289.0 200.3,288.7 202.5,288.3 204.7,287.9 206.9,287.5 209.2,287.1 211.4,286.7 213.6,286.3 215.8,285.9 218.1,285.5 220.3,285.1 222.5,284.7 224.7,284.3 227.0,283.9 229.2,283.4 231.4,283.0 233.6,282.6 235.8,282.1 238.1,281.7 240.3,281.2 242.5,280.8 244.7,280.3 247.0,279.9 249.2,279.4 251.4,278.9 253.6,278.5 255.9,278.0 258.1,277.5 260.3,277.0 262.5,276.5 264.7,276.0 267.0,275.5 269.2,275.0 271.4,274.5 273.6,274.0 275.9,273.5 278.1,272.9 280.3,272.4 282.5,271.9 284.8,271.3 287.0,270.8 289.2,270.2 291.4,269.7 293.6,269.1 295.9,268.5 298.1,267.9 300.3,267.4 302.5,266.8 304.8,266.2 307.0,265.6 309.2,265.0 311.4,264.4 313.7,263.8 315.9,263.1 318.1,262.5 320.3,261.9 322.5,261.2 324.8,260.6 327.0,260.0 329.2,259.3 331.4,258.6 333.7,258.0 335.9,257.3 338.1,256.6 340.3,255.9 342.6,255.2 344.8,254.5 347.0,253.8 349.2,253.1 351.4,252.4 353.7,251.6 355.9,250.9 358.1,250.1 360.3,249.4 362.6,248.6 364.8,247.9 367.0,247.1 369.2,246.3 371.5,245.5 373.7,244.7 375.9,243.9 378.1,243.1 380.3,242.3 382.6,241.5 384.8,240.6 387.0,239.8 389.2,238.9 391.5,238.1 393.7,237.2 395.9,236.3 398.1,235.4 400.4,234.5 402.6,233.6 404.8,232.7 407.0,231.8 409.2,230.9 411.5,229.9 413.7,229.0 415.9,228.0 418.1,227.1 420.4,226.1 422.6,225.1 424.8,224.1 427.0,223.1 429.3,222.1 431.5,221.1 433.7,220.0 435.9,219.0 438.1,217.9 440.4,216.9 442.6,215.8 444.8,214.7 447.0,213.6 449.3,212.5 451.5,211.4 453.7,210.3 455.9,209.1 458.2,208.0 460.4,206.8 462.6,205.7 464.8,204.5 467.0,203.3 469.3,202.1 471.5,200.9 473.7,199.6 475.9,198.4 478.2,197.1 480.4,195.9 482.6,194.6 484.8,193.3 487.1,192.0 489.3,190.7 491.5,189.4 493.7,188.0 495.9,186.7 498.2,185.3 500.4,183.9 502.6,182.5 504.8,181.1 507.1,179.7 509.3,178.3 511.5,176.8 513.7,175.4 516.0,173.9 518.2,172.4 520.4,170.9 522.6,169.4 524.8,167.9 527.1,166.3 529.3,164.8 531.5,163.2 533.7,161.6 536.0,160.0 538.2,158.4 540.4,156.7 542.6,155.1 544.9,153.4 547.1,151.7 549.3,150.0 551.5,148.3 553.7,146.5 556.0,144.8 558.2,143.0 560.4,141.2 562.6,139.4 564.9,137.6 567.1,135.8 569.3,133.9 571.5,132.0 573.8,130.1 576.0,128.2 578.2,126.3 580.4,124.4 582.6,122.4 584.9,120.4 587.1,118.4 589.3,116.4 591.5,114.3 593.8,112.3 596.0,110.2 598.2,108.1 600.4,105.9 602.7,103.8 604.9,101.6 607.1,99.4 609.3,97.2 611.5,95.0 613.8,92.8 616.0,90.5 618.2,88.2 620.4,85.9 622.7,83.5 624.9,81.2 627.1,78.8 629.3,76.4 631.6,74.0 633.8,71.5 636.0,69.0" fill="none" stroke="#202020" stroke-width="2" stroke-linecap="round" stroke-linejoin="round"/>
<polyline points="58.0,306.7 60.2,306.5 62.4,306.3 64.7,306.1 66.9,305.9 69.1,305.7 71.3,305.5 73.6,305.3 75.8,305.0 78.0,304.8 80.2,304.6 82.5,304.4 84.7,304.1 86.9,303.9 89.1,303.7 91.3,303.4 93.6,303.2 95.8,303.0 98.0,302.7 100.2,302.5 102.5,302.2 104.7,302.0 106.9,301.7 109.1,301.5 111.4,301.2 113.6,301.0 115.8,300.7 118.0,300.4 120.2,300.2 122.5,299.9 124.7,299.6 126.9,299.4 129.1,299.1 131.4,298.8 133.6,298.5 135.8,298.2 138.0,297.9 140.3,297.7 142.5,297.4 144.7,297.1 146.9,296.8 149.1,296.5 151.4,296.2 153.6,295.9 155.8,295.5 158.0,295.2 160.3,294.9 162.5,294.6 164.7,294.3 166.9,293.9 169.2,293.6 171.4,293.3 173.6,293.0 175.8,292.6 178.0,292.3 180.3,291.9 182.5,291.6 184.7,291.2 186.9,290.9 189.2,290.5 191.4,290.1 193.6,289.8 195.8,289.4 198.1,289.0 200.3,288.7 202.5,288.3 204.7,287.9 206.9,287.5 209.2,287.1 211.4,286.7 213.6,286.3 215.8,285.9 218.1,285.5 220.3,285.1 222.5,284.7 224.7,284.3 227.0,283.9 229.2,283.4 231.4,283.0 233.6,282.6 235.8,282.1 238.1,281.7 240.3,281.2 242.5,280.8 244.7,280.3 247.0,279.9 249.2,279.4 251.4,278.9 253.6,278.5 255.9,278.0 258.1,277.5 260.3,277.0 262.5,276.5 264.7,276.0 267.0,275.5 269.2,275.0 271.4,274.5 273.6,274.0 275.9,273.5 278.1,272.9 280.3,272.4 282.5,271.9 284.8,271.3 287.0,270.8 289.2,270.2 291.4,269.7 293.6,269.1 295.9,268.5 298.1,267.9 300.3,267.4 302.5,266.8 304.8,266.2 307.0,265.6 309.2,265.0 311.4,264.4 313.7,263.8 315.9,263.1 318.1,262.5 320.3,261.9 322.5,261.2 324.8,260.6 327.0,260.0 329.2,259.3 331.4,258.6 333.7,258.0 335.9,257.3 338.1,256.6 340.3,255.9 342.6,255.2 344.8,254.5 347.0,253.8 349.2,253.1 351.4,252.4 353.7,251.6 355.9,250.9 358.1,250.1 360.3,249.4 362.6,248.6 364.8,247.9 367.0,247.1 369.2,246.3 371.5,245.5 373.7,244.7 375.9,243.9 378.1,243.1 380.3,242.3 382.6,241.5 384.8,240.6 387.0,239.8 389.2,238.9 391.5,238.1 393.7,237.2 395.9,236.3 398.1,235.4 400.4,234.5 402.6,233.6 404.8,232.7 407.0,231.8 409.2,230.9 411.5,229.9 413.7,229.0 415.9,228.0 418.1,227.1 420.4,226.1 422.6,225.1 424.8,224.1 427.0,223.1 429.3,222.1 431.5,221.1 433.7,220.0 435.9,219.0 438.1,217.9 440.4,216.9 442.6,215.8 444.8,214.7 447.0,213.6 449.3,212.5 451.5,211.4 453.7,210.3 455.9,209.1 458.2,208.0 460.4,206.8 462.6,205.7 464.8,204.5 467.0,203.3 469.3,202.1 471.5,200.9 473.7,199.6 475.9,198.4 478.2,197.1 480.4,195.9 482.6,194.6 484.8,193.3 487.1,192.0 489.3,190.7 491.5,189.4 493.7,188.0 495.9,186.7 498.2,185.3 500.4,183.9 502.6,182.5 504.8,181.1 507.1,179.7 509.3,178.3 511.5,176.8 513.7,175.4 516.0,173.9 518.2,172.4 520.4,170.9 522.6,169.4 524.8,167.9 527.1,166.3 529.3,164.8 531.5,163.2 533.7,161.6 536.0,160.0 538.2,158.4 540.4,156.7 542.6,155.1 544.9,153.4 547.1,151.7 549.3,150.0 551.5,148.3 553.7,146.5 556.0,144.8 558.2,143.0 560.4,141.2 562.6,139.4 564.9,137.6 567.1,135.8 569.3,133.9 571.5,132.0 573.8,130.1 576.0,128.2 578.2,126.3 580.4,124.4 582.6,122.4 584.9,120.4 587.1,118.4 589.3,116.4 591.5,114.3 593.8,112.3 596.0,110.2 598.2,108.1 600.4,105.9 602.7,103.8 604.9,101.6 607.1,99.4 609.3,97.2 611.5,95.0 613.8,92.8 616.0,90.5 618.2,88.2 620.4,85.9 622.7,83.5 624.9,81.2 627.1,78.8 629.3,76.4 631.6,74.0 633.8,71.5 636.0,69.0" fill="none" stroke="#1f4e79" stroke-width="2" stroke-dasharray="6 5" stroke-linecap="round" stroke-linejoin="round"/>
<circle cx="58.0" cy="306.7" r="3.2" fill="#111111"/>
<circle cx="104.2" cy="302.0" r="3.2" fill="#111111"/>
<circle cx="150.5" cy="296.3" r="3.2" fill="#111111"/>
<circle cx="196.7" cy="289.3" r="3.2" fill="#111111"/>
<circle cx="243.0" cy="280.7" r="3.2" fill="#111111"/>
<circle cx="289.2" cy="270.2" r="3.2" fill="#111111"/>
<circle cx="335.4" cy="257.4" r="3.2" fill="#111111"/>
<circle cx="381.7" cy="241.8" r="3.2" fill="#111111"/>
<circle cx="427.9" cy="222.7" r="3.2" fill="#111111"/>
<circle cx="474.2" cy="199.4" r="3.2" fill="#111111"/>
<circle cx="520.4" cy="170.9" r="3.2" fill="#111111"/>
<line x1="446" y1="62" x2="472" y2="62" stroke="#202020" stroke-width="2"/>
<text x="480" y="66" font-family="Arial, sans-serif" font-size="11" fill="#202020">target</text>
<line x1="446" y1="80" x2="472" y2="80" stroke="#1f4e79" stroke-width="2" stroke-dasharray="6 5"/>
<text x="480" y="84" font-family="Arial, sans-serif" font-size="11" fill="#202020">candidate</text>
<circle cx="459" cy="98" r="3.2" fill="#111111"/>
<text x="480" y="102" font-family="Arial, sans-serif" font-size="11" fill="#202020">training samples</text>
</svg>
