<?xml version="1.0" encoding="UTF-8"?>
<svg xmlns="http://www.w3.org/2000/svg" width="660" height="380" viewBox="0 0 660 380" role="img" aria-labelledby="title desc">
<title id="title">Damped oscillator</title>
<desc id="desc">Target samples and candidate diagnostic curve for Damped oscillator.</desc>
<rect width="100%" height="100%" fill="#ffffff"/>
<text x="58" y="26" font-family="Arial, sans-serif" font-size="18" font-weight="700" fill="#202020">Damped oscillator</text>
<text x="58" y="45" font-family="Arial, sans-serif" font-size="12" fill="#555555">bad/stretch: smooth surrogate loses oscillation</text>
<line x1="58.0" y1="50" x2="58.0" y2="328" stroke="#d8d8d8" stroke-width="1"/>
<text x="58.0" y="347" text-anchor="middle" font-family="Arial, sans-serif" font-size="10" fill="#555555">0</text>
<line x1="202.5" y1="50" x2="202.5" y2="328" stroke="#d8d8d8" stroke-width="1"/>
<text x="202.5" y="347" text-anchor="middle" font-family="Arial, sans-serif" font-size="10" fill="#555555">2</text>
<line x1="347.0" y1="50" x2="347.0" y2="328" stroke="#d8d8d8" stroke-width="1"/>
<text x="347.0" y="347" text-anchor="middle" font-family="Arial, sans-serif" font-size="10" fill="#555555">4</text>
<line x1="491.5" y1="50" x2="491.5" y2="328" stroke="#d8d8d8" stroke-width="1"/>
<text x="491.5" y="347" text-anchor="middle" font-family="Arial, sans-serif" font-size="10" fill="#555555">6</text>
<line x1="636.0" y1="50" x2="636.0" y2="328" stroke="#d8d8d8" stroke-width="1"/>
<text x="636.0" y="347" text-anchor="middle" font-family="Arial, sans-serif" font-size="10" fill="#555555">8</text>
<line x1="58" y1="328.0" x2="636" y2="328.0" stroke="#d8d8d8" stroke-width="1"/>
<text x="50" y="331.0" text-anchor="end" font-family="Arial, sans-serif" font-size="10" fill="#555555">-0.98</text>
<line x1="58" y1="258.5" x2="636" y2="258.5" stroke="#d8d8d8" stroke-width="1"/>
<text x="50" y="261.5" text-anchor="end" font-family="Arial, sans-serif" font-size="10" fill="#555555">-0.46</text>
<line x1="58" y1="189.0" x2="636" y2="189.0" stroke="#d8d8d8" stroke-width="1"/>
<text x="50" y="192.0" text-anchor="end" font-family="Arial, sans-serif" font-size="10" fill="#555555">0.07</text>
<line x1="58" y1="119.5" x2="636" y2="119.5" stroke="#d8d8d8" stroke-width="1"/>
<text x="50" y="122.5" text-anchor="end" font-family="Arial, sans-serif" font-size="10" fill="#555555">0.6</text>
<line x1="58" y1="50.0" x2="636" y2="50.0" stroke="#d8d8d8" stroke-width="1"/>
<text x="50" y="53.0" text-anchor="end" font-family="Arial, sans-serif" font-size="10" fill="#555555">1.13</text>
<line x1="58" y1="328" x2="636" y2="328" stroke="#202020" stroke-width="1"/>
<line x1="58" y1="50" x2="58" y2="328" stroke="#202020" stroke-width="1"/>
<text x="347.0" y="368" text-anchor="middle" font-family="Arial, sans-serif" font-size="11" fill="#555555">time</text>
<text x="16" y="189.0" transform="rotate(-90 16 189.0)" text-anchor="middle" font-family="Arial, sans-serif" font-size="11" fill="#555555">amplitude</text>
<polyline points="58.0,69.2 60.2,72.1 62.4,75.8 64.7,80.2 66.9,85.3 69.1,90.9 71.3,97.2 73.6,104.0 75.8,111.2 78.0,119.0 80.2,127.1 82.5,135.6 84.7,144.3 86.9,153.3 89.1,162.5 91.3,171.8 93.6,181.2 95.8,190.6 98.0,200.0 100.2,209.2 102.5,218.3 104.7,227.2 106.9,235.9 109.1,244.2 111.4,252.2 113.6,259.9 115.8,267.0 118.0,273.7 120.2,279.9 122.5,285.6 124.7,290.7 126.9,295.2 129.1,299.1 131.4,302.3 133.6,304.9 135.8,306.9 138.0,308.2 140.3,308.8 142.5,308.8 144.7,308.1 146.9,306.8 149.1,304.9 151.4,302.3 153.6,299.1 155.8,295.4 158.0,291.2 160.3,286.4 162.5,281.1 164.7,275.5 166.9,269.4 169.2,262.9 171.4,256.1 173.6,249.1 175.8,241.8 178.0,234.3 180.3,226.7 182.5,219.0 184.7,211.2 186.9,203.4 189.2,195.7 191.4,188.0 193.6,180.5 195.8,173.1 198.1,166.0 200.3,159.1 202.5,152.6 204.7,146.3 206.9,140.4 209.2,134.9 211.4,129.9 213.6,125.3 215.8,121.1 218.1,117.5 220.3,114.3 222.5,111.7 224.7,109.6 227.0,108.1 229.2,107.1 231.4,106.7 233.6,106.8 235.8,107.4 238.1,108.6 240.3,110.3 242.5,112.5 244.7,115.2 247.0,118.4 249.2,122.0 251.4,126.0 253.6,130.4 255.9,135.1 258.1,140.2 260.3,145.6 262.5,151.3 264.7,157.2 267.0,163.2 269.2,169.4 271.4,175.8 273.6,182.2 275.9,188.6 278.1,195.1 280.3,201.5 282.5,207.8 284.8,214.0 287.0,220.1 289.2,225.9 291.4,231.6 293.6,237.0 295.9,242.1 298.1,246.9 300.3,251.4 302.5,255.6 304.8,259.3 307.0,262.7 309.2,265.7 311.4,268.2 313.7,270.3 315.9,271.9 318.1,273.1 320.3,273.9 322.5,274.2 324.8,274.0 327.0,273.4 329.2,272.3 331.4,270.9 333.7,269.0 335.9,266.7 338.1,264.0 340.3,261.0 342.6,257.6 344.8,253.9 347.0,249.9 349.2,245.7 351.4,241.2 353.7,236.4 355.9,231.5 358.1,226.5 360.3,221.3 362.6,216.1 364.8,210.8 367.0,205.4 369.2,200.1 371.5,194.8 373.7,189.6 375.9,184.5 378.1,179.5 380.3,174.6 382.6,170.0 384.8,165.5 387.0,161.3 389.2,157.4 391.5,153.7 393.7,150.3 395.9,147.2 398.1,144.5 400.4,142.1 402.6,140.1 404.8,138.4 407.0,137.1 409.2,136.2 411.5,135.6 413.7,135.4 415.9,135.6 418.1,136.2 420.4,137.1 422.6,138.4 424.8,140.0 427.0,142.0 429.3,144.2 431.5,146.8 433.7,149.6 435.9,152.7 438.1,156.1 440.4,159.6 442.6,163.4 444.8,167.3 447.0,171.4 449.3,175.6 451.5,179.9 453.7,184.2 455.9,188.6 458.2,193.1 460.4,197.5 462.6,201.9 464.8,206.2 467.0,210.4 469.3,214.5 471.5,218.5 473.7,222.3 475.9,226.0 478.2,229.4 480.4,232.7 482.6,235.7 484.8,238.4 487.1,240.9 489.3,243.1 491.5,245.1 493.7,246.7 495.9,248.1 498.2,249.1 500.4,249.8 502.6,250.2 504.8,250.3 507.1,250.1 509.3,249.6 511.5,248.8 513.7,247.7 516.0,246.3 518.2,244.6 520.4,242.7 522.6,240.6 524.8,238.2 527.1,235.6 529.3,232.8 531.5,229.8 533.7,226.7 536.0,223.4 538.2,220.0 540.4,216.5 542.6,213.0 544.9,209.3 547.1,205.7 549.3,202.0 551.5,198.4 553.7,194.7 556.0,191.2 558.2,187.7 560.4,184.3 562.6,181.0 564.9,177.9 567.1,174.9 569.3,172.0 571.5,169.4 573.8,166.9 576.0,164.7 578.2,162.7 580.4,160.9 582.6,159.3 584.9,158.0 587.1,156.9 589.3,156.1 591.5,155.5 593.8,155.2 596.0,155.2 598.2,155.4 600.4,155.9 602.7,156.6 604.9,157.5 607.1,158.7 609.3,160.1 611.5,161.7 613.8,163.6 616.0,165.6 618.2,167.7 620.4,170.1 622.7,172.6 624.9,175.2 627.1,177.9 629.3,180.7 631.6,183.6 633.8,186.6 636.0,189.6" fill="none" stroke="#202020" stroke-width="2" stroke-linecap="round" stroke-linejoin="round"/>
<polyline points="58.0,125.8 60.2,126.2 62.4,126.5 64.7,126.8 66.9,127.2 69.1,127.5 71.3,127.8 73.6,128.1 75.8,128.5 78.0,128.8 80.2,129.1 82.5,129.4 84.7,129.7 86.9,130.0 89.1,130.4 91.3,130.7 93.6,131.0 95.8,131.3 98.0,131.6 100.2,131.9 102.5,132.2 104.7,132.5 106.9,132.8 109.1,133.1 111.4,133.4 113.6,133.7 115.8,134.0 118.0,134.3 120.2,134.6 122.5,134.9 124.7,135.2 126.9,135.5 129.1,135.8 131.4,136.1 133.6,136.3 135.8,136.6 138.0,136.9 140.3,137.2 142.5,137.5 144.7,137.8 146.9,138.0 149.1,138.3 151.4,138.6 153.6,138.9 155.8,139.1 158.0,139.4 160.3,139.7 162.5,140.0 164.7,140.2 166.9,140.5 169.2,140.8 171.4,141.0 173.6,141.3 175.8,141.5 178.0,141.8 180.3,142.1 182.5,142.3 184.7,142.6 186.9,142.8 189.2,143.1 191.4,143.4 193.6,143.6 195.8,143.9 198.1,144.1 200.3,144.4 202.5,144.6 204.7,144.9 206.9,145.1 209.2,145.3 211.4,145.6 213.6,145.8 215.8,146.1 218.1,146.3 220.3,146.6 222.5,146.8 224.7,147.0 227.0,147.3 229.2,147.5 231.4,147.7 233.6,148.0 235.8,148.2 238.1,148.4 240.3,148.7 242.5,148.9 244.7,149.1 247.0,149.3 249.2,149.6 251.4,149.8 253.6,150.0 255.9,150.2 258.1,150.5 260.3,150.7 262.5,150.9 264.7,151.1 267.0,151.3 269.2,151.5 271.4,151.8 273.6,152.0 275.9,152.2 278.1,152.4 280.3,152.6 282.5,152.8 284.8,153.0 287.0,153.2 289.2,153.4 291.4,153.7 293.6,153.9 295.9,154.1 298.1,154.3 300.3,154.5 302.5,154.7 304.8,154.9 307.0,155.1 309.2,155.3 311.4,155.5 313.7,155.7 315.9,155.9 318.1,156.1 320.3,156.3 322.5,156.4 324.8,156.6 327.0,156.8 329.2,157.0 331.4,157.2 333.7,157.4 335.9,157.6 338.1,157.8 340.3,158.0 342.6,158.1 344.8,158.3 347.0,158.5 349.2,158.7 351.4,158.9 353.7,159.1 355.9,159.2 358.1,159.4 360.3,159.6 362.6,159.8 364.8,160.0 367.0,160.1 369.2,160.3 371.5,160.5 373.7,160.7 375.9,160.8 378.1,161.0 380.3,161.2 382.6,161.3 384.8,161.5 387.0,161.7 389.2,161.9 391.5,162.0 393.7,162.2 395.9,162.4 398.1,162.5 400.4,162.7 402.6,162.8 404.8,163.0 407.0,163.2 409.2,163.3 411.5,163.5 413.7,163.7 415.9,163.8 418.1,164.0 420.4,164.1 422.6,164.3 424.8,164.4 427.0,164.6 429.3,164.8 431.5,164.9 433.7,165.1 435.9,165.2 438.1,165.4 440.4,165.5 442.6,165.7 444.8,165.8 447.0,166.0 449.3,166.1 451.5,166.3 453.7,166.4 455.9,166.6 458.2,166.7 460.4,166.9 462.6,167.0 464.8,167.1 467.0,167.3 469.3,167.4 471.5,167.6 473.7,167.7 475.9,167.9 478.2,168.0 480.4,168.1 482.6,168.3 484.8,168.4 487.1,168.5 489.3,168.7 491.5,168.8 493.7,169.0 495.9,169.1 498.2,169.2 500.4,169.4 502.6,169.5 504.8,169.6 507.1,169.8 509.3,169.9 511.5,170.0 513.7,170.2 516.0,170.3 518.2,170.4 520.4,170.5 522.6,170.7 524.8,170.8 527.1,170.9 529.3,171.0 531.5,171.2 533.7,171.3 536.0,171.4 538.2,171.5 540.4,171.7 542.6,171.8 544.9,171.9 547.1,172.0 549.3,172.2 551.5,172.3 553.7,172.4 556.0,172.5 558.2,172.6 560.4,172.7 562.6,172.9 564.9,173.0 567.1,173.1 569.3,173.2 571.5,173.3 573.8,173.4 576.0,173.6 578.2,173.7 580.4,173.8 582.6,173.9 584.9,174.0 587.1,174.1 589.3,174.2 591.5,174.3 593.8,174.5 596.0,174.6 598.2,174.7 600.4,174.8 602.7,174.9 604.9,175.0 607.1,175.1 609.3,175.2 611.5,175.3 613.8,175.4 616.0,175.5 618.2,175.6 620.4,175.7 622.7,175.8 624.9,175.9 627.1,176.1 629.3,176.2 631.6,176.3 633.8,176.4 636.0,176.5" fill="none" stroke="#8a3b12" stroke-width="2" stroke-dasharray="6 5" stroke-linecap="round" stroke-linejoin="round"/>
<circle cx="58.0" cy="69.2" r="3.2" fill="#111111"/>
<circle cx="101.3" cy="213.8" r="3.2" fill="#111111"/>
<circle cx="144.7" cy="308.1" r="3.2" fill="#111111"/>
<circle cx="188.1" cy="199.5" r="3.2" fill="#111111"/>
<circle cx="231.4" cy="106.7" r="3.2" fill="#111111"/>
<circle cx="274.8" cy="185.4" r="3.2" fill="#111111"/>
<circle cx="318.1" cy="273.1" r="3.2" fill="#111111"/>
<circle cx="361.4" cy="218.7" r="3.2" fill="#111111"/>
<circle cx="404.8" cy="138.4" r="3.2" fill="#111111"/>
<circle cx="448.2" cy="173.5" r="3.2" fill="#111111"/>
<circle cx="491.5" cy="245.1" r="3.2" fill="#111111"/>
<line x1="446" y1="62" x2="472" y2="62" stroke="#202020" stroke-width="2"/>
<text x="480" y="66" font-family="Arial, sans-serif" font-size="11" fill="#202020">target</text>
<line x1="446" y1="80" x2="472" y2="80" stroke="#8a3b12" stroke-width="2" stroke-dasharray="6 5"/>
<text x="480" y="84" font-family="Arial, sans-serif" font-size="11" fill="#202020">candidate</text>
<circle cx="459" cy="98" r="3.2" fill="#111111"/>
<text x="480" y="102" font-family="Arial, sans-serif" font-size="11" fill="#202020">training samples</text>
</svg>
