<?xml version="1.0" encoding="UTF-8"?>
<svg xmlns="http://www.w3.org/2000/svg" width="660" height="380" viewBox="0 0 660 380" role="img" aria-labelledby="title desc">
<title id="title">Logistic growth</title>
<desc id="desc">Target samples and candidate diagnostic curve for Logistic growth.</desc>
<rect width="100%" height="100%" fill="#ffffff"/>
<text x="58" y="26" font-family="Arial, sans-serif" font-size="18" font-weight="700" fill="#202020">Logistic growth</text>
<text x="58" y="45" font-family="Arial, sans-serif" font-size="12" fill="#555555">bad/stretch: low-budget diagnostic underfits saturation</text>
<line x1="58.0" y1="50" x2="58.0" y2="328" stroke="#d8d8d8" stroke-width="1"/>
<text x="58.0" y="347" text-anchor="middle" font-family="Arial, sans-serif" font-size="10" fill="#555555">0</text>
<line x1="202.5" y1="50" x2="202.5" y2="328" stroke="#d8d8d8" stroke-width="1"/>
<text x="202.5" y="347" text-anchor="middle" font-family="Arial, sans-serif" font-size="10" fill="#555555">1.75</text>
<line x1="347.0" y1="50" x2="347.0" y2="328" stroke="#d8d8d8" stroke-width="1"/>
<text x="347.0" y="347" text-anchor="middle" font-family="Arial, sans-serif" font-size="10" fill="#555555">3.5</text>
<line x1="491.5" y1="50" x2="491.5" y2="328" stroke="#d8d8d8" stroke-width="1"/>
<text x="491.5" y="347" text-anchor="middle" font-family="Arial, sans-serif" font-size="10" fill="#555555">5.25</text>
<line x1="636.0" y1="50" x2="636.0" y2="328" stroke="#d8d8d8" stroke-width="1"/>
<text x="636.0" y="347" text-anchor="middle" font-family="Arial, sans-serif" font-size="10" fill="#555555">7</text>
<line x1="58" y1="328.0" x2="636" y2="328.0" stroke="#d8d8d8" stroke-width="1"/>
<text x="50" y="331.0" text-anchor="end" font-family="Arial, sans-serif" font-size="10" fill="#555555">0</text>
<line x1="58" y1="258.5" x2="636" y2="258.5" stroke="#d8d8d8" stroke-width="1"/>
<text x="50" y="261.5" text-anchor="end" font-family="Arial, sans-serif" font-size="10" fill="#555555">0.26</text>
<line x1="58" y1="189.0" x2="636" y2="189.0" stroke="#d8d8d8" stroke-width="1"/>
<text x="50" y="192.0" text-anchor="end" font-family="Arial, sans-serif" font-size="10" fill="#555555">0.53</text>
<line x1="58" y1="119.5" x2="636" y2="119.5" stroke="#d8d8d8" stroke-width="1"/>
<text x="50" y="122.5" text-anchor="end" font-family="Arial, sans-serif" font-size="10" fill="#555555">0.79</text>
<line x1="58" y1="50.0" x2="636" y2="50.0" stroke="#d8d8d8" stroke-width="1"/>
<text x="50" y="53.0" text-anchor="end" font-family="Arial, sans-serif" font-size="10" fill="#555555">1.05</text>
<line x1="58" y1="328" x2="636" y2="328" stroke="#202020" stroke-width="1"/>
<line x1="58" y1="50" x2="58" y2="328" stroke="#202020" stroke-width="1"/>
<text x="347.0" y="368" text-anchor="middle" font-family="Arial, sans-serif" font-size="11" fill="#555555">time</text>
<text x="16" y="189.0" transform="rotate(-90 16 189.0)" text-anchor="middle" font-family="Arial, sans-serif" font-size="11" fill="#555555">population scale</text>
<polyline points="58.0,240.0 60.2,238.0 62.4,235.9 64.7,233.8 66.9,231.6 69.1,229.5 71.3,227.3 73.6,225.1 75.8,222.9 78.0,220.7 80.2,218.5 82.5,216.2 84.7,213.9 86.9,211.7 89.1,209.4 91.3,207.1 93.6,204.8 95.8,202.5 98.0,200.2 100.2,197.9 102.5,195.6 104.7,193.3 106.9,191.0 109.1,188.7 111.4,186.4 113.6,184.1 115.8,181.8 118.0,179.5 120.2,177.2 122.5,175.0 124.7,172.7 126.9,170.5 129.1,168.3 131.4,166.1 133.6,163.9 135.8,161.8 138.0,159.6 140.3,157.5 142.5,155.4 144.7,153.3 146.9,151.2 149.1,149.2 151.4,147.2 153.6,145.2 155.8,143.3 158.0,141.4 160.3,139.5 162.5,137.6 164.7,135.7 166.9,133.9 169.2,132.1 171.4,130.4 173.6,128.7 175.8,127.0 178.0,125.3 180.3,123.7 182.5,122.1 184.7,120.5 186.9,119.0 189.2,117.5 191.4,116.0 193.6,114.6 195.8,113.1 198.1,111.8 200.3,110.4 202.5,109.1 204.7,107.8 206.9,106.5 209.2,105.3 211.4,104.1 213.6,102.9 215.8,101.8 218.1,100.7 220.3,99.6 222.5,98.5 224.7,97.5 227.0,96.5 229.2,95.5 231.4,94.5 233.6,93.6 235.8,92.7 238.1,91.8 240.3,91.0 242.5,90.1 244.7,89.3 247.0,88.5 249.2,87.8 251.4,87.0 253.6,86.3 255.9,85.6 258.1,84.9 260.3,84.2 262.5,83.6 264.7,83.0 267.0,82.4 269.2,81.8 271.4,81.2 273.6,80.7 275.9,80.1 278.1,79.6 280.3,79.1 282.5,78.6 284.8,78.1 287.0,77.7 289.2,77.2 291.4,76.8 293.6,76.4 295.9,76.0 298.1,75.6 300.3,75.2 302.5,74.8 304.8,74.5 307.0,74.1 309.2,73.8 311.4,73.5 313.7,73.2 315.9,72.9 318.1,72.6 320.3,72.3 322.5,72.0 324.8,71.8 327.0,71.5 329.2,71.3 331.4,71.0 333.7,70.8 335.9,70.6 338.1,70.3 340.3,70.1 342.6,69.9 344.8,69.7 347.0,69.5 349.2,69.4 351.4,69.2 353.7,69.0 355.9,68.8 358.1,68.7 360.3,68.5 362.6,68.4 364.8,68.2 367.0,68.1 369.2,67.9 371.5,67.8 373.7,67.7 375.9,67.6 378.1,67.4 380.3,67.3 382.6,67.2 384.8,67.1 387.0,67.0 389.2,66.9 391.5,66.8 393.7,66.7 395.9,66.6 398.1,66.5 400.4,66.5 402.6,66.4 404.8,66.3 407.0,66.2 409.2,66.2 411.5,66.1 413.7,66.0 415.9,65.9 418.1,65.9 420.4,65.8 422.6,65.8 424.8,65.7 427.0,65.6 429.3,65.6 431.5,65.5 433.7,65.5 435.9,65.4 438.1,65.4 440.4,65.4 442.6,65.3 444.8,65.3 447.0,65.2 449.3,65.2 451.5,65.1 453.7,65.1 455.9,65.1 458.2,65.0 460.4,65.0 462.6,65.0 464.8,64.9 467.0,64.9 469.3,64.9 471.5,64.9 473.7,64.8 475.9,64.8 478.2,64.8 480.4,64.8 482.6,64.7 484.8,64.7 487.1,64.7 489.3,64.7 491.5,64.6 493.7,64.6 495.9,64.6 498.2,64.6 500.4,64.6 502.6,64.6 504.8,64.5 507.1,64.5 509.3,64.5 511.5,64.5 513.7,64.5 516.0,64.5 518.2,64.5 520.4,64.4 522.6,64.4 524.8,64.4 527.1,64.4 529.3,64.4 531.5,64.4 533.7,64.4 536.0,64.4 538.2,64.4 540.4,64.3 542.6,64.3 544.9,64.3 547.1,64.3 549.3,64.3 551.5,64.3 553.7,64.3 556.0,64.3 558.2,64.3 560.4,64.3 562.6,64.3 564.9,64.3 567.1,64.3 569.3,64.2 571.5,64.2 573.8,64.2 576.0,64.2 578.2,64.2 580.4,64.2 582.6,64.2 584.9,64.2 587.1,64.2 589.3,64.2 591.5,64.2 593.8,64.2 596.0,64.2 598.2,64.2 600.4,64.2 602.7,64.2 604.9,64.2 607.1,64.2 609.3,64.2 611.5,64.2 613.8,64.2 616.0,64.2 618.2,64.2 620.4,64.2 622.7,64.1 624.9,64.1 627.1,64.1 629.3,64.1 631.6,64.1 633.8,64.1 636.0,64.1" fill="none" stroke="#202020" stroke-width="2" stroke-linecap="round" stroke-linejoin="round"/>
<polyline points="58.0,238.3 60.2,237.6 62.4,236.9 64.7,236.2 66.9,235.6 69.1,234.9 71.3,234.2 73.6,233.5 75.8,232.9 78.0,232.2 80.2,231.5 82.5,230.8 84.7,230.2 86.9,229.5 89.1,228.8 91.3,228.1 93.6,227.5 95.8,226.8 98.0,226.1 100.2,225.4 102.5,224.8 104.7,224.1 106.9,223.4 109.1,222.7 111.4,222.1 113.6,221.4 115.8,220.7 118.0,220.0 120.2,219.4 122.5,218.7 124.7,218.0 126.9,217.3 129.1,216.7 131.4,216.0 133.6,215.3 135.8,214.6 138.0,214.0 140.3,213.3 142.5,212.6 144.7,211.9 146.9,211.3 149.1,210.6 151.4,209.9 153.6,209.2 155.8,208.6 158.0,207.9 160.3,207.2 162.5,206.5 164.7,205.9 166.9,205.2 169.2,204.5 171.4,203.8 173.6,203.2 175.8,202.5 178.0,201.8 180.3,201.1 182.5,200.5 184.7,199.8 186.9,199.1 189.2,198.4 191.4,197.8 193.6,197.1 195.8,196.4 198.1,195.7 200.3,195.1 202.5,194.4 204.7,193.7 206.9,193.0 209.2,192.4 211.4,191.7 213.6,191.0 215.8,190.3 218.1,189.7 220.3,189.0 222.5,188.3 224.7,187.6 227.0,187.0 229.2,186.3 231.4,185.6 233.6,184.9 235.8,184.3 238.1,183.6 240.3,182.9 242.5,182.2 244.7,181.6 247.0,180.9 249.2,180.2 251.4,179.5 253.6,178.9 255.9,178.2 258.1,177.5 260.3,176.8 262.5,176.2 264.7,175.5 267.0,174.8 269.2,174.1 271.4,173.5 273.6,172.8 275.9,172.1 278.1,171.4 280.3,170.8 282.5,170.1 284.8,169.4 287.0,168.7 289.2,168.1 291.4,167.4 293.6,166.7 295.9,166.0 298.1,165.4 300.3,164.7 302.5,164.0 304.8,163.3 307.0,162.7 309.2,162.0 311.4,161.3 313.7,160.6 315.9,160.0 318.1,159.3 320.3,158.6 322.5,157.9 324.8,157.3 327.0,156.6 329.2,155.9 331.4,155.2 333.7,154.6 335.9,153.9 338.1,153.2 340.3,152.5 342.6,151.9 344.8,151.2 347.0,150.5 349.2,149.8 351.4,149.2 353.7,148.5 355.9,147.8 358.1,147.1 360.3,146.5 362.6,145.8 364.8,145.1 367.0,144.4 369.2,143.8 371.5,143.1 373.7,142.4 375.9,141.7 378.1,141.1 380.3,140.4 382.6,139.7 384.8,139.0 387.0,138.4 389.2,137.7 391.5,137.0 393.7,136.3 395.9,135.7 398.1,135.0 400.4,134.3 402.6,133.6 404.8,133.0 407.0,132.3 409.2,131.6 411.5,130.9 413.7,130.3 415.9,129.6 418.1,128.9 420.4,128.2 422.6,127.6 424.8,126.9 427.0,126.2 429.3,125.5 431.5,124.9 433.7,124.2 435.9,123.5 438.1,122.8 440.4,122.2 442.6,121.5 444.8,120.8 447.0,120.1 449.3,119.5 451.5,118.8 453.7,118.1 455.9,117.4 458.2,116.8 460.4,116.1 462.6,115.4 464.8,114.7 467.0,114.1 469.3,113.4 471.5,112.7 473.7,112.0 475.9,111.4 478.2,110.7 480.4,110.0 482.6,109.3 484.8,108.7 487.1,108.0 489.3,107.3 491.5,106.6 493.7,106.0 495.9,105.3 498.2,104.6 500.4,103.9 502.6,103.3 504.8,102.6 507.1,101.9 509.3,101.2 511.5,100.6 513.7,99.9 516.0,99.2 518.2,98.5 520.4,97.9 522.6,97.2 524.8,96.5 527.1,95.8 529.3,95.2 531.5,94.5 533.7,93.8 536.0,93.1 538.2,92.5 540.4,91.8 542.6,91.1 544.9,90.4 547.1,89.8 549.3,89.1 551.5,88.4 553.7,87.7 556.0,87.1 558.2,86.4 560.4,85.7 562.6,85.0 564.9,84.4 567.1,83.7 569.3,83.0 571.5,82.3 573.8,81.7 576.0,81.0 578.2,80.3 580.4,79.6 582.6,79.0 584.9,78.3 587.1,77.6 589.3,76.9 591.5,76.3 593.8,75.6 596.0,74.9 598.2,74.2 600.4,73.6 602.7,72.9 604.9,72.2 607.1,71.5 609.3,70.9 611.5,70.2 613.8,69.5 616.0,68.8 618.2,68.2 620.4,67.5 622.7,66.8 624.9,66.1 627.1,65.5 629.3,64.8 631.6,64.1 633.8,64.1 636.0,64.1" fill="none" stroke="#8a3b12" stroke-width="2" stroke-dasharray="6 5" stroke-linecap="round" stroke-linejoin="round"/>
<circle cx="58.0" cy="240.0" r="3.2" fill="#111111"/>
<circle cx="99.3" cy="198.9" r="3.2" fill="#111111"/>
<circle cx="140.6" cy="157.2" r="3.2" fill="#111111"/>
<circle cx="181.9" cy="122.5" r="3.2" fill="#111111"/>
<circle cx="223.1" cy="98.2" r="3.2" fill="#111111"/>
<circle cx="264.4" cy="83.1" r="3.2" fill="#111111"/>
<circle cx="305.7" cy="74.3" r="3.2" fill="#111111"/>
<circle cx="347.0" cy="69.5" r="3.2" fill="#111111"/>
<circle cx="388.3" cy="67.0" r="3.2" fill="#111111"/>
<circle cx="429.6" cy="65.6" r="3.2" fill="#111111"/>
<circle cx="470.9" cy="64.9" r="3.2" fill="#111111"/>
<line x1="446" y1="62" x2="472" y2="62" stroke="#202020" stroke-width="2"/>
<text x="480" y="66" font-family="Arial, sans-serif" font-size="11" fill="#202020">target</text>
<line x1="446" y1="80" x2="472" y2="80" stroke="#8a3b12" stroke-width="2" stroke-dasharray="6 5"/>
<text x="480" y="84" font-family="Arial, sans-serif" font-size="11" fill="#202020">candidate</text>
<circle cx="459" cy="98" r="3.2" fill="#111111"/>
<text x="480" y="102" font-family="Arial, sans-serif" font-size="11" fill="#202020">training samples</text>
</svg>
