<?xml version="1.0" encoding="UTF-8"?>
<svg xmlns="http://www.w3.org/2000/svg" width="660" height="380" viewBox="0 0 660 380" role="img" aria-labelledby="title desc">
<title id="title">Arrhenius curve</title>
<desc id="desc">Target samples and candidate diagnostic curve for Arrhenius curve.</desc>
<rect width="100%" height="100%" fill="#ffffff"/>
<text x="58" y="26" font-family="Arial, sans-serif" font-size="18" font-weight="700" fill="#202020">Arrhenius curve</text>
<text x="58" y="45" font-family="Arial, sans-serif" font-size="12" fill="#555555">good: same-AST warm-start overlay</text>
<line x1="58.0" y1="50" x2="58.0" y2="328" stroke="#d8d8d8" stroke-width="1"/>
<text x="58.0" y="347" text-anchor="middle" font-family="Arial, sans-serif" font-size="10" fill="#555555">0.5</text>
<line x1="202.5" y1="50" x2="202.5" y2="328" stroke="#d8d8d8" stroke-width="1"/>
<text x="202.5" y="347" text-anchor="middle" font-family="Arial, sans-serif" font-size="10" fill="#555555">1.43</text>
<line x1="347.0" y1="50" x2="347.0" y2="328" stroke="#d8d8d8" stroke-width="1"/>
<text x="347.0" y="347" text-anchor="middle" font-family="Arial, sans-serif" font-size="10" fill="#555555">2.35</text>
<line x1="491.5" y1="50" x2="491.5" y2="328" stroke="#d8d8d8" stroke-width="1"/>
<text x="491.5" y="347" text-anchor="middle" font-family="Arial, sans-serif" font-size="10" fill="#555555">3.28</text>
<line x1="636.0" y1="50" x2="636.0" y2="328" stroke="#d8d8d8" stroke-width="1"/>
<text x="636.0" y="347" text-anchor="middle" font-family="Arial, sans-serif" font-size="10" fill="#555555">4.2</text>
<line x1="58" y1="328.0" x2="636" y2="328.0" stroke="#d8d8d8" stroke-width="1"/>
<text x="50" y="331.0" text-anchor="end" font-family="Arial, sans-serif" font-size="10" fill="#555555">0</text>
<line x1="58" y1="258.5" x2="636" y2="258.5" stroke="#d8d8d8" stroke-width="1"/>
<text x="50" y="261.5" text-anchor="end" font-family="Arial, sans-serif" font-size="10" fill="#555555">0.22</text>
<line x1="58" y1="189.0" x2="636" y2="189.0" stroke="#d8d8d8" stroke-width="1"/>
<text x="50" y="192.0" text-anchor="end" font-family="Arial, sans-serif" font-size="10" fill="#555555">0.44</text>
<line x1="58" y1="119.5" x2="636" y2="119.5" stroke="#d8d8d8" stroke-width="1"/>
<text x="50" y="122.5" text-anchor="end" font-family="Arial, sans-serif" font-size="10" fill="#555555">0.66</text>
<line x1="58" y1="50.0" x2="636" y2="50.0" stroke="#d8d8d8" stroke-width="1"/>
<text x="50" y="53.0" text-anchor="end" font-family="Arial, sans-serif" font-size="10" fill="#555555">0.88</text>
<line x1="58" y1="328" x2="636" y2="328" stroke="#202020" stroke-width="1"/>
<line x1="58" y1="50" x2="58" y2="328" stroke="#202020" stroke-width="1"/>
<text x="347.0" y="368" text-anchor="middle" font-family="Arial, sans-serif" font-size="11" fill="#555555">normalized temperature</text>
<text x="16" y="189.0" transform="rotate(-90 16 189.0)" text-anchor="middle" font-family="Arial, sans-serif" font-size="11" fill="#555555">rate scale</text>
<polyline points="58.0,264.0 60.2,261.1 62.4,258.2 64.7,255.4 66.9,252.6 69.1,249.8 71.3,247.1 73.6,244.5 75.8,241.8 78.0,239.3 80.2,236.7 82.5,234.2 84.7,231.8 86.9,229.4 89.1,227.0 91.3,224.7 93.6,222.4 95.8,220.1 98.0,217.9 100.2,215.7 102.5,213.6 104.7,211.5 106.9,209.4 109.1,207.4 111.4,205.4 113.6,203.5 115.8,201.5 118.0,199.7 120.2,197.8 122.5,196.0 124.7,194.2 126.9,192.4 129.1,190.7 131.4,189.0 133.6,187.4 135.8,185.7 138.0,184.1 140.3,182.5 142.5,181.0 144.7,179.4 146.9,177.9 149.1,176.4 151.4,175.0 153.6,173.5 155.8,172.1 158.0,170.7 160.3,169.4 162.5,168.0 164.7,166.7 166.9,165.4 169.2,164.1 171.4,162.9 173.6,161.6 175.8,160.4 178.0,159.2 180.3,158.0 182.5,156.8 184.7,155.7 186.9,154.6 189.2,153.5 191.4,152.4 193.6,151.3 195.8,150.2 198.1,149.1 200.3,148.1 202.5,147.1 204.7,146.1 206.9,145.1 209.2,144.1 211.4,143.1 213.6,142.2 215.8,141.3 218.1,140.3 220.3,139.4 222.5,138.5 224.7,137.6 227.0,136.8 229.2,135.9 231.4,135.0 233.6,134.2 235.8,133.4 238.1,132.5 240.3,131.7 242.5,130.9 244.7,130.1 247.0,129.4 249.2,128.6 251.4,127.8 253.6,127.1 255.9,126.4 258.1,125.6 260.3,124.9 262.5,124.2 264.7,123.5 267.0,122.8 269.2,122.1 271.4,121.4 273.6,120.7 275.9,120.1 278.1,119.4 280.3,118.8 282.5,118.1 284.8,117.5 287.0,116.9 289.2,116.3 291.4,115.6 293.6,115.0 295.9,114.4 298.1,113.9 300.3,113.3 302.5,112.7 304.8,112.1 307.0,111.6 309.2,111.0 311.4,110.4 313.7,109.9 315.9,109.4 318.1,108.8 320.3,108.3 322.5,107.8 324.8,107.3 327.0,106.7 329.2,106.2 331.4,105.7 333.7,105.2 335.9,104.7 338.1,104.3 340.3,103.8 342.6,103.3 344.8,102.8 347.0,102.4 349.2,101.9 351.4,101.4 353.7,101.0 355.9,100.5 358.1,100.1 360.3,99.6 362.6,99.2 364.8,98.8 367.0,98.3 369.2,97.9 371.5,97.5 373.7,97.1 375.9,96.7 378.1,96.3 380.3,95.9 382.6,95.5 384.8,95.1 387.0,94.7 389.2,94.3 391.5,93.9 393.7,93.5 395.9,93.1 398.1,92.8 400.4,92.4 402.6,92.0 404.8,91.7 407.0,91.3 409.2,90.9 411.5,90.6 413.7,90.2 415.9,89.9 418.1,89.5 420.4,89.2 422.6,88.8 424.8,88.5 427.0,88.2 429.3,87.8 431.5,87.5 433.7,87.2 435.9,86.9 438.1,86.5 440.4,86.2 442.6,85.9 444.8,85.6 447.0,85.3 449.3,85.0 451.5,84.7 453.7,84.4 455.9,84.1 458.2,83.8 460.4,83.5 462.6,83.2 464.8,82.9 467.0,82.6 469.3,82.3 471.5,82.0 473.7,81.8 475.9,81.5 478.2,81.2 480.4,80.9 482.6,80.7 484.8,80.4 487.1,80.1 489.3,79.8 491.5,79.6 493.7,79.3 495.9,79.1 498.2,78.8 500.4,78.5 502.6,78.3 504.8,78.0 507.1,77.8 509.3,77.5 511.5,77.3 513.7,77.0 516.0,76.8 518.2,76.6 520.4,76.3 522.6,76.1 524.8,75.8 527.1,75.6 529.3,75.4 531.5,75.1 533.7,74.9 536.0,74.7 538.2,74.5 540.4,74.2 542.6,74.0 544.9,73.8 547.1,73.6 549.3,73.3 551.5,73.1 553.7,72.9 556.0,72.7 558.2,72.5 560.4,72.3 562.6,72.1 564.9,71.9 567.1,71.6 569.3,71.4 571.5,71.2 573.8,71.0 576.0,70.8 578.2,70.6 580.4,70.4 582.6,70.2 584.9,70.0 587.1,69.8 589.3,69.6 591.5,69.5 593.8,69.3 596.0,69.1 598.2,68.9 600.4,68.7 602.7,68.5 604.9,68.3 607.1,68.1 609.3,68.0 611.5,67.8 613.8,67.6 616.0,67.4 618.2,67.2 620.4,67.1 622.7,66.9 624.9,66.7 627.1,66.5 629.3,66.4 631.6,66.2 633.8,66.0 636.0,65.8" fill="none" stroke="#202020" stroke-width="2" stroke-linecap="round" stroke-linejoin="round"/>
<polyline points="58.0,264.0 60.2,261.1 62.4,258.2 64.7,255.4 66.9,252.6 69.1,249.8 71.3,247.1 73.6,244.5 75.8,241.8 78.0,239.3 80.2,236.7 82.5,234.2 84.7,231.8 86.9,229.4 89.1,227.0 91.3,224.7 93.6,222.4 95.8,220.1 98.0,217.9 100.2,215.7 102.5,213.6 104.7,211.5 106.9,209.4 109.1,207.4 111.4,205.4 113.6,203.5 115.8,201.5 118.0,199.7 120.2,197.8 122.5,196.0 124.7,194.2 126.9,192.4 129.1,190.7 131.4,189.0 133.6,187.4 135.8,185.7 138.0,184.1 140.3,182.5 142.5,181.0 144.7,179.4 146.9,177.9 149.1,176.4 151.4,175.0 153.6,173.5 155.8,172.1 158.0,170.7 160.3,169.4 162.5,168.0 164.7,166.7 166.9,165.4 169.2,164.1 171.4,162.9 173.6,161.6 175.8,160.4 178.0,159.2 180.3,158.0 182.5,156.8 184.7,155.7 186.9,154.6 189.2,153.5 191.4,152.4 193.6,151.3 195.8,150.2 198.1,149.1 200.3,148.1 202.5,147.1 204.7,146.1 206.9,145.1 209.2,144.1 211.4,143.1 213.6,142.2 215.8,141.3 218.1,140.3 220.3,139.4 222.5,138.5 224.7,137.6 227.0,136.8 229.2,135.9 231.4,135.0 233.6,134.2 235.8,133.4 238.1,132.5 240.3,131.7 242.5,130.9 244.7,130.1 247.0,129.4 249.2,128.6 251.4,127.8 253.6,127.1 255.9,126.4 258.1,125.6 260.3,124.9 262.5,124.2 264.7,123.5 267.0,122.8 269.2,122.1 271.4,121.4 273.6,120.7 275.9,120.1 278.1,119.4 280.3,118.8 282.5,118.1 284.8,117.5 287.0,116.9 289.2,116.3 291.4,115.6 293.6,115.0 295.9,114.4 298.1,113.9 300.3,113.3 302.5,112.7 304.8,112.1 307.0,111.6 309.2,111.0 311.4,110.4 313.7,109.9 315.9,109.4 318.1,108.8 320.3,108.3 322.5,107.8 324.8,107.3 327.0,106.7 329.2,106.2 331.4,105.7 333.7,105.2 335.9,104.7 338.1,104.3 340.3,103.8 342.6,103.3 344.8,102.8 347.0,102.4 349.2,101.9 351.4,101.4 353.7,101.0 355.9,100.5 358.1,100.1 360.3,99.6 362.6,99.2 364.8,98.8 367.0,98.3 369.2,97.9 371.5,97.5 373.7,97.1 375.9,96.7 378.1,96.3 380.3,95.9 382.6,95.5 384.8,95.1 387.0,94.7 389.2,94.3 391.5,93.9 393.7,93.5 395.9,93.1 398.1,92.8 400.4,92.4 402.6,92.0 404.8,91.7 407.0,91.3 409.2,90.9 411.5,90.6 413.7,90.2 415.9,89.9 418.1,89.5 420.4,89.2 422.6,88.8 424.8,88.5 427.0,88.2 429.3,87.8 431.5,87.5 433.7,87.2 435.9,86.9 438.1,86.5 440.4,86.2 442.6,85.9 444.8,85.6 447.0,85.3 449.3,85.0 451.5,84.7 453.7,84.4 455.9,84.1 458.2,83.8 460.4,83.5 462.6,83.2 464.8,82.9 467.0,82.6 469.3,82.3 471.5,82.0 473.7,81.8 475.9,81.5 478.2,81.2 480.4,80.9 482.6,80.7 484.8,80.4 487.1,80.1 489.3,79.8 491.5,79.6 493.7,79.3 495.9,79.1 498.2,78.8 500.4,78.5 502.6,78.3 504.8,78.0 507.1,77.8 509.3,77.5 511.5,77.3 513.7,77.0 516.0,76.8 518.2,76.6 520.4,76.3 522.6,76.1 524.8,75.8 527.1,75.6 529.3,75.4 531.5,75.1 533.7,74.9 536.0,74.7 538.2,74.5 540.4,74.2 542.6,74.0 544.9,73.8 547.1,73.6 549.3,73.3 551.5,73.1 553.7,72.9 556.0,72.7 558.2,72.5 560.4,72.3 562.6,72.1 564.9,71.9 567.1,71.6 569.3,71.4 571.5,71.2 573.8,71.0 576.0,70.8 578.2,70.6 580.4,70.4 582.6,70.2 584.9,70.0 587.1,69.8 589.3,69.6 591.5,69.5 593.8,69.3 596.0,69.1 598.2,68.9 600.4,68.7 602.7,68.5 604.9,68.3 607.1,68.1 609.3,68.0 611.5,67.8 613.8,67.6 616.0,67.4 618.2,67.2 620.4,67.1 622.7,66.9 624.9,66.7 627.1,66.5 629.3,66.4 631.6,66.2 633.8,66.0 636.0,65.8" fill="none" stroke="#1f4e79" stroke-width="2" stroke-dasharray="6 5" stroke-linecap="round" stroke-linejoin="round"/>
<circle cx="58.0" cy="264.0" r="3.2" fill="#111111"/>
<circle cx="97.1" cy="218.8" r="3.2" fill="#111111"/>
<circle cx="136.1" cy="185.5" r="3.2" fill="#111111"/>
<circle cx="175.2" cy="160.8" r="3.2" fill="#111111"/>
<circle cx="214.2" cy="141.9" r="3.2" fill="#111111"/>
<circle cx="253.3" cy="127.2" r="3.2" fill="#111111"/>
<circle cx="292.3" cy="115.4" r="3.2" fill="#111111"/>
<circle cx="331.4" cy="105.7" r="3.2" fill="#111111"/>
<circle cx="370.4" cy="97.7" r="3.2" fill="#111111"/>
<circle cx="409.5" cy="90.9" r="3.2" fill="#111111"/>
<circle cx="448.5" cy="85.1" r="3.2" fill="#111111"/>
<line x1="446" y1="62" x2="472" y2="62" stroke="#202020" stroke-width="2"/>
<text x="480" y="66" font-family="Arial, sans-serif" font-size="11" fill="#202020">target</text>
<line x1="446" y1="80" x2="472" y2="80" stroke="#1f4e79" stroke-width="2" stroke-dasharray="6 5"/>
<text x="480" y="84" font-family="Arial, sans-serif" font-size="11" fill="#202020">candidate</text>
<circle cx="459" cy="98" r="3.2" fill="#111111"/>
<text x="480" y="102" font-family="Arial, sans-serif" font-size="11" fill="#202020">training samples</text>
</svg>
