<svg xmlns="http://www.w3.org/2000/svg" width="1120" height="1060" viewBox="0 0 1120 1060" role="img" aria-labelledby="title desc">
  <title id="title">v1.13 data, target, and EML curves</title>
  <desc id="desc">Twelve v1.13 target panels with target line, training dots, validation triangles, extrapolation squares, and verified EML curves where available. Axes have no numeric tick labels.</desc>
  <style>
    text { font-family: "Times New Roman", Times, serif; fill: #000000; }
    .title { font-size: 24px; font-weight: 700; }
    .subtitle { font-size: 13px; }
    .panel-title { font-size: 14px; font-weight: 700; }
    .expr { font-size: 11px; }
    .status-ok { font-size: 11px; fill: #008000; font-weight: 700; }
    .status-bad { font-size: 11px; fill: #b00000; font-weight: 700; }
    .axis { stroke: #000000; stroke-width: 1; }
    .grid { stroke: #cfcfcf; stroke-width: 0.7; }
    .target-line { fill: none; stroke: #000000; stroke-width: 1.2; stroke-linejoin: miter; stroke-linecap: butt; }
    .eml-line { fill: none; stroke: #008000; stroke-width: 1.5; stroke-dasharray: 5 4; stroke-linejoin: miter; stroke-linecap: butt; }
    .train { fill: #0057b8; stroke: #000000; stroke-width: 0.4; }
    .validation { fill: #cc0000; stroke: #000000; stroke-width: 0.4; }
    .extrapolation { fill: #000000; stroke: #000000; stroke-width: 0.4; }
    .panel { fill: #ffffff; stroke: #888888; stroke-width: 1; }
  </style>
  <rect width="1120" height="1060" fill="#ffffff"/>
  <text x="52" y="40" class="title">v1.13 data and EML curves</text>
  <text x="52" y="64" class="subtitle">Axes are deliberately unlabeled numerically. Each panel has its own scale.</text>
  <text x="52" y="84" class="subtitle">Black line: target function. Green dashed line: verified EML curve where the campaign recovered that target.</text>
  <line x1="54" y1="106" x2="94" y2="106" class="target-line"/>
  <text x="101" y="110" class="subtitle">target</text>
  <line x1="178" y1="106" x2="218" y2="106" class="eml-line"/>
  <text x="225" y="110" class="subtitle">verified EML</text>
  <circle cx="350" cy="106" r="4" class="train"/>
  <text x="360" y="110" class="subtitle">training data</text>
  <polygon points="492,101 487,111 497,111" class="validation"/>
  <text x="505" y="110" class="subtitle">validation data</text>
  <rect x="660" y="101" width="9" height="9" class="extrapolation"/>
  <text x="677" y="110" class="subtitle">extrapolation data</text>
  <rect x="52" y="132" width="322" height="188" class="panel"/>
  <text x="66" y="156" class="panel-title">exp</text>
  <text x="66" y="175" class="expr">exp(x)</text>
  <text x="292" y="156" class="status-ok">EML 2/2</text>
  <line x1="94.0" y1="190.0" x2="346.0" y2="190.0" class="grid"/>
  <line x1="94.0" y1="238.0" x2="346.0" y2="238.0" class="grid"/>
  <line x1="94.0" y1="286.0" x2="346.0" y2="286.0" class="axis"/>
  <line x1="94.0" y1="190.0" x2="94.0" y2="286.0" class="axis"/>
  <text x="338.0" y="302.0" class="expr">x</text>
  <text x="76.0" y="198.0" class="expr">y</text>
  <polyline points="94.0,279.4 96.8,279.2 99.7,279.0 102.5,278.7 105.3,278.5 108.2,278.3 111.0,278.0 113.8,277.8 116.7,277.5 119.5,277.2 122.3,277.0 125.1,276.7 128.0,276.4 130.8,276.1 133.6,275.8 136.5,275.5 139.3,275.2 142.1,274.8 145.0,274.5 147.8,274.2 150.6,273.8 153.5,273.4 156.3,273.0 159.1,272.7 162.0,272.3 164.8,271.8 167.6,271.4 170.4,271.0 173.3,270.5 176.1,270.1 178.9,269.6 181.8,269.1 184.6,268.6 187.4,268.1 190.3,267.5 193.1,267.0 195.9,266.4 198.8,265.9 201.6,265.3 204.4,264.6 207.3,264.0 210.1,263.4 212.9,262.7 215.8,262.0 218.6,261.3 221.4,260.6 224.2,259.8 227.1,259.1 229.9,258.3 232.7,257.5 235.6,256.6 238.4,255.8 241.2,254.9 244.1,254.0 246.9,253.0 249.7,252.1 252.6,251.1 255.4,250.1 258.2,249.0 261.1,248.0 263.9,246.8 266.7,245.7 269.6,244.5 272.4,243.3 275.2,242.1 278.0,240.8 280.9,239.5 283.7,238.2 286.5,236.8 289.4,235.4 292.2,233.9 295.0,232.4 297.9,230.8 300.7,229.3 303.5,227.6 306.4,225.9 309.2,224.2 312.0,222.4 314.9,220.6 317.7,218.7 320.5,216.8 323.3,214.8 326.2,212.7 329.0,210.6 331.8,208.4 334.7,206.2 337.5,203.9 340.3,201.5 343.2,199.1 346.0,196.6" class="target-line"/>
  <polyline points="94.0,279.4 96.8,279.2 99.7,279.0 102.5,278.7 105.3,278.5 108.2,278.3 111.0,278.0 113.8,277.8 116.7,277.5 119.5,277.2 122.3,277.0 125.1,276.7 128.0,276.4 130.8,276.1 133.6,275.8 136.5,275.5 139.3,275.2 142.1,274.8 145.0,274.5 147.8,274.2 150.6,273.8 153.5,273.4 156.3,273.0 159.1,272.7 162.0,272.3 164.8,271.8 167.6,271.4 170.4,271.0 173.3,270.5 176.1,270.1 178.9,269.6 181.8,269.1 184.6,268.6 187.4,268.1 190.3,267.5 193.1,267.0 195.9,266.4 198.8,265.9 201.6,265.3 204.4,264.6 207.3,264.0 210.1,263.4 212.9,262.7 215.8,262.0 218.6,261.3 221.4,260.6 224.2,259.8 227.1,259.1 229.9,258.3 232.7,257.5 235.6,256.6 238.4,255.8 241.2,254.9 244.1,254.0 246.9,253.0 249.7,252.1 252.6,251.1 255.4,250.1 258.2,249.0 261.1,248.0 263.9,246.8 266.7,245.7 269.6,244.5 272.4,243.3 275.2,242.1 278.0,240.8 280.9,239.5 283.7,238.2 286.5,236.8 289.4,235.4 292.2,233.9 295.0,232.4 297.9,230.8 300.7,229.3 303.5,227.6 306.4,225.9 309.2,224.2 312.0,222.4 314.9,220.6 317.7,218.7 320.5,216.8 323.3,214.8 326.2,212.7 329.0,210.6 331.8,208.4 334.7,206.2 337.5,203.9 340.3,201.5 343.2,199.1 346.0,196.6" class="eml-line"/>
  <circle cx="94.0" cy="279.4" r="3.2" class="train"/>
  <circle cx="125.2" cy="276.7" r="3.2" class="train"/>
  <circle cx="155.8" cy="273.1" r="3.2" class="train"/>
  <circle cx="187.6" cy="268.1" r="3.2" class="train"/>
  <circle cx="202.9" cy="265.0" r="3.2" class="train"/>
  <circle cx="233.1" cy="257.4" r="3.2" class="train"/>
  <circle cx="264.6" cy="246.6" r="3.2" class="train"/>
  <circle cx="295.5" cy="232.1" r="3.2" class="train"/>
  <polygon points="113.7,273.8 109.7,281.3 117.7,281.3" class="validation"/>
  <polygon points="135.5,271.6 131.5,279.1 139.5,279.1" class="validation"/>
  <polygon points="157.3,268.9 153.3,276.4 161.3,276.4" class="validation"/>
  <polygon points="178.6,265.6 174.6,273.1 182.6,273.1" class="validation"/>
  <polygon points="211.0,259.1 207.0,266.6 215.0,266.6" class="validation"/>
  <polygon points="232.5,253.5 228.5,261.0 236.5,261.0" class="validation"/>
  <polygon points="253.6,246.7 249.6,254.2 257.6,254.2" class="validation"/>
  <polygon points="275.5,238.0 271.5,245.5 279.5,245.5" class="validation"/>
  <rect x="297.1" y="225.8" width="7" height="7" class="extrapolation"/>
  <rect x="303.2" y="222.2" width="7" height="7" class="extrapolation"/>
  <rect x="309.3" y="218.4" width="7" height="7" class="extrapolation"/>
  <rect x="315.2" y="214.5" width="7" height="7" class="extrapolation"/>
  <rect x="324.5" y="207.9" width="7" height="7" class="extrapolation"/>
  <rect x="330.6" y="203.2" width="7" height="7" class="extrapolation"/>
  <rect x="336.5" y="198.3" width="7" height="7" class="extrapolation"/>
  <rect x="342.5" y="193.1" width="7" height="7" class="extrapolation"/>
  <rect x="408" y="132" width="322" height="188" class="panel"/>
  <text x="422" y="156" class="panel-title">log</text>
  <text x="422" y="175" class="expr">log(x)</text>
  <text x="648" y="156" class="status-bad">EML 0/2</text>
  <line x1="450.0" y1="190.0" x2="702.0" y2="190.0" class="grid"/>
  <line x1="450.0" y1="238.0" x2="702.0" y2="238.0" class="grid"/>
  <line x1="450.0" y1="286.0" x2="702.0" y2="286.0" class="axis"/>
  <line x1="450.0" y1="190.0" x2="450.0" y2="286.0" class="axis"/>
  <text x="694.0" y="302.0" class="expr">x</text>
  <text x="432.0" y="198.0" class="expr">y</text>
  <polyline points="450.0,279.4 452.8,274.6 455.7,270.5 458.5,266.9 461.3,263.7 464.2,260.8 467.0,258.1 469.8,255.7 472.7,253.5 475.5,251.4 478.3,249.5 481.1,247.6 484.0,245.9 486.8,244.3 489.6,242.8 492.5,241.3 495.3,239.9 498.1,238.6 501.0,237.3 503.8,236.1 506.6,235.0 509.5,233.8 512.3,232.8 515.1,231.7 518.0,230.7 520.8,229.7 523.6,228.8 526.4,227.9 529.3,227.0 532.1,226.1 534.9,225.3 537.8,224.5 540.6,223.7 543.4,222.9 546.3,222.2 549.1,221.4 551.9,220.7 554.8,220.0 557.6,219.3 560.4,218.7 563.3,218.0 566.1,217.4 568.9,216.8 571.8,216.2 574.6,215.6 577.4,215.0 580.2,214.4 583.1,213.8 585.9,213.3 588.7,212.7 591.6,212.2 594.4,211.7 597.2,211.2 600.1,210.7 602.9,210.2 605.7,209.7 608.6,209.2 611.4,208.7 614.2,208.3 617.1,207.8 619.9,207.4 622.7,206.9 625.6,206.5 628.4,206.1 631.2,205.6 634.0,205.2 636.9,204.8 639.7,204.4 642.5,204.0 645.4,203.6 648.2,203.2 651.0,202.8 653.9,202.4 656.7,202.1 659.5,201.7 662.4,201.3 665.2,201.0 668.0,200.6 670.9,200.2 673.7,199.9 676.5,199.6 679.3,199.2 682.2,198.9 685.0,198.5 687.8,198.2 690.7,197.9 693.5,197.6 696.3,197.2 699.2,196.9 702.0,196.6" class="target-line"/>
  <circle cx="450.0" cy="279.4" r="3.2" class="train"/>
  <circle cx="477.2" cy="250.2" r="3.2" class="train"/>
  <circle cx="503.8" cy="236.1" r="3.2" class="train"/>
  <circle cx="531.4" cy="226.3" r="3.2" class="train"/>
  <circle cx="544.8" cy="222.6" r="3.2" class="train"/>
  <circle cx="571.0" cy="216.3" r="3.2" class="train"/>
  <circle cx="598.5" cy="211.0" r="3.2" class="train"/>
  <circle cx="625.4" cy="206.5" r="3.2" class="train"/>
  <polygon points="456.0,266.1 452.0,273.6 460.0,273.6" class="validation"/>
  <polygon points="476.6,246.6 472.6,254.1 480.6,254.1" class="validation"/>
  <polygon points="497.3,235.0 493.3,242.5 501.3,242.5" class="validation"/>
  <polygon points="517.6,226.8 513.6,234.3 521.6,234.3" class="validation"/>
  <polygon points="548.3,217.6 544.3,225.1 552.3,225.1" class="validation"/>
  <polygon points="568.7,212.8 564.7,220.3 572.7,220.3" class="validation"/>
  <polygon points="588.8,208.7 584.8,216.2 592.8,216.2" class="validation"/>
  <polygon points="609.6,205.0 605.6,212.5 613.6,212.5" class="validation"/>
  <rect x="628.2" y="202.1" width="7" height="7" class="extrapolation"/>
  <rect x="637.7" y="200.7" width="7" height="7" class="extrapolation"/>
  <rect x="647.1" y="199.4" width="7" height="7" class="extrapolation"/>
  <rect x="656.3" y="198.1" width="7" height="7" class="extrapolation"/>
  <rect x="670.7" y="196.3" width="7" height="7" class="extrapolation"/>
  <rect x="680.0" y="195.2" width="7" height="7" class="extrapolation"/>
  <rect x="689.3" y="194.1" width="7" height="7" class="extrapolation"/>
  <rect x="698.5" y="193.1" width="7" height="7" class="extrapolation"/>
  <rect x="764" y="132" width="322" height="188" class="panel"/>
  <text x="778" y="156" class="panel-title">Radioactive decay</text>
  <text x="778" y="175" class="expr">exp(-0.4 t)</text>
  <text x="1004" y="156" class="status-ok">EML 1/2</text>
  <line x1="806.0" y1="190.0" x2="1058.0" y2="190.0" class="grid"/>
  <line x1="806.0" y1="238.0" x2="1058.0" y2="238.0" class="grid"/>
  <line x1="806.0" y1="286.0" x2="1058.0" y2="286.0" class="axis"/>
  <line x1="806.0" y1="190.0" x2="806.0" y2="286.0" class="axis"/>
  <text x="1050.0" y="302.0" class="expr">t</text>
  <text x="788.0" y="198.0" class="expr">y</text>
  <polyline points="806.0,196.6 808.8,199.3 811.7,202.0 814.5,204.6 817.3,207.0 820.2,209.4 823.0,211.8 825.8,214.0 828.7,216.2 831.5,218.3 834.3,220.4 837.1,222.4 840.0,224.3 842.8,226.2 845.6,228.0 848.5,229.8 851.3,231.5 854.1,233.1 857.0,234.7 859.8,236.3 862.6,237.8 865.5,239.2 868.3,240.6 871.1,242.0 874.0,243.3 876.8,244.6 879.6,245.8 882.4,247.0 885.3,248.2 888.1,249.3 890.9,250.4 893.8,251.5 896.6,252.5 899.4,253.5 902.3,254.5 905.1,255.4 907.9,256.3 910.8,257.2 913.6,258.1 916.4,258.9 919.3,259.7 922.1,260.5 924.9,261.2 927.8,262.0 930.6,262.7 933.4,263.3 936.2,264.0 939.1,264.6 941.9,265.3 944.7,265.9 947.6,266.5 950.4,267.0 953.2,267.6 956.1,268.1 958.9,268.6 961.7,269.1 964.6,269.6 967.4,270.1 970.2,270.5 973.1,271.0 975.9,271.4 978.7,271.8 981.6,272.2 984.4,272.6 987.2,273.0 990.0,273.3 992.9,273.7 995.7,274.0 998.5,274.4 1001.4,274.7 1004.2,275.0 1007.0,275.3 1009.9,275.6 1012.7,275.9 1015.5,276.1 1018.4,276.4 1021.2,276.7 1024.0,276.9 1026.9,277.2 1029.7,277.4 1032.5,277.6 1035.3,277.8 1038.2,278.1 1041.0,278.3 1043.8,278.5 1046.7,278.7 1049.5,278.8 1052.3,279.0 1055.2,279.2 1058.0,279.4" class="target-line"/>
  <polyline points="806.0,196.6 808.8,199.3 811.7,202.0 814.5,204.6 817.3,207.0 820.2,209.4 823.0,211.8 825.8,214.0 828.7,216.2 831.5,218.3 834.3,220.4 837.1,222.4 840.0,224.3 842.8,226.2 845.6,228.0 848.5,229.8 851.3,231.5 854.1,233.1 857.0,234.7 859.8,236.3 862.6,237.8 865.5,239.2 868.3,240.6 871.1,242.0 874.0,243.3 876.8,244.6 879.6,245.8 882.4,247.0 885.3,248.2 888.1,249.3 890.9,250.4 893.8,251.5 896.6,252.5 899.4,253.5 902.3,254.5 905.1,255.4 907.9,256.3 910.8,257.2 913.6,258.1 916.4,258.9 919.3,259.7 922.1,260.5 924.9,261.2 927.8,262.0 930.6,262.7 933.4,263.3 936.2,264.0 939.1,264.6 941.9,265.3 944.7,265.9 947.6,266.5 950.4,267.0 953.2,267.6 956.1,268.1 958.9,268.6 961.7,269.1 964.6,269.6 967.4,270.1 970.2,270.5 973.1,271.0 975.9,271.4 978.7,271.8 981.6,272.2 984.4,272.6 987.2,273.0 990.0,273.3 992.9,273.7 995.7,274.0 998.5,274.4 1001.4,274.7 1004.2,275.0 1007.0,275.3 1009.9,275.6 1012.7,275.9 1015.5,276.1 1018.4,276.4 1021.2,276.7 1024.0,276.9 1026.9,277.2 1029.7,277.4 1032.5,277.6 1035.3,277.8 1038.2,278.1 1041.0,278.3 1043.8,278.5 1046.7,278.7 1049.5,278.8 1052.3,279.0 1055.2,279.2 1058.0,279.4" class="eml-line"/>
  <circle cx="806.0" cy="196.6" r="3.2" class="train"/>
  <circle cx="833.9" cy="220.1" r="3.2" class="train"/>
  <circle cx="861.2" cy="237.0" r="3.2" class="train"/>
  <circle cx="889.5" cy="249.9" r="3.2" class="train"/>
  <circle cx="903.3" cy="254.8" r="3.2" class="train"/>
  <circle cx="930.2" cy="262.6" r="3.2" class="train"/>
  <circle cx="958.3" cy="268.5" r="3.2" class="train"/>
  <circle cx="985.9" cy="272.8" r="3.2" class="train"/>
  <polygon points="810.9,197.3 806.9,204.8 814.9,204.8" class="validation"/>
  <polygon points="833.0,215.5 829.0,223.0 837.0,223.0" class="validation"/>
  <polygon points="855.2,229.7 851.2,237.2 859.2,237.2" class="validation"/>
  <polygon points="876.9,240.6 872.9,248.1 880.9,248.1" class="validation"/>
  <polygon points="909.8,252.9 905.8,260.4 913.8,260.4" class="validation"/>
  <polygon points="931.5,258.9 927.5,266.4 935.5,266.4" class="validation"/>
  <polygon points="953.1,263.5 949.1,271.0 957.1,271.0" class="validation"/>
  <polygon points="975.3,267.3 971.3,274.8 979.3,274.8" class="validation"/>
  <rect x="986.0" y="269.8" width="7" height="7" class="extrapolation"/>
  <rect x="995.2" y="270.9" width="7" height="7" class="extrapolation"/>
  <rect x="1004.4" y="271.9" width="7" height="7" class="extrapolation"/>
  <rect x="1013.4" y="272.8" width="7" height="7" class="extrapolation"/>
  <rect x="1027.4" y="274.0" width="7" height="7" class="extrapolation"/>
  <rect x="1036.5" y="274.7" width="7" height="7" class="extrapolation"/>
  <rect x="1045.5" y="275.3" width="7" height="7" class="extrapolation"/>
  <rect x="1054.5" y="275.9" width="7" height="7" class="extrapolation"/>
  <rect x="52" y="362" width="322" height="188" class="panel"/>
  <text x="66" y="386" class="panel-title">Beer-Lambert</text>
  <text x="66" y="405" class="expr">exp(-0.8 x)</text>
  <text x="292" y="386" class="status-ok">EML 1/2</text>
  <line x1="94.0" y1="420.0" x2="346.0" y2="420.0" class="grid"/>
  <line x1="94.0" y1="468.0" x2="346.0" y2="468.0" class="grid"/>
  <line x1="94.0" y1="516.0" x2="346.0" y2="516.0" class="axis"/>
  <line x1="94.0" y1="420.0" x2="94.0" y2="516.0" class="axis"/>
  <text x="338.0" y="532.0" class="expr">x</text>
  <text x="76.0" y="428.0" class="expr">y</text>
  <polyline points="94.0,426.6 96.8,430.0 99.7,433.2 102.5,436.3 105.3,439.3 108.2,442.2 111.0,445.0 113.8,447.6 116.7,450.1 119.5,452.6 122.3,454.9 125.1,457.2 128.0,459.3 130.8,461.4 133.6,463.4 136.5,465.3 139.3,467.2 142.1,468.9 145.0,470.6 147.8,472.2 150.6,473.8 153.5,475.3 156.3,476.8 159.1,478.1 162.0,479.5 164.8,480.7 167.6,482.0 170.4,483.1 173.3,484.3 176.1,485.4 178.9,486.4 181.8,487.4 184.6,488.4 187.4,489.3 190.3,490.2 193.1,491.0 195.9,491.9 198.8,492.6 201.6,493.4 204.4,494.1 207.3,494.8 210.1,495.5 212.9,496.1 215.8,496.8 218.6,497.3 221.4,497.9 224.2,498.5 227.1,499.0 229.9,499.5 232.7,500.0 235.6,500.4 238.4,500.9 241.2,501.3 244.1,501.7 246.9,502.1 249.7,502.5 252.6,502.9 255.4,503.2 258.2,503.6 261.1,503.9 263.9,504.2 266.7,504.5 269.6,504.8 272.4,505.0 275.2,505.3 278.0,505.6 280.9,505.8 283.7,506.0 286.5,506.3 289.4,506.5 292.2,506.7 295.0,506.9 297.9,507.1 300.7,507.3 303.5,507.4 306.4,507.6 309.2,507.8 312.0,507.9 314.9,508.1 317.7,508.2 320.5,508.4 323.3,508.5 326.2,508.6 329.0,508.7 331.8,508.9 334.7,509.0 337.5,509.1 340.3,509.2 343.2,509.3 346.0,509.4" class="target-line"/>
  <polyline points="94.0,426.6 96.8,430.0 99.7,433.2 102.5,436.3 105.3,439.3 108.2,442.2 111.0,445.0 113.8,447.6 116.7,450.1 119.5,452.6 122.3,454.9 125.1,457.2 128.0,459.3 130.8,461.4 133.6,463.4 136.5,465.3 139.3,467.2 142.1,468.9 145.0,470.6 147.8,472.2 150.6,473.8 153.5,475.3 156.3,476.8 159.1,478.1 162.0,479.5 164.8,480.7 167.6,482.0 170.4,483.1 173.3,484.3 176.1,485.4 178.9,486.4 181.8,487.4 184.6,488.4 187.4,489.3 190.3,490.2 193.1,491.0 195.9,491.9 198.8,492.6 201.6,493.4 204.4,494.1 207.3,494.8 210.1,495.5 212.9,496.1 215.8,496.8 218.6,497.3 221.4,497.9 224.2,498.5 227.1,499.0 229.9,499.5 232.7,500.0 235.6,500.4 238.4,500.9 241.2,501.3 244.1,501.7 246.9,502.1 249.7,502.5 252.6,502.9 255.4,503.2 258.2,503.6 261.1,503.9 263.9,504.2 266.7,504.5 269.6,504.8 272.4,505.0 275.2,505.3 278.0,505.6 280.9,505.8 283.7,506.0 286.5,506.3 289.4,506.5 292.2,506.7 295.0,506.9 297.9,507.1 300.7,507.3 303.5,507.4 306.4,507.6 309.2,507.8 312.0,507.9 314.9,508.1 317.7,508.2 320.5,508.4 323.3,508.5 326.2,508.6 329.0,508.7 331.8,508.9 334.7,509.0 337.5,509.1 340.3,509.2 343.2,509.3 346.0,509.4" class="eml-line"/>
  <circle cx="94.0" cy="426.6" r="3.2" class="train"/>
  <circle cx="120.0" cy="453.0" r="3.2" class="train"/>
  <circle cx="145.5" cy="470.9" r="3.2" class="train"/>
  <circle cx="172.0" cy="483.8" r="3.2" class="train"/>
  <circle cx="184.8" cy="488.4" r="3.2" class="train"/>
  <circle cx="209.9" cy="495.4" r="3.2" class="train"/>
  <circle cx="236.2" cy="500.5" r="3.2" class="train"/>
  <circle cx="261.9" cy="504.0" r="3.2" class="train"/>
  <polygon points="102.0,431.8 98.0,439.3 106.0,439.3" class="validation"/>
  <polygon points="121.3,450.1 117.3,457.6 125.3,457.6" class="validation"/>
  <polygon points="140.6,464.0 136.6,471.5 144.6,471.5" class="validation"/>
  <polygon points="159.5,474.3 155.5,481.8 163.5,481.8" class="validation"/>
  <polygon points="188.2,485.5 184.2,493.0 192.2,493.0" class="validation"/>
  <polygon points="207.1,490.8 203.1,498.3 211.1,498.3" class="validation"/>
  <polygon points="225.9,494.8 221.9,502.3 229.9,502.3" class="validation"/>
  <polygon points="245.3,497.9 241.3,505.4 249.3,505.4" class="validation"/>
  <rect x="264.0" y="501.1" width="7" height="7" class="extrapolation"/>
  <rect x="274.6" y="502.1" width="7" height="7" class="extrapolation"/>
  <rect x="285.1" y="502.9" width="7" height="7" class="extrapolation"/>
  <rect x="295.4" y="503.6" width="7" height="7" class="extrapolation"/>
  <rect x="311.4" y="504.6" width="7" height="7" class="extrapolation"/>
  <rect x="321.9" y="505.1" width="7" height="7" class="extrapolation"/>
  <rect x="332.2" y="505.5" width="7" height="7" class="extrapolation"/>
  <rect x="342.5" y="505.9" width="7" height="7" class="extrapolation"/>
  <rect x="408" y="362" width="322" height="188" class="panel"/>
  <text x="422" y="386" class="panel-title">Scaled exp growth</text>
  <text x="422" y="405" class="expr">exp(0.4 x)</text>
  <text x="648" y="386" class="status-ok">EML 1/2</text>
  <line x1="450.0" y1="420.0" x2="702.0" y2="420.0" class="grid"/>
  <line x1="450.0" y1="468.0" x2="702.0" y2="468.0" class="grid"/>
  <line x1="450.0" y1="516.0" x2="702.0" y2="516.0" class="axis"/>
  <line x1="450.0" y1="420.0" x2="450.0" y2="516.0" class="axis"/>
  <text x="694.0" y="532.0" class="expr">x</text>
  <text x="432.0" y="428.0" class="expr">y</text>
  <polyline points="450.0,509.4 452.8,509.1 455.7,508.8 458.5,508.5 461.3,508.2 464.2,507.9 467.0,507.6 469.8,507.3 472.7,506.9 475.5,506.6 478.3,506.3 481.1,505.9 484.0,505.6 486.8,505.2 489.6,504.8 492.5,504.4 495.3,504.0 498.1,503.6 501.0,503.2 503.8,502.8 506.6,502.3 509.5,501.9 512.3,501.4 515.1,501.0 518.0,500.5 520.8,500.0 523.6,499.5 526.4,499.0 529.3,498.5 532.1,497.9 534.9,497.4 537.8,496.8 540.6,496.2 543.4,495.6 546.3,495.0 549.1,494.4 551.9,493.8 554.8,493.1 557.6,492.5 560.4,491.8 563.3,491.1 566.1,490.4 568.9,489.7 571.8,488.9 574.6,488.1 577.4,487.4 580.2,486.6 583.1,485.8 585.9,484.9 588.7,484.1 591.6,483.2 594.4,482.3 597.2,481.4 600.1,480.4 602.9,479.5 605.7,478.5 608.6,477.5 611.4,476.4 614.2,475.4 617.1,474.3 619.9,473.2 622.7,472.0 625.6,470.9 628.4,469.7 631.2,468.5 634.0,467.2 636.9,465.9 639.7,464.6 642.5,463.3 645.4,461.9 648.2,460.5 651.0,459.1 653.9,457.6 656.7,456.1 659.5,454.6 662.4,453.0 665.2,451.4 668.0,449.7 670.9,448.1 673.7,446.3 676.5,444.6 679.3,442.7 682.2,440.9 685.0,439.0 687.8,437.0 690.7,435.1 693.5,433.0 696.3,430.9 699.2,428.8 702.0,426.6" class="target-line"/>
  <polyline points="450.0,509.4 452.8,509.1 455.7,508.8 458.5,508.5 461.3,508.2 464.2,507.9 467.0,507.6 469.8,507.3 472.7,506.9 475.5,506.6 478.3,506.3 481.1,505.9 484.0,505.6 486.8,505.2 489.6,504.8 492.5,504.4 495.3,504.0 498.1,503.6 501.0,503.2 503.8,502.8 506.6,502.3 509.5,501.9 512.3,501.4 515.1,501.0 518.0,500.5 520.8,500.0 523.6,499.5 526.4,499.0 529.3,498.5 532.1,497.9 534.9,497.4 537.8,496.8 540.6,496.2 543.4,495.6 546.3,495.0 549.1,494.4 551.9,493.8 554.8,493.1 557.6,492.5 560.4,491.8 563.3,491.1 566.1,490.4 568.9,489.7 571.8,488.9 574.6,488.1 577.4,487.4 580.2,486.6 583.1,485.8 585.9,484.9 588.7,484.1 591.6,483.2 594.4,482.3 597.2,481.4 600.1,480.4 602.9,479.5 605.7,478.5 608.6,477.5 611.4,476.4 614.2,475.4 617.1,474.3 619.9,473.2 622.7,472.0 625.6,470.9 628.4,469.7 631.2,468.5 634.0,467.2 636.9,465.9 639.7,464.6 642.5,463.3 645.4,461.9 648.2,460.5 651.0,459.1 653.9,457.6 656.7,456.1 659.5,454.6 662.4,453.0 665.2,451.4 668.0,449.7 670.9,448.1 673.7,446.3 676.5,444.6 679.3,442.7 682.2,440.9 685.0,439.0 687.8,437.0 690.7,435.1 693.5,433.0 696.3,430.9 699.2,428.8 702.0,426.6" class="eml-line"/>
  <circle cx="450.0" cy="509.4" r="3.2" class="train"/>
  <circle cx="480.0" cy="506.1" r="3.2" class="train"/>
  <circle cx="509.4" cy="501.9" r="3.2" class="train"/>
  <circle cx="540.0" cy="496.4" r="3.2" class="train"/>
  <circle cx="554.7" cy="493.1" r="3.2" class="train"/>
  <circle cx="583.7" cy="485.6" r="3.2" class="train"/>
  <circle cx="614.0" cy="475.4" r="3.2" class="train"/>
  <circle cx="643.8" cy="462.7" r="3.2" class="train"/>
  <polygon points="464.1,503.9 460.1,511.4 468.1,511.4" class="validation"/>
  <polygon points="486.3,501.3 482.3,508.8 490.3,508.8" class="validation"/>
  <polygon points="508.6,498.0 504.6,505.5 512.6,505.5" class="validation"/>
  <polygon points="530.4,494.3 526.4,501.8 534.4,501.8" class="validation"/>
  <polygon points="563.5,487.0 559.5,494.5 567.5,494.5" class="validation"/>
  <polygon points="585.4,481.1 581.4,488.6 589.4,488.6" class="validation"/>
  <polygon points="607.0,474.0 603.0,481.5 611.0,481.5" class="validation"/>
  <polygon points="629.4,465.2 625.4,472.7 633.4,472.7" class="validation"/>
  <rect x="645.1" y="456.8" width="7" height="7" class="extrapolation"/>
  <rect x="652.3" y="453.1" width="7" height="7" class="extrapolation"/>
  <rect x="659.5" y="449.2" width="7" height="7" class="extrapolation"/>
  <rect x="666.5" y="445.1" width="7" height="7" class="extrapolation"/>
  <rect x="677.4" y="438.3" width="7" height="7" class="extrapolation"/>
  <rect x="684.5" y="433.5" width="7" height="7" class="extrapolation"/>
  <rect x="691.5" y="428.4" width="7" height="7" class="extrapolation"/>
  <rect x="698.5" y="423.1" width="7" height="7" class="extrapolation"/>
  <rect x="764" y="362" width="322" height="188" class="panel"/>
  <text x="778" y="386" class="panel-title">Scaled exp fast decay</text>
  <text x="778" y="405" class="expr">exp(-1.2 x)</text>
  <text x="1004" y="386" class="status-ok">EML 1/2</text>
  <line x1="806.0" y1="420.0" x2="1058.0" y2="420.0" class="grid"/>
  <line x1="806.0" y1="468.0" x2="1058.0" y2="468.0" class="grid"/>
  <line x1="806.0" y1="516.0" x2="1058.0" y2="516.0" class="axis"/>
  <line x1="806.0" y1="420.0" x2="806.0" y2="516.0" class="axis"/>
  <text x="1050.0" y="532.0" class="expr">x</text>
  <text x="788.0" y="428.0" class="expr">y</text>
  <polyline points="806.0,426.6 808.8,430.5 811.7,434.2 814.5,437.7 817.3,441.1 820.2,444.3 823.0,447.3 825.8,450.3 828.7,453.0 831.5,455.7 834.3,458.2 837.1,460.6 840.0,462.9 842.8,465.1 845.6,467.2 848.5,469.2 851.3,471.1 854.1,473.0 857.0,474.7 859.8,476.4 862.6,477.9 865.5,479.4 868.3,480.9 871.1,482.3 874.0,483.6 876.8,484.8 879.6,486.0 882.4,487.1 885.3,488.2 888.1,489.2 890.9,490.2 893.8,491.2 896.6,492.1 899.4,492.9 902.3,493.7 905.1,494.5 907.9,495.3 910.8,496.0 913.6,496.7 916.4,497.3 919.3,497.9 922.1,498.5 924.9,499.1 927.8,499.6 930.6,500.1 933.4,500.6 936.2,501.0 939.1,501.5 941.9,501.9 944.7,502.3 947.6,502.7 950.4,503.1 953.2,503.4 956.1,503.7 958.9,504.1 961.7,504.4 964.6,504.7 967.4,504.9 970.2,505.2 973.1,505.4 975.9,505.7 978.7,505.9 981.6,506.1 984.4,506.3 987.2,506.5 990.0,506.7 992.9,506.9 995.7,507.1 998.5,507.2 1001.4,507.4 1004.2,507.5 1007.0,507.7 1009.9,507.8 1012.7,508.0 1015.5,508.1 1018.4,508.2 1021.2,508.3 1024.0,508.4 1026.9,508.5 1029.7,508.6 1032.5,508.7 1035.3,508.8 1038.2,508.9 1041.0,509.0 1043.8,509.0 1046.7,509.1 1049.5,509.2 1052.3,509.3 1055.2,509.3 1058.0,509.4" class="target-line"/>
  <polyline points="806.0,426.6 808.8,430.5 811.7,434.2 814.5,437.7 817.3,441.1 820.2,444.3 823.0,447.3 825.8,450.3 828.7,453.0 831.5,455.7 834.3,458.2 837.1,460.6 840.0,462.9 842.8,465.1 845.6,467.2 848.5,469.2 851.3,471.1 854.1,473.0 857.0,474.7 859.8,476.4 862.6,477.9 865.5,479.4 868.3,480.9 871.1,482.3 874.0,483.6 876.8,484.8 879.6,486.0 882.4,487.1 885.3,488.2 888.1,489.2 890.9,490.2 893.8,491.2 896.6,492.1 899.4,492.9 902.3,493.7 905.1,494.5 907.9,495.3 910.8,496.0 913.6,496.7 916.4,497.3 919.3,497.9 922.1,498.5 924.9,499.1 927.8,499.6 930.6,500.1 933.4,500.6 936.2,501.0 939.1,501.5 941.9,501.9 944.7,502.3 947.6,502.7 950.4,503.1 953.2,503.4 956.1,503.7 958.9,504.1 961.7,504.4 964.6,504.7 967.4,504.9 970.2,505.2 973.1,505.4 975.9,505.7 978.7,505.9 981.6,506.1 984.4,506.3 987.2,506.5 990.0,506.7 992.9,506.9 995.7,507.1 998.5,507.2 1001.4,507.4 1004.2,507.5 1007.0,507.7 1009.9,507.8 1012.7,508.0 1015.5,508.1 1018.4,508.2 1021.2,508.3 1024.0,508.4 1026.9,508.5 1029.7,508.6 1032.5,508.7 1035.3,508.8 1038.2,508.9 1041.0,509.0 1043.8,509.0 1046.7,509.1 1049.5,509.2 1052.3,509.3 1055.2,509.3 1058.0,509.4" class="eml-line"/>
  <circle cx="806.0" cy="426.6" r="3.2" class="train"/>
  <circle cx="833.9" cy="457.8" r="3.2" class="train"/>
  <circle cx="861.2" cy="477.1" r="3.2" class="train"/>
  <circle cx="889.5" cy="489.7" r="3.2" class="train"/>
  <circle cx="903.3" cy="494.0" r="3.2" class="train"/>
  <circle cx="930.2" cy="500.0" r="3.2" class="train"/>
  <circle cx="958.3" cy="504.0" r="3.2" class="train"/>
  <circle cx="985.9" cy="506.4" r="3.2" class="train"/>
  <polygon points="812.8,431.6 808.8,439.1 816.8,439.1" class="validation"/>
  <polygon points="834.1,454.0 830.1,461.5 838.1,461.5" class="validation"/>
  <polygon points="855.5,469.8 851.5,477.3 859.5,477.3" class="validation"/>
  <polygon points="876.5,480.7 872.5,488.2 880.5,488.2" class="validation"/>
  <polygon points="908.3,491.4 904.3,498.9 912.3,498.9" class="validation"/>
  <polygon points="929.4,495.9 925.4,503.4 933.4,503.4" class="validation"/>
  <polygon points="950.2,499.0 946.2,506.5 954.2,506.5" class="validation"/>
  <polygon points="971.7,501.3 967.7,508.8 975.7,508.8" class="validation"/>
  <rect x="989.6" y="503.4" width="7" height="7" class="extrapolation"/>
  <rect x="998.3" y="503.9" width="7" height="7" class="extrapolation"/>
  <rect x="1007.0" y="504.4" width="7" height="7" class="extrapolation"/>
  <rect x="1015.6" y="504.7" width="7" height="7" class="extrapolation"/>
  <rect x="1028.8" y="505.2" width="7" height="7" class="extrapolation"/>
  <rect x="1037.5" y="505.5" width="7" height="7" class="extrapolation"/>
  <rect x="1046.0" y="505.7" width="7" height="7" class="extrapolation"/>
  <rect x="1054.5" y="505.9" width="7" height="7" class="extrapolation"/>
  <rect x="52" y="592" width="322" height="188" class="panel"/>
  <text x="66" y="616" class="panel-title">Arrhenius</text>
  <text x="66" y="635" class="expr">exp(-0.8/x)</text>
  <text x="292" y="616" class="status-ok">EML 1/2</text>
  <line x1="94.0" y1="650.0" x2="346.0" y2="650.0" class="grid"/>
  <line x1="94.0" y1="698.0" x2="346.0" y2="698.0" class="grid"/>
  <line x1="94.0" y1="746.0" x2="346.0" y2="746.0" class="axis"/>
  <line x1="94.0" y1="650.0" x2="94.0" y2="746.0" class="axis"/>
  <text x="338.0" y="762.0" class="expr">x</text>
  <text x="76.0" y="658.0" class="expr">y</text>
  <polyline points="94.0,739.4 96.8,735.9 99.7,732.5 102.5,729.3 105.3,726.3 108.2,723.3 111.0,720.6 113.8,717.9 116.7,715.5 119.5,713.1 122.3,710.8 125.1,708.7 128.0,706.7 130.8,704.7 133.6,702.9 136.5,701.1 139.3,699.5 142.1,697.9 145.0,696.3 147.8,694.9 150.6,693.5 153.5,692.2 156.3,690.9 159.1,689.7 162.0,688.5 164.8,687.4 167.6,686.3 170.4,685.2 173.3,684.2 176.1,683.3 178.9,682.3 181.8,681.4 184.6,680.6 187.4,679.7 190.3,678.9 193.1,678.1 195.9,677.4 198.8,676.7 201.6,676.0 204.4,675.3 207.3,674.6 210.1,674.0 212.9,673.4 215.8,672.7 218.6,672.2 221.4,671.6 224.2,671.0 227.1,670.5 229.9,670.0 232.7,669.5 235.6,669.0 238.4,668.5 241.2,668.0 244.1,667.6 246.9,667.1 249.7,666.7 252.6,666.3 255.4,665.9 258.2,665.5 261.1,665.1 263.9,664.7 266.7,664.3 269.6,664.0 272.4,663.6 275.2,663.3 278.0,662.9 280.9,662.6 283.7,662.3 286.5,662.0 289.4,661.7 292.2,661.3 295.0,661.1 297.9,660.8 300.7,660.5 303.5,660.2 306.4,659.9 309.2,659.7 312.0,659.4 314.9,659.1 317.7,658.9 320.5,658.6 323.3,658.4 326.2,658.2 329.0,657.9 331.8,657.7 334.7,657.5 337.5,657.3 340.3,657.0 343.2,656.8 346.0,656.6" class="target-line"/>
  <polyline points="94.0,739.4 96.8,735.9 99.7,732.5 102.5,729.3 105.3,726.3 108.2,723.3 111.0,720.6 113.8,717.9 116.7,715.5 119.5,713.1 122.3,710.8 125.1,708.7 128.0,706.7 130.8,704.7 133.6,702.9 136.5,701.1 139.3,699.5 142.1,697.9 145.0,696.3 147.8,694.9 150.6,693.5 153.5,692.2 156.3,690.9 159.1,689.7 162.0,688.5 164.8,687.4 167.6,686.3 170.4,685.2 173.3,684.2 176.1,683.3 178.9,682.3 181.8,681.4 184.6,680.6 187.4,679.7 190.3,678.9 193.1,678.1 195.9,677.4 198.8,676.7 201.6,676.0 204.4,675.3 207.3,674.6 210.1,674.0 212.9,673.4 215.8,672.7 218.6,672.2 221.4,671.6 224.2,671.0 227.1,670.5 229.9,670.0 232.7,669.5 235.6,669.0 238.4,668.5 241.2,668.0 244.1,667.6 246.9,667.1 249.7,666.7 252.6,666.3 255.4,665.9 258.2,665.5 261.1,665.1 263.9,664.7 266.7,664.3 269.6,664.0 272.4,663.6 275.2,663.3 278.0,662.9 280.9,662.6 283.7,662.3 286.5,662.0 289.4,661.7 292.2,661.3 295.0,661.1 297.9,660.8 300.7,660.5 303.5,660.2 306.4,659.9 309.2,659.7 312.0,659.4 314.9,659.1 317.7,658.9 320.5,658.6 323.3,658.4 326.2,658.2 329.0,657.9 331.8,657.7 334.7,657.5 337.5,657.3 340.3,657.0 343.2,656.8 346.0,656.6" class="eml-line"/>
  <circle cx="94.0" cy="739.4" r="3.2" class="train"/>
  <circle cx="120.4" cy="712.4" r="3.2" class="train"/>
  <circle cx="146.2" cy="695.7" r="3.2" class="train"/>
  <circle cx="173.0" cy="684.3" r="3.2" class="train"/>
  <circle cx="186.0" cy="680.1" r="3.2" class="train"/>
  <circle cx="211.4" cy="673.7" r="3.2" class="train"/>
  <circle cx="238.1" cy="668.6" r="3.2" class="train"/>
  <circle cx="264.2" cy="664.7" r="3.2" class="train"/>
  <polygon points="100.4,727.7 96.4,735.2 104.4,735.2" class="validation"/>
  <polygon points="119.7,708.9 115.7,716.4 123.7,716.4" class="validation"/>
  <polygon points="139.0,695.6 135.0,703.1 143.0,703.1" class="validation"/>
  <polygon points="158.0,686.1 154.0,693.6 162.0,693.6" class="validation"/>
  <polygon points="186.7,675.9 182.7,683.4 190.7,683.4" class="validation"/>
  <polygon points="205.7,671.0 201.7,678.5 209.7,678.5" class="validation"/>
  <polygon points="224.5,667.0 220.5,674.5 228.5,674.5" class="validation"/>
  <polygon points="243.9,663.6 239.9,671.1 247.9,671.1" class="validation"/>
  <rect x="267.5" y="660.3" width="7" height="7" class="extrapolation"/>
  <rect x="277.6" y="659.1" width="7" height="7" class="extrapolation"/>
  <rect x="287.6" y="658.0" width="7" height="7" class="extrapolation"/>
  <rect x="297.5" y="657.0" width="7" height="7" class="extrapolation"/>
  <rect x="312.8" y="655.5" width="7" height="7" class="extrapolation"/>
  <rect x="322.8" y="654.7" width="7" height="7" class="extrapolation"/>
  <rect x="332.7" y="653.9" width="7" height="7" class="extrapolation"/>
  <rect x="342.5" y="653.1" width="7" height="7" class="extrapolation"/>
  <rect x="408" y="592" width="322" height="188" class="panel"/>
  <text x="422" y="616" class="panel-title">Michaelis-Menten</text>
  <text x="422" y="635" class="expr">2x/(x + 0.5)</text>
  <text x="648" y="616" class="status-ok">EML 1/2</text>
  <line x1="450.0" y1="650.0" x2="702.0" y2="650.0" class="grid"/>
  <line x1="450.0" y1="698.0" x2="702.0" y2="698.0" class="grid"/>
  <line x1="450.0" y1="746.0" x2="702.0" y2="746.0" class="axis"/>
  <line x1="450.0" y1="650.0" x2="450.0" y2="746.0" class="axis"/>
  <text x="694.0" y="762.0" class="expr">x</text>
  <text x="432.0" y="658.0" class="expr">y</text>
  <polyline points="450.0,739.4 452.8,728.3 455.7,719.7 458.5,712.7 461.3,707.1 464.2,702.4 467.0,698.3 469.8,694.9 472.7,691.9 475.5,689.3 478.3,687.0 481.1,685.0 484.0,683.1 486.8,681.5 489.6,680.0 492.5,678.6 495.3,677.4 498.1,676.3 501.0,675.2 503.8,674.3 506.6,673.4 509.5,672.5 512.3,671.8 515.1,671.0 518.0,670.4 520.8,669.7 523.6,669.1 526.4,668.6 529.3,668.0 532.1,667.5 534.9,667.1 537.8,666.6 540.6,666.2 543.4,665.8 546.3,665.4 549.1,665.1 551.9,664.7 554.8,664.4 557.6,664.1 560.4,663.7 563.3,663.5 566.1,663.2 568.9,662.9 571.8,662.7 574.6,662.4 577.4,662.2 580.2,661.9 583.1,661.7 585.9,661.5 588.7,661.3 591.6,661.1 594.4,660.9 597.2,660.7 600.1,660.6 602.9,660.4 605.7,660.2 608.6,660.1 611.4,659.9 614.2,659.7 617.1,659.6 619.9,659.5 622.7,659.3 625.6,659.2 628.4,659.1 631.2,658.9 634.0,658.8 636.9,658.7 639.7,658.6 642.5,658.5 645.4,658.3 648.2,658.2 651.0,658.1 653.9,658.0 656.7,657.9 659.5,657.8 662.4,657.7 665.2,657.6 668.0,657.6 670.9,657.5 673.7,657.4 676.5,657.3 679.3,657.2 682.2,657.1 685.0,657.1 687.8,657.0 690.7,656.9 693.5,656.8 696.3,656.8 699.2,656.7 702.0,656.6" class="target-line"/>
  <polyline points="450.0,739.4 452.8,728.3 455.7,719.7 458.5,712.7 461.3,707.1 464.2,702.4 467.0,698.3 469.8,694.9 472.7,691.9 475.5,689.3 478.3,687.0 481.1,685.0 484.0,683.1 486.8,681.5 489.6,680.0 492.5,678.6 495.3,677.4 498.1,676.3 501.0,675.2 503.8,674.3 506.6,673.4 509.5,672.5 512.3,671.8 515.1,671.0 518.0,670.4 520.8,669.7 523.6,669.1 526.4,668.6 529.3,668.0 532.1,667.5 534.9,667.1 537.8,666.6 540.6,666.2 543.4,665.8 546.3,665.4 549.1,665.1 551.9,664.7 554.8,664.4 557.6,664.1 560.4,663.7 563.3,663.5 566.1,663.2 568.9,662.9 571.8,662.7 574.6,662.4 577.4,662.2 580.2,661.9 583.1,661.7 585.9,661.5 588.7,661.3 591.6,661.1 594.4,660.9 597.2,660.7 600.1,660.6 602.9,660.4 605.7,660.2 608.6,660.1 611.4,659.9 614.2,659.7 617.1,659.6 619.9,659.5 622.7,659.3 625.6,659.2 628.4,659.1 631.2,658.9 634.0,658.8 636.9,658.7 639.7,658.6 642.5,658.5 645.4,658.3 648.2,658.2 651.0,658.1 653.9,658.0 656.7,657.9 659.5,657.8 662.4,657.7 665.2,657.6 668.0,657.6 670.9,657.5 673.7,657.4 676.5,657.3 679.3,657.2 682.2,657.1 685.0,657.1 687.8,657.0 690.7,656.9 693.5,656.8 696.3,656.8 699.2,656.7 702.0,656.6" class="eml-line"/>
  <circle cx="450.0" cy="739.4" r="3.2" class="train"/>
  <circle cx="477.8" cy="687.4" r="3.2" class="train"/>
  <circle cx="505.0" cy="673.9" r="3.2" class="train"/>
  <circle cx="533.3" cy="667.3" r="3.2" class="train"/>
  <circle cx="547.0" cy="665.3" r="3.2" class="train"/>
  <circle cx="573.8" cy="662.5" r="3.2" class="train"/>
  <circle cx="601.9" cy="660.4" r="3.2" class="train"/>
  <circle cx="629.4" cy="659.0" r="3.2" class="train"/>
  <polygon points="450.6,732.6 446.6,740.1 454.6,740.1" class="validation"/>
  <polygon points="472.2,688.3 468.2,695.8 476.2,695.8" class="validation"/>
  <polygon points="493.9,674.0 489.9,681.5 497.9,681.5" class="validation"/>
  <polygon points="515.1,667.0 511.1,674.5 519.1,674.5" class="validation"/>
  <polygon points="547.3,661.3 543.3,668.8 551.3,668.8" class="validation"/>
  <polygon points="568.6,658.9 564.6,666.4 572.6,666.4" class="validation"/>
  <polygon points="589.7,657.2 585.7,664.7 593.7,664.7" class="validation"/>
  <polygon points="611.4,655.9 607.4,663.4 615.4,663.4" class="validation"/>
  <rect x="629.5" y="655.4" width="7" height="7" class="extrapolation"/>
  <rect x="638.8" y="655.0" width="7" height="7" class="extrapolation"/>
  <rect x="648.0" y="654.6" width="7" height="7" class="extrapolation"/>
  <rect x="657.1" y="654.3" width="7" height="7" class="extrapolation"/>
  <rect x="671.2" y="653.9" width="7" height="7" class="extrapolation"/>
  <rect x="680.4" y="653.6" width="7" height="7" class="extrapolation"/>
  <rect x="689.5" y="653.3" width="7" height="7" class="extrapolation"/>
  <rect x="698.5" y="653.1" width="7" height="7" class="extrapolation"/>
  <rect x="764" y="592" width="322" height="188" class="panel"/>
  <text x="778" y="616" class="panel-title">Logistic</text>
  <text x="778" y="635" class="expr">1/(1 + 2 exp(-1.3x))</text>
  <text x="1004" y="616" class="status-bad">EML 0/2</text>
  <line x1="806.0" y1="650.0" x2="1058.0" y2="650.0" class="grid"/>
  <line x1="806.0" y1="698.0" x2="1058.0" y2="698.0" class="grid"/>
  <line x1="806.0" y1="746.0" x2="1058.0" y2="746.0" class="axis"/>
  <line x1="806.0" y1="650.0" x2="806.0" y2="746.0" class="axis"/>
  <text x="1050.0" y="762.0" class="expr">x</text>
  <text x="788.0" y="658.0" class="expr">y</text>
  <polyline points="806.0,739.4 808.8,736.5 811.7,733.6 814.5,730.5 817.3,727.4 820.2,724.3 823.0,721.1 825.8,718.0 828.7,714.8 831.5,711.7 834.3,708.5 837.1,705.5 840.0,702.5 842.8,699.6 845.6,696.7 848.5,694.0 851.3,691.4 854.1,688.9 857.0,686.5 859.8,684.3 862.6,682.1 865.5,680.1 868.3,678.2 871.1,676.5 874.0,674.8 876.8,673.3 879.6,671.9 882.4,670.5 885.3,669.3 888.1,668.2 890.9,667.2 893.8,666.2 896.6,665.4 899.4,664.6 902.3,663.8 905.1,663.2 907.9,662.6 910.8,662.0 913.6,661.5 916.4,661.0 919.3,660.6 922.1,660.2 924.9,659.9 927.8,659.6 930.6,659.3 933.4,659.0 936.2,658.8 939.1,658.6 941.9,658.4 944.7,658.2 947.6,658.1 950.4,657.9 953.2,657.8 956.1,657.7 958.9,657.6 961.7,657.5 964.6,657.4 967.4,657.3 970.2,657.3 973.1,657.2 975.9,657.1 978.7,657.1 981.6,657.0 984.4,657.0 987.2,656.9 990.0,656.9 992.9,656.9 995.7,656.9 998.5,656.8 1001.4,656.8 1004.2,656.8 1007.0,656.8 1009.9,656.8 1012.7,656.7 1015.5,656.7 1018.4,656.7 1021.2,656.7 1024.0,656.7 1026.9,656.7 1029.7,656.7 1032.5,656.7 1035.3,656.7 1038.2,656.6 1041.0,656.6 1043.8,656.6 1046.7,656.6 1049.5,656.6 1052.3,656.6 1055.2,656.6 1058.0,656.6" class="target-line"/>
  <circle cx="806.0" cy="739.4" r="3.2" class="train"/>
  <circle cx="833.9" cy="709.0" r="3.2" class="train"/>
  <circle cx="861.2" cy="683.2" r="3.2" class="train"/>
  <circle cx="889.5" cy="667.7" r="3.2" class="train"/>
  <circle cx="903.3" cy="663.6" r="3.2" class="train"/>
  <circle cx="930.2" cy="659.3" r="3.2" class="train"/>
  <circle cx="958.3" cy="657.6" r="3.2" class="train"/>
  <circle cx="985.9" cy="657.0" r="3.2" class="train"/>
  <polygon points="809.1,732.2 805.1,739.7 813.1,739.7" class="validation"/>
  <polygon points="831.9,707.1 827.9,714.6 835.9,714.6" class="validation"/>
  <polygon points="854.8,684.3 850.8,691.8 858.8,691.8" class="validation"/>
  <polygon points="877.2,669.1 873.2,676.6 881.2,676.6" class="validation"/>
  <polygon points="911.2,657.9 907.2,665.4 915.2,665.4" class="validation"/>
  <polygon points="933.7,655.0 929.7,662.5 937.7,662.5" class="validation"/>
  <polygon points="955.9,653.7 951.9,661.2 959.9,661.2" class="validation"/>
  <polygon points="978.9,653.1 974.9,660.6 982.9,660.6" class="validation"/>
  <rect x="986.0" y="653.4" width="7" height="7" class="extrapolation"/>
  <rect x="995.2" y="653.3" width="7" height="7" class="extrapolation"/>
  <rect x="1004.4" y="653.3" width="7" height="7" class="extrapolation"/>
  <rect x="1013.4" y="653.2" width="7" height="7" class="extrapolation"/>
  <rect x="1027.4" y="653.2" width="7" height="7" class="extrapolation"/>
  <rect x="1036.5" y="653.1" width="7" height="7" class="extrapolation"/>
  <rect x="1045.5" y="653.1" width="7" height="7" class="extrapolation"/>
  <rect x="1054.5" y="653.1" width="7" height="7" class="extrapolation"/>
  <rect x="52" y="822" width="322" height="188" class="panel"/>
  <text x="66" y="846" class="panel-title">Shockley</text>
  <text x="66" y="865" class="expr">0.2(exp(1.4x) - 1)</text>
  <text x="292" y="846" class="status-ok">EML 1/2</text>
  <line x1="94.0" y1="880.0" x2="346.0" y2="880.0" class="grid"/>
  <line x1="94.0" y1="928.0" x2="346.0" y2="928.0" class="grid"/>
  <line x1="94.0" y1="976.0" x2="346.0" y2="976.0" class="axis"/>
  <line x1="94.0" y1="880.0" x2="94.0" y2="976.0" class="axis"/>
  <text x="338.0" y="992.0" class="expr">x</text>
  <text x="76.0" y="888.0" class="expr">y</text>
  <polyline points="94.0,969.4 96.8,969.3 99.7,969.2 102.5,969.1 105.3,968.9 108.2,968.8 111.0,968.7 113.8,968.6 116.7,968.4 119.5,968.3 122.3,968.1 125.1,968.0 128.0,967.8 130.8,967.7 133.6,967.5 136.5,967.3 139.3,967.1 142.1,966.9 145.0,966.7 147.8,966.5 150.6,966.3 153.5,966.1 156.3,965.8 159.1,965.6 162.0,965.3 164.8,965.1 167.6,964.8 170.4,964.5 173.3,964.2 176.1,963.9 178.9,963.6 181.8,963.2 184.6,962.9 187.4,962.5 190.3,962.1 193.1,961.7 195.9,961.3 198.8,960.9 201.6,960.5 204.4,960.0 207.3,959.5 210.1,959.0 212.9,958.5 215.8,958.0 218.6,957.4 221.4,956.8 224.2,956.2 227.1,955.6 229.9,954.9 232.7,954.2 235.6,953.5 238.4,952.8 241.2,952.0 244.1,951.2 246.9,950.4 249.7,949.5 252.6,948.6 255.4,947.7 258.2,946.7 261.1,945.7 263.9,944.7 266.7,943.6 269.6,942.4 272.4,941.3 275.2,940.0 278.0,938.7 280.9,937.4 283.7,936.0 286.5,934.6 289.4,933.1 292.2,931.5 295.0,929.9 297.9,928.2 300.7,926.5 303.5,924.6 306.4,922.7 309.2,920.8 312.0,918.7 314.9,916.6 317.7,914.4 320.5,912.1 323.3,909.6 326.2,907.2 329.0,904.6 331.8,901.8 334.7,899.0 337.5,896.1 340.3,893.1 343.2,889.9 346.0,886.6" class="target-line"/>
  <polyline points="94.0,969.4 96.8,969.3 99.7,969.2 102.5,969.1 105.3,968.9 108.2,968.8 111.0,968.7 113.8,968.6 116.7,968.4 119.5,968.3 122.3,968.1 125.1,968.0 128.0,967.8 130.8,967.7 133.6,967.5 136.5,967.3 139.3,967.1 142.1,966.9 145.0,966.7 147.8,966.5 150.6,966.3 153.5,966.1 156.3,965.8 159.1,965.6 162.0,965.3 164.8,965.1 167.6,964.8 170.4,964.5 173.3,964.2 176.1,963.9 178.9,963.6 181.8,963.2 184.6,962.9 187.4,962.5 190.3,962.1 193.1,961.7 195.9,961.3 198.8,960.9 201.6,960.5 204.4,960.0 207.3,959.5 210.1,959.0 212.9,958.5 215.8,958.0 218.6,957.4 221.4,956.8 224.2,956.2 227.1,955.6 229.9,954.9 232.7,954.2 235.6,953.5 238.4,952.8 241.2,952.0 244.1,951.2 246.9,950.4 249.7,949.5 252.6,948.6 255.4,947.7 258.2,946.7 261.1,945.7 263.9,944.7 266.7,943.6 269.6,942.4 272.4,941.3 275.2,940.0 278.0,938.7 280.9,937.4 283.7,936.0 286.5,934.6 289.4,933.1 292.2,931.5 295.0,929.9 297.9,928.2 300.7,926.5 303.5,924.6 306.4,922.7 309.2,920.8 312.0,918.7 314.9,916.6 317.7,914.4 320.5,912.1 323.3,909.6 326.2,907.2 329.0,904.6 331.8,901.8 334.7,899.0 337.5,896.1 340.3,893.1 343.2,889.9 346.0,886.6" class="eml-line"/>
  <circle cx="94.0" cy="969.4" r="3.2" class="train"/>
  <circle cx="125.2" cy="968.0" r="3.2" class="train"/>
  <circle cx="155.8" cy="965.9" r="3.2" class="train"/>
  <circle cx="187.6" cy="962.5" r="3.2" class="train"/>
  <circle cx="202.9" cy="960.3" r="3.2" class="train"/>
  <circle cx="233.1" cy="954.2" r="3.2" class="train"/>
  <circle cx="264.6" cy="944.4" r="3.2" class="train"/>
  <circle cx="295.5" cy="929.6" r="3.2" class="train"/>
  <polygon points="98.6,965.2 94.6,972.7 102.6,972.7" class="validation"/>
  <polygon points="122.3,964.1 118.3,971.6 126.3,971.6" class="validation"/>
  <polygon points="146.2,962.6 142.2,970.1 150.2,970.1" class="validation"/>
  <polygon points="169.5,960.6 165.5,968.1 173.5,968.1" class="validation"/>
  <polygon points="205.0,955.9 201.0,963.4 209.0,963.4" class="validation"/>
  <polygon points="228.4,951.3 224.4,958.8 232.4,958.8" class="validation"/>
  <polygon points="251.6,945.0 247.6,952.5 255.6,952.5" class="validation"/>
  <polygon points="275.5,935.9 271.5,943.4 279.5,943.4" class="validation"/>
  <rect x="297.1" y="923.0" width="7" height="7" class="extrapolation"/>
  <rect x="303.2" y="919.0" width="7" height="7" class="extrapolation"/>
  <rect x="309.3" y="914.7" width="7" height="7" class="extrapolation"/>
  <rect x="315.2" y="910.0" width="7" height="7" class="extrapolation"/>
  <rect x="324.5" y="902.0" width="7" height="7" class="extrapolation"/>
  <rect x="330.6" y="896.2" width="7" height="7" class="extrapolation"/>
  <rect x="336.5" y="889.9" width="7" height="7" class="extrapolation"/>
  <rect x="342.5" y="883.1" width="7" height="7" class="extrapolation"/>
  <rect x="408" y="822" width="322" height="188" class="panel"/>
  <text x="422" y="846" class="panel-title">Damped oscillator</text>
  <text x="422" y="865" class="expr">exp(-0.15t) cos(2.5t + 0.2)</text>
  <text x="648" y="846" class="status-bad">EML 0/2</text>
  <line x1="450.0" y1="880.0" x2="702.0" y2="880.0" class="grid"/>
  <line x1="450.0" y1="928.0" x2="702.0" y2="928.0" class="grid"/>
  <line x1="450.0" y1="976.0" x2="702.0" y2="976.0" class="axis"/>
  <line x1="450.0" y1="880.0" x2="450.0" y2="976.0" class="axis"/>
  <text x="694.0" y="992.0" class="expr">t</text>
  <text x="432.0" y="888.0" class="expr">y</text>
  <polyline points="450.0,886.6 452.8,890.3 455.7,896.0 458.5,903.3 461.3,911.7 464.2,920.9 467.0,930.4 469.8,939.6 472.7,948.2 475.5,955.7 478.3,961.8 481.1,966.2 484.0,968.8 486.8,969.4 489.6,968.1 492.5,965.0 495.3,960.2 498.1,954.2 501.0,947.2 503.8,939.6 506.6,931.7 509.5,924.1 512.3,917.0 515.1,910.8 518.0,905.7 520.8,902.1 523.6,900.0 526.4,899.6 529.3,900.7 532.1,903.3 534.9,907.2 537.8,912.2 540.6,918.0 543.4,924.3 546.3,930.8 549.1,937.2 551.9,943.0 554.8,948.2 557.6,952.3 560.4,955.3 563.3,957.0 566.1,957.4 568.9,956.4 571.8,954.3 574.6,951.0 577.4,946.8 580.2,942.0 583.1,936.8 585.9,931.4 588.7,926.2 591.6,921.3 594.4,917.1 597.2,913.6 600.1,911.2 602.9,909.8 605.7,909.5 608.6,910.3 611.4,912.1 614.2,914.8 617.1,918.3 619.9,922.3 622.7,926.6 625.6,931.1 628.4,935.4 631.2,939.4 634.0,942.9 636.9,945.8 639.7,947.8 642.5,948.9 645.4,949.1 648.2,948.5 651.0,947.0 653.9,944.7 656.7,941.8 659.5,938.5 662.4,934.9 665.2,931.2 668.0,927.6 670.9,924.3 673.7,921.4 676.5,919.1 679.3,917.4 682.2,916.5 685.0,916.3 687.8,916.9 690.7,918.2 693.5,920.0 696.3,922.4 699.2,925.2 702.0,928.2" class="target-line"/>
  <circle cx="450.0" cy="886.6" r="3.2" class="train"/>
  <circle cx="479.3" cy="963.5" r="3.2" class="train"/>
  <circle cx="507.9" cy="928.2" r="3.2" class="train"/>
  <circle cx="537.7" cy="912.1" r="3.2" class="train"/>
  <circle cx="552.1" cy="943.4" r="3.2" class="train"/>
  <circle cx="580.4" cy="941.8" r="3.2" class="train"/>
  <circle cx="609.9" cy="911.1" r="3.2" class="train"/>
  <circle cx="638.9" cy="947.3" r="3.2" class="train"/>
  <polygon points="451.1,883.8 447.1,891.3 455.1,891.3" class="validation"/>
  <polygon points="475.5,951.8 471.5,959.3 479.5,959.3" class="validation"/>
  <polygon points="500.0,945.7 496.0,953.2 504.0,953.2" class="validation"/>
  <polygon points="524.0,895.9 520.0,903.4 528.0,903.4" class="validation"/>
  <polygon points="560.4,951.2 556.4,958.7 564.4,958.7" class="validation"/>
  <polygon points="584.4,930.2 580.4,937.7 588.4,937.7" class="validation"/>
  <polygon points="608.2,906.1 604.2,913.6 612.2,913.6" class="validation"/>
  <polygon points="632.8,937.5 628.8,945.0 636.8,945.0" class="validation"/>
  <rect x="638.5" y="945.3" width="7" height="7" class="extrapolation"/>
  <rect x="646.6" y="944.0" width="7" height="7" class="extrapolation"/>
  <rect x="654.7" y="936.7" width="7" height="7" class="extrapolation"/>
  <rect x="662.5" y="926.6" width="7" height="7" class="extrapolation"/>
  <rect x="674.8" y="914.5" width="7" height="7" class="extrapolation"/>
  <rect x="682.8" y="913.0" width="7" height="7" class="extrapolation"/>
  <rect x="690.6" y="917.0" width="7" height="7" class="extrapolation"/>
  <rect x="698.5" y="924.7" width="7" height="7" class="extrapolation"/>
  <rect x="764" y="822" width="322" height="188" class="panel"/>
  <text x="778" y="846" class="panel-title">Planck</text>
  <text x="778" y="865" class="expr">x^3/(exp(x) - 1)</text>
  <text x="1004" y="846" class="status-bad">EML 0/2</text>
  <line x1="806.0" y1="880.0" x2="1058.0" y2="880.0" class="grid"/>
  <line x1="806.0" y1="928.0" x2="1058.0" y2="928.0" class="grid"/>
  <line x1="806.0" y1="976.0" x2="1058.0" y2="976.0" class="axis"/>
  <line x1="806.0" y1="880.0" x2="806.0" y2="976.0" class="axis"/>
  <text x="1050.0" y="992.0" class="expr">x</text>
  <text x="788.0" y="888.0" class="expr">y</text>
  <polyline points="806.0,969.4 808.8,966.6 811.7,963.0 814.5,958.8 817.3,954.0 820.2,948.9 823.0,943.6 825.8,938.1 828.7,932.7 831.5,927.4 834.3,922.3 837.1,917.3 840.0,912.7 842.8,908.4 845.6,904.4 848.5,900.9 851.3,897.7 854.1,894.9 857.0,892.6 859.8,890.6 862.6,889.1 865.5,887.9 868.3,887.1 871.1,886.7 874.0,886.6 876.8,886.8 879.6,887.3 882.4,888.1 885.3,889.1 888.1,890.4 890.9,891.8 893.8,893.5 896.6,895.2 899.4,897.1 902.3,899.2 905.1,901.3 907.9,903.4 910.8,905.7 913.6,908.0 916.4,910.3 919.3,912.6 922.1,914.9 924.9,917.3 927.8,919.6 930.6,921.8 933.4,924.1 936.2,926.3 939.1,928.4 941.9,930.5 944.7,932.5 947.6,934.5 950.4,936.4 953.2,938.3 956.1,940.1 958.9,941.8 961.7,943.4 964.6,945.0 967.4,946.5 970.2,948.0 973.1,949.4 975.9,950.7 978.7,952.0 981.6,953.2 984.4,954.3 987.2,955.4 990.0,956.4 992.9,957.3 995.7,958.3 998.5,959.1 1001.4,959.9 1004.2,960.7 1007.0,961.4 1009.9,962.1 1012.7,962.7 1015.5,963.3 1018.4,963.9 1021.2,964.4 1024.0,964.9 1026.9,965.4 1029.7,965.8 1032.5,966.2 1035.3,966.6 1038.2,967.0 1041.0,967.3 1043.8,967.6 1046.7,967.9 1049.5,968.2 1052.3,968.4 1055.2,968.6 1058.0,968.9" class="target-line"/>
  <circle cx="806.0" cy="969.4" r="3.2" class="train"/>
  <circle cx="837.1" cy="917.5" r="3.2" class="train"/>
  <circle cx="867.5" cy="887.3" r="3.2" class="train"/>
  <circle cx="899.1" cy="896.9" r="3.2" class="train"/>
  <circle cx="914.4" cy="908.6" r="3.2" class="train"/>
  <circle cx="944.3" cy="932.3" r="3.2" class="train"/>
  <circle cx="975.7" cy="950.6" r="3.2" class="train"/>
  <circle cx="1006.5" cy="961.3" r="3.2" class="train"/>
  <polygon points="806.8,964.7 802.8,972.2 810.8,972.2" class="validation"/>
  <polygon points="831.9,922.6 827.9,930.1 835.9,930.1" class="validation"/>
  <polygon points="857.1,888.5 853.1,896.0 861.1,896.0" class="validation"/>
  <polygon points="881.8,883.9 877.8,891.4 885.8,891.4" class="validation"/>
  <polygon points="919.3,908.6 915.3,916.1 923.3,916.1" class="validation"/>
  <polygon points="944.0,928.0 940.0,935.5 948.0,935.5" class="validation"/>
  <polygon points="968.5,943.1 964.5,950.6 972.5,950.6" class="validation"/>
  <polygon points="993.8,953.7 989.8,961.2 997.8,961.2" class="validation"/>
  <rect x="1005.6" y="958.4" width="7" height="7" class="extrapolation"/>
  <rect x="1012.2" y="959.9" width="7" height="7" class="extrapolation"/>
  <rect x="1018.7" y="961.1" width="7" height="7" class="extrapolation"/>
  <rect x="1025.1" y="962.2" width="7" height="7" class="extrapolation"/>
  <rect x="1035.1" y="963.5" width="7" height="7" class="extrapolation"/>
  <rect x="1041.6" y="964.2" width="7" height="7" class="extrapolation"/>
  <rect x="1048.1" y="964.8" width="7" height="7" class="extrapolation"/>
  <rect x="1054.5" y="965.4" width="7" height="7" class="extrapolation"/>
</svg>
