<svg xmlns="http://www.w3.org/2000/svg" width="1120" height="930" viewBox="0 0 1120 930" role="img" aria-labelledby="title desc">
  <title id="title">v1.13 target, data, and EML curves</title>
  <desc id="desc">Twelve v1.13 target panels with target line, training dots, validation triangles, and verified EML curves where available. Visible plot text is limited to the legend.</desc>
  <style>
    text { font-family: "Times New Roman", Times, serif; fill: #000000; }
    .legend { font-size: 14px; }
    .axis { stroke: #000000; stroke-width: 1; }
    .grid { stroke: #cfcfcf; stroke-width: 0.65; }
    .target-line { fill: none; stroke: #000000; stroke-width: 1.1; stroke-linejoin: miter; stroke-linecap: butt; }
    .eml-line { fill: none; stroke: #008000; stroke-width: 2.1; stroke-dasharray: 7 4; stroke-linejoin: miter; stroke-linecap: butt; }
    .train { fill: #0057b8; stroke: #000000; stroke-width: 0.45; }
    .validation { fill: #cc0000; stroke: #000000; stroke-width: 0.45; }
    .panel { fill: #ffffff; stroke: #888888; stroke-width: 1; }
  </style>
  <rect width="1120" height="930" fill="#ffffff"/>
  <line x1="54" y1="40" x2="98" y2="40" class="target-line"/>
  <text x="108" y="45" class="legend">target</text>
  <line x1="190" y1="40" x2="234" y2="40" class="eml-line"/>
  <text x="244" y="45" class="legend">verified EML</text>
  <circle cx="386" cy="40" r="4" class="train"/>
  <text x="398" y="45" class="legend">training data</text>
  <polygon points="542,34 536,46 548,46" class="validation"/>
  <text x="558" y="45" class="legend">validation data</text>
  <rect x="52" y="92" width="322" height="188" class="panel"/>
  <line x1="84.0" y1="116.0" x2="350.0" y2="116.0" class="grid"/>
  <line x1="84.0" y1="182.0" x2="350.0" y2="182.0" class="grid"/>
  <line x1="84.0" y1="248.0" x2="350.0" y2="248.0" class="axis"/>
  <line x1="84.0" y1="116.0" x2="84.0" y2="248.0" class="axis"/>
  <polyline points="84.0,242.6 86.7,242.2 89.4,241.8 92.1,241.4 94.7,241.0 97.4,240.5 100.1,240.1 102.8,239.7 105.5,239.2 108.2,238.8 110.9,238.3 113.6,237.8 116.2,237.3 118.9,236.9 121.6,236.3 124.3,235.8 127.0,235.3 129.7,234.8 132.4,234.2 135.1,233.7 137.7,233.1 140.4,232.5 143.1,231.9 145.8,231.3 148.5,230.7 151.2,230.1 153.9,229.4 156.5,228.8 159.2,228.1 161.9,227.4 164.6,226.7 167.3,226.0 170.0,225.3 172.7,224.6 175.4,223.8 178.0,223.1 180.7,222.3 183.4,221.5 186.1,220.6 188.8,219.8 191.5,219.0 194.2,218.1 196.8,217.2 199.5,216.3 202.2,215.4 204.9,214.4 207.6,213.5 210.3,212.5 213.0,211.5 215.7,210.5 218.3,209.4 221.0,208.4 223.7,207.3 226.4,206.2 229.1,205.1 231.8,203.9 234.5,202.7 237.2,201.5 239.8,200.3 242.5,199.1 245.2,197.8 247.9,196.5 250.6,195.2 253.3,193.8 256.0,192.4 258.6,191.0 261.3,189.6 264.0,188.1 266.7,186.6 269.4,185.1 272.1,183.5 274.8,181.9 277.5,180.3 280.1,178.7 282.8,177.0 285.5,175.2 288.2,173.5 290.9,171.7 293.6,169.9 296.3,168.0 298.9,166.1 301.6,164.1 304.3,162.1 307.0,160.1 309.7,158.0 312.4,155.9 315.1,153.8 317.8,151.6 320.4,149.3 323.1,147.1 325.8,144.7 328.5,142.3 331.2,139.9 333.9,137.4 336.6,134.9 339.3,132.3 341.9,129.7 344.6,127.0 347.3,124.2 350.0,121.4" class="target-line"/>
  <circle cx="84.0" cy="242.6" r="3.2" class="train"/>
  <circle cx="125.2" cy="235.7" r="3.2" class="train"/>
  <circle cx="165.6" cy="226.5" r="3.2" class="train"/>
  <circle cx="207.5" cy="213.5" r="3.2" class="train"/>
  <circle cx="227.8" cy="205.6" r="3.2" class="train"/>
  <circle cx="267.5" cy="186.1" r="3.2" class="train"/>
  <circle cx="309.2" cy="158.4" r="3.2" class="train"/>
  <circle cx="350.0" cy="121.4" r="3.2" class="train"/>
  <polygon points="110.0,234.5 106.0,242.0 114.0,242.0" class="validation"/>
  <polygon points="138.7,228.9 134.7,236.4 142.7,236.4" class="validation"/>
  <polygon points="167.5,222.0 163.5,229.5 171.5,229.5" class="validation"/>
  <polygon points="195.7,213.6 191.7,221.1 199.7,221.1" class="validation"/>
  <polygon points="238.5,196.9 234.5,204.4 242.5,204.4" class="validation"/>
  <polygon points="266.8,182.6 262.8,190.1 270.8,190.1" class="validation"/>
  <polygon points="294.7,165.1 290.7,172.6 298.7,172.6" class="validation"/>
  <polygon points="323.6,142.7 319.6,150.2 327.6,150.2" class="validation"/>
  <polyline points="84.0,242.6 86.7,242.2 89.4,241.8 92.1,241.4 94.7,241.0 97.4,240.5 100.1,240.1 102.8,239.7 105.5,239.2 108.2,238.8 110.9,238.3 113.6,237.8 116.2,237.3 118.9,236.9 121.6,236.3 124.3,235.8 127.0,235.3 129.7,234.8 132.4,234.2 135.1,233.7 137.7,233.1 140.4,232.5 143.1,231.9 145.8,231.3 148.5,230.7 151.2,230.1 153.9,229.4 156.5,228.8 159.2,228.1 161.9,227.4 164.6,226.7 167.3,226.0 170.0,225.3 172.7,224.6 175.4,223.8 178.0,223.1 180.7,222.3 183.4,221.5 186.1,220.6 188.8,219.8 191.5,219.0 194.2,218.1 196.8,217.2 199.5,216.3 202.2,215.4 204.9,214.4 207.6,213.5 210.3,212.5 213.0,211.5 215.7,210.5 218.3,209.4 221.0,208.4 223.7,207.3 226.4,206.2 229.1,205.1 231.8,203.9 234.5,202.7 237.2,201.5 239.8,200.3 242.5,199.1 245.2,197.8 247.9,196.5 250.6,195.2 253.3,193.8 256.0,192.4 258.6,191.0 261.3,189.6 264.0,188.1 266.7,186.6 269.4,185.1 272.1,183.5 274.8,181.9 277.5,180.3 280.1,178.7 282.8,177.0 285.5,175.2 288.2,173.5 290.9,171.7 293.6,169.9 296.3,168.0 298.9,166.1 301.6,164.1 304.3,162.1 307.0,160.1 309.7,158.0 312.4,155.9 315.1,153.8 317.8,151.6 320.4,149.3 323.1,147.1 325.8,144.7 328.5,142.3 331.2,139.9 333.9,137.4 336.6,134.9 339.3,132.3 341.9,129.7 344.6,127.0 347.3,124.2 350.0,121.4" class="eml-line"/>
  <rect x="408" y="92" width="322" height="188" class="panel"/>
  <line x1="440.0" y1="116.0" x2="706.0" y2="116.0" class="grid"/>
  <line x1="440.0" y1="182.0" x2="706.0" y2="182.0" class="grid"/>
  <line x1="440.0" y1="248.0" x2="706.0" y2="248.0" class="axis"/>
  <line x1="440.0" y1="116.0" x2="440.0" y2="248.0" class="axis"/>
  <polyline points="440.0,242.6 442.7,237.4 445.4,232.8 448.1,228.6 450.7,224.7 453.4,221.1 456.1,217.7 458.8,214.5 461.5,211.6 464.2,208.8 466.9,206.2 469.6,203.7 472.2,201.3 474.9,199.0 477.6,196.9 480.3,194.8 483.0,192.8 485.7,190.9 488.4,189.1 491.1,187.3 493.7,185.6 496.4,183.9 499.1,182.3 501.8,180.8 504.5,179.3 507.2,177.8 509.9,176.4 512.5,175.0 515.2,173.7 517.9,172.4 520.6,171.1 523.3,169.9 526.0,168.7 528.7,167.5 531.4,166.4 534.0,165.2 536.7,164.1 539.4,163.1 542.1,162.0 544.8,161.0 547.5,160.0 550.2,159.0 552.8,158.0 555.5,157.1 558.2,156.2 560.9,155.3 563.6,154.4 566.3,153.5 569.0,152.6 571.7,151.8 574.3,150.9 577.0,150.1 579.7,149.3 582.4,148.5 585.1,147.7 587.8,147.0 590.5,146.2 593.2,145.5 595.8,144.7 598.5,144.0 601.2,143.3 603.9,142.6 606.6,141.9 609.3,141.2 612.0,140.6 614.6,139.9 617.3,139.2 620.0,138.6 622.7,138.0 625.4,137.3 628.1,136.7 630.8,136.1 633.5,135.5 636.1,134.9 638.8,134.3 641.5,133.7 644.2,133.1 646.9,132.6 649.6,132.0 652.3,131.4 654.9,130.9 657.6,130.3 660.3,129.8 663.0,129.3 665.7,128.7 668.4,128.2 671.1,127.7 673.8,127.2 676.4,126.7 679.1,126.2 681.8,125.7 684.5,125.2 687.2,124.7 689.9,124.2 692.6,123.8 695.3,123.3 697.9,122.8 700.6,122.4 703.3,121.9 706.0,121.4" class="target-line"/>
  <circle cx="440.0" cy="242.6" r="3.2" class="train"/>
  <circle cx="481.2" cy="194.1" r="3.2" class="train"/>
  <circle cx="521.6" cy="170.7" r="3.2" class="train"/>
  <circle cx="563.5" cy="154.4" r="3.2" class="train"/>
  <circle cx="583.8" cy="148.1" r="3.2" class="train"/>
  <circle cx="623.5" cy="137.8" r="3.2" class="train"/>
  <circle cx="665.2" cy="128.8" r="3.2" class="train"/>
  <circle cx="706.0" cy="121.4" r="3.2" class="train"/>
  <polygon points="449.0,223.1 445.0,230.6 453.0,230.6" class="validation"/>
  <polygon points="480.3,190.8 476.3,198.3 484.3,198.3" class="validation"/>
  <polygon points="511.8,171.4 507.8,178.9 515.8,178.9" class="validation"/>
  <polygon points="542.5,157.9 538.5,165.4 546.5,165.4" class="validation"/>
  <polygon points="589.2,142.6 585.2,150.1 593.2,150.1" class="validation"/>
  <polygon points="620.0,134.6 616.0,142.1 624.0,142.1" class="validation"/>
  <polygon points="650.5,127.8 646.5,135.3 654.5,135.3" class="validation"/>
  <polygon points="682.0,121.7 678.0,129.2 686.0,129.2" class="validation"/>
  <rect x="764" y="92" width="322" height="188" class="panel"/>
  <line x1="796.0" y1="116.0" x2="1062.0" y2="116.0" class="grid"/>
  <line x1="796.0" y1="182.0" x2="1062.0" y2="182.0" class="grid"/>
  <line x1="796.0" y1="248.0" x2="1062.0" y2="248.0" class="axis"/>
  <line x1="796.0" y1="116.0" x2="796.0" y2="248.0" class="axis"/>
  <polyline points="796.0,121.4 798.7,124.2 801.4,127.0 804.1,129.7 806.7,132.3 809.4,134.9 812.1,137.4 814.8,139.9 817.5,142.3 820.2,144.7 822.9,147.1 825.6,149.3 828.2,151.6 830.9,153.8 833.6,155.9 836.3,158.0 839.0,160.1 841.7,162.1 844.4,164.1 847.1,166.1 849.7,168.0 852.4,169.9 855.1,171.7 857.8,173.5 860.5,175.2 863.2,177.0 865.9,178.7 868.5,180.3 871.2,181.9 873.9,183.5 876.6,185.1 879.3,186.6 882.0,188.1 884.7,189.6 887.4,191.0 890.0,192.4 892.7,193.8 895.4,195.2 898.1,196.5 900.8,197.8 903.5,199.1 906.2,200.3 908.8,201.5 911.5,202.7 914.2,203.9 916.9,205.1 919.6,206.2 922.3,207.3 925.0,208.4 927.7,209.4 930.3,210.5 933.0,211.5 935.7,212.5 938.4,213.5 941.1,214.4 943.8,215.4 946.5,216.3 949.2,217.2 951.8,218.1 954.5,219.0 957.2,219.8 959.9,220.6 962.6,221.5 965.3,222.3 968.0,223.1 970.6,223.8 973.3,224.6 976.0,225.3 978.7,226.0 981.4,226.7 984.1,227.4 986.8,228.1 989.5,228.8 992.1,229.4 994.8,230.1 997.5,230.7 1000.2,231.3 1002.9,231.9 1005.6,232.5 1008.3,233.1 1010.9,233.7 1013.6,234.2 1016.3,234.8 1019.0,235.3 1021.7,235.8 1024.4,236.3 1027.1,236.9 1029.8,237.3 1032.4,237.8 1035.1,238.3 1037.8,238.8 1040.5,239.2 1043.2,239.7 1045.9,240.1 1048.6,240.5 1051.3,241.0 1053.9,241.4 1056.6,241.8 1059.3,242.2 1062.0,242.6" class="target-line"/>
  <circle cx="796.0" cy="121.4" r="3.2" class="train"/>
  <circle cx="837.2" cy="158.8" r="3.2" class="train"/>
  <circle cx="877.6" cy="185.6" r="3.2" class="train"/>
  <circle cx="919.5" cy="206.1" r="3.2" class="train"/>
  <circle cx="939.8" cy="214.0" r="3.2" class="train"/>
  <circle cx="979.5" cy="226.3" r="3.2" class="train"/>
  <circle cx="1021.2" cy="235.7" r="3.2" class="train"/>
  <circle cx="1062.0" cy="242.6" r="3.2" class="train"/>
  <polygon points="803.3,124.9 799.3,132.4 807.3,132.4" class="validation"/>
  <polygon points="836.0,153.8 832.0,161.3 840.0,161.3" class="validation"/>
  <polygon points="868.7,176.4 864.7,183.9 872.7,183.9" class="validation"/>
  <polygon points="900.7,193.8 896.7,201.3 904.7,201.3" class="validation"/>
  <polygon points="949.4,213.3 945.4,220.8 953.4,220.8" class="validation"/>
  <polygon points="981.6,222.8 977.6,230.3 985.6,230.3" class="validation"/>
  <polygon points="1013.4,230.2 1009.4,237.7 1017.4,237.7" class="validation"/>
  <polygon points="1046.3,236.2 1042.3,243.7 1050.3,243.7" class="validation"/>
  <polyline points="796.0,121.4 798.7,124.2 801.4,127.0 804.1,129.7 806.7,132.3 809.4,134.9 812.1,137.4 814.8,139.9 817.5,142.3 820.2,144.7 822.9,147.1 825.6,149.3 828.2,151.6 830.9,153.8 833.6,155.9 836.3,158.0 839.0,160.1 841.7,162.1 844.4,164.1 847.1,166.1 849.7,168.0 852.4,169.9 855.1,171.7 857.8,173.5 860.5,175.2 863.2,177.0 865.9,178.7 868.5,180.3 871.2,181.9 873.9,183.5 876.6,185.1 879.3,186.6 882.0,188.1 884.7,189.6 887.4,191.0 890.0,192.4 892.7,193.8 895.4,195.2 898.1,196.5 900.8,197.8 903.5,199.1 906.2,200.3 908.8,201.5 911.5,202.7 914.2,203.9 916.9,205.1 919.6,206.2 922.3,207.3 925.0,208.4 927.7,209.4 930.3,210.5 933.0,211.5 935.7,212.5 938.4,213.5 941.1,214.4 943.8,215.4 946.5,216.3 949.2,217.2 951.8,218.1 954.5,219.0 957.2,219.8 959.9,220.6 962.6,221.5 965.3,222.3 968.0,223.1 970.6,223.8 973.3,224.6 976.0,225.3 978.7,226.0 981.4,226.7 984.1,227.4 986.8,228.1 989.5,228.8 992.1,229.4 994.8,230.1 997.5,230.7 1000.2,231.3 1002.9,231.9 1005.6,232.5 1008.3,233.1 1010.9,233.7 1013.6,234.2 1016.3,234.8 1019.0,235.3 1021.7,235.8 1024.4,236.3 1027.1,236.9 1029.8,237.3 1032.4,237.8 1035.1,238.3 1037.8,238.8 1040.5,239.2 1043.2,239.7 1045.9,240.1 1048.6,240.5 1051.3,241.0 1053.9,241.4 1056.6,241.8 1059.3,242.2 1062.0,242.6" class="eml-line"/>
  <rect x="52" y="316" width="322" height="188" class="panel"/>
  <line x1="84.0" y1="340.0" x2="350.0" y2="340.0" class="grid"/>
  <line x1="84.0" y1="406.0" x2="350.0" y2="406.0" class="grid"/>
  <line x1="84.0" y1="472.0" x2="350.0" y2="472.0" class="axis"/>
  <line x1="84.0" y1="340.0" x2="84.0" y2="472.0" class="axis"/>
  <polyline points="84.0,345.4 86.7,348.6 89.4,351.7 92.1,354.8 94.7,357.8 97.4,360.6 100.1,363.5 102.8,366.2 105.5,368.9 108.2,371.5 110.9,374.1 113.6,376.6 116.2,379.1 118.9,381.4 121.6,383.8 124.3,386.0 127.0,388.3 129.7,390.4 132.4,392.5 135.1,394.6 137.7,396.6 140.4,398.6 143.1,400.5 145.8,402.4 148.5,404.2 151.2,406.0 153.9,407.7 156.5,409.4 159.2,411.1 161.9,412.7 164.6,414.3 167.3,415.8 170.0,417.3 172.7,418.8 175.4,420.2 178.0,421.6 180.7,423.0 183.4,424.3 186.1,425.6 188.8,426.9 191.5,428.1 194.2,429.3 196.8,430.5 199.5,431.7 202.2,432.8 204.9,433.9 207.6,434.9 210.3,436.0 213.0,437.0 215.7,438.0 218.3,439.0 221.0,439.9 223.7,440.9 226.4,441.8 229.1,442.6 231.8,443.5 234.5,444.4 237.2,445.2 239.8,446.0 242.5,446.8 245.2,447.5 247.9,448.3 250.6,449.0 253.3,449.7 256.0,450.4 258.6,451.1 261.3,451.7 264.0,452.4 266.7,453.0 269.4,453.6 272.1,454.2 274.8,454.8 277.5,455.4 280.1,455.9 282.8,456.5 285.5,457.0 288.2,457.5 290.9,458.0 293.6,458.5 296.3,459.0 298.9,459.5 301.6,459.9 304.3,460.4 307.0,460.8 309.7,461.2 312.4,461.7 315.1,462.1 317.8,462.5 320.4,462.9 323.1,463.2 325.8,463.6 328.5,464.0 331.2,464.3 333.9,464.7 336.6,465.0 339.3,465.3 341.9,465.6 344.6,465.9 347.3,466.3 350.0,466.6" class="target-line"/>
  <circle cx="84.0" cy="345.4" r="3.2" class="train"/>
  <circle cx="125.2" cy="386.8" r="3.2" class="train"/>
  <circle cx="165.6" cy="414.8" r="3.2" class="train"/>
  <circle cx="207.5" cy="434.9" r="3.2" class="train"/>
  <circle cx="227.8" cy="442.2" r="3.2" class="train"/>
  <circle cx="267.5" cy="453.2" r="3.2" class="train"/>
  <circle cx="309.2" cy="461.2" r="3.2" class="train"/>
  <circle cx="350.0" cy="466.6" r="3.2" class="train"/>
  <polygon points="96.7,355.8 92.7,363.3 100.7,363.3" class="validation"/>
  <polygon points="127.2,384.4 123.2,391.9 131.2,391.9" class="validation"/>
  <polygon points="157.8,406.2 153.8,413.7 161.8,413.7" class="validation"/>
  <polygon points="187.7,422.4 183.7,429.9 191.7,429.9" class="validation"/>
  <polygon points="233.2,439.9 229.2,447.4 237.2,447.4" class="validation"/>
  <polygon points="263.2,448.2 259.2,455.7 267.2,455.7" class="validation"/>
  <polygon points="292.9,454.4 288.9,461.9 296.9,461.9" class="validation"/>
  <polygon points="323.6,459.3 319.6,466.8 327.6,466.8" class="validation"/>
  <polyline points="84.0,345.4 86.7,348.6 89.4,351.7 92.1,354.8 94.7,357.8 97.4,360.6 100.1,363.5 102.8,366.2 105.5,368.9 108.2,371.5 110.9,374.1 113.6,376.6 116.2,379.1 118.9,381.4 121.6,383.8 124.3,386.0 127.0,388.3 129.7,390.4 132.4,392.5 135.1,394.6 137.7,396.6 140.4,398.6 143.1,400.5 145.8,402.4 148.5,404.2 151.2,406.0 153.9,407.7 156.5,409.4 159.2,411.1 161.9,412.7 164.6,414.3 167.3,415.8 170.0,417.3 172.7,418.8 175.4,420.2 178.0,421.6 180.7,423.0 183.4,424.3 186.1,425.6 188.8,426.9 191.5,428.1 194.2,429.3 196.8,430.5 199.5,431.7 202.2,432.8 204.9,433.9 207.6,434.9 210.3,436.0 213.0,437.0 215.7,438.0 218.3,439.0 221.0,439.9 223.7,440.9 226.4,441.8 229.1,442.6 231.8,443.5 234.5,444.4 237.2,445.2 239.8,446.0 242.5,446.8 245.2,447.5 247.9,448.3 250.6,449.0 253.3,449.7 256.0,450.4 258.6,451.1 261.3,451.7 264.0,452.4 266.7,453.0 269.4,453.6 272.1,454.2 274.8,454.8 277.5,455.4 280.1,455.9 282.8,456.5 285.5,457.0 288.2,457.5 290.9,458.0 293.6,458.5 296.3,459.0 298.9,459.5 301.6,459.9 304.3,460.4 307.0,460.8 309.7,461.2 312.4,461.7 315.1,462.1 317.8,462.5 320.4,462.9 323.1,463.2 325.8,463.6 328.5,464.0 331.2,464.3 333.9,464.7 336.6,465.0 339.3,465.3 341.9,465.6 344.6,465.9 347.3,466.3 350.0,466.6" class="eml-line"/>
  <rect x="408" y="316" width="322" height="188" class="panel"/>
  <line x1="440.0" y1="340.0" x2="706.0" y2="340.0" class="grid"/>
  <line x1="440.0" y1="406.0" x2="706.0" y2="406.0" class="grid"/>
  <line x1="440.0" y1="472.0" x2="706.0" y2="472.0" class="axis"/>
  <line x1="440.0" y1="340.0" x2="440.0" y2="472.0" class="axis"/>
  <polyline points="440.0,466.6 442.7,466.1 445.4,465.5 448.1,465.0 450.7,464.5 453.4,464.0 456.1,463.4 458.8,462.9 461.5,462.3 464.2,461.8 466.9,461.2 469.6,460.6 472.2,460.0 474.9,459.4 477.6,458.8 480.3,458.1 483.0,457.5 485.7,456.9 488.4,456.2 491.1,455.5 493.7,454.9 496.4,454.2 499.1,453.5 501.8,452.8 504.5,452.0 507.2,451.3 509.9,450.5 512.5,449.8 515.2,449.0 517.9,448.2 520.6,447.4 523.3,446.6 526.0,445.8 528.7,445.0 531.4,444.1 534.0,443.2 536.7,442.4 539.4,441.5 542.1,440.6 544.8,439.6 547.5,438.7 550.2,437.7 552.8,436.8 555.5,435.8 558.2,434.8 560.9,433.8 563.6,432.7 566.3,431.7 569.0,430.6 571.7,429.5 574.3,428.4 577.0,427.3 579.7,426.2 582.4,425.0 585.1,423.8 587.8,422.7 590.5,421.4 593.2,420.2 595.8,419.0 598.5,417.7 601.2,416.4 603.9,415.1 606.6,413.7 609.3,412.4 612.0,411.0 614.6,409.6 617.3,408.2 620.0,406.7 622.7,405.2 625.4,403.7 628.1,402.2 630.8,400.7 633.5,399.1 636.1,397.5 638.8,395.9 641.5,394.2 644.2,392.5 646.9,390.8 649.6,389.1 652.3,387.3 654.9,385.6 657.6,383.7 660.3,381.9 663.0,380.0 665.7,378.1 668.4,376.2 671.1,374.2 673.8,372.2 676.4,370.2 679.1,368.1 681.8,366.0 684.5,363.8 687.2,361.7 689.9,359.5 692.6,357.2 695.3,354.9 697.9,352.6 700.6,350.3 703.3,347.9 706.0,345.4" class="target-line"/>
  <circle cx="440.0" cy="466.6" r="3.2" class="train"/>
  <circle cx="481.2" cy="457.9" r="3.2" class="train"/>
  <circle cx="521.6" cy="447.1" r="3.2" class="train"/>
  <circle cx="563.5" cy="432.8" r="3.2" class="train"/>
  <circle cx="583.8" cy="424.4" r="3.2" class="train"/>
  <circle cx="623.5" cy="404.8" r="3.2" class="train"/>
  <circle cx="665.2" cy="378.5" r="3.2" class="train"/>
  <circle cx="706.0" cy="345.4" r="3.2" class="train"/>
  <polygon points="459.3,458.8 455.3,466.3 463.3,466.3" class="validation"/>
  <polygon points="489.8,451.8 485.8,459.3 493.8,459.3" class="validation"/>
  <polygon points="520.4,443.5 516.4,451.0 524.4,451.0" class="validation"/>
  <polygon points="550.3,433.7 546.3,441.2 554.3,441.2" class="validation"/>
  <polygon points="595.8,415.0 591.8,422.5 599.8,422.5" class="validation"/>
  <polygon points="625.9,399.5 621.9,407.0 629.9,407.0" class="validation"/>
  <polygon points="655.6,381.1 651.6,388.6 659.6,388.6" class="validation"/>
  <polygon points="686.3,358.4 682.3,365.9 690.3,365.9" class="validation"/>
  <polyline points="440.0,466.6 442.7,466.1 445.4,465.5 448.1,465.0 450.7,464.5 453.4,464.0 456.1,463.4 458.8,462.9 461.5,462.3 464.2,461.8 466.9,461.2 469.6,460.6 472.2,460.0 474.9,459.4 477.6,458.8 480.3,458.1 483.0,457.5 485.7,456.9 488.4,456.2 491.1,455.5 493.7,454.9 496.4,454.2 499.1,453.5 501.8,452.8 504.5,452.0 507.2,451.3 509.9,450.5 512.5,449.8 515.2,449.0 517.9,448.2 520.6,447.4 523.3,446.6 526.0,445.8 528.7,445.0 531.4,444.1 534.0,443.2 536.7,442.4 539.4,441.5 542.1,440.6 544.8,439.6 547.5,438.7 550.2,437.7 552.8,436.8 555.5,435.8 558.2,434.8 560.9,433.8 563.6,432.7 566.3,431.7 569.0,430.6 571.7,429.5 574.3,428.4 577.0,427.3 579.7,426.2 582.4,425.0 585.1,423.8 587.8,422.7 590.5,421.4 593.2,420.2 595.8,419.0 598.5,417.7 601.2,416.4 603.9,415.1 606.6,413.7 609.3,412.4 612.0,411.0 614.6,409.6 617.3,408.2 620.0,406.7 622.7,405.2 625.4,403.7 628.1,402.2 630.8,400.7 633.5,399.1 636.1,397.5 638.8,395.9 641.5,394.2 644.2,392.5 646.9,390.8 649.6,389.1 652.3,387.3 654.9,385.6 657.6,383.7 660.3,381.9 663.0,380.0 665.7,378.1 668.4,376.2 671.1,374.2 673.8,372.2 676.4,370.2 679.1,368.1 681.8,366.0 684.5,363.8 687.2,361.7 689.9,359.5 692.6,357.2 695.3,354.9 697.9,352.6 700.6,350.3 703.3,347.9 706.0,345.4" class="eml-line"/>
  <rect x="764" y="316" width="322" height="188" class="panel"/>
  <line x1="796.0" y1="340.0" x2="1062.0" y2="340.0" class="grid"/>
  <line x1="796.0" y1="406.0" x2="1062.0" y2="406.0" class="grid"/>
  <line x1="796.0" y1="472.0" x2="1062.0" y2="472.0" class="axis"/>
  <line x1="796.0" y1="340.0" x2="796.0" y2="472.0" class="axis"/>
  <polyline points="796.0,345.4 798.7,349.3 801.4,352.9 804.1,356.5 806.7,360.0 809.4,363.4 812.1,366.6 814.8,369.8 817.5,372.9 820.2,375.9 822.9,378.8 825.6,381.6 828.2,384.3 830.9,386.9 833.6,389.5 836.3,392.0 839.0,394.4 841.7,396.7 844.4,399.0 847.1,401.2 849.7,403.4 852.4,405.4 855.1,407.4 857.8,409.4 860.5,411.3 863.2,413.1 865.9,414.9 868.5,416.6 871.2,418.3 873.9,419.9 876.6,421.5 879.3,423.1 882.0,424.5 884.7,426.0 887.4,427.4 890.0,428.7 892.7,430.1 895.4,431.3 898.1,432.6 900.8,433.8 903.5,435.0 906.2,436.1 908.8,437.2 911.5,438.2 914.2,439.3 916.9,440.3 919.6,441.3 922.3,442.2 925.0,443.1 927.7,444.0 930.3,444.9 933.0,445.7 935.7,446.5 938.4,447.3 941.1,448.1 943.8,448.8 946.5,449.5 949.2,450.2 951.8,450.9 954.5,451.6 957.2,452.2 959.9,452.8 962.6,453.4 965.3,454.0 968.0,454.6 970.6,455.1 973.3,455.6 976.0,456.2 978.7,456.7 981.4,457.1 984.1,457.6 986.8,458.1 989.5,458.5 992.1,458.9 994.8,459.4 997.5,459.8 1000.2,460.1 1002.9,460.5 1005.6,460.9 1008.3,461.3 1010.9,461.6 1013.6,461.9 1016.3,462.3 1019.0,462.6 1021.7,462.9 1024.4,463.2 1027.1,463.5 1029.8,463.8 1032.4,464.0 1035.1,464.3 1037.8,464.6 1040.5,464.8 1043.2,465.0 1045.9,465.3 1048.6,465.5 1051.3,465.7 1053.9,465.9 1056.6,466.2 1059.3,466.4 1062.0,466.6" class="target-line"/>
  <circle cx="796.0" cy="345.4" r="3.2" class="train"/>
  <circle cx="837.2" cy="392.8" r="3.2" class="train"/>
  <circle cx="877.6" cy="422.1" r="3.2" class="train"/>
  <circle cx="919.5" cy="441.2" r="3.2" class="train"/>
  <circle cx="939.8" cy="447.7" r="3.2" class="train"/>
  <circle cx="979.5" cy="456.8" r="3.2" class="train"/>
  <circle cx="1021.2" cy="462.8" r="3.2" class="train"/>
  <circle cx="1062.0" cy="466.6" r="3.2" class="train"/>
  <polygon points="806.0,355.0 802.0,362.5 810.0,362.5" class="validation"/>
  <polygon points="837.6,389.1 833.6,396.6 841.6,396.6" class="validation"/>
  <polygon points="869.2,413.1 865.2,420.6 873.2,420.6" class="validation"/>
  <polygon points="900.2,429.5 896.2,437.0 904.2,437.0" class="validation"/>
  <polygon points="947.3,445.7 943.3,453.2 951.3,453.2" class="validation"/>
  <polygon points="978.4,452.6 974.4,460.1 982.4,460.1" class="validation"/>
  <polygon points="1009.2,457.4 1005.2,464.9 1013.2,464.9" class="validation"/>
  <polygon points="1040.9,460.8 1036.9,468.3 1044.9,468.3" class="validation"/>
  <polyline points="796.0,345.4 798.7,349.3 801.4,352.9 804.1,356.5 806.7,360.0 809.4,363.4 812.1,366.6 814.8,369.8 817.5,372.9 820.2,375.9 822.9,378.8 825.6,381.6 828.2,384.3 830.9,386.9 833.6,389.5 836.3,392.0 839.0,394.4 841.7,396.7 844.4,399.0 847.1,401.2 849.7,403.4 852.4,405.4 855.1,407.4 857.8,409.4 860.5,411.3 863.2,413.1 865.9,414.9 868.5,416.6 871.2,418.3 873.9,419.9 876.6,421.5 879.3,423.1 882.0,424.5 884.7,426.0 887.4,427.4 890.0,428.7 892.7,430.1 895.4,431.3 898.1,432.6 900.8,433.8 903.5,435.0 906.2,436.1 908.8,437.2 911.5,438.2 914.2,439.3 916.9,440.3 919.6,441.3 922.3,442.2 925.0,443.1 927.7,444.0 930.3,444.9 933.0,445.7 935.7,446.5 938.4,447.3 941.1,448.1 943.8,448.8 946.5,449.5 949.2,450.2 951.8,450.9 954.5,451.6 957.2,452.2 959.9,452.8 962.6,453.4 965.3,454.0 968.0,454.6 970.6,455.1 973.3,455.6 976.0,456.2 978.7,456.7 981.4,457.1 984.1,457.6 986.8,458.1 989.5,458.5 992.1,458.9 994.8,459.4 997.5,459.8 1000.2,460.1 1002.9,460.5 1005.6,460.9 1008.3,461.3 1010.9,461.6 1013.6,461.9 1016.3,462.3 1019.0,462.6 1021.7,462.9 1024.4,463.2 1027.1,463.5 1029.8,463.8 1032.4,464.0 1035.1,464.3 1037.8,464.6 1040.5,464.8 1043.2,465.0 1045.9,465.3 1048.6,465.5 1051.3,465.7 1053.9,465.9 1056.6,466.2 1059.3,466.4 1062.0,466.6" class="eml-line"/>
  <rect x="52" y="540" width="322" height="188" class="panel"/>
  <line x1="84.0" y1="564.0" x2="350.0" y2="564.0" class="grid"/>
  <line x1="84.0" y1="630.0" x2="350.0" y2="630.0" class="grid"/>
  <line x1="84.0" y1="696.0" x2="350.0" y2="696.0" class="axis"/>
  <line x1="84.0" y1="564.0" x2="84.0" y2="696.0" class="axis"/>
  <polyline points="84.0,690.6 86.7,687.1 89.4,683.7 92.1,680.4 94.7,677.2 97.4,674.1 100.1,671.0 102.8,668.1 105.5,665.2 108.2,662.4 110.9,659.8 113.6,657.2 116.2,654.6 118.9,652.2 121.6,649.8 124.3,647.5 127.0,645.3 129.7,643.1 132.4,641.1 135.1,639.0 137.7,637.1 140.4,635.1 143.1,633.3 145.8,631.5 148.5,629.8 151.2,628.1 153.9,626.4 156.5,624.8 159.2,623.3 161.9,621.7 164.6,620.3 167.3,618.8 170.0,617.4 172.7,616.1 175.4,614.8 178.0,613.5 180.7,612.2 183.4,611.0 186.1,609.8 188.8,608.6 191.5,607.5 194.2,606.4 196.8,605.3 199.5,604.3 202.2,603.2 204.9,602.2 207.6,601.3 210.3,600.3 213.0,599.4 215.7,598.4 218.3,597.5 221.0,596.7 223.7,595.8 226.4,595.0 229.1,594.1 231.8,593.3 234.5,592.6 237.2,591.8 239.8,591.0 242.5,590.3 245.2,589.6 247.9,588.8 250.6,588.1 253.3,587.5 256.0,586.8 258.6,586.1 261.3,585.5 264.0,584.9 266.7,584.2 269.4,583.6 272.1,583.0 274.8,582.4 277.5,581.9 280.1,581.3 282.8,580.7 285.5,580.2 288.2,579.7 290.9,579.1 293.6,578.6 296.3,578.1 298.9,577.6 301.6,577.1 304.3,576.6 307.0,576.1 309.7,575.7 312.4,575.2 315.1,574.8 317.8,574.3 320.4,573.9 323.1,573.4 325.8,573.0 328.5,572.6 331.2,572.2 333.9,571.8 336.6,571.4 339.3,571.0 341.9,570.6 344.6,570.2 347.3,569.8 350.0,569.4" class="target-line"/>
  <circle cx="84.0" cy="690.6" r="3.2" class="train"/>
  <circle cx="125.2" cy="646.8" r="3.2" class="train"/>
  <circle cx="165.6" cy="619.8" r="3.2" class="train"/>
  <circle cx="207.5" cy="601.3" r="3.2" class="train"/>
  <circle cx="227.8" cy="594.5" r="3.2" class="train"/>
  <circle cx="267.5" cy="584.0" r="3.2" class="train"/>
  <circle cx="309.2" cy="575.8" r="3.2" class="train"/>
  <circle cx="350.0" cy="569.4" r="3.2" class="train"/>
  <polygon points="94.0,674.0 90.0,681.5 98.0,681.5" class="validation"/>
  <polygon points="124.1,643.7 120.1,651.2 128.1,651.2" class="validation"/>
  <polygon points="154.4,622.1 150.4,629.6 158.4,629.6" class="validation"/>
  <polygon points="184.0,606.8 180.0,614.3 188.0,614.3" class="validation"/>
  <polygon points="228.9,590.2 224.9,597.7 232.9,597.7" class="validation"/>
  <polygon points="258.6,582.1 254.6,589.6 262.6,589.6" class="validation"/>
  <polygon points="287.9,575.7 283.9,583.2 291.9,583.2" class="validation"/>
  <polygon points="318.3,570.2 314.3,577.7 322.3,577.7" class="validation"/>
  <polyline points="84.0,690.6 86.7,687.1 89.4,683.7 92.1,680.4 94.7,677.2 97.4,674.1 100.1,671.0 102.8,668.1 105.5,665.2 108.2,662.4 110.9,659.8 113.6,657.2 116.2,654.6 118.9,652.2 121.6,649.8 124.3,647.5 127.0,645.3 129.7,643.1 132.4,641.1 135.1,639.0 137.7,637.1 140.4,635.1 143.1,633.3 145.8,631.5 148.5,629.8 151.2,628.1 153.9,626.4 156.5,624.8 159.2,623.3 161.9,621.7 164.6,620.3 167.3,618.8 170.0,617.4 172.7,616.1 175.4,614.8 178.0,613.5 180.7,612.2 183.4,611.0 186.1,609.8 188.8,608.6 191.5,607.5 194.2,606.4 196.8,605.3 199.5,604.3 202.2,603.2 204.9,602.2 207.6,601.3 210.3,600.3 213.0,599.4 215.7,598.4 218.3,597.5 221.0,596.7 223.7,595.8 226.4,595.0 229.1,594.1 231.8,593.3 234.5,592.6 237.2,591.8 239.8,591.0 242.5,590.3 245.2,589.6 247.9,588.8 250.6,588.1 253.3,587.5 256.0,586.8 258.6,586.1 261.3,585.5 264.0,584.9 266.7,584.2 269.4,583.6 272.1,583.0 274.8,582.4 277.5,581.9 280.1,581.3 282.8,580.7 285.5,580.2 288.2,579.7 290.9,579.1 293.6,578.6 296.3,578.1 298.9,577.6 301.6,577.1 304.3,576.6 307.0,576.1 309.7,575.7 312.4,575.2 315.1,574.8 317.8,574.3 320.4,573.9 323.1,573.4 325.8,573.0 328.5,572.6 331.2,572.2 333.9,571.8 336.6,571.4 339.3,571.0 341.9,570.6 344.6,570.2 347.3,569.8 350.0,569.4" class="eml-line"/>
  <rect x="408" y="540" width="322" height="188" class="panel"/>
  <line x1="440.0" y1="564.0" x2="706.0" y2="564.0" class="grid"/>
  <line x1="440.0" y1="630.0" x2="706.0" y2="630.0" class="grid"/>
  <line x1="440.0" y1="696.0" x2="706.0" y2="696.0" class="axis"/>
  <line x1="440.0" y1="564.0" x2="440.0" y2="696.0" class="axis"/>
  <polyline points="440.0,690.6 442.7,679.4 445.4,669.9 448.1,661.8 450.7,654.7 453.4,648.6 456.1,643.1 458.8,638.3 461.5,634.0 464.2,630.1 466.9,626.6 469.6,623.4 472.2,620.4 474.9,617.7 477.6,615.3 480.3,613.0 483.0,610.9 485.7,608.9 488.4,607.1 491.1,605.4 493.7,603.8 496.4,602.3 499.1,600.9 501.8,599.6 504.5,598.3 507.2,597.2 509.9,596.1 512.5,595.0 515.2,594.0 517.9,593.0 520.6,592.1 523.3,591.3 526.0,590.5 528.7,589.7 531.4,588.9 534.0,588.2 536.7,587.5 539.4,586.9 542.1,586.2 544.8,585.6 547.5,585.1 550.2,584.5 552.8,584.0 555.5,583.4 558.2,582.9 560.9,582.5 563.6,582.0 566.3,581.5 569.0,581.1 571.7,580.7 574.3,580.3 577.0,579.9 579.7,579.5 582.4,579.1 585.1,578.8 587.8,578.4 590.5,578.1 593.2,577.8 595.8,577.5 598.5,577.2 601.2,576.9 603.9,576.6 606.6,576.3 609.3,576.0 612.0,575.7 614.6,575.5 617.3,575.2 620.0,575.0 622.7,574.7 625.4,574.5 628.1,574.3 630.8,574.1 633.5,573.8 636.1,573.6 638.8,573.4 641.5,573.2 644.2,573.0 646.9,572.8 649.6,572.6 652.3,572.4 654.9,572.3 657.6,572.1 660.3,571.9 663.0,571.7 665.7,571.6 668.4,571.4 671.1,571.3 673.8,571.1 676.4,570.9 679.1,570.8 681.8,570.7 684.5,570.5 687.2,570.4 689.9,570.2 692.6,570.1 695.3,570.0 697.9,569.8 700.6,569.7 703.3,569.6 706.0,569.4" class="target-line"/>
  <circle cx="440.0" cy="690.6" r="3.2" class="train"/>
  <circle cx="481.2" cy="612.3" r="3.2" class="train"/>
  <circle cx="521.6" cy="591.8" r="3.2" class="train"/>
  <circle cx="563.5" cy="582.0" r="3.2" class="train"/>
  <circle cx="583.8" cy="579.0" r="3.2" class="train"/>
  <circle cx="623.5" cy="574.7" r="3.2" class="train"/>
  <circle cx="665.2" cy="571.6" r="3.2" class="train"/>
  <circle cx="706.0" cy="569.4" r="3.2" class="train"/>
  <polygon points="441.0,682.4 437.0,689.9 445.0,689.9" class="validation"/>
  <polygon points="473.0,615.7 469.0,623.2 477.0,623.2" class="validation"/>
  <polygon points="505.1,594.1 501.1,601.6 509.1,601.6" class="validation"/>
  <polygon points="536.6,583.6 532.6,591.1 540.6,591.1" class="validation"/>
  <polygon points="584.3,574.9 580.3,582.4 588.3,582.4" class="validation"/>
  <polygon points="615.9,571.4 611.9,578.9 619.9,578.9" class="validation"/>
  <polygon points="647.1,568.8 643.1,576.3 651.1,576.3" class="validation"/>
  <polygon points="679.3,566.8 675.3,574.3 683.3,574.3" class="validation"/>
  <polyline points="440.0,690.6 442.7,679.4 445.4,669.9 448.1,661.8 450.7,654.7 453.4,648.6 456.1,643.1 458.8,638.3 461.5,634.0 464.2,630.1 466.9,626.6 469.6,623.4 472.2,620.4 474.9,617.7 477.6,615.3 480.3,613.0 483.0,610.9 485.7,608.9 488.4,607.1 491.1,605.4 493.7,603.8 496.4,602.3 499.1,600.9 501.8,599.6 504.5,598.3 507.2,597.2 509.9,596.1 512.5,595.0 515.2,594.0 517.9,593.0 520.6,592.1 523.3,591.3 526.0,590.5 528.7,589.7 531.4,588.9 534.0,588.2 536.7,587.5 539.4,586.9 542.1,586.2 544.8,585.6 547.5,585.1 550.2,584.5 552.8,584.0 555.5,583.4 558.2,582.9 560.9,582.5 563.6,582.0 566.3,581.5 569.0,581.1 571.7,580.7 574.3,580.3 577.0,579.9 579.7,579.5 582.4,579.1 585.1,578.8 587.8,578.4 590.5,578.1 593.2,577.8 595.8,577.5 598.5,577.2 601.2,576.9 603.9,576.6 606.6,576.3 609.3,576.0 612.0,575.7 614.6,575.5 617.3,575.2 620.0,575.0 622.7,574.7 625.4,574.5 628.1,574.3 630.8,574.1 633.5,573.8 636.1,573.6 638.8,573.4 641.5,573.2 644.2,573.0 646.9,572.8 649.6,572.6 652.3,572.4 654.9,572.3 657.6,572.1 660.3,571.9 663.0,571.7 665.7,571.6 668.4,571.4 671.1,571.3 673.8,571.1 676.4,570.9 679.1,570.8 681.8,570.7 684.5,570.5 687.2,570.4 689.9,570.2 692.6,570.1 695.3,570.0 697.9,569.8 700.6,569.7 703.3,569.6 706.0,569.4" class="eml-line"/>
  <rect x="764" y="540" width="322" height="188" class="panel"/>
  <line x1="796.0" y1="564.0" x2="1062.0" y2="564.0" class="grid"/>
  <line x1="796.0" y1="630.0" x2="1062.0" y2="630.0" class="grid"/>
  <line x1="796.0" y1="696.0" x2="1062.0" y2="696.0" class="axis"/>
  <line x1="796.0" y1="564.0" x2="796.0" y2="696.0" class="axis"/>
  <polyline points="796.0,690.6 798.7,687.9 801.4,685.1 804.1,682.3 806.7,679.5 809.4,676.6 812.1,673.7 814.8,670.7 817.5,667.8 820.2,664.8 822.9,661.8 825.6,658.8 828.2,655.8 830.9,652.8 833.6,649.9 836.3,646.9 839.0,644.0 841.7,641.1 844.4,638.3 847.1,635.5 849.7,632.7 852.4,630.0 855.1,627.4 857.8,624.8 860.5,622.3 863.2,619.9 865.9,617.5 868.5,615.2 871.2,613.0 873.9,610.8 876.6,608.7 879.3,606.7 882.0,604.8 884.7,602.9 887.4,601.2 890.0,599.4 892.7,597.8 895.4,596.3 898.1,594.8 900.8,593.3 903.5,592.0 906.2,590.7 908.8,589.5 911.5,588.3 914.2,587.2 916.9,586.1 919.6,585.1 922.3,584.2 925.0,583.3 927.7,582.5 930.3,581.7 933.0,580.9 935.7,580.2 938.4,579.5 941.1,578.9 943.8,578.3 946.5,577.7 949.2,577.2 951.8,576.7 954.5,576.2 957.2,575.7 959.9,575.3 962.6,574.9 965.3,574.6 968.0,574.2 970.6,573.9 973.3,573.6 976.0,573.3 978.7,573.0 981.4,572.8 984.1,572.5 986.8,572.3 989.5,572.1 992.1,571.9 994.8,571.7 997.5,571.5 1000.2,571.4 1002.9,571.2 1005.6,571.1 1008.3,570.9 1010.9,570.8 1013.6,570.7 1016.3,570.6 1019.0,570.5 1021.7,570.4 1024.4,570.3 1027.1,570.2 1029.8,570.1 1032.4,570.0 1035.1,570.0 1037.8,569.9 1040.5,569.8 1043.2,569.8 1045.9,569.7 1048.6,569.7 1051.3,569.6 1053.9,569.6 1056.6,569.5 1059.3,569.5 1062.0,569.4" class="target-line"/>
  <circle cx="796.0" cy="690.6" r="3.2" class="train"/>
  <circle cx="837.2" cy="645.9" r="3.2" class="train"/>
  <circle cx="877.6" cy="608.0" r="3.2" class="train"/>
  <circle cx="919.5" cy="585.2" r="3.2" class="train"/>
  <circle cx="939.8" cy="579.2" r="3.2" class="train"/>
  <circle cx="979.5" cy="572.9" r="3.2" class="train"/>
  <circle cx="1021.2" cy="570.4" r="3.2" class="train"/>
  <circle cx="1062.0" cy="569.4" r="3.2" class="train"/>
  <polygon points="800.6,681.9 796.6,689.4 804.6,689.4" class="validation"/>
  <polygon points="834.3,645.1 830.3,652.6 838.3,652.6" class="validation"/>
  <polygon points="868.2,611.5 864.2,619.0 872.2,619.0" class="validation"/>
  <polygon points="901.3,589.1 897.3,596.6 905.3,596.6" class="validation"/>
  <polygon points="951.6,572.7 947.6,580.2 955.6,580.2" class="validation"/>
  <polygon points="984.8,568.5 980.8,576.0 988.8,576.0" class="validation"/>
  <polygon points="1017.6,566.5 1013.6,574.0 1021.6,574.0" class="validation"/>
  <polygon points="1051.6,565.6 1047.6,573.1 1055.6,573.1" class="validation"/>
  <rect x="52" y="764" width="322" height="188" class="panel"/>
  <line x1="84.0" y1="788.0" x2="350.0" y2="788.0" class="grid"/>
  <line x1="84.0" y1="854.0" x2="350.0" y2="854.0" class="grid"/>
  <line x1="84.0" y1="920.0" x2="350.0" y2="920.0" class="axis"/>
  <line x1="84.0" y1="788.0" x2="84.0" y2="920.0" class="axis"/>
  <polyline points="84.0,914.6 86.7,914.3 89.4,914.1 92.1,913.9 94.7,913.6 97.4,913.4 100.1,913.1 102.8,912.8 105.5,912.6 108.2,912.3 110.9,912.0 113.6,911.7 116.2,911.4 118.9,911.1 121.6,910.7 124.3,910.4 127.0,910.1 129.7,909.7 132.4,909.3 135.1,909.0 137.7,908.6 140.4,908.2 143.1,907.8 145.8,907.4 148.5,906.9 151.2,906.5 153.9,906.0 156.5,905.6 159.2,905.1 161.9,904.6 164.6,904.1 167.3,903.5 170.0,903.0 172.7,902.4 175.4,901.9 178.0,901.3 180.7,900.7 183.4,900.1 186.1,899.4 188.8,898.7 191.5,898.1 194.2,897.4 196.8,896.7 199.5,895.9 202.2,895.2 204.9,894.4 207.6,893.6 210.3,892.7 213.0,891.9 215.7,891.0 218.3,890.1 221.0,889.2 223.7,888.2 226.4,887.3 229.1,886.3 231.8,885.2 234.5,884.2 237.2,883.1 239.8,881.9 242.5,880.8 245.2,879.6 247.9,878.4 250.6,877.1 253.3,875.8 256.0,874.5 258.6,873.1 261.3,871.7 264.0,870.2 266.7,868.7 269.4,867.2 272.1,865.6 274.8,864.0 277.5,862.3 280.1,860.6 282.8,858.8 285.5,857.0 288.2,855.1 290.9,853.2 293.6,851.2 296.3,849.1 298.9,847.0 301.6,844.9 304.3,842.6 307.0,840.4 309.7,838.0 312.4,835.6 315.1,833.1 317.8,830.5 320.4,827.9 323.1,825.2 325.8,822.4 328.5,819.5 331.2,816.6 333.9,813.6 336.6,810.4 339.3,807.2 341.9,803.9 344.6,800.5 347.3,797.0 350.0,793.4" class="target-line"/>
  <circle cx="84.0" cy="914.6" r="3.2" class="train"/>
  <circle cx="125.2" cy="910.3" r="3.2" class="train"/>
  <circle cx="165.6" cy="903.9" r="3.2" class="train"/>
  <circle cx="207.5" cy="893.6" r="3.2" class="train"/>
  <circle cx="227.8" cy="886.8" r="3.2" class="train"/>
  <circle cx="267.5" cy="868.2" r="3.2" class="train"/>
  <circle cx="309.2" cy="838.5" r="3.2" class="train"/>
  <circle cx="350.0" cy="793.4" r="3.2" class="train"/>
  <polygon points="90.0,910.0 86.0,917.5 94.0,917.5" class="validation"/>
  <polygon points="121.4,906.8 117.4,914.3 125.4,914.3" class="validation"/>
  <polygon points="152.9,902.2 148.9,909.7 156.9,909.7" class="validation"/>
  <polygon points="183.7,896.0 179.7,903.5 187.7,903.5" class="validation"/>
  <polygon points="230.5,881.7 226.5,889.2 234.5,889.2" class="validation"/>
  <polygon points="261.4,867.6 257.4,875.1 265.4,875.1" class="validation"/>
  <polygon points="292.0,848.3 288.0,855.8 296.0,855.8" class="validation"/>
  <polygon points="323.6,820.7 319.6,828.2 327.6,828.2" class="validation"/>
  <polyline points="84.0,914.6 86.7,914.3 89.4,914.1 92.1,913.9 94.7,913.6 97.4,913.4 100.1,913.1 102.8,912.8 105.5,912.6 108.2,912.3 110.9,912.0 113.6,911.7 116.2,911.4 118.9,911.1 121.6,910.7 124.3,910.4 127.0,910.1 129.7,909.7 132.4,909.3 135.1,909.0 137.7,908.6 140.4,908.2 143.1,907.8 145.8,907.4 148.5,906.9 151.2,906.5 153.9,906.0 156.5,905.6 159.2,905.1 161.9,904.6 164.6,904.1 167.3,903.5 170.0,903.0 172.7,902.4 175.4,901.9 178.0,901.3 180.7,900.7 183.4,900.1 186.1,899.4 188.8,898.7 191.5,898.1 194.2,897.4 196.8,896.7 199.5,895.9 202.2,895.2 204.9,894.4 207.6,893.6 210.3,892.7 213.0,891.9 215.7,891.0 218.3,890.1 221.0,889.2 223.7,888.2 226.4,887.3 229.1,886.3 231.8,885.2 234.5,884.2 237.2,883.1 239.8,881.9 242.5,880.8 245.2,879.6 247.9,878.4 250.6,877.1 253.3,875.8 256.0,874.5 258.6,873.1 261.3,871.7 264.0,870.2 266.7,868.7 269.4,867.2 272.1,865.6 274.8,864.0 277.5,862.3 280.1,860.6 282.8,858.8 285.5,857.0 288.2,855.1 290.9,853.2 293.6,851.2 296.3,849.1 298.9,847.0 301.6,844.9 304.3,842.6 307.0,840.4 309.7,838.0 312.4,835.6 315.1,833.1 317.8,830.5 320.4,827.9 323.1,825.2 325.8,822.4 328.5,819.5 331.2,816.6 333.9,813.6 336.6,810.4 339.3,807.2 341.9,803.9 344.6,800.5 347.3,797.0 350.0,793.4" class="eml-line"/>
  <rect x="408" y="764" width="322" height="188" class="panel"/>
  <line x1="440.0" y1="788.0" x2="706.0" y2="788.0" class="grid"/>
  <line x1="440.0" y1="854.0" x2="706.0" y2="854.0" class="grid"/>
  <line x1="440.0" y1="920.0" x2="706.0" y2="920.0" class="axis"/>
  <line x1="440.0" y1="788.0" x2="440.0" y2="920.0" class="axis"/>
  <polyline points="440.0,793.4 442.7,796.8 445.4,801.5 448.1,807.4 450.7,814.4 453.4,822.2 456.1,830.7 458.8,839.8 461.5,849.0 464.2,858.4 466.9,867.5 469.6,876.4 472.2,884.6 474.9,892.1 477.6,898.7 480.3,904.3 483.0,908.7 485.7,911.9 488.4,913.9 491.1,914.6 493.7,913.9 496.4,912.0 499.1,909.0 501.8,904.8 504.5,899.7 507.2,893.7 509.9,887.1 512.5,879.9 515.2,872.4 517.9,864.6 520.6,856.9 523.3,849.4 526.0,842.2 528.7,835.5 531.4,829.5 534.0,824.2 536.7,819.8 539.4,816.4 542.1,814.0 544.8,812.6 547.5,812.4 550.2,813.2 552.8,815.0 555.5,817.7 558.2,821.4 560.9,825.8 563.6,830.9 566.3,836.5 569.0,842.6 571.7,848.9 574.3,855.3 577.0,861.6 579.7,867.8 582.4,873.7 585.1,879.1 587.8,884.0 590.5,888.1 593.2,891.6 595.8,894.2 598.5,896.0 601.2,896.9 603.9,896.9 606.6,896.0 609.3,894.3 612.0,891.8 614.6,888.6 617.3,884.8 620.0,880.5 622.7,875.7 625.4,870.7 628.1,865.4 630.8,860.1 633.5,854.8 636.1,849.8 638.8,845.0 641.5,840.6 644.2,836.7 646.9,833.4 649.6,830.7 652.3,828.7 654.9,827.5 657.6,826.9 660.3,827.1 663.0,828.0 665.7,829.6 668.4,831.8 671.1,834.5 673.8,837.8 676.4,841.5 679.1,845.5 681.8,849.8 684.5,854.1 687.2,858.5 689.9,862.9 692.6,867.0 695.3,870.9 697.9,874.4 700.6,877.5 703.3,880.1 706.0,882.2" class="target-line"/>
  <circle cx="440.0" cy="793.4" r="3.2" class="train"/>
  <circle cx="481.2" cy="905.9" r="3.2" class="train"/>
  <circle cx="521.6" cy="854.3" r="3.2" class="train"/>
  <circle cx="563.5" cy="830.7" r="3.2" class="train"/>
  <circle cx="583.8" cy="876.5" r="3.2" class="train"/>
  <circle cx="623.5" cy="874.2" r="3.2" class="train"/>
  <circle cx="665.2" cy="829.2" r="3.2" class="train"/>
  <circle cx="706.0" cy="882.2" r="3.2" class="train"/>
  <polygon points="441.5,791.2 437.5,798.7 445.5,798.7" class="validation"/>
  <polygon points="475.9,890.6 471.9,898.1 479.9,898.1" class="validation"/>
  <polygon points="510.4,881.7 506.4,889.2 514.4,889.2" class="validation"/>
  <polygon points="544.1,808.9 540.1,816.4 548.1,816.4" class="validation"/>
  <polygon points="595.4,889.8 591.4,897.3 599.4,897.3" class="validation"/>
  <polygon points="629.3,859.1 625.3,866.6 633.3,866.6" class="validation"/>
  <polygon points="662.8,823.9 658.8,831.4 666.8,831.4" class="validation"/>
  <polygon points="697.4,869.7 693.4,877.2 701.4,877.2" class="validation"/>
  <rect x="764" y="764" width="322" height="188" class="panel"/>
  <line x1="796.0" y1="788.0" x2="1062.0" y2="788.0" class="grid"/>
  <line x1="796.0" y1="854.0" x2="1062.0" y2="854.0" class="grid"/>
  <line x1="796.0" y1="920.0" x2="1062.0" y2="920.0" class="axis"/>
  <line x1="796.0" y1="788.0" x2="796.0" y2="920.0" class="axis"/>
  <polyline points="796.0,914.6 798.7,911.8 801.4,908.4 804.1,904.4 806.7,899.9 809.4,895.1 812.1,889.9 814.8,884.5 817.5,879.0 820.2,873.3 822.9,867.6 825.6,862.0 828.2,856.4 830.9,850.9 833.6,845.5 836.3,840.3 839.0,835.3 841.7,830.6 844.4,826.1 847.1,821.8 849.7,817.9 852.4,814.2 855.1,810.8 857.8,807.8 860.5,805.0 863.2,802.6 865.9,800.4 868.5,798.6 871.2,797.0 873.9,795.8 876.6,794.8 879.3,794.1 882.0,793.6 884.7,793.4 887.4,793.5 890.0,793.8 892.7,794.3 895.4,795.0 898.1,795.9 900.8,797.0 903.5,798.2 906.2,799.6 908.8,801.2 911.5,802.9 914.2,804.7 916.9,806.6 919.6,808.6 922.3,810.6 925.0,812.8 927.7,815.0 930.3,817.3 933.0,819.6 935.7,822.0 938.4,824.4 941.1,826.8 943.8,829.2 946.5,831.7 949.2,834.1 951.8,836.5 954.5,839.0 957.2,841.4 959.9,843.7 962.6,846.1 965.3,848.4 968.0,850.7 970.6,853.0 973.3,855.2 976.0,857.4 978.7,859.6 981.4,861.7 984.1,863.7 986.8,865.7 989.5,867.7 992.1,869.6 994.8,871.5 997.5,873.3 1000.2,875.1 1002.9,876.8 1005.6,878.4 1008.3,880.1 1010.9,881.6 1013.6,883.1 1016.3,884.6 1019.0,886.0 1021.7,887.4 1024.4,888.7 1027.1,890.0 1029.8,891.2 1032.4,892.4 1035.1,893.5 1037.8,894.6 1040.5,895.7 1043.2,896.7 1045.9,897.6 1048.6,898.6 1051.3,899.5 1053.9,900.3 1056.6,901.2 1059.3,902.0 1062.0,902.7" class="target-line"/>
  <circle cx="796.0" cy="914.6" r="3.2" class="train"/>
  <circle cx="837.2" cy="838.6" r="3.2" class="train"/>
  <circle cx="877.6" cy="794.5" r="3.2" class="train"/>
  <circle cx="919.5" cy="808.5" r="3.2" class="train"/>
  <circle cx="939.8" cy="825.6" r="3.2" class="train"/>
  <circle cx="979.5" cy="860.2" r="3.2" class="train"/>
  <circle cx="1021.2" cy="887.1" r="3.2" class="train"/>
  <circle cx="1062.0" cy="902.7" r="3.2" class="train"/>
  <polygon points="797.0,909.6 793.0,917.1 801.0,917.1" class="validation"/>
  <polygon points="830.4,848.0 826.4,855.5 834.4,855.5" class="validation"/>
  <polygon points="863.8,798.0 859.8,805.5 867.8,805.5" class="validation"/>
  <polygon points="896.5,791.4 892.5,798.9 900.5,798.9" class="validation"/>
  <polygon points="946.3,827.5 942.3,835.0 950.3,835.0" class="validation"/>
  <polygon points="979.1,855.9 975.1,863.4 983.1,863.4" class="validation"/>
  <polygon points="1011.6,878.0 1007.6,885.5 1015.6,885.5" class="validation"/>
  <polygon points="1045.2,893.4 1041.2,900.9 1049.2,900.9" class="validation"/>
</svg>
