<svg xmlns="http://www.w3.org/2000/svg" width="1120" height="930" viewBox="0 0 1120 930" role="img" aria-labelledby="title desc">
  <title id="title">Current target, data, and EML curves</title>
  <desc id="desc">Twelve target panels with formula labels, axis names, target line, training dots, validation triangles, and verified EML curves where available.</desc>
  <style>
    text { font-family: "Times New Roman", Times, serif; fill: #000000; }
    .legend { font-size: 14px; }
    .formula { font-size: 12px; font-weight: 700; }
    .axis-label { font-size: 11px; font-style: italic; }
    .axis { stroke: #000000; stroke-width: 1; }
    .grid { stroke: #cfcfcf; stroke-width: 0.65; }
    .target-line { fill: none; stroke: #000000; stroke-width: 1.1; stroke-linejoin: miter; stroke-linecap: butt; }
    .eml-line { fill: none; stroke: #008000; stroke-width: 2.1; stroke-dasharray: 7 4; stroke-linejoin: miter; stroke-linecap: butt; }
    .train { fill: #0057b8; stroke: #000000; stroke-width: 0.45; }
    .validation { fill: #cc0000; stroke: #000000; stroke-width: 0.45; }
    .panel { fill: #ffffff; stroke: #888888; stroke-width: 1; }
  </style>
  <rect width="1120" height="930" fill="#ffffff"/>
  <line x1="54" y1="40" x2="98" y2="40" class="target-line"/>
  <text x="108" y="45" class="legend">target</text>
  <line x1="190" y1="40" x2="234" y2="40" class="eml-line"/>
  <text x="244" y="45" class="legend">verified EML</text>
  <circle cx="386" cy="40" r="4" class="train"/>
  <text x="398" y="45" class="legend">training data</text>
  <polygon points="542,34 536,46 548,46" class="validation"/>
  <text x="558" y="45" class="legend">validation data</text>
  <rect x="52" y="92" width="322" height="188" class="panel"/>
  <text x="65" y="114" class="formula">exp(x)</text>
  <line x1="86.0" y1="132.0" x2="350.0" y2="132.0" class="grid"/>
  <line x1="86.0" y1="188.0" x2="350.0" y2="188.0" class="grid"/>
  <line x1="86.0" y1="244.0" x2="350.0" y2="244.0" class="axis"/>
  <line x1="86.0" y1="132.0" x2="86.0" y2="244.0" class="axis"/>
  <text x="342.0" y="261.0" class="axis-label">x</text>
  <text x="68.0" y="140.0" class="axis-label">y</text>
  <polyline points="86.0,239.4 88.7,239.0 91.3,238.7 94.0,238.4 96.7,238.0 99.3,237.7 102.0,237.3 104.7,236.9 107.3,236.6 110.0,236.2 112.7,235.8 115.3,235.4 118.0,235.0 120.7,234.5 123.3,234.1 126.0,233.7 128.7,233.2 131.3,232.8 134.0,232.3 136.7,231.8 139.3,231.4 142.0,230.9 144.7,230.4 147.3,229.9 150.0,229.3 152.7,228.8 155.3,228.3 158.0,227.7 160.7,227.1 163.3,226.6 166.0,226.0 168.7,225.4 171.3,224.8 174.0,224.1 176.7,223.5 179.3,222.8 182.0,222.2 184.7,221.5 187.3,220.8 190.0,220.1 192.7,219.4 195.3,218.6 198.0,217.9 200.7,217.1 203.3,216.3 206.0,215.5 208.7,214.7 211.3,213.9 214.0,213.0 216.7,212.2 219.3,211.3 222.0,210.4 224.7,209.5 227.3,208.5 230.0,207.6 232.7,206.6 235.3,205.6 238.0,204.6 240.7,203.5 243.3,202.5 246.0,201.4 248.7,200.3 251.3,199.2 254.0,198.0 256.7,196.8 259.3,195.7 262.0,194.4 264.7,193.2 267.3,191.9 270.0,190.6 272.7,189.3 275.3,187.9 278.0,186.6 280.7,185.2 283.3,183.7 286.0,182.3 288.7,180.8 291.3,179.2 294.0,177.7 296.7,176.1 299.3,174.5 302.0,172.8 304.7,171.2 307.3,169.4 310.0,167.7 312.7,165.9 315.3,164.1 318.0,162.2 320.7,160.3 323.3,158.4 326.0,156.4 328.7,154.4 331.3,152.3 334.0,150.2 336.7,148.0 339.3,145.8 342.0,143.6 344.7,141.3 347.3,139.0 350.0,136.6" class="target-line"/>
  <circle cx="86.0" cy="239.4" r="3.2" class="train"/>
  <circle cx="126.9" cy="233.5" r="3.2" class="train"/>
  <circle cx="166.9" cy="225.8" r="3.2" class="train"/>
  <circle cx="208.6" cy="214.7" r="3.2" class="train"/>
  <circle cx="228.7" cy="208.0" r="3.2" class="train"/>
  <circle cx="268.2" cy="191.5" r="3.2" class="train"/>
  <circle cx="309.5" cy="168.0" r="3.2" class="train"/>
  <circle cx="350.0" cy="136.6" r="3.2" class="train"/>
  <polygon points="111.8,231.9 107.8,239.4 115.8,239.4" class="validation"/>
  <polygon points="140.3,227.2 136.3,234.7 144.3,234.7" class="validation"/>
  <polygon points="168.9,221.3 164.9,228.8 172.9,228.8" class="validation"/>
  <polygon points="196.8,214.2 192.8,221.7 200.8,221.7" class="validation"/>
  <polygon points="239.3,200.1 235.3,207.6 243.3,207.6" class="validation"/>
  <polygon points="267.4,187.9 263.4,195.4 271.4,195.4" class="validation"/>
  <polygon points="295.1,173.0 291.1,180.5 299.1,180.5" class="validation"/>
  <polygon points="323.8,154.0 319.8,161.5 327.8,161.5" class="validation"/>
  <polyline points="86.0,239.4 88.7,239.0 91.3,238.7 94.0,238.4 96.7,238.0 99.3,237.7 102.0,237.3 104.7,236.9 107.3,236.6 110.0,236.2 112.7,235.8 115.3,235.4 118.0,235.0 120.7,234.5 123.3,234.1 126.0,233.7 128.7,233.2 131.3,232.8 134.0,232.3 136.7,231.8 139.3,231.4 142.0,230.9 144.7,230.4 147.3,229.9 150.0,229.3 152.7,228.8 155.3,228.3 158.0,227.7 160.7,227.1 163.3,226.6 166.0,226.0 168.7,225.4 171.3,224.8 174.0,224.1 176.7,223.5 179.3,222.8 182.0,222.2 184.7,221.5 187.3,220.8 190.0,220.1 192.7,219.4 195.3,218.6 198.0,217.9 200.7,217.1 203.3,216.3 206.0,215.5 208.7,214.7 211.3,213.9 214.0,213.0 216.7,212.2 219.3,211.3 222.0,210.4 224.7,209.5 227.3,208.5 230.0,207.6 232.7,206.6 235.3,205.6 238.0,204.6 240.7,203.5 243.3,202.5 246.0,201.4 248.7,200.3 251.3,199.2 254.0,198.0 256.7,196.8 259.3,195.7 262.0,194.4 264.7,193.2 267.3,191.9 270.0,190.6 272.7,189.3 275.3,187.9 278.0,186.6 280.7,185.2 283.3,183.7 286.0,182.3 288.7,180.8 291.3,179.2 294.0,177.7 296.7,176.1 299.3,174.5 302.0,172.8 304.7,171.2 307.3,169.4 310.0,167.7 312.7,165.9 315.3,164.1 318.0,162.2 320.7,160.3 323.3,158.4 326.0,156.4 328.7,154.4 331.3,152.3 334.0,150.2 336.7,148.0 339.3,145.8 342.0,143.6 344.7,141.3 347.3,139.0 350.0,136.6" class="eml-line"/>
  <rect x="408" y="92" width="322" height="188" class="panel"/>
  <text x="421" y="114" class="formula">log(x)</text>
  <line x1="442.0" y1="132.0" x2="706.0" y2="132.0" class="grid"/>
  <line x1="442.0" y1="188.0" x2="706.0" y2="188.0" class="grid"/>
  <line x1="442.0" y1="244.0" x2="706.0" y2="244.0" class="axis"/>
  <line x1="442.0" y1="132.0" x2="442.0" y2="244.0" class="axis"/>
  <text x="698.0" y="261.0" class="axis-label">x</text>
  <text x="424.0" y="140.0" class="axis-label">y</text>
  <polyline points="442.0,239.4 444.7,235.0 447.3,231.1 450.0,227.5 452.7,224.2 455.3,221.1 458.0,218.3 460.7,215.6 463.3,213.1 466.0,210.7 468.7,208.5 471.3,206.4 474.0,204.4 476.7,202.5 479.3,200.6 482.0,198.9 484.7,197.2 487.3,195.5 490.0,194.0 492.7,192.5 495.3,191.0 498.0,189.6 500.7,188.3 503.3,187.0 506.0,185.7 508.7,184.5 511.3,183.3 514.0,182.1 516.7,181.0 519.3,179.8 522.0,178.8 524.7,177.7 527.3,176.7 530.0,175.7 532.7,174.7 535.3,173.8 538.0,172.9 540.7,171.9 543.3,171.1 546.0,170.2 548.7,169.3 551.3,168.5 554.0,167.7 556.7,166.9 559.3,166.1 562.0,165.3 564.7,164.6 567.3,163.8 570.0,163.1 572.7,162.4 575.3,161.6 578.0,161.0 580.7,160.3 583.3,159.6 586.0,158.9 588.7,158.3 591.3,157.6 594.0,157.0 596.7,156.4 599.3,155.8 602.0,155.2 604.7,154.6 607.3,154.0 610.0,153.4 612.7,152.8 615.3,152.3 618.0,151.7 620.7,151.2 623.3,150.6 626.0,150.1 628.7,149.6 631.3,149.0 634.0,148.5 636.7,148.0 639.3,147.5 642.0,147.0 644.7,146.5 647.3,146.1 650.0,145.6 652.7,145.1 655.3,144.6 658.0,144.2 660.7,143.7 663.3,143.3 666.0,142.8 668.7,142.4 671.3,141.9 674.0,141.5 676.7,141.1 679.3,140.6 682.0,140.2 684.7,139.8 687.3,139.4 690.0,139.0 692.7,138.6 695.3,138.2 698.0,137.8 700.7,137.4 703.3,137.0 706.0,136.6" class="target-line"/>
  <circle cx="442.0" cy="239.4" r="3.2" class="train"/>
  <circle cx="482.9" cy="198.3" r="3.2" class="train"/>
  <circle cx="522.9" cy="178.4" r="3.2" class="train"/>
  <circle cx="564.6" cy="164.6" r="3.2" class="train"/>
  <circle cx="584.7" cy="159.3" r="3.2" class="train"/>
  <circle cx="624.2" cy="150.5" r="3.2" class="train"/>
  <circle cx="665.5" cy="142.9" r="3.2" class="train"/>
  <circle cx="706.0" cy="136.6" r="3.2" class="train"/>
  <polygon points="451.0,222.3 447.0,229.8 455.0,229.8" class="validation"/>
  <polygon points="482.0,194.8 478.0,202.3 486.0,202.3" class="validation"/>
  <polygon points="513.2,178.4 509.2,185.9 517.2,185.9" class="validation"/>
  <polygon points="543.7,166.9 539.7,174.4 547.7,174.4" class="validation"/>
  <polygon points="590.0,153.9 586.0,161.4 594.0,161.4" class="validation"/>
  <polygon points="620.7,147.2 616.7,154.7 624.7,154.7" class="validation"/>
  <polygon points="650.9,141.4 646.9,148.9 654.9,148.9" class="validation"/>
  <polygon points="682.2,136.2 678.2,143.7 686.2,143.7" class="validation"/>
  <rect x="764" y="92" width="322" height="188" class="panel"/>
  <text x="777" y="114" class="formula">exp(-0.4 t)</text>
  <line x1="798.0" y1="132.0" x2="1062.0" y2="132.0" class="grid"/>
  <line x1="798.0" y1="188.0" x2="1062.0" y2="188.0" class="grid"/>
  <line x1="798.0" y1="244.0" x2="1062.0" y2="244.0" class="axis"/>
  <line x1="798.0" y1="132.0" x2="798.0" y2="244.0" class="axis"/>
  <text x="1054.0" y="261.0" class="axis-label">t</text>
  <text x="780.0" y="140.0" class="axis-label">y</text>
  <polyline points="798.0,136.6 800.7,139.0 803.3,141.3 806.0,143.6 808.7,145.8 811.3,148.0 814.0,150.2 816.7,152.3 819.3,154.4 822.0,156.4 824.7,158.4 827.3,160.3 830.0,162.2 832.7,164.1 835.3,165.9 838.0,167.7 840.7,169.4 843.3,171.2 846.0,172.8 848.7,174.5 851.3,176.1 854.0,177.7 856.7,179.2 859.3,180.8 862.0,182.3 864.7,183.7 867.3,185.2 870.0,186.6 872.7,187.9 875.3,189.3 878.0,190.6 880.7,191.9 883.3,193.2 886.0,194.4 888.7,195.7 891.3,196.8 894.0,198.0 896.7,199.2 899.3,200.3 902.0,201.4 904.7,202.5 907.3,203.5 910.0,204.6 912.7,205.6 915.3,206.6 918.0,207.6 920.7,208.5 923.3,209.5 926.0,210.4 928.7,211.3 931.3,212.2 934.0,213.0 936.7,213.9 939.3,214.7 942.0,215.5 944.7,216.3 947.3,217.1 950.0,217.9 952.7,218.6 955.3,219.4 958.0,220.1 960.7,220.8 963.3,221.5 966.0,222.2 968.7,222.8 971.3,223.5 974.0,224.1 976.7,224.8 979.3,225.4 982.0,226.0 984.7,226.6 987.3,227.1 990.0,227.7 992.7,228.3 995.3,228.8 998.0,229.3 1000.7,229.9 1003.3,230.4 1006.0,230.9 1008.7,231.4 1011.3,231.8 1014.0,232.3 1016.7,232.8 1019.3,233.2 1022.0,233.7 1024.7,234.1 1027.3,234.5 1030.0,235.0 1032.7,235.4 1035.3,235.8 1038.0,236.2 1040.7,236.6 1043.3,236.9 1046.0,237.3 1048.7,237.7 1051.3,238.0 1054.0,238.4 1056.7,238.7 1059.3,239.0 1062.0,239.4" class="target-line"/>
  <circle cx="798.0" cy="136.6" r="3.2" class="train"/>
  <circle cx="838.9" cy="168.3" r="3.2" class="train"/>
  <circle cx="878.9" cy="191.1" r="3.2" class="train"/>
  <circle cx="920.6" cy="208.5" r="3.2" class="train"/>
  <circle cx="940.7" cy="215.1" r="3.2" class="train"/>
  <circle cx="980.2" cy="225.6" r="3.2" class="train"/>
  <circle cx="1021.5" cy="233.6" r="3.2" class="train"/>
  <circle cx="1062.0" cy="239.4" r="3.2" class="train"/>
  <polygon points="805.3,139.0 801.3,146.5 809.3,146.5" class="validation"/>
  <polygon points="837.7,163.4 833.7,170.9 841.7,170.9" class="validation"/>
  <polygon points="870.2,182.7 866.2,190.2 874.2,190.2" class="validation"/>
  <polygon points="902.0,197.4 898.0,204.9 906.0,204.9" class="validation"/>
  <polygon points="950.3,214.0 946.3,221.5 954.3,221.5" class="validation"/>
  <polygon points="982.2,222.0 978.2,229.5 986.2,229.5" class="validation"/>
  <polygon points="1013.8,228.3 1009.8,235.8 1017.8,235.8" class="validation"/>
  <polygon points="1046.4,233.4 1042.4,240.9 1050.4,240.9" class="validation"/>
  <polyline points="798.0,136.6 800.7,139.0 803.3,141.3 806.0,143.6 808.7,145.8 811.3,148.0 814.0,150.2 816.7,152.3 819.3,154.4 822.0,156.4 824.7,158.4 827.3,160.3 830.0,162.2 832.7,164.1 835.3,165.9 838.0,167.7 840.7,169.4 843.3,171.2 846.0,172.8 848.7,174.5 851.3,176.1 854.0,177.7 856.7,179.2 859.3,180.8 862.0,182.3 864.7,183.7 867.3,185.2 870.0,186.6 872.7,187.9 875.3,189.3 878.0,190.6 880.7,191.9 883.3,193.2 886.0,194.4 888.7,195.7 891.3,196.8 894.0,198.0 896.7,199.2 899.3,200.3 902.0,201.4 904.7,202.5 907.3,203.5 910.0,204.6 912.7,205.6 915.3,206.6 918.0,207.6 920.7,208.5 923.3,209.5 926.0,210.4 928.7,211.3 931.3,212.2 934.0,213.0 936.7,213.9 939.3,214.7 942.0,215.5 944.7,216.3 947.3,217.1 950.0,217.9 952.7,218.6 955.3,219.4 958.0,220.1 960.7,220.8 963.3,221.5 966.0,222.2 968.7,222.8 971.3,223.5 974.0,224.1 976.7,224.8 979.3,225.4 982.0,226.0 984.7,226.6 987.3,227.1 990.0,227.7 992.7,228.3 995.3,228.8 998.0,229.3 1000.7,229.9 1003.3,230.4 1006.0,230.9 1008.7,231.4 1011.3,231.8 1014.0,232.3 1016.7,232.8 1019.3,233.2 1022.0,233.7 1024.7,234.1 1027.3,234.5 1030.0,235.0 1032.7,235.4 1035.3,235.8 1038.0,236.2 1040.7,236.6 1043.3,236.9 1046.0,237.3 1048.7,237.7 1051.3,238.0 1054.0,238.4 1056.7,238.7 1059.3,239.0 1062.0,239.4" class="eml-line"/>
  <rect x="52" y="316" width="322" height="188" class="panel"/>
  <text x="65" y="338" class="formula">exp(-0.8 x)</text>
  <line x1="86.0" y1="356.0" x2="350.0" y2="356.0" class="grid"/>
  <line x1="86.0" y1="412.0" x2="350.0" y2="412.0" class="grid"/>
  <line x1="86.0" y1="468.0" x2="350.0" y2="468.0" class="axis"/>
  <line x1="86.0" y1="356.0" x2="86.0" y2="468.0" class="axis"/>
  <text x="342.0" y="485.0" class="axis-label">x</text>
  <text x="68.0" y="364.0" class="axis-label">y</text>
  <polyline points="86.0,360.6 88.7,363.3 91.3,366.0 94.0,368.5 96.7,371.1 99.3,373.5 102.0,375.9 104.7,378.3 107.3,380.5 110.0,382.8 112.7,384.9 115.3,387.1 118.0,389.1 120.7,391.2 123.3,393.1 126.0,395.1 128.7,396.9 131.3,398.8 134.0,400.6 136.7,402.3 139.3,404.0 142.0,405.7 144.7,407.3 147.3,408.9 150.0,410.5 152.7,412.0 155.3,413.4 158.0,414.9 160.7,416.3 163.3,417.7 166.0,419.0 168.7,420.3 171.3,421.6 174.0,422.8 176.7,424.1 179.3,425.2 182.0,426.4 184.7,427.5 187.3,428.6 190.0,429.7 192.7,430.8 195.3,431.8 198.0,432.8 200.7,433.8 203.3,434.7 206.0,435.7 208.7,436.6 211.3,437.4 214.0,438.3 216.7,439.2 219.3,440.0 222.0,440.8 224.7,441.6 227.3,442.3 230.0,443.1 232.7,443.8 235.3,444.5 238.0,445.2 240.7,445.9 243.3,446.6 246.0,447.2 248.7,447.9 251.3,448.5 254.0,449.1 256.7,449.7 259.3,450.2 262.0,450.8 264.7,451.3 267.3,451.9 270.0,452.4 272.7,452.9 275.3,453.4 278.0,453.9 280.7,454.4 283.3,454.8 286.0,455.3 288.7,455.7 291.3,456.1 294.0,456.6 296.7,457.0 299.3,457.4 302.0,457.8 304.7,458.1 307.3,458.5 310.0,458.9 312.7,459.2 315.3,459.6 318.0,459.9 320.7,460.2 323.3,460.6 326.0,460.9 328.7,461.2 331.3,461.5 334.0,461.8 336.7,462.1 339.3,462.3 342.0,462.6 344.7,462.9 347.3,463.1 350.0,463.4" class="target-line"/>
  <circle cx="86.0" cy="360.6" r="3.2" class="train"/>
  <circle cx="126.9" cy="395.7" r="3.2" class="train"/>
  <circle cx="166.9" cy="419.5" r="3.2" class="train"/>
  <circle cx="208.6" cy="436.5" r="3.2" class="train"/>
  <circle cx="228.7" cy="442.7" r="3.2" class="train"/>
  <circle cx="268.2" cy="452.0" r="3.2" class="train"/>
  <circle cx="309.5" cy="458.8" r="3.2" class="train"/>
  <circle cx="350.0" cy="463.4" r="3.2" class="train"/>
  <polygon points="98.6,368.8 94.6,376.3 102.6,376.3" class="validation"/>
  <polygon points="128.8,393.1 124.8,400.6 132.8,400.6" class="validation"/>
  <polygon points="159.2,411.5 155.2,419.0 163.2,419.0" class="validation"/>
  <polygon points="188.9,425.3 184.9,432.8 192.9,432.8" class="validation"/>
  <polygon points="234.0,440.2 230.0,447.7 238.0,447.7" class="validation"/>
  <polygon points="263.9,447.2 259.9,454.7 267.9,454.7" class="validation"/>
  <polygon points="293.3,452.5 289.3,460.0 297.3,460.0" class="validation"/>
  <polygon points="323.8,456.6 319.8,464.1 327.8,464.1" class="validation"/>
  <polyline points="86.0,360.6 88.7,363.3 91.3,366.0 94.0,368.5 96.7,371.1 99.3,373.5 102.0,375.9 104.7,378.3 107.3,380.5 110.0,382.8 112.7,384.9 115.3,387.1 118.0,389.1 120.7,391.2 123.3,393.1 126.0,395.1 128.7,396.9 131.3,398.8 134.0,400.6 136.7,402.3 139.3,404.0 142.0,405.7 144.7,407.3 147.3,408.9 150.0,410.5 152.7,412.0 155.3,413.4 158.0,414.9 160.7,416.3 163.3,417.7 166.0,419.0 168.7,420.3 171.3,421.6 174.0,422.8 176.7,424.1 179.3,425.2 182.0,426.4 184.7,427.5 187.3,428.6 190.0,429.7 192.7,430.8 195.3,431.8 198.0,432.8 200.7,433.8 203.3,434.7 206.0,435.7 208.7,436.6 211.3,437.4 214.0,438.3 216.7,439.2 219.3,440.0 222.0,440.8 224.7,441.6 227.3,442.3 230.0,443.1 232.7,443.8 235.3,444.5 238.0,445.2 240.7,445.9 243.3,446.6 246.0,447.2 248.7,447.9 251.3,448.5 254.0,449.1 256.7,449.7 259.3,450.2 262.0,450.8 264.7,451.3 267.3,451.9 270.0,452.4 272.7,452.9 275.3,453.4 278.0,453.9 280.7,454.4 283.3,454.8 286.0,455.3 288.7,455.7 291.3,456.1 294.0,456.6 296.7,457.0 299.3,457.4 302.0,457.8 304.7,458.1 307.3,458.5 310.0,458.9 312.7,459.2 315.3,459.6 318.0,459.9 320.7,460.2 323.3,460.6 326.0,460.9 328.7,461.2 331.3,461.5 334.0,461.8 336.7,462.1 339.3,462.3 342.0,462.6 344.7,462.9 347.3,463.1 350.0,463.4" class="eml-line"/>
  <rect x="408" y="316" width="322" height="188" class="panel"/>
  <text x="421" y="338" class="formula">exp(0.4 x)</text>
  <line x1="442.0" y1="356.0" x2="706.0" y2="356.0" class="grid"/>
  <line x1="442.0" y1="412.0" x2="706.0" y2="412.0" class="grid"/>
  <line x1="442.0" y1="468.0" x2="706.0" y2="468.0" class="axis"/>
  <line x1="442.0" y1="356.0" x2="442.0" y2="468.0" class="axis"/>
  <text x="698.0" y="485.0" class="axis-label">x</text>
  <text x="424.0" y="364.0" class="axis-label">y</text>
  <polyline points="442.0,463.4 444.7,463.0 447.3,462.5 450.0,462.1 452.7,461.6 455.3,461.2 458.0,460.7 460.7,460.3 463.3,459.8 466.0,459.3 468.7,458.8 471.3,458.3 474.0,457.8 476.7,457.3 479.3,456.8 482.0,456.2 484.7,455.7 487.3,455.2 490.0,454.6 492.7,454.0 495.3,453.5 498.0,452.9 500.7,452.3 503.3,451.7 506.0,451.1 508.7,450.4 511.3,449.8 514.0,449.1 516.7,448.5 519.3,447.8 522.0,447.1 524.7,446.5 527.3,445.8 530.0,445.1 532.7,444.3 535.3,443.6 538.0,442.9 540.7,442.1 543.3,441.3 546.0,440.5 548.7,439.7 551.3,438.9 554.0,438.1 556.7,437.3 559.3,436.4 562.0,435.6 564.7,434.7 567.3,433.8 570.0,432.9 572.7,432.0 575.3,431.0 578.0,430.1 580.7,429.1 583.3,428.1 586.0,427.1 588.7,426.1 591.3,425.1 594.0,424.1 596.7,423.0 599.3,421.9 602.0,420.8 604.7,419.7 607.3,418.6 610.0,417.4 612.7,416.2 615.3,415.0 618.0,413.8 620.7,412.6 623.3,411.3 626.0,410.1 628.7,408.8 631.3,407.5 634.0,406.1 636.7,404.8 639.3,403.4 642.0,402.0 644.7,400.6 647.3,399.1 650.0,397.7 652.7,396.2 655.3,394.7 658.0,393.1 660.7,391.5 663.3,389.9 666.0,388.3 668.7,386.7 671.3,385.0 674.0,383.3 676.7,381.6 679.3,379.8 682.0,378.0 684.7,376.2 687.3,374.4 690.0,372.5 692.7,370.6 695.3,368.7 698.0,366.7 700.7,364.7 703.3,362.7 706.0,360.6" class="target-line"/>
  <circle cx="442.0" cy="463.4" r="3.2" class="train"/>
  <circle cx="482.9" cy="456.1" r="3.2" class="train"/>
  <circle cx="522.9" cy="446.9" r="3.2" class="train"/>
  <circle cx="564.6" cy="434.7" r="3.2" class="train"/>
  <circle cx="584.7" cy="427.6" r="3.2" class="train"/>
  <circle cx="624.2" cy="411.0" r="3.2" class="train"/>
  <circle cx="665.5" cy="388.6" r="3.2" class="train"/>
  <circle cx="706.0" cy="360.6" r="3.2" class="train"/>
  <polygon points="461.2,456.2 457.2,463.7 465.2,463.7" class="validation"/>
  <polygon points="491.4,450.3 487.4,457.8 495.4,457.8" class="validation"/>
  <polygon points="521.8,443.2 517.8,450.7 525.8,450.7" class="validation"/>
  <polygon points="551.5,434.9 547.5,442.4 555.5,442.4" class="validation"/>
  <polygon points="596.6,419.0 592.6,426.5 600.6,426.5" class="validation"/>
  <polygon points="626.5,405.9 622.5,413.4 630.5,413.4" class="validation"/>
  <polygon points="655.9,390.3 651.9,397.8 659.9,397.8" class="validation"/>
  <polygon points="686.4,371.0 682.4,378.5 690.4,378.5" class="validation"/>
  <polyline points="442.0,463.4 444.7,463.0 447.3,462.5 450.0,462.1 452.7,461.6 455.3,461.2 458.0,460.7 460.7,460.3 463.3,459.8 466.0,459.3 468.7,458.8 471.3,458.3 474.0,457.8 476.7,457.3 479.3,456.8 482.0,456.2 484.7,455.7 487.3,455.2 490.0,454.6 492.7,454.0 495.3,453.5 498.0,452.9 500.7,452.3 503.3,451.7 506.0,451.1 508.7,450.4 511.3,449.8 514.0,449.1 516.7,448.5 519.3,447.8 522.0,447.1 524.7,446.5 527.3,445.8 530.0,445.1 532.7,444.3 535.3,443.6 538.0,442.9 540.7,442.1 543.3,441.3 546.0,440.5 548.7,439.7 551.3,438.9 554.0,438.1 556.7,437.3 559.3,436.4 562.0,435.6 564.7,434.7 567.3,433.8 570.0,432.9 572.7,432.0 575.3,431.0 578.0,430.1 580.7,429.1 583.3,428.1 586.0,427.1 588.7,426.1 591.3,425.1 594.0,424.1 596.7,423.0 599.3,421.9 602.0,420.8 604.7,419.7 607.3,418.6 610.0,417.4 612.7,416.2 615.3,415.0 618.0,413.8 620.7,412.6 623.3,411.3 626.0,410.1 628.7,408.8 631.3,407.5 634.0,406.1 636.7,404.8 639.3,403.4 642.0,402.0 644.7,400.6 647.3,399.1 650.0,397.7 652.7,396.2 655.3,394.7 658.0,393.1 660.7,391.5 663.3,389.9 666.0,388.3 668.7,386.7 671.3,385.0 674.0,383.3 676.7,381.6 679.3,379.8 682.0,378.0 684.7,376.2 687.3,374.4 690.0,372.5 692.7,370.6 695.3,368.7 698.0,366.7 700.7,364.7 703.3,362.7 706.0,360.6" class="eml-line"/>
  <rect x="764" y="316" width="322" height="188" class="panel"/>
  <text x="777" y="338" class="formula">exp(-1.2 x)</text>
  <line x1="798.0" y1="356.0" x2="1062.0" y2="356.0" class="grid"/>
  <line x1="798.0" y1="412.0" x2="1062.0" y2="412.0" class="grid"/>
  <line x1="798.0" y1="468.0" x2="1062.0" y2="468.0" class="axis"/>
  <line x1="798.0" y1="356.0" x2="798.0" y2="468.0" class="axis"/>
  <text x="1054.0" y="485.0" class="axis-label">x</text>
  <text x="780.0" y="364.0" class="axis-label">y</text>
  <polyline points="798.0,360.6 800.7,363.8 803.3,367.0 806.0,370.0 808.7,373.0 811.3,375.8 814.0,378.6 816.7,381.3 819.3,383.9 822.0,386.4 824.7,388.9 827.3,391.3 830.0,393.6 832.7,395.8 835.3,398.0 838.0,400.1 840.7,402.2 843.3,404.1 846.0,406.1 848.7,407.9 851.3,409.8 854.0,411.5 856.7,413.2 859.3,414.9 862.0,416.5 864.7,418.0 867.3,419.6 870.0,421.0 872.7,422.5 875.3,423.8 878.0,425.2 880.7,426.5 883.3,427.7 886.0,429.0 888.7,430.1 891.3,431.3 894.0,432.4 896.7,433.5 899.3,434.6 902.0,435.6 904.7,436.6 907.3,437.5 910.0,438.5 912.7,439.4 915.3,440.2 918.0,441.1 920.7,441.9 923.3,442.7 926.0,443.5 928.7,444.2 931.3,445.0 934.0,445.7 936.7,446.4 939.3,447.0 942.0,447.7 944.7,448.3 947.3,448.9 950.0,449.5 952.7,450.1 955.3,450.7 958.0,451.2 960.7,451.7 963.3,452.2 966.0,452.7 968.7,453.2 971.3,453.7 974.0,454.1 976.7,454.6 979.3,455.0 982.0,455.4 984.7,455.8 987.3,456.2 990.0,456.6 992.7,456.9 995.3,457.3 998.0,457.6 1000.7,457.9 1003.3,458.3 1006.0,458.6 1008.7,458.9 1011.3,459.2 1014.0,459.5 1016.7,459.7 1019.3,460.0 1022.0,460.3 1024.7,460.5 1027.3,460.8 1030.0,461.0 1032.7,461.2 1035.3,461.5 1038.0,461.7 1040.7,461.9 1043.3,462.1 1046.0,462.3 1048.7,462.5 1051.3,462.7 1054.0,462.9 1056.7,463.0 1059.3,463.2 1062.0,463.4" class="target-line"/>
  <circle cx="798.0" cy="360.6" r="3.2" class="train"/>
  <circle cx="838.9" cy="400.8" r="3.2" class="train"/>
  <circle cx="878.9" cy="425.6" r="3.2" class="train"/>
  <circle cx="920.6" cy="441.9" r="3.2" class="train"/>
  <circle cx="940.7" cy="447.4" r="3.2" class="train"/>
  <circle cx="980.2" cy="455.1" r="3.2" class="train"/>
  <circle cx="1021.5" cy="460.2" r="3.2" class="train"/>
  <circle cx="1062.0" cy="463.4" r="3.2" class="train"/>
  <polygon points="807.9,368.1 803.9,375.6 811.9,375.6" class="validation"/>
  <polygon points="839.2,397.1 835.2,404.6 843.2,404.6" class="validation"/>
  <polygon points="870.7,417.4 866.7,424.9 874.7,424.9" class="validation"/>
  <polygon points="901.4,431.4 897.4,438.9 905.4,438.9" class="validation"/>
  <polygon points="948.2,445.1 944.2,452.6 952.2,452.6" class="validation"/>
  <polygon points="979.0,450.9 975.0,458.4 983.0,458.4" class="validation"/>
  <polygon points="1009.6,455.0 1005.6,462.5 1013.6,462.5" class="validation"/>
  <polygon points="1041.1,457.9 1037.1,465.4 1045.1,465.4" class="validation"/>
  <polyline points="798.0,360.6 800.7,363.8 803.3,367.0 806.0,370.0 808.7,373.0 811.3,375.8 814.0,378.6 816.7,381.3 819.3,383.9 822.0,386.4 824.7,388.9 827.3,391.3 830.0,393.6 832.7,395.8 835.3,398.0 838.0,400.1 840.7,402.2 843.3,404.1 846.0,406.1 848.7,407.9 851.3,409.8 854.0,411.5 856.7,413.2 859.3,414.9 862.0,416.5 864.7,418.0 867.3,419.6 870.0,421.0 872.7,422.5 875.3,423.8 878.0,425.2 880.7,426.5 883.3,427.7 886.0,429.0 888.7,430.1 891.3,431.3 894.0,432.4 896.7,433.5 899.3,434.6 902.0,435.6 904.7,436.6 907.3,437.5 910.0,438.5 912.7,439.4 915.3,440.2 918.0,441.1 920.7,441.9 923.3,442.7 926.0,443.5 928.7,444.2 931.3,445.0 934.0,445.7 936.7,446.4 939.3,447.0 942.0,447.7 944.7,448.3 947.3,448.9 950.0,449.5 952.7,450.1 955.3,450.7 958.0,451.2 960.7,451.7 963.3,452.2 966.0,452.7 968.7,453.2 971.3,453.7 974.0,454.1 976.7,454.6 979.3,455.0 982.0,455.4 984.7,455.8 987.3,456.2 990.0,456.6 992.7,456.9 995.3,457.3 998.0,457.6 1000.7,457.9 1003.3,458.3 1006.0,458.6 1008.7,458.9 1011.3,459.2 1014.0,459.5 1016.7,459.7 1019.3,460.0 1022.0,460.3 1024.7,460.5 1027.3,460.8 1030.0,461.0 1032.7,461.2 1035.3,461.5 1038.0,461.7 1040.7,461.9 1043.3,462.1 1046.0,462.3 1048.7,462.5 1051.3,462.7 1054.0,462.9 1056.7,463.0 1059.3,463.2 1062.0,463.4" class="eml-line"/>
  <rect x="52" y="540" width="322" height="188" class="panel"/>
  <text x="65" y="562" class="formula">exp(-0.8/x)</text>
  <line x1="86.0" y1="580.0" x2="350.0" y2="580.0" class="grid"/>
  <line x1="86.0" y1="636.0" x2="350.0" y2="636.0" class="grid"/>
  <line x1="86.0" y1="692.0" x2="350.0" y2="692.0" class="axis"/>
  <line x1="86.0" y1="580.0" x2="86.0" y2="692.0" class="axis"/>
  <text x="342.0" y="709.0" class="axis-label">x</text>
  <text x="68.0" y="588.0" class="axis-label">y</text>
  <polyline points="86.0,687.4 88.7,684.4 91.3,681.6 94.0,678.8 96.7,676.0 99.3,673.4 102.0,670.8 104.7,668.3 107.3,665.9 110.0,663.5 112.7,661.2 115.3,659.0 118.0,656.9 120.7,654.8 123.3,652.8 126.0,650.9 128.7,649.0 131.3,647.2 134.0,645.4 136.7,643.7 139.3,642.0 142.0,640.4 144.7,638.8 147.3,637.3 150.0,635.8 152.7,634.4 155.3,633.0 158.0,631.6 160.7,630.3 163.3,629.0 166.0,627.7 168.7,626.5 171.3,625.3 174.0,624.2 176.7,623.1 179.3,622.0 182.0,620.9 184.7,619.9 187.3,618.9 190.0,617.9 192.7,616.9 195.3,616.0 198.0,615.1 200.7,614.2 203.3,613.3 206.0,612.4 208.7,611.6 211.3,610.8 214.0,610.0 216.7,609.2 219.3,608.5 222.0,607.7 224.7,607.0 227.3,606.3 230.0,605.6 232.7,604.9 235.3,604.2 238.0,603.6 240.7,602.9 243.3,602.3 246.0,601.7 248.7,601.1 251.3,600.5 254.0,599.9 256.7,599.3 259.3,598.8 262.0,598.2 264.7,597.7 267.3,597.2 270.0,596.7 272.7,596.1 275.3,595.6 278.0,595.2 280.7,594.7 283.3,594.2 286.0,593.7 288.7,593.3 291.3,592.8 294.0,592.4 296.7,592.0 299.3,591.5 302.0,591.1 304.7,590.7 307.3,590.3 310.0,589.9 312.7,589.5 315.3,589.1 318.0,588.7 320.7,588.4 323.3,588.0 326.0,587.6 328.7,587.3 331.3,586.9 334.0,586.6 336.7,586.3 339.3,585.9 342.0,585.6 344.7,585.3 347.3,584.9 350.0,584.6" class="target-line"/>
  <circle cx="86.0" cy="687.4" r="3.2" class="train"/>
  <circle cx="126.9" cy="650.2" r="3.2" class="train"/>
  <circle cx="166.9" cy="627.3" r="3.2" class="train"/>
  <circle cx="208.6" cy="611.6" r="3.2" class="train"/>
  <circle cx="228.7" cy="605.9" r="3.2" class="train"/>
  <circle cx="268.2" cy="597.0" r="3.2" class="train"/>
  <circle cx="309.5" cy="590.0" r="3.2" class="train"/>
  <circle cx="350.0" cy="584.6" r="3.2" class="train"/>
  <polygon points="95.9,672.8 91.9,680.3 99.9,680.3" class="validation"/>
  <polygon points="125.8,647.0 121.8,654.5 129.8,654.5" class="validation"/>
  <polygon points="155.9,628.7 151.9,636.2 159.9,636.2" class="validation"/>
  <polygon points="185.2,615.7 181.2,623.2 189.2,623.2" class="validation"/>
  <polygon points="229.8,601.6 225.8,609.1 233.8,609.1" class="validation"/>
  <polygon points="259.3,594.8 255.3,602.3 263.3,602.3" class="validation"/>
  <polygon points="288.4,589.3 284.4,596.8 292.4,596.8" class="validation"/>
  <polygon points="318.5,584.7 314.5,592.2 322.5,592.2" class="validation"/>
  <polyline points="86.0,687.4 88.7,684.4 91.3,681.6 94.0,678.8 96.7,676.0 99.3,673.4 102.0,670.8 104.7,668.3 107.3,665.9 110.0,663.5 112.7,661.2 115.3,659.0 118.0,656.9 120.7,654.8 123.3,652.8 126.0,650.9 128.7,649.0 131.3,647.2 134.0,645.4 136.7,643.7 139.3,642.0 142.0,640.4 144.7,638.8 147.3,637.3 150.0,635.8 152.7,634.4 155.3,633.0 158.0,631.6 160.7,630.3 163.3,629.0 166.0,627.7 168.7,626.5 171.3,625.3 174.0,624.2 176.7,623.1 179.3,622.0 182.0,620.9 184.7,619.9 187.3,618.9 190.0,617.9 192.7,616.9 195.3,616.0 198.0,615.1 200.7,614.2 203.3,613.3 206.0,612.4 208.7,611.6 211.3,610.8 214.0,610.0 216.7,609.2 219.3,608.5 222.0,607.7 224.7,607.0 227.3,606.3 230.0,605.6 232.7,604.9 235.3,604.2 238.0,603.6 240.7,602.9 243.3,602.3 246.0,601.7 248.7,601.1 251.3,600.5 254.0,599.9 256.7,599.3 259.3,598.8 262.0,598.2 264.7,597.7 267.3,597.2 270.0,596.7 272.7,596.1 275.3,595.6 278.0,595.2 280.7,594.7 283.3,594.2 286.0,593.7 288.7,593.3 291.3,592.8 294.0,592.4 296.7,592.0 299.3,591.5 302.0,591.1 304.7,590.7 307.3,590.3 310.0,589.9 312.7,589.5 315.3,589.1 318.0,588.7 320.7,588.4 323.3,588.0 326.0,587.6 328.7,587.3 331.3,586.9 334.0,586.6 336.7,586.3 339.3,585.9 342.0,585.6 344.7,585.3 347.3,584.9 350.0,584.6" class="eml-line"/>
  <rect x="408" y="540" width="322" height="188" class="panel"/>
  <text x="421" y="562" class="formula">2x/(x + 0.5)</text>
  <line x1="442.0" y1="580.0" x2="706.0" y2="580.0" class="grid"/>
  <line x1="442.0" y1="636.0" x2="706.0" y2="636.0" class="grid"/>
  <line x1="442.0" y1="692.0" x2="706.0" y2="692.0" class="axis"/>
  <line x1="442.0" y1="580.0" x2="442.0" y2="692.0" class="axis"/>
  <text x="698.0" y="709.0" class="axis-label">x</text>
  <text x="424.0" y="588.0" class="axis-label">y</text>
  <polyline points="442.0,687.4 444.7,677.9 447.3,669.9 450.0,663.0 452.7,657.0 455.3,651.8 458.0,647.1 460.7,643.0 463.3,639.4 466.0,636.1 468.7,633.1 471.3,630.4 474.0,627.9 476.7,625.6 479.3,623.5 482.0,621.6 484.7,619.8 487.3,618.1 490.0,616.6 492.7,615.1 495.3,613.8 498.0,612.5 500.7,611.3 503.3,610.2 506.0,609.1 508.7,608.1 511.3,607.2 514.0,606.3 516.7,605.5 519.3,604.6 522.0,603.9 524.7,603.1 527.3,602.5 530.0,601.8 532.7,601.2 535.3,600.5 538.0,600.0 540.7,599.4 543.3,598.9 546.0,598.4 548.7,597.9 551.3,597.4 554.0,596.9 556.7,596.5 559.3,596.1 562.0,595.7 564.7,595.3 567.3,594.9 570.0,594.5 572.7,594.2 575.3,593.8 578.0,593.5 580.7,593.2 583.3,592.8 586.0,592.5 588.7,592.3 591.3,592.0 594.0,591.7 596.7,591.4 599.3,591.2 602.0,590.9 604.7,590.7 607.3,590.4 610.0,590.2 612.7,590.0 615.3,589.7 618.0,589.5 620.7,589.3 623.3,589.1 626.0,588.9 628.7,588.7 631.3,588.5 634.0,588.3 636.7,588.2 639.3,588.0 642.0,587.8 644.7,587.6 647.3,587.5 650.0,587.3 652.7,587.2 655.3,587.0 658.0,586.9 660.7,586.7 663.3,586.6 666.0,586.4 668.7,586.3 671.3,586.2 674.0,586.0 676.7,585.9 679.3,585.8 682.0,585.6 684.7,585.5 687.3,585.4 690.0,585.3 692.7,585.2 695.3,585.1 698.0,584.9 700.7,584.8 703.3,584.7 706.0,584.6" class="target-line"/>
  <circle cx="442.0" cy="687.4" r="3.2" class="train"/>
  <circle cx="482.9" cy="620.9" r="3.2" class="train"/>
  <circle cx="522.9" cy="603.6" r="3.2" class="train"/>
  <circle cx="564.6" cy="595.3" r="3.2" class="train"/>
  <circle cx="584.7" cy="592.7" r="3.2" class="train"/>
  <circle cx="624.2" cy="589.1" r="3.2" class="train"/>
  <circle cx="665.5" cy="586.5" r="3.2" class="train"/>
  <circle cx="706.0" cy="584.6" r="3.2" class="train"/>
  <polygon points="442.9,679.8 438.9,687.3 446.9,687.3" class="validation"/>
  <polygon points="474.7,623.2 470.7,630.7 478.7,630.7" class="validation"/>
  <polygon points="506.6,604.9 502.6,612.4 510.6,612.4" class="validation"/>
  <polygon points="537.8,596.0 533.8,603.5 541.8,603.5" class="validation"/>
  <polygon points="585.2,588.6 581.2,596.1 589.2,596.1" class="validation"/>
  <polygon points="616.6,585.6 612.6,593.1 620.6,593.1" class="validation"/>
  <polygon points="647.5,583.5 643.5,591.0 651.5,591.0" class="validation"/>
  <polygon points="679.5,581.8 675.5,589.3 683.5,589.3" class="validation"/>
  <polyline points="442.0,687.4 444.7,677.9 447.3,669.9 450.0,663.0 452.7,657.0 455.3,651.8 458.0,647.1 460.7,643.0 463.3,639.4 466.0,636.1 468.7,633.1 471.3,630.4 474.0,627.9 476.7,625.6 479.3,623.5 482.0,621.6 484.7,619.8 487.3,618.1 490.0,616.6 492.7,615.1 495.3,613.8 498.0,612.5 500.7,611.3 503.3,610.2 506.0,609.1 508.7,608.1 511.3,607.2 514.0,606.3 516.7,605.5 519.3,604.6 522.0,603.9 524.7,603.1 527.3,602.5 530.0,601.8 532.7,601.2 535.3,600.5 538.0,600.0 540.7,599.4 543.3,598.9 546.0,598.4 548.7,597.9 551.3,597.4 554.0,596.9 556.7,596.5 559.3,596.1 562.0,595.7 564.7,595.3 567.3,594.9 570.0,594.5 572.7,594.2 575.3,593.8 578.0,593.5 580.7,593.2 583.3,592.8 586.0,592.5 588.7,592.3 591.3,592.0 594.0,591.7 596.7,591.4 599.3,591.2 602.0,590.9 604.7,590.7 607.3,590.4 610.0,590.2 612.7,590.0 615.3,589.7 618.0,589.5 620.7,589.3 623.3,589.1 626.0,588.9 628.7,588.7 631.3,588.5 634.0,588.3 636.7,588.2 639.3,588.0 642.0,587.8 644.7,587.6 647.3,587.5 650.0,587.3 652.7,587.2 655.3,587.0 658.0,586.9 660.7,586.7 663.3,586.6 666.0,586.4 668.7,586.3 671.3,586.2 674.0,586.0 676.7,585.9 679.3,585.8 682.0,585.6 684.7,585.5 687.3,585.4 690.0,585.3 692.7,585.2 695.3,585.1 698.0,584.9 700.7,584.8 703.3,584.7 706.0,584.6" class="eml-line"/>
  <rect x="764" y="540" width="322" height="188" class="panel"/>
  <text x="777" y="562" class="formula">1/(1 + 2 exp(-1.3x))</text>
  <line x1="798.0" y1="580.0" x2="1062.0" y2="580.0" class="grid"/>
  <line x1="798.0" y1="636.0" x2="1062.0" y2="636.0" class="grid"/>
  <line x1="798.0" y1="692.0" x2="1062.0" y2="692.0" class="axis"/>
  <line x1="798.0" y1="580.0" x2="798.0" y2="692.0" class="axis"/>
  <text x="1054.0" y="709.0" class="axis-label">x</text>
  <text x="780.0" y="588.0" class="axis-label">y</text>
  <polyline points="798.0,687.4 800.7,685.1 803.3,682.8 806.0,680.4 808.7,678.0 811.3,675.5 814.0,673.1 816.7,670.6 819.3,668.1 822.0,665.5 824.7,663.0 827.3,660.4 830.0,657.9 832.7,655.4 835.3,652.9 838.0,650.4 840.7,647.9 843.3,645.4 846.0,643.0 848.7,640.7 851.3,638.3 854.0,636.0 856.7,633.8 859.3,631.6 862.0,629.5 864.7,627.4 867.3,625.4 870.0,623.4 872.7,621.5 875.3,619.7 878.0,617.9 880.7,616.2 883.3,614.6 886.0,613.0 888.7,611.5 891.3,610.1 894.0,608.7 896.7,607.4 899.3,606.1 902.0,604.9 904.7,603.7 907.3,602.6 910.0,601.6 912.7,600.6 915.3,599.7 918.0,598.8 920.7,597.9 923.3,597.1 926.0,596.4 928.7,595.7 931.3,595.0 934.0,594.3 936.7,593.7 939.3,593.2 942.0,592.6 944.7,592.1 947.3,591.6 950.0,591.2 952.7,590.7 955.3,590.3 958.0,590.0 960.7,589.6 963.3,589.3 966.0,589.0 968.7,588.7 971.3,588.4 974.0,588.1 976.7,587.9 979.3,587.6 982.0,587.4 984.7,587.2 987.3,587.0 990.0,586.9 992.7,586.7 995.3,586.5 998.0,586.4 1000.7,586.2 1003.3,586.1 1006.0,586.0 1008.7,585.9 1011.3,585.8 1014.0,585.7 1016.7,585.6 1019.3,585.5 1022.0,585.4 1024.7,585.3 1027.3,585.2 1030.0,585.2 1032.7,585.1 1035.3,585.1 1038.0,585.0 1040.7,584.9 1043.3,584.9 1046.0,584.8 1048.7,584.8 1051.3,584.8 1054.0,584.7 1056.7,584.7 1059.3,584.7 1062.0,584.6" class="target-line"/>
  <circle cx="798.0" cy="687.4" r="3.2" class="train"/>
  <circle cx="838.9" cy="649.5" r="3.2" class="train"/>
  <circle cx="878.9" cy="617.3" r="3.2" class="train"/>
  <circle cx="920.6" cy="598.0" r="3.2" class="train"/>
  <circle cx="940.7" cy="592.9" r="3.2" class="train"/>
  <circle cx="980.2" cy="587.6" r="3.2" class="train"/>
  <circle cx="1021.5" cy="585.4" r="3.2" class="train"/>
  <circle cx="1062.0" cy="584.6" r="3.2" class="train"/>
  <polygon points="802.6,679.4 798.6,686.9 806.6,686.9" class="validation"/>
  <polygon points="836.1,648.2 832.1,655.7 840.1,655.7" class="validation"/>
  <polygon points="869.6,619.7 865.6,627.2 873.6,627.2" class="validation"/>
  <polygon points="902.5,600.7 898.5,608.2 906.5,608.2" class="validation"/>
  <polygon points="952.4,586.8 948.4,594.3 956.4,594.3" class="validation"/>
  <polygon points="985.4,583.2 981.4,590.7 989.4,590.7" class="validation"/>
  <polygon points="1018.0,581.5 1014.0,589.0 1022.0,589.0" class="validation"/>
  <polygon points="1051.7,580.8 1047.7,588.3 1055.7,588.3" class="validation"/>
  <rect x="52" y="764" width="322" height="188" class="panel"/>
  <text x="65" y="786" class="formula">0.2(exp(1.4x) - 1)</text>
  <line x1="86.0" y1="804.0" x2="350.0" y2="804.0" class="grid"/>
  <line x1="86.0" y1="860.0" x2="350.0" y2="860.0" class="grid"/>
  <line x1="86.0" y1="916.0" x2="350.0" y2="916.0" class="axis"/>
  <line x1="86.0" y1="804.0" x2="86.0" y2="916.0" class="axis"/>
  <text x="342.0" y="933.0" class="axis-label">x</text>
  <text x="68.0" y="812.0" class="axis-label">y</text>
  <polyline points="86.0,911.4 88.7,911.2 91.3,911.0 94.0,910.8 96.7,910.6 99.3,910.4 102.0,910.1 104.7,909.9 107.3,909.7 110.0,909.4 112.7,909.2 115.3,908.9 118.0,908.7 120.7,908.4 123.3,908.1 126.0,907.9 128.7,907.6 131.3,907.3 134.0,907.0 136.7,906.6 139.3,906.3 142.0,906.0 144.7,905.6 147.3,905.3 150.0,904.9 152.7,904.5 155.3,904.1 158.0,903.7 160.7,903.3 163.3,902.9 166.0,902.5 168.7,902.0 171.3,901.6 174.0,901.1 176.7,900.6 179.3,900.1 182.0,899.6 184.7,899.1 187.3,898.5 190.0,898.0 192.7,897.4 195.3,896.8 198.0,896.2 200.7,895.6 203.3,894.9 206.0,894.3 208.7,893.6 211.3,892.9 214.0,892.2 216.7,891.4 219.3,890.6 222.0,889.9 224.7,889.1 227.3,888.2 230.0,887.4 232.7,886.5 235.3,885.6 238.0,884.7 240.7,883.7 243.3,882.7 246.0,881.7 248.7,880.7 251.3,879.6 254.0,878.5 256.7,877.4 259.3,876.2 262.0,875.0 264.7,873.8 267.3,872.5 270.0,871.2 272.7,869.8 275.3,868.5 278.0,867.0 280.7,865.6 283.3,864.1 286.0,862.5 288.7,860.9 291.3,859.3 294.0,857.6 296.7,855.9 299.3,854.1 302.0,852.3 304.7,850.4 307.3,848.4 310.0,846.4 312.7,844.4 315.3,842.3 318.0,840.1 320.7,837.9 323.3,835.6 326.0,833.2 328.7,830.8 331.3,828.3 334.0,825.7 336.7,823.0 339.3,820.3 342.0,817.5 344.7,814.6 347.3,811.7 350.0,808.6" class="target-line"/>
  <circle cx="86.0" cy="911.4" r="3.2" class="train"/>
  <circle cx="126.9" cy="907.8" r="3.2" class="train"/>
  <circle cx="166.9" cy="902.3" r="3.2" class="train"/>
  <circle cx="208.6" cy="893.6" r="3.2" class="train"/>
  <circle cx="228.7" cy="887.8" r="3.2" class="train"/>
  <circle cx="268.2" cy="872.1" r="3.2" class="train"/>
  <circle cx="309.5" cy="846.8" r="3.2" class="train"/>
  <circle cx="350.0" cy="808.6" r="3.2" class="train"/>
  <polygon points="92.0,906.9 88.0,914.4 96.0,914.4" class="validation"/>
  <polygon points="123.1,904.2 119.1,911.7 127.1,911.7" class="validation"/>
  <polygon points="154.4,900.3 150.4,907.8 158.4,907.8" class="validation"/>
  <polygon points="184.9,895.0 180.9,902.5 188.9,902.5" class="validation"/>
  <polygon points="231.4,882.9 227.4,890.4 235.4,890.4" class="validation"/>
  <polygon points="262.1,870.9 258.1,878.4 266.1,878.4" class="validation"/>
  <polygon points="292.5,854.6 288.5,862.1 296.5,862.1" class="validation"/>
  <polygon points="323.8,831.2 319.8,838.7 327.8,838.7" class="validation"/>
  <polyline points="86.0,911.4 88.7,911.2 91.3,911.0 94.0,910.8 96.7,910.6 99.3,910.4 102.0,910.1 104.7,909.9 107.3,909.7 110.0,909.4 112.7,909.2 115.3,908.9 118.0,908.7 120.7,908.4 123.3,908.1 126.0,907.9 128.7,907.6 131.3,907.3 134.0,907.0 136.7,906.6 139.3,906.3 142.0,906.0 144.7,905.6 147.3,905.3 150.0,904.9 152.7,904.5 155.3,904.1 158.0,903.7 160.7,903.3 163.3,902.9 166.0,902.5 168.7,902.0 171.3,901.6 174.0,901.1 176.7,900.6 179.3,900.1 182.0,899.6 184.7,899.1 187.3,898.5 190.0,898.0 192.7,897.4 195.3,896.8 198.0,896.2 200.7,895.6 203.3,894.9 206.0,894.3 208.7,893.6 211.3,892.9 214.0,892.2 216.7,891.4 219.3,890.6 222.0,889.9 224.7,889.1 227.3,888.2 230.0,887.4 232.7,886.5 235.3,885.6 238.0,884.7 240.7,883.7 243.3,882.7 246.0,881.7 248.7,880.7 251.3,879.6 254.0,878.5 256.7,877.4 259.3,876.2 262.0,875.0 264.7,873.8 267.3,872.5 270.0,871.2 272.7,869.8 275.3,868.5 278.0,867.0 280.7,865.6 283.3,864.1 286.0,862.5 288.7,860.9 291.3,859.3 294.0,857.6 296.7,855.9 299.3,854.1 302.0,852.3 304.7,850.4 307.3,848.4 310.0,846.4 312.7,844.4 315.3,842.3 318.0,840.1 320.7,837.9 323.3,835.6 326.0,833.2 328.7,830.8 331.3,828.3 334.0,825.7 336.7,823.0 339.3,820.3 342.0,817.5 344.7,814.6 347.3,811.7 350.0,808.6" class="eml-line"/>
  <rect x="408" y="764" width="322" height="188" class="panel"/>
  <text x="421" y="786" class="formula">exp(-0.15t) cos(2.5t + 0.2)</text>
  <line x1="442.0" y1="804.0" x2="706.0" y2="804.0" class="grid"/>
  <line x1="442.0" y1="860.0" x2="706.0" y2="860.0" class="grid"/>
  <line x1="442.0" y1="916.0" x2="706.0" y2="916.0" class="axis"/>
  <line x1="442.0" y1="804.0" x2="442.0" y2="916.0" class="axis"/>
  <text x="698.0" y="933.0" class="axis-label">t</text>
  <text x="424.0" y="812.0" class="axis-label">y</text>
  <polyline points="442.0,808.6 444.7,811.5 447.3,815.4 450.0,820.4 452.7,826.4 455.3,833.0 458.0,840.3 460.7,847.9 463.3,855.8 466.0,863.7 468.7,871.5 471.3,879.0 474.0,886.0 476.7,892.3 479.3,897.9 482.0,902.7 484.7,906.4 487.3,909.2 490.0,910.8 492.7,911.4 495.3,910.8 498.0,909.3 500.7,906.7 503.3,903.1 506.0,898.8 508.7,893.7 511.3,888.1 514.0,882.0 516.7,875.6 519.3,869.0 522.0,862.5 524.7,856.1 527.3,850.0 530.0,844.3 532.7,839.2 535.3,834.7 538.0,831.0 540.7,828.1 543.3,826.0 546.0,824.9 548.7,824.7 551.3,825.3 554.0,826.9 556.7,829.2 559.3,832.3 562.0,836.1 564.7,840.4 567.3,845.2 570.0,850.3 572.7,855.6 575.3,861.1 578.0,866.5 580.7,871.7 583.3,876.7 586.0,881.3 588.7,885.4 591.3,889.0 594.0,891.9 596.7,894.1 599.3,895.6 602.0,896.4 604.7,896.4 607.3,895.7 610.0,894.2 612.7,892.1 615.3,889.4 618.0,886.2 620.7,882.5 623.3,878.4 626.0,874.1 628.7,869.7 631.3,865.2 634.0,860.7 636.7,856.4 639.3,852.4 642.0,848.7 644.7,845.4 647.3,842.5 650.0,840.3 652.7,838.6 655.3,837.5 658.0,837.0 660.7,837.2 663.3,837.9 666.0,839.3 668.7,841.1 671.3,843.5 674.0,846.3 676.7,849.4 679.3,852.8 682.0,856.4 684.7,860.1 687.3,863.8 690.0,867.5 692.7,871.0 695.3,874.3 698.0,877.3 700.7,879.9 703.3,882.2 706.0,883.9" class="target-line"/>
  <circle cx="442.0" cy="808.6" r="3.2" class="train"/>
  <circle cx="482.9" cy="904.1" r="3.2" class="train"/>
  <circle cx="522.9" cy="860.2" r="3.2" class="train"/>
  <circle cx="564.6" cy="840.2" r="3.2" class="train"/>
  <circle cx="584.7" cy="879.1" r="3.2" class="train"/>
  <circle cx="624.2" cy="877.1" r="3.2" class="train"/>
  <circle cx="665.5" cy="839.0" r="3.2" class="train"/>
  <circle cx="706.0" cy="883.9" r="3.2" class="train"/>
  <polygon points="443.5,806.1 439.5,813.6 447.5,813.6" class="validation"/>
  <polygon points="477.6,890.4 473.6,897.9 481.6,897.9" class="validation"/>
  <polygon points="511.9,882.9 507.9,890.4 515.9,890.4" class="validation"/>
  <polygon points="545.3,821.1 541.3,828.6 549.3,828.6" class="validation"/>
  <polygon points="596.2,889.8 592.2,897.3 600.2,897.3" class="validation"/>
  <polygon points="629.8,863.7 625.8,871.2 633.8,871.2" class="validation"/>
  <polygon points="663.1,833.8 659.1,841.3 667.1,841.3" class="validation"/>
  <polygon points="697.4,872.7 693.4,880.2 701.4,880.2" class="validation"/>
  <rect x="764" y="764" width="322" height="188" class="panel"/>
  <text x="777" y="786" class="formula">x^3/(exp(x) - 1)</text>
  <line x1="798.0" y1="804.0" x2="1062.0" y2="804.0" class="grid"/>
  <line x1="798.0" y1="860.0" x2="1062.0" y2="860.0" class="grid"/>
  <line x1="798.0" y1="916.0" x2="1062.0" y2="916.0" class="axis"/>
  <line x1="798.0" y1="804.0" x2="798.0" y2="916.0" class="axis"/>
  <text x="1054.0" y="933.0" class="axis-label">x</text>
  <text x="780.0" y="812.0" class="axis-label">y</text>
  <polyline points="798.0,911.4 800.7,909.0 803.3,906.1 806.0,902.8 808.7,899.0 811.3,894.8 814.0,890.5 816.7,885.9 819.3,881.2 822.0,876.4 824.7,871.6 827.3,866.8 830.0,862.0 832.7,857.3 835.3,852.8 838.0,848.4 840.7,844.2 843.3,840.1 846.0,836.3 848.7,832.7 851.3,829.3 854.0,826.2 856.7,823.4 859.3,820.8 862.0,818.4 864.7,816.4 867.3,814.5 870.0,813.0 872.7,811.7 875.3,810.6 878.0,809.8 880.7,809.2 883.3,808.8 886.0,808.6 888.7,808.7 891.3,808.9 894.0,809.3 896.7,809.9 899.3,810.7 902.0,811.6 904.7,812.7 907.3,813.9 910.0,815.2 912.7,816.6 915.3,818.1 918.0,819.7 920.7,821.4 923.3,823.2 926.0,825.0 928.7,826.9 931.3,828.9 934.0,830.8 936.7,832.8 939.3,834.9 942.0,836.9 944.7,839.0 947.3,841.0 950.0,843.1 952.7,845.2 955.3,847.2 958.0,849.3 960.7,851.3 963.3,853.3 966.0,855.3 968.7,857.2 971.3,859.2 974.0,861.0 976.7,862.9 979.3,864.7 982.0,866.5 984.7,868.3 987.3,870.0 990.0,871.6 992.7,873.3 995.3,874.8 998.0,876.4 1000.7,877.9 1003.3,879.3 1006.0,880.7 1008.7,882.1 1011.3,883.4 1014.0,884.7 1016.7,886.0 1019.3,887.2 1022.0,888.3 1024.7,889.4 1027.3,890.5 1030.0,891.6 1032.7,892.6 1035.3,893.5 1038.0,894.5 1040.7,895.3 1043.3,896.2 1046.0,897.0 1048.7,897.8 1051.3,898.6 1054.0,899.3 1056.7,900.0 1059.3,900.7 1062.0,901.3" class="target-line"/>
  <circle cx="798.0" cy="911.4" r="3.2" class="train"/>
  <circle cx="838.9" cy="846.9" r="3.2" class="train"/>
  <circle cx="878.9" cy="809.5" r="3.2" class="train"/>
  <circle cx="920.6" cy="821.4" r="3.2" class="train"/>
  <circle cx="940.7" cy="835.9" r="3.2" class="train"/>
  <circle cx="980.2" cy="865.3" r="3.2" class="train"/>
  <circle cx="1021.5" cy="888.1" r="3.2" class="train"/>
  <circle cx="1062.0" cy="901.3" r="3.2" class="train"/>
  <polygon points="799.0,906.6 795.0,914.1 803.0,914.1" class="validation"/>
  <polygon points="832.1,854.3 828.1,861.8 836.1,861.8" class="validation"/>
  <polygon points="865.3,811.9 861.3,819.4 869.3,819.4" class="validation"/>
  <polygon points="897.8,806.2 893.8,813.7 901.8,813.7" class="validation"/>
  <polygon points="947.1,836.9 943.1,844.4 951.1,844.4" class="validation"/>
  <polygon points="979.7,861.0 975.7,868.5 983.7,868.5" class="validation"/>
  <polygon points="1012.0,879.7 1008.0,887.2 1016.0,887.2" class="validation"/>
  <polygon points="1045.3,892.8 1041.3,900.3 1049.3,900.3" class="validation"/>
</svg>
