<?xml version="1.0" encoding="UTF-8"?>
<svg xmlns="http://www.w3.org/2000/svg" width="1000" height="740" viewBox="0 0 1000 740" role="img" aria-labelledby="title desc">
<title id="title">Four-panel EML fit gallery</title>
<desc id="desc">A two by two grid with two good fits and two failed or stretch diagnostics.</desc>
<rect width="100%" height="100%" fill="#ffffff"/>
<text x="40" y="32" font-family="Arial, sans-serif" font-size="20" font-weight="700" fill="#202020">Representative fits and diagnostics</text>
<text x="40" y="54" font-family="Arial, sans-serif" font-size="12" fill="#555555">Target is black, candidate is colored, training samples are open circles. Legend is outside the plotting panels.</text>
<text x="65" y="98" font-family="Arial, sans-serif" font-size="16" font-weight="700" fill="#202020">Good: Beer-Lambert</text>
<text x="65" y="116" font-family="Arial, sans-serif" font-size="11" fill="#555555">candidate overlays target</text>
<line x1="117.0" y1="122" x2="117.0" y2="320" stroke="#d6d6d6" stroke-width="0.8"/>
<text x="117.0" y="336" text-anchor="middle" font-family="Arial, sans-serif" font-size="9" fill="#555555">0</text>
<line x1="243.7" y1="122" x2="243.7" y2="320" stroke="#d6d6d6" stroke-width="0.8"/>
<text x="243.7" y="336" text-anchor="middle" font-family="Arial, sans-serif" font-size="9" fill="#555555">1.5</text>
<line x1="370.3" y1="122" x2="370.3" y2="320" stroke="#d6d6d6" stroke-width="0.8"/>
<text x="370.3" y="336" text-anchor="middle" font-family="Arial, sans-serif" font-size="9" fill="#555555">3</text>
<line x1="497.0" y1="122" x2="497.0" y2="320" stroke="#d6d6d6" stroke-width="0.8"/>
<text x="497.0" y="336" text-anchor="middle" font-family="Arial, sans-serif" font-size="9" fill="#555555">4.5</text>
<line x1="117" y1="320.0" x2="497" y2="320.0" stroke="#d6d6d6" stroke-width="0.8"/>
<text x="110" y="323.0" text-anchor="end" font-family="Arial, sans-serif" font-size="9" fill="#555555">-0.05</text>
<line x1="117" y1="254.0" x2="497" y2="254.0" stroke="#d6d6d6" stroke-width="0.8"/>
<text x="110" y="257.0" text-anchor="end" font-family="Arial, sans-serif" font-size="9" fill="#555555">0.33</text>
<line x1="117" y1="188.0" x2="497" y2="188.0" stroke="#d6d6d6" stroke-width="0.8"/>
<text x="110" y="191.0" text-anchor="end" font-family="Arial, sans-serif" font-size="9" fill="#555555">0.7</text>
<line x1="117" y1="122.0" x2="497" y2="122.0" stroke="#d6d6d6" stroke-width="0.8"/>
<text x="110" y="125.0" text-anchor="end" font-family="Arial, sans-serif" font-size="9" fill="#555555">1.08</text>
<line x1="117" y1="320" x2="497" y2="320" stroke="#202020" stroke-width="1"/>
<line x1="117" y1="122" x2="117" y2="320" stroke="#202020" stroke-width="1"/>
<text x="307.0" y="357" text-anchor="middle" font-family="Arial, sans-serif" font-size="10" fill="#555555">normalized path length</text>
<text x="77" y="221.0" transform="rotate(-90 77 221.0)" text-anchor="middle" font-family="Arial, sans-serif" font-size="10" fill="#555555">intensity</text>
<path d="M117.0 135.7 L118.7 138.5 L120.5 141.3 L122.2 144.1 L123.9 146.8 L125.6 149.4 L127.4 152.1 L129.1 154.6 L130.8 157.2 L132.5 159.7 L134.3 162.1 L136.0 164.6 L137.7 166.9 L139.5 169.3 L141.2 171.6 L142.9 173.8 L144.6 176.1 L146.4 178.3 L148.1 180.4 L149.8 182.5 L151.5 184.6 L153.3 186.7 L155.0 188.7 L156.7 190.7 L158.5 192.7 L160.2 194.6 L161.9 196.5 L163.6 198.3 L165.4 200.2 L167.1 202.0 L168.8 203.7 L170.5 205.5 L172.3 207.2 L174.0 208.9 L175.7 210.5 L177.5 212.2 L179.2 213.8 L180.9 215.4 L182.6 216.9 L184.4 218.4 L186.1 219.9 L187.8 221.4 L189.5 222.9 L191.3 224.3 L193.0 225.7 L194.7 227.1 L196.5 228.5 L198.2 229.8 L199.9 231.1 L201.6 232.4 L203.4 233.7 L205.1 235.0 L206.8 236.2 L208.5 237.4 L210.3 238.6 L212.0 239.8 L213.7 241.0 L215.5 242.1 L217.2 243.2 L218.9 244.3 L220.6 245.4 L222.4 246.5 L224.1 247.5 L225.8 248.5 L227.5 249.6 L229.3 250.6 L231.0 251.5 L232.7 252.5 L234.5 253.5 L236.2 254.4 L237.9 255.3 L239.6 256.2 L241.4 257.1 L243.1 258.0 L244.8 258.9 L246.5 259.7 L248.3 260.5 L250.0 261.4 L251.7 262.2 L253.5 263.0 L255.2 263.7 L256.9 264.5 L258.6 265.3 L260.4 266.0 L262.1 266.8 L263.8 267.5 L265.5 268.2 L267.3 268.9 L269.0 269.6 L270.7 270.2 L272.5 270.9 L274.2 271.6 L275.9 272.2 L277.6 272.8 L279.4 273.5 L281.1 274.1 L282.8 274.7 L284.5 275.3 L286.3 275.8 L288.0 276.4 L289.7 277.0 L291.5 277.5 L293.2 278.1 L294.9 278.6 L296.6 279.1 L298.4 279.7 L300.1 280.2 L301.8 280.7 L303.5 281.2 L305.3 281.7 L307.0 282.1 L308.7 282.6 L310.5 283.1 L312.2 283.5 L313.9 284.0 L315.6 284.4 L317.4 284.8 L319.1 285.3 L320.8 285.7 L322.5 286.1 L324.3 286.5 L326.0 286.9 L327.7 287.3 L329.5 287.7 L331.2 288.1 L332.9 288.4 L334.6 288.8 L336.4 289.2 L338.1 289.5 L339.8 289.9 L341.5 290.2 L343.3 290.6 L345.0 290.9 L346.7 291.2 L348.5 291.6 L350.2 291.9 L351.9 292.2 L353.6 292.5 L355.4 292.8 L357.1 293.1 L358.8 293.4 L360.5 293.7 L362.3 294.0 L364.0 294.2 L365.7 294.5 L367.5 294.8 L369.2 295.0 L370.9 295.3 L372.6 295.6 L374.4 295.8 L376.1 296.1 L377.8 296.3 L379.5 296.6 L381.3 296.8 L383.0 297.0 L384.7 297.2 L386.5 297.5 L388.2 297.7 L389.9 297.9 L391.6 298.1 L393.4 298.3 L395.1 298.5 L396.8 298.8 L398.5 299.0 L400.3 299.2 L402.0 299.3 L403.7 299.5 L405.5 299.7 L407.2 299.9 L408.9 300.1 L410.6 300.3 L412.4 300.4 L414.1 300.6 L415.8 300.8 L417.5 301.0 L419.3 301.1 L421.0 301.3 L422.7 301.4 L424.5 301.6 L426.2 301.8 L427.9 301.9 L429.6 302.1 L431.4 302.2 L433.1 302.4 L434.8 302.5 L436.5 302.6 L438.3 302.8 L440.0 302.9 L441.7 303.0 L443.5 303.2 L445.2 303.3 L446.9 303.4 L448.6 303.6 L450.4 303.7 L452.1 303.8 L453.8 303.9 L455.5 304.0 L457.3 304.2 L459.0 304.3 L460.7 304.4 L462.5 304.5 L464.2 304.6 L465.9 304.7 L467.6 304.8 L469.4 304.9 L471.1 305.0 L472.8 305.1 L474.5 305.2 L476.3 305.3 L478.0 305.4 L479.7 305.5 L481.5 305.6 L483.2 305.7 L484.9 305.8 L486.6 305.9 L488.4 305.9 L490.1 306.0 L491.8 306.1 L493.5 306.2 L495.3 306.3 L497.0 306.3" fill="none" stroke="#202020" stroke-width="1.6" stroke-linecap="round" stroke-linejoin="round"/>
<path d="M117.0 135.7 L118.7 138.5 L120.5 141.3 L122.2 144.1 L123.9 146.8 L125.6 149.4 L127.4 152.1 L129.1 154.6 L130.8 157.2 L132.5 159.7 L134.3 162.1 L136.0 164.6 L137.7 166.9 L139.5 169.3 L141.2 171.6 L142.9 173.8 L144.6 176.1 L146.4 178.3 L148.1 180.4 L149.8 182.5 L151.5 184.6 L153.3 186.7 L155.0 188.7 L156.7 190.7 L158.5 192.7 L160.2 194.6 L161.9 196.5 L163.6 198.3 L165.4 200.2 L167.1 202.0 L168.8 203.7 L170.5 205.5 L172.3 207.2 L174.0 208.9 L175.7 210.5 L177.5 212.2 L179.2 213.8 L180.9 215.4 L182.6 216.9 L184.4 218.4 L186.1 219.9 L187.8 221.4 L189.5 222.9 L191.3 224.3 L193.0 225.7 L194.7 227.1 L196.5 228.5 L198.2 229.8 L199.9 231.1 L201.6 232.4 L203.4 233.7 L205.1 235.0 L206.8 236.2 L208.5 237.4 L210.3 238.6 L212.0 239.8 L213.7 241.0 L215.5 242.1 L217.2 243.2 L218.9 244.3 L220.6 245.4 L222.4 246.5 L224.1 247.5 L225.8 248.5 L227.5 249.6 L229.3 250.6 L231.0 251.5 L232.7 252.5 L234.5 253.5 L236.2 254.4 L237.9 255.3 L239.6 256.2 L241.4 257.1 L243.1 258.0 L244.8 258.9 L246.5 259.7 L248.3 260.5 L250.0 261.4 L251.7 262.2 L253.5 263.0 L255.2 263.7 L256.9 264.5 L258.6 265.3 L260.4 266.0 L262.1 266.8 L263.8 267.5 L265.5 268.2 L267.3 268.9 L269.0 269.6 L270.7 270.2 L272.5 270.9 L274.2 271.6 L275.9 272.2 L277.6 272.8 L279.4 273.5 L281.1 274.1 L282.8 274.7 L284.5 275.3 L286.3 275.8 L288.0 276.4 L289.7 277.0 L291.5 277.5 L293.2 278.1 L294.9 278.6 L296.6 279.1 L298.4 279.7 L300.1 280.2 L301.8 280.7 L303.5 281.2 L305.3 281.7 L307.0 282.1 L308.7 282.6 L310.5 283.1 L312.2 283.5 L313.9 284.0 L315.6 284.4 L317.4 284.8 L319.1 285.3 L320.8 285.7 L322.5 286.1 L324.3 286.5 L326.0 286.9 L327.7 287.3 L329.5 287.7 L331.2 288.1 L332.9 288.4 L334.6 288.8 L336.4 289.2 L338.1 289.5 L339.8 289.9 L341.5 290.2 L343.3 290.6 L345.0 290.9 L346.7 291.2 L348.5 291.6 L350.2 291.9 L351.9 292.2 L353.6 292.5 L355.4 292.8 L357.1 293.1 L358.8 293.4 L360.5 293.7 L362.3 294.0 L364.0 294.2 L365.7 294.5 L367.5 294.8 L369.2 295.0 L370.9 295.3 L372.6 295.6 L374.4 295.8 L376.1 296.1 L377.8 296.3 L379.5 296.6 L381.3 296.8 L383.0 297.0 L384.7 297.2 L386.5 297.5 L388.2 297.7 L389.9 297.9 L391.6 298.1 L393.4 298.3 L395.1 298.5 L396.8 298.8 L398.5 299.0 L400.3 299.2 L402.0 299.3 L403.7 299.5 L405.5 299.7 L407.2 299.9 L408.9 300.1 L410.6 300.3 L412.4 300.4 L414.1 300.6 L415.8 300.8 L417.5 301.0 L419.3 301.1 L421.0 301.3 L422.7 301.4 L424.5 301.6 L426.2 301.8 L427.9 301.9 L429.6 302.1 L431.4 302.2 L433.1 302.4 L434.8 302.5 L436.5 302.6 L438.3 302.8 L440.0 302.9 L441.7 303.0 L443.5 303.2 L445.2 303.3 L446.9 303.4 L448.6 303.6 L450.4 303.7 L452.1 303.8 L453.8 303.9 L455.5 304.0 L457.3 304.2 L459.0 304.3 L460.7 304.4 L462.5 304.5 L464.2 304.6 L465.9 304.7 L467.6 304.8 L469.4 304.9 L471.1 305.0 L472.8 305.1 L474.5 305.2 L476.3 305.3 L478.0 305.4 L479.7 305.5 L481.5 305.6 L483.2 305.7 L484.9 305.8 L486.6 305.9 L488.4 305.9 L490.1 306.0 L491.8 306.1 L493.5 306.2 L495.3 306.3 L497.0 306.3" fill="none" stroke="#1f5a8a" stroke-width="2.8" stroke-linecap="round" stroke-linejoin="round" opacity="0.82"/>
<circle cx="117.0" cy="135.7" r="2.7" fill="#ffffff" stroke="#111111" stroke-width="1.2"/>
<circle cx="145.1" cy="176.7" r="2.7" fill="#ffffff" stroke="#111111" stroke-width="1.2"/>
<circle cx="173.3" cy="208.2" r="2.7" fill="#ffffff" stroke="#111111" stroke-width="1.2"/>
<circle cx="201.4" cy="232.3" r="2.7" fill="#ffffff" stroke="#111111" stroke-width="1.2"/>
<circle cx="229.6" cy="250.7" r="2.7" fill="#ffffff" stroke="#111111" stroke-width="1.2"/>
<circle cx="257.7" cy="264.9" r="2.7" fill="#ffffff" stroke="#111111" stroke-width="1.2"/>
<circle cx="285.9" cy="275.7" r="2.7" fill="#ffffff" stroke="#111111" stroke-width="1.2"/>
<circle cx="314.0" cy="284.0" r="2.7" fill="#ffffff" stroke="#111111" stroke-width="1.2"/>
<circle cx="342.2" cy="290.4" r="2.7" fill="#ffffff" stroke="#111111" stroke-width="1.2"/>
<circle cx="370.3" cy="295.2" r="2.7" fill="#ffffff" stroke="#111111" stroke-width="1.2"/>
<text x="545" y="98" font-family="Arial, sans-serif" font-size="16" font-weight="700" fill="#202020">Good: Michaelis-Menten</text>
<text x="545" y="116" font-family="Arial, sans-serif" font-size="11" fill="#555555">same-AST warm-start overlay</text>
<line x1="597.0" y1="122" x2="597.0" y2="320" stroke="#d6d6d6" stroke-width="0.8"/>
<text x="597.0" y="336" text-anchor="middle" font-family="Arial, sans-serif" font-size="9" fill="#555555">0.05</text>
<line x1="723.7" y1="122" x2="723.7" y2="320" stroke="#d6d6d6" stroke-width="0.8"/>
<text x="723.7" y="336" text-anchor="middle" font-family="Arial, sans-serif" font-size="9" fill="#555555">2.37</text>
<line x1="850.3" y1="122" x2="850.3" y2="320" stroke="#d6d6d6" stroke-width="0.8"/>
<text x="850.3" y="336" text-anchor="middle" font-family="Arial, sans-serif" font-size="9" fill="#555555">4.68</text>
<line x1="977.0" y1="122" x2="977.0" y2="320" stroke="#d6d6d6" stroke-width="0.8"/>
<text x="977.0" y="336" text-anchor="middle" font-family="Arial, sans-serif" font-size="9" fill="#555555">7</text>
<line x1="597" y1="320.0" x2="977" y2="320.0" stroke="#d6d6d6" stroke-width="0.8"/>
<text x="590" y="323.0" text-anchor="end" font-family="Arial, sans-serif" font-size="9" fill="#555555">0</text>
<line x1="597" y1="254.0" x2="977" y2="254.0" stroke="#d6d6d6" stroke-width="0.8"/>
<text x="590" y="257.0" text-anchor="end" font-family="Arial, sans-serif" font-size="9" fill="#555555">0.67</text>
<line x1="597" y1="188.0" x2="977" y2="188.0" stroke="#d6d6d6" stroke-width="0.8"/>
<text x="590" y="191.0" text-anchor="end" font-family="Arial, sans-serif" font-size="9" fill="#555555">1.33</text>
<line x1="597" y1="122.0" x2="977" y2="122.0" stroke="#d6d6d6" stroke-width="0.8"/>
<text x="590" y="125.0" text-anchor="end" font-family="Arial, sans-serif" font-size="9" fill="#555555">2</text>
<line x1="597" y1="320" x2="977" y2="320" stroke="#202020" stroke-width="1"/>
<line x1="597" y1="122" x2="597" y2="320" stroke="#202020" stroke-width="1"/>
<text x="787.0" y="357" text-anchor="middle" font-family="Arial, sans-serif" font-size="10" fill="#555555">normalized substrate</text>
<text x="557" y="221.0" transform="rotate(-90 557 221.0)" text-anchor="middle" font-family="Arial, sans-serif" font-size="10" fill="#555555">rate</text>
<path d="M597.0 302.0 L598.7 292.2 L600.5 283.5 L602.2 275.6 L603.9 268.4 L605.6 261.9 L607.4 255.9 L609.1 250.4 L610.8 245.4 L612.5 240.7 L614.3 236.4 L616.0 232.4 L617.7 228.6 L619.5 225.1 L621.2 221.8 L622.9 218.8 L624.6 215.9 L626.4 213.2 L628.1 210.6 L629.8 208.2 L631.5 205.9 L633.3 203.7 L635.0 201.6 L636.7 199.6 L638.5 197.8 L640.2 196.0 L641.9 194.3 L643.6 192.7 L645.4 191.1 L647.1 189.6 L648.8 188.2 L650.5 186.8 L652.3 185.5 L654.0 184.3 L655.7 183.1 L657.5 181.9 L659.2 180.8 L660.9 179.7 L662.6 178.7 L664.4 177.7 L666.1 176.7 L667.8 175.8 L669.5 174.9 L671.3 174.0 L673.0 173.1 L674.7 172.3 L676.5 171.5 L678.2 170.8 L679.9 170.0 L681.6 169.3 L683.4 168.6 L685.1 167.9 L686.8 167.3 L688.5 166.6 L690.3 166.0 L692.0 165.4 L693.7 164.8 L695.5 164.2 L697.2 163.7 L698.9 163.1 L700.6 162.6 L702.4 162.1 L704.1 161.6 L705.8 161.1 L707.5 160.6 L709.3 160.1 L711.0 159.7 L712.7 159.2 L714.5 158.8 L716.2 158.4 L717.9 158.0 L719.6 157.6 L721.4 157.2 L723.1 156.8 L724.8 156.4 L726.5 156.0 L728.3 155.7 L730.0 155.3 L731.7 155.0 L733.5 154.6 L735.2 154.3 L736.9 154.0 L738.6 153.6 L740.4 153.3 L742.1 153.0 L743.8 152.7 L745.5 152.4 L747.3 152.1 L749.0 151.9 L750.7 151.6 L752.5 151.3 L754.2 151.0 L755.9 150.8 L757.6 150.5 L759.4 150.3 L761.1 150.0 L762.8 149.8 L764.5 149.5 L766.3 149.3 L768.0 149.0 L769.7 148.8 L771.5 148.6 L773.2 148.4 L774.9 148.2 L776.6 147.9 L778.4 147.7 L780.1 147.5 L781.8 147.3 L783.5 147.1 L785.3 146.9 L787.0 146.7 L788.7 146.5 L790.5 146.3 L792.2 146.2 L793.9 146.0 L795.6 145.8 L797.4 145.6 L799.1 145.4 L800.8 145.3 L802.5 145.1 L804.3 144.9 L806.0 144.8 L807.7 144.6 L809.5 144.4 L811.2 144.3 L812.9 144.1 L814.6 144.0 L816.4 143.8 L818.1 143.7 L819.8 143.5 L821.5 143.4 L823.3 143.2 L825.0 143.1 L826.7 143.0 L828.5 142.8 L830.2 142.7 L831.9 142.6 L833.6 142.4 L835.4 142.3 L837.1 142.2 L838.8 142.0 L840.5 141.9 L842.3 141.8 L844.0 141.7 L845.7 141.5 L847.5 141.4 L849.2 141.3 L850.9 141.2 L852.6 141.1 L854.4 141.0 L856.1 140.8 L857.8 140.7 L859.5 140.6 L861.3 140.5 L863.0 140.4 L864.7 140.3 L866.5 140.2 L868.2 140.1 L869.9 140.0 L871.6 139.9 L873.4 139.8 L875.1 139.7 L876.8 139.6 L878.5 139.5 L880.3 139.4 L882.0 139.3 L883.7 139.2 L885.5 139.1 L887.2 139.0 L888.9 138.9 L890.6 138.9 L892.4 138.8 L894.1 138.7 L895.8 138.6 L897.5 138.5 L899.3 138.4 L901.0 138.3 L902.7 138.3 L904.5 138.2 L906.2 138.1 L907.9 138.0 L909.6 137.9 L911.4 137.8 L913.1 137.8 L914.8 137.7 L916.5 137.6 L918.3 137.5 L920.0 137.5 L921.7 137.4 L923.5 137.3 L925.2 137.2 L926.9 137.2 L928.6 137.1 L930.4 137.0 L932.1 137.0 L933.8 136.9 L935.5 136.8 L937.3 136.7 L939.0 136.7 L940.7 136.6 L942.5 136.5 L944.2 136.5 L945.9 136.4 L947.6 136.4 L949.4 136.3 L951.1 136.2 L952.8 136.2 L954.5 136.1 L956.3 136.0 L958.0 136.0 L959.7 135.9 L961.5 135.9 L963.2 135.8 L964.9 135.7 L966.6 135.7 L968.4 135.6 L970.1 135.6 L971.8 135.5 L973.5 135.4 L975.3 135.4 L977.0 135.3" fill="none" stroke="#202020" stroke-width="1.6" stroke-linecap="round" stroke-linejoin="round"/>
<path d="M597.0 302.0 L598.7 292.2 L600.5 283.5 L602.2 275.6 L603.9 268.4 L605.6 261.9 L607.4 255.9 L609.1 250.4 L610.8 245.4 L612.5 240.7 L614.3 236.4 L616.0 232.4 L617.7 228.6 L619.5 225.1 L621.2 221.8 L622.9 218.8 L624.6 215.9 L626.4 213.2 L628.1 210.6 L629.8 208.2 L631.5 205.9 L633.3 203.7 L635.0 201.6 L636.7 199.6 L638.5 197.8 L640.2 196.0 L641.9 194.3 L643.6 192.7 L645.4 191.1 L647.1 189.6 L648.8 188.2 L650.5 186.8 L652.3 185.5 L654.0 184.3 L655.7 183.1 L657.5 181.9 L659.2 180.8 L660.9 179.7 L662.6 178.7 L664.4 177.7 L666.1 176.7 L667.8 175.8 L669.5 174.9 L671.3 174.0 L673.0 173.1 L674.7 172.3 L676.5 171.5 L678.2 170.8 L679.9 170.0 L681.6 169.3 L683.4 168.6 L685.1 167.9 L686.8 167.3 L688.5 166.6 L690.3 166.0 L692.0 165.4 L693.7 164.8 L695.5 164.2 L697.2 163.7 L698.9 163.1 L700.6 162.6 L702.4 162.1 L704.1 161.6 L705.8 161.1 L707.5 160.6 L709.3 160.1 L711.0 159.7 L712.7 159.2 L714.5 158.8 L716.2 158.4 L717.9 158.0 L719.6 157.6 L721.4 157.2 L723.1 156.8 L724.8 156.4 L726.5 156.0 L728.3 155.7 L730.0 155.3 L731.7 155.0 L733.5 154.6 L735.2 154.3 L736.9 154.0 L738.6 153.6 L740.4 153.3 L742.1 153.0 L743.8 152.7 L745.5 152.4 L747.3 152.1 L749.0 151.9 L750.7 151.6 L752.5 151.3 L754.2 151.0 L755.9 150.8 L757.6 150.5 L759.4 150.3 L761.1 150.0 L762.8 149.8 L764.5 149.5 L766.3 149.3 L768.0 149.0 L769.7 148.8 L771.5 148.6 L773.2 148.4 L774.9 148.2 L776.6 147.9 L778.4 147.7 L780.1 147.5 L781.8 147.3 L783.5 147.1 L785.3 146.9 L787.0 146.7 L788.7 146.5 L790.5 146.3 L792.2 146.2 L793.9 146.0 L795.6 145.8 L797.4 145.6 L799.1 145.4 L800.8 145.3 L802.5 145.1 L804.3 144.9 L806.0 144.8 L807.7 144.6 L809.5 144.4 L811.2 144.3 L812.9 144.1 L814.6 144.0 L816.4 143.8 L818.1 143.7 L819.8 143.5 L821.5 143.4 L823.3 143.2 L825.0 143.1 L826.7 143.0 L828.5 142.8 L830.2 142.7 L831.9 142.6 L833.6 142.4 L835.4 142.3 L837.1 142.2 L838.8 142.0 L840.5 141.9 L842.3 141.8 L844.0 141.7 L845.7 141.5 L847.5 141.4 L849.2 141.3 L850.9 141.2 L852.6 141.1 L854.4 141.0 L856.1 140.8 L857.8 140.7 L859.5 140.6 L861.3 140.5 L863.0 140.4 L864.7 140.3 L866.5 140.2 L868.2 140.1 L869.9 140.0 L871.6 139.9 L873.4 139.8 L875.1 139.7 L876.8 139.6 L878.5 139.5 L880.3 139.4 L882.0 139.3 L883.7 139.2 L885.5 139.1 L887.2 139.0 L888.9 138.9 L890.6 138.9 L892.4 138.8 L894.1 138.7 L895.8 138.6 L897.5 138.5 L899.3 138.4 L901.0 138.3 L902.7 138.3 L904.5 138.2 L906.2 138.1 L907.9 138.0 L909.6 137.9 L911.4 137.8 L913.1 137.8 L914.8 137.7 L916.5 137.6 L918.3 137.5 L920.0 137.5 L921.7 137.4 L923.5 137.3 L925.2 137.2 L926.9 137.2 L928.6 137.1 L930.4 137.0 L932.1 137.0 L933.8 136.9 L935.5 136.8 L937.3 136.7 L939.0 136.7 L940.7 136.6 L942.5 136.5 L944.2 136.5 L945.9 136.4 L947.6 136.4 L949.4 136.3 L951.1 136.2 L952.8 136.2 L954.5 136.1 L956.3 136.0 L958.0 136.0 L959.7 135.9 L961.5 135.9 L963.2 135.8 L964.9 135.7 L966.6 135.7 L968.4 135.6 L970.1 135.6 L971.8 135.5 L973.5 135.4 L975.3 135.4 L977.0 135.3" fill="none" stroke="#1f5a8a" stroke-width="2.8" stroke-linecap="round" stroke-linejoin="round" opacity="0.82"/>
<circle cx="597.0" cy="302.0" r="2.7" fill="#ffffff" stroke="#111111" stroke-width="1.2"/>
<circle cx="627.1" cy="212.1" r="2.7" fill="#ffffff" stroke="#111111" stroke-width="1.2"/>
<circle cx="657.1" cy="182.1" r="2.7" fill="#ffffff" stroke="#111111" stroke-width="1.2"/>
<circle cx="687.2" cy="167.1" r="2.7" fill="#ffffff" stroke="#111111" stroke-width="1.2"/>
<circle cx="717.3" cy="158.1" r="2.7" fill="#ffffff" stroke="#111111" stroke-width="1.2"/>
<circle cx="747.4" cy="152.1" r="2.7" fill="#ffffff" stroke="#111111" stroke-width="1.2"/>
<circle cx="777.4" cy="147.8" r="2.7" fill="#ffffff" stroke="#111111" stroke-width="1.2"/>
<circle cx="807.5" cy="144.6" r="2.7" fill="#ffffff" stroke="#111111" stroke-width="1.2"/>
<circle cx="837.6" cy="142.1" r="2.7" fill="#ffffff" stroke="#111111" stroke-width="1.2"/>
<circle cx="867.6" cy="140.1" r="2.7" fill="#ffffff" stroke="#111111" stroke-width="1.2"/>
<text x="65" y="428" font-family="Arial, sans-serif" font-size="16" font-weight="700" fill="#202020">Bad/stretch: Planck</text>
<text x="65" y="446" font-family="Arial, sans-serif" font-size="11" fill="#555555">diagnostic misses peak and tail</text>
<line x1="117.0" y1="452" x2="117.0" y2="650" stroke="#d6d6d6" stroke-width="0.8"/>
<text x="117.0" y="666" text-anchor="middle" font-family="Arial, sans-serif" font-size="9" fill="#555555">0.2</text>
<line x1="243.7" y1="452" x2="243.7" y2="650" stroke="#d6d6d6" stroke-width="0.8"/>
<text x="243.7" y="666" text-anchor="middle" font-family="Arial, sans-serif" font-size="9" fill="#555555">3.47</text>
<line x1="370.3" y1="452" x2="370.3" y2="650" stroke="#d6d6d6" stroke-width="0.8"/>
<text x="370.3" y="666" text-anchor="middle" font-family="Arial, sans-serif" font-size="9" fill="#555555">6.73</text>
<line x1="497.0" y1="452" x2="497.0" y2="650" stroke="#d6d6d6" stroke-width="0.8"/>
<text x="497.0" y="666" text-anchor="middle" font-family="Arial, sans-serif" font-size="9" fill="#555555">10</text>
<line x1="117" y1="650.0" x2="497" y2="650.0" stroke="#d6d6d6" stroke-width="0.8"/>
<text x="110" y="653.0" text-anchor="end" font-family="Arial, sans-serif" font-size="9" fill="#555555">-0.26</text>
<line x1="117" y1="584.0" x2="497" y2="584.0" stroke="#d6d6d6" stroke-width="0.8"/>
<text x="110" y="587.0" text-anchor="end" font-family="Arial, sans-serif" font-size="9" fill="#555555">1.12</text>
<line x1="117" y1="518.0" x2="497" y2="518.0" stroke="#d6d6d6" stroke-width="0.8"/>
<text x="110" y="521.0" text-anchor="end" font-family="Arial, sans-serif" font-size="9" fill="#555555">2.49</text>
<line x1="117" y1="452.0" x2="497" y2="452.0" stroke="#d6d6d6" stroke-width="0.8"/>
<text x="110" y="455.0" text-anchor="end" font-family="Arial, sans-serif" font-size="9" fill="#555555">3.86</text>
<line x1="117" y1="650" x2="497" y2="650" stroke="#202020" stroke-width="1"/>
<line x1="117" y1="452" x2="117" y2="650" stroke="#202020" stroke-width="1"/>
<text x="307.0" y="687" text-anchor="middle" font-family="Arial, sans-serif" font-size="10" fill="#555555">normalized frequency</text>
<text x="77" y="551.0" transform="rotate(-90 77 551.0)" text-anchor="middle" font-family="Arial, sans-serif" font-size="10" fill="#555555">shape</text>
<path d="M117.0 635.9 L118.7 635.1 L120.5 634.2 L122.2 633.1 L123.9 632.0 L125.6 630.7 L127.4 629.4 L129.1 628.0 L130.8 626.5 L132.5 625.0 L134.3 623.4 L136.0 621.8 L137.7 620.1 L139.5 618.4 L141.2 616.6 L142.9 614.9 L144.6 613.1 L146.4 611.4 L148.1 609.6 L149.8 607.8 L151.5 606.1 L153.3 604.3 L155.0 602.6 L156.7 600.9 L158.5 599.2 L160.2 597.6 L161.9 596.0 L163.6 594.4 L165.4 592.8 L167.1 591.3 L168.8 589.9 L170.5 588.4 L172.3 587.1 L174.0 585.7 L175.7 584.5 L177.5 583.2 L179.2 582.0 L180.9 580.9 L182.6 579.8 L184.4 578.8 L186.1 577.9 L187.8 576.9 L189.5 576.1 L191.3 575.3 L193.0 574.5 L194.7 573.8 L196.5 573.2 L198.2 572.6 L199.9 572.0 L201.6 571.5 L203.4 571.1 L205.1 570.7 L206.8 570.4 L208.5 570.1 L210.3 569.9 L212.0 569.7 L213.7 569.5 L215.5 569.4 L217.2 569.4 L218.9 569.3 L220.6 569.4 L222.4 569.4 L224.1 569.5 L225.8 569.7 L227.5 569.9 L229.3 570.1 L231.0 570.3 L232.7 570.6 L234.5 570.9 L236.2 571.3 L237.9 571.7 L239.6 572.1 L241.4 572.5 L243.1 573.0 L244.8 573.4 L246.5 574.0 L248.3 574.5 L250.0 575.0 L251.7 575.6 L253.5 576.2 L255.2 576.8 L256.9 577.4 L258.6 578.1 L260.4 578.7 L262.1 579.4 L263.8 580.1 L265.5 580.7 L267.3 581.4 L269.0 582.1 L270.7 582.9 L272.5 583.6 L274.2 584.3 L275.9 585.1 L277.6 585.8 L279.4 586.5 L281.1 587.3 L282.8 588.0 L284.5 588.8 L286.3 589.6 L288.0 590.3 L289.7 591.1 L291.5 591.8 L293.2 592.6 L294.9 593.3 L296.6 594.1 L298.4 594.8 L300.1 595.6 L301.8 596.3 L303.5 597.1 L305.3 597.8 L307.0 598.5 L308.7 599.3 L310.5 600.0 L312.2 600.7 L313.9 601.4 L315.6 602.1 L317.4 602.8 L319.1 603.5 L320.8 604.2 L322.5 604.8 L324.3 605.5 L326.0 606.2 L327.7 606.8 L329.5 607.5 L331.2 608.1 L332.9 608.7 L334.6 609.3 L336.4 610.0 L338.1 610.6 L339.8 611.1 L341.5 611.7 L343.3 612.3 L345.0 612.9 L346.7 613.4 L348.5 614.0 L350.2 614.5 L351.9 615.0 L353.6 615.6 L355.4 616.1 L357.1 616.6 L358.8 617.1 L360.5 617.6 L362.3 618.0 L364.0 618.5 L365.7 619.0 L367.5 619.4 L369.2 619.9 L370.9 620.3 L372.6 620.7 L374.4 621.1 L376.1 621.6 L377.8 622.0 L379.5 622.3 L381.3 622.7 L383.0 623.1 L384.7 623.5 L386.5 623.8 L388.2 624.2 L389.9 624.5 L391.6 624.9 L393.4 625.2 L395.1 625.5 L396.8 625.8 L398.5 626.2 L400.3 626.5 L402.0 626.8 L403.7 627.0 L405.5 627.3 L407.2 627.6 L408.9 627.9 L410.6 628.1 L412.4 628.4 L414.1 628.6 L415.8 628.9 L417.5 629.1 L419.3 629.4 L421.0 629.6 L422.7 629.8 L424.5 630.0 L426.2 630.2 L427.9 630.4 L429.6 630.6 L431.4 630.8 L433.1 631.0 L434.8 631.2 L436.5 631.4 L438.3 631.6 L440.0 631.8 L441.7 631.9 L443.5 632.1 L445.2 632.2 L446.9 632.4 L448.6 632.5 L450.4 632.7 L452.1 632.8 L453.8 633.0 L455.5 633.1 L457.3 633.2 L459.0 633.4 L460.7 633.5 L462.5 633.6 L464.2 633.7 L465.9 633.9 L467.6 634.0 L469.4 634.1 L471.1 634.2 L472.8 634.3 L474.5 634.4 L476.3 634.5 L478.0 634.6 L479.7 634.7 L481.5 634.8 L483.2 634.8 L484.9 634.9 L486.6 635.0 L488.4 635.1 L490.1 635.2 L491.8 635.2 L493.5 635.3 L495.3 635.4 L497.0 635.5" fill="none" stroke="#202020" stroke-width="1.6" stroke-linecap="round" stroke-linejoin="round"/>
<path d="M117.0 636.3 L118.7 635.7 L120.5 635.0 L122.2 634.2 L123.9 633.3 L125.6 632.3 L127.4 631.2 L129.1 630.0 L130.8 628.7 L132.5 627.4 L134.3 626.0 L136.0 624.5 L137.7 623.0 L139.5 621.4 L141.2 619.8 L142.9 618.1 L144.6 616.3 L146.4 614.5 L148.1 612.7 L149.8 610.8 L151.5 608.9 L153.3 607.0 L155.0 605.0 L156.7 603.0 L158.5 601.0 L160.2 598.9 L161.9 596.9 L163.6 594.8 L165.4 592.7 L167.1 590.6 L168.8 588.5 L170.5 586.3 L172.3 584.2 L174.0 582.0 L175.7 579.9 L177.5 577.7 L179.2 575.6 L180.9 573.4 L182.6 571.3 L184.4 569.1 L186.1 567.0 L187.8 564.8 L189.5 562.7 L191.3 560.6 L193.0 558.5 L194.7 556.4 L196.5 554.3 L198.2 552.3 L199.9 550.2 L201.6 548.2 L203.4 546.1 L205.1 544.1 L206.8 542.1 L208.5 540.2 L210.3 538.2 L212.0 536.3 L213.7 534.4 L215.5 532.5 L217.2 530.7 L218.9 528.8 L220.6 527.0 L222.4 525.2 L224.1 523.4 L225.8 521.7 L227.5 520.0 L229.3 518.3 L231.0 516.6 L232.7 515.0 L234.5 513.4 L236.2 511.8 L237.9 510.2 L239.6 508.7 L241.4 507.2 L243.1 505.7 L244.8 504.2 L246.5 502.8 L248.3 501.4 L250.0 500.0 L251.7 498.7 L253.5 497.4 L255.2 496.1 L256.9 494.8 L258.6 493.6 L260.4 492.4 L262.1 491.2 L263.8 490.1 L265.5 489.0 L267.3 487.9 L269.0 486.8 L270.7 485.8 L272.5 484.8 L274.2 483.8 L275.9 482.9 L277.6 482.0 L279.4 481.1 L281.1 480.2 L282.8 479.4 L284.5 478.6 L286.3 477.8 L288.0 477.0 L289.7 476.3 L291.5 475.6 L293.2 474.9 L294.9 474.3 L296.6 473.6 L298.4 473.0 L300.1 472.5 L301.8 471.9 L303.5 471.4 L305.3 470.9 L307.0 470.4 L308.7 470.0 L310.5 469.5 L312.2 469.1 L313.9 468.8 L315.6 468.4 L317.4 468.1 L319.1 467.8 L320.8 467.5 L322.5 467.2 L324.3 467.0 L326.0 466.7 L327.7 466.5 L329.5 466.4 L331.2 466.2 L332.9 466.1 L334.6 465.9 L336.4 465.9 L338.1 465.8 L339.8 465.7 L341.5 465.7 L343.3 465.7 L345.0 465.7 L346.7 465.7 L348.5 465.7 L350.2 465.8 L351.9 465.8 L353.6 465.9 L355.4 466.0 L357.1 466.1 L358.8 466.3 L360.5 466.4 L362.3 466.6 L364.0 466.8 L365.7 467.0 L367.5 467.2 L369.2 467.5 L370.9 467.7 L372.6 468.0 L374.4 468.2 L376.1 468.5 L377.8 468.8 L379.5 469.1 L381.3 469.5 L383.0 469.8 L384.7 470.2 L386.5 470.5 L388.2 470.9 L389.9 471.3 L391.6 471.7 L393.4 472.1 L395.1 472.6 L396.8 473.0 L398.5 473.4 L400.3 473.9 L402.0 474.4 L403.7 474.9 L405.5 475.3 L407.2 475.8 L408.9 476.3 L410.6 476.9 L412.4 477.4 L414.1 477.9 L415.8 478.5 L417.5 479.0 L419.3 479.6 L421.0 480.1 L422.7 480.7 L424.5 481.3 L426.2 481.9 L427.9 482.5 L429.6 483.1 L431.4 483.7 L433.1 484.3 L434.8 484.9 L436.5 485.5 L438.3 486.2 L440.0 486.8 L441.7 487.5 L443.5 488.1 L445.2 488.8 L446.9 489.4 L448.6 490.1 L450.4 490.8 L452.1 491.4 L453.8 492.1 L455.5 492.8 L457.3 493.5 L459.0 494.2 L460.7 494.9 L462.5 495.6 L464.2 496.3 L465.9 497.0 L467.6 497.7 L469.4 498.4 L471.1 499.1 L472.8 499.8 L474.5 500.5 L476.3 501.3 L478.0 502.0 L479.7 502.7 L481.5 503.4 L483.2 504.2 L484.9 504.9 L486.6 505.6 L488.4 506.3 L490.1 507.1 L491.8 507.8 L493.5 508.6 L495.3 509.3 L497.0 510.0" fill="none" stroke="#9a4a14" stroke-width="2.8" stroke-linecap="round" stroke-linejoin="round" opacity="0.82"/>
<circle cx="117.0" cy="635.9" r="2.7" fill="#ffffff" stroke="#111111" stroke-width="1.2"/>
<circle cx="146.3" cy="611.4" r="2.7" fill="#ffffff" stroke="#111111" stroke-width="1.2"/>
<circle cx="175.6" cy="584.6" r="2.7" fill="#ffffff" stroke="#111111" stroke-width="1.2"/>
<circle cx="204.9" cy="570.8" r="2.7" fill="#ffffff" stroke="#111111" stroke-width="1.2"/>
<circle cx="234.2" cy="570.9" r="2.7" fill="#ffffff" stroke="#111111" stroke-width="1.2"/>
<circle cx="263.5" cy="579.9" r="2.7" fill="#ffffff" stroke="#111111" stroke-width="1.2"/>
<circle cx="292.8" cy="592.4" r="2.7" fill="#ffffff" stroke="#111111" stroke-width="1.2"/>
<circle cx="322.1" cy="604.7" r="2.7" fill="#ffffff" stroke="#111111" stroke-width="1.2"/>
<circle cx="351.4" cy="614.9" r="2.7" fill="#ffffff" stroke="#111111" stroke-width="1.2"/>
<circle cx="380.7" cy="622.6" r="2.7" fill="#ffffff" stroke="#111111" stroke-width="1.2"/>
<text x="545" y="428" font-family="Arial, sans-serif" font-size="16" font-weight="700" fill="#202020">Bad/stretch: Logistic</text>
<text x="545" y="446" font-family="Arial, sans-serif" font-size="11" fill="#555555">low-budget diagnostic underfits saturation</text>
<line x1="597.0" y1="452" x2="597.0" y2="650" stroke="#d6d6d6" stroke-width="0.8"/>
<text x="597.0" y="666" text-anchor="middle" font-family="Arial, sans-serif" font-size="9" fill="#555555">0</text>
<line x1="723.7" y1="452" x2="723.7" y2="650" stroke="#d6d6d6" stroke-width="0.8"/>
<text x="723.7" y="666" text-anchor="middle" font-family="Arial, sans-serif" font-size="9" fill="#555555">2.33</text>
<line x1="850.3" y1="452" x2="850.3" y2="650" stroke="#d6d6d6" stroke-width="0.8"/>
<text x="850.3" y="666" text-anchor="middle" font-family="Arial, sans-serif" font-size="9" fill="#555555">4.67</text>
<line x1="977.0" y1="452" x2="977.0" y2="650" stroke="#d6d6d6" stroke-width="0.8"/>
<text x="977.0" y="666" text-anchor="middle" font-family="Arial, sans-serif" font-size="9" fill="#555555">7</text>
<line x1="597" y1="650.0" x2="977" y2="650.0" stroke="#d6d6d6" stroke-width="0.8"/>
<text x="590" y="653.0" text-anchor="end" font-family="Arial, sans-serif" font-size="9" fill="#555555">0</text>
<line x1="597" y1="584.0" x2="977" y2="584.0" stroke="#d6d6d6" stroke-width="0.8"/>
<text x="590" y="587.0" text-anchor="end" font-family="Arial, sans-serif" font-size="9" fill="#555555">0.35</text>
<line x1="597" y1="518.0" x2="977" y2="518.0" stroke="#d6d6d6" stroke-width="0.8"/>
<text x="590" y="521.0" text-anchor="end" font-family="Arial, sans-serif" font-size="9" fill="#555555">0.7</text>
<line x1="597" y1="452.0" x2="977" y2="452.0" stroke="#d6d6d6" stroke-width="0.8"/>
<text x="590" y="455.0" text-anchor="end" font-family="Arial, sans-serif" font-size="9" fill="#555555">1.05</text>
<line x1="597" y1="650" x2="977" y2="650" stroke="#202020" stroke-width="1"/>
<line x1="597" y1="452" x2="597" y2="650" stroke="#202020" stroke-width="1"/>
<text x="787.0" y="687" text-anchor="middle" font-family="Arial, sans-serif" font-size="10" fill="#555555">time</text>
<text x="557" y="551.0" transform="rotate(-90 557 551.0)" text-anchor="middle" font-family="Arial, sans-serif" font-size="10" fill="#555555">scale</text>
<path d="M597.0 587.3 L598.7 585.6 L600.5 583.8 L602.2 582.1 L603.9 580.3 L605.6 578.4 L607.4 576.6 L609.1 574.7 L610.8 572.9 L612.5 571.0 L614.3 569.1 L616.0 567.2 L617.7 565.2 L619.5 563.3 L621.2 561.4 L622.9 559.4 L624.6 557.5 L626.4 555.5 L628.1 553.6 L629.8 551.7 L631.5 549.7 L633.3 547.8 L635.0 545.9 L636.7 543.9 L638.5 542.0 L640.2 540.1 L641.9 538.3 L643.6 536.4 L645.4 534.5 L647.1 532.7 L648.8 530.9 L650.5 529.1 L652.3 527.3 L654.0 525.6 L655.7 523.8 L657.5 522.1 L659.2 520.5 L660.9 518.8 L662.6 517.2 L664.4 515.6 L666.1 514.0 L667.8 512.5 L669.5 511.0 L671.3 509.5 L673.0 508.0 L674.7 506.6 L676.5 505.2 L678.2 503.9 L679.9 502.5 L681.6 501.2 L683.4 500.0 L685.1 498.7 L686.8 497.5 L688.5 496.3 L690.3 495.2 L692.0 494.1 L693.7 493.0 L695.5 491.9 L697.2 490.9 L698.9 489.9 L700.6 489.0 L702.4 488.0 L704.1 487.1 L705.8 486.2 L707.5 485.4 L709.3 484.5 L711.0 483.7 L712.7 482.9 L714.5 482.2 L716.2 481.4 L717.9 480.7 L719.6 480.1 L721.4 479.4 L723.1 478.7 L724.8 478.1 L726.5 477.5 L728.3 477.0 L730.0 476.4 L731.7 475.9 L733.5 475.3 L735.2 474.8 L736.9 474.3 L738.6 473.9 L740.4 473.4 L742.1 473.0 L743.8 472.6 L745.5 472.2 L747.3 471.8 L749.0 471.4 L750.7 471.0 L752.5 470.7 L754.2 470.4 L755.9 470.0 L757.6 469.7 L759.4 469.4 L761.1 469.1 L762.8 468.9 L764.5 468.6 L766.3 468.3 L768.0 468.1 L769.7 467.8 L771.5 467.6 L773.2 467.4 L774.9 467.2 L776.6 467.0 L778.4 466.8 L780.1 466.6 L781.8 466.4 L783.5 466.2 L785.3 466.1 L787.0 465.9 L788.7 465.8 L790.5 465.6 L792.2 465.5 L793.9 465.3 L795.6 465.2 L797.4 465.1 L799.1 465.0 L800.8 464.8 L802.5 464.7 L804.3 464.6 L806.0 464.5 L807.7 464.4 L809.5 464.3 L811.2 464.2 L812.9 464.1 L814.6 464.1 L816.4 464.0 L818.1 463.9 L819.8 463.8 L821.5 463.7 L823.3 463.7 L825.0 463.6 L826.7 463.5 L828.5 463.5 L830.2 463.4 L831.9 463.4 L833.6 463.3 L835.4 463.3 L837.1 463.2 L838.8 463.2 L840.5 463.1 L842.3 463.1 L844.0 463.0 L845.7 463.0 L847.5 463.0 L849.2 462.9 L850.9 462.9 L852.6 462.8 L854.4 462.8 L856.1 462.8 L857.8 462.8 L859.5 462.7 L861.3 462.7 L863.0 462.7 L864.7 462.6 L866.5 462.6 L868.2 462.6 L869.9 462.6 L871.6 462.5 L873.4 462.5 L875.1 462.5 L876.8 462.5 L878.5 462.5 L880.3 462.4 L882.0 462.4 L883.7 462.4 L885.5 462.4 L887.2 462.4 L888.9 462.4 L890.6 462.4 L892.4 462.3 L894.1 462.3 L895.8 462.3 L897.5 462.3 L899.3 462.3 L901.0 462.3 L902.7 462.3 L904.5 462.3 L906.2 462.3 L907.9 462.2 L909.6 462.2 L911.4 462.2 L913.1 462.2 L914.8 462.2 L916.5 462.2 L918.3 462.2 L920.0 462.2 L921.7 462.2 L923.5 462.2 L925.2 462.2 L926.9 462.2 L928.6 462.2 L930.4 462.2 L932.1 462.1 L933.8 462.1 L935.5 462.1 L937.3 462.1 L939.0 462.1 L940.7 462.1 L942.5 462.1 L944.2 462.1 L945.9 462.1 L947.6 462.1 L949.4 462.1 L951.1 462.1 L952.8 462.1 L954.5 462.1 L956.3 462.1 L958.0 462.1 L959.7 462.1 L961.5 462.1 L963.2 462.1 L964.9 462.1 L966.6 462.1 L968.4 462.1 L970.1 462.1 L971.8 462.1 L973.5 462.1 L975.3 462.1 L977.0 462.1" fill="none" stroke="#202020" stroke-width="1.6" stroke-linecap="round" stroke-linejoin="round"/>
<path d="M597.0 586.1 L598.7 585.5 L600.5 585.0 L602.2 584.4 L603.9 583.8 L605.6 583.2 L607.4 582.7 L609.1 582.1 L610.8 581.5 L612.5 581.0 L614.3 580.4 L616.0 579.8 L617.7 579.3 L619.5 578.7 L621.2 578.1 L622.9 577.6 L624.6 577.0 L626.4 576.4 L628.1 575.9 L629.8 575.3 L631.5 574.7 L633.3 574.2 L635.0 573.6 L636.7 573.0 L638.5 572.5 L640.2 571.9 L641.9 571.3 L643.6 570.7 L645.4 570.2 L647.1 569.6 L648.8 569.0 L650.5 568.5 L652.3 567.9 L654.0 567.3 L655.7 566.8 L657.5 566.2 L659.2 565.6 L660.9 565.1 L662.6 564.5 L664.4 563.9 L666.1 563.4 L667.8 562.8 L669.5 562.2 L671.3 561.7 L673.0 561.1 L674.7 560.5 L676.5 560.0 L678.2 559.4 L679.9 558.8 L681.6 558.2 L683.4 557.7 L685.1 557.1 L686.8 556.5 L688.5 556.0 L690.3 555.4 L692.0 554.8 L693.7 554.3 L695.5 553.7 L697.2 553.1 L698.9 552.6 L700.6 552.0 L702.4 551.4 L704.1 550.9 L705.8 550.3 L707.5 549.7 L709.3 549.2 L711.0 548.6 L712.7 548.0 L714.5 547.5 L716.2 546.9 L717.9 546.3 L719.6 545.7 L721.4 545.2 L723.1 544.6 L724.8 544.0 L726.5 543.5 L728.3 542.9 L730.0 542.3 L731.7 541.8 L733.5 541.2 L735.2 540.6 L736.9 540.1 L738.6 539.5 L740.4 538.9 L742.1 538.4 L743.8 537.8 L745.5 537.2 L747.3 536.7 L749.0 536.1 L750.7 535.5 L752.5 535.0 L754.2 534.4 L755.9 533.8 L757.6 533.2 L759.4 532.7 L761.1 532.1 L762.8 531.5 L764.5 531.0 L766.3 530.4 L768.0 529.8 L769.7 529.3 L771.5 528.7 L773.2 528.1 L774.9 527.6 L776.6 527.0 L778.4 526.4 L780.1 525.9 L781.8 525.3 L783.5 524.7 L785.3 524.2 L787.0 523.6 L788.7 523.0 L790.5 522.5 L792.2 521.9 L793.9 521.3 L795.6 520.7 L797.4 520.2 L799.1 519.6 L800.8 519.0 L802.5 518.5 L804.3 517.9 L806.0 517.3 L807.7 516.8 L809.5 516.2 L811.2 515.6 L812.9 515.1 L814.6 514.5 L816.4 513.9 L818.1 513.4 L819.8 512.8 L821.5 512.2 L823.3 511.7 L825.0 511.1 L826.7 510.5 L828.5 510.0 L830.2 509.4 L831.9 508.8 L833.6 508.2 L835.4 507.7 L837.1 507.1 L838.8 506.5 L840.5 506.0 L842.3 505.4 L844.0 504.8 L845.7 504.3 L847.5 503.7 L849.2 503.1 L850.9 502.6 L852.6 502.0 L854.4 501.4 L856.1 500.9 L857.8 500.3 L859.5 499.7 L861.3 499.2 L863.0 498.6 L864.7 498.0 L866.5 497.4 L868.2 496.9 L869.9 496.3 L871.6 495.7 L873.4 495.2 L875.1 494.6 L876.8 494.0 L878.5 493.5 L880.3 492.9 L882.0 492.3 L883.7 491.8 L885.5 491.2 L887.2 490.6 L888.9 490.1 L890.6 489.5 L892.4 488.9 L894.1 488.4 L895.8 487.8 L897.5 487.2 L899.3 486.7 L901.0 486.1 L902.7 485.5 L904.5 484.9 L906.2 484.4 L907.9 483.8 L909.6 483.2 L911.4 482.7 L913.1 482.1 L914.8 481.5 L916.5 481.0 L918.3 480.4 L920.0 479.8 L921.7 479.3 L923.5 478.7 L925.2 478.1 L926.9 477.6 L928.6 477.0 L930.4 476.4 L932.1 475.9 L933.8 475.3 L935.5 474.7 L937.3 474.2 L939.0 473.6 L940.7 473.0 L942.5 472.4 L944.2 471.9 L945.9 471.3 L947.6 470.7 L949.4 470.2 L951.1 469.6 L952.8 469.0 L954.5 468.5 L956.3 467.9 L958.0 467.3 L959.7 466.8 L961.5 466.2 L963.2 465.6 L964.9 465.1 L966.6 464.5 L968.4 463.9 L970.1 463.4 L971.8 462.8 L973.5 462.2 L975.3 462.0 L977.0 462.0" fill="none" stroke="#9a4a14" stroke-width="2.8" stroke-linecap="round" stroke-linejoin="round" opacity="0.82"/>
<circle cx="597.0" cy="587.3" r="2.7" fill="#ffffff" stroke="#111111" stroke-width="1.2"/>
<circle cx="627.2" cy="554.6" r="2.7" fill="#ffffff" stroke="#111111" stroke-width="1.2"/>
<circle cx="657.3" cy="522.3" r="2.7" fill="#ffffff" stroke="#111111" stroke-width="1.2"/>
<circle cx="687.5" cy="497.1" r="2.7" fill="#ffffff" stroke="#111111" stroke-width="1.2"/>
<circle cx="717.6" cy="480.8" r="2.7" fill="#ffffff" stroke="#111111" stroke-width="1.2"/>
<circle cx="747.8" cy="471.7" r="2.7" fill="#ffffff" stroke="#111111" stroke-width="1.2"/>
<circle cx="778.0" cy="466.8" r="2.7" fill="#ffffff" stroke="#111111" stroke-width="1.2"/>
<circle cx="808.1" cy="464.4" r="2.7" fill="#ffffff" stroke="#111111" stroke-width="1.2"/>
<circle cx="838.3" cy="463.2" r="2.7" fill="#ffffff" stroke="#111111" stroke-width="1.2"/>
<circle cx="868.4" cy="462.6" r="2.7" fill="#ffffff" stroke="#111111" stroke-width="1.2"/>
<line x1="270" y1="705" x2="305" y2="705" stroke="#202020" stroke-width="1.8"/>
<text x="314" y="709" font-family="Arial, sans-serif" font-size="12" fill="#202020">target</text>
<line x1="400" y1="705" x2="435" y2="705" stroke="#1f5a8a" stroke-width="3" opacity="0.82"/>
<text x="444" y="709" font-family="Arial, sans-serif" font-size="12" fill="#202020">good candidate</text>
<line x1="580" y1="705" x2="615" y2="705" stroke="#9a4a14" stroke-width="3" opacity="0.82"/>
<text x="624" y="709" font-family="Arial, sans-serif" font-size="12" fill="#202020">diagnostic candidate</text>
<circle cx="765" cy="705" r="3" fill="#ffffff" stroke="#111111" stroke-width="1.2"/>
<text x="776" y="709" font-family="Arial, sans-serif" font-size="12" fill="#202020">training samples</text>
</svg>
