<svg xmlns="http://www.w3.org/2000/svg" width="1120" height="980" viewBox="0 0 1120 980" role="img" aria-labelledby="title desc">
  <title id="title">Current target, data, and EML curves</title>
  <desc id="desc">Twelve target panels with function names, formulas, axis names, target lines, training dots, validation triangles, verified EML curves, and fixed unverified EML trial curves where needed.</desc>
  <style>
    text { font-family: "Times New Roman", Times, serif; fill: #000000; }
    .legend { font-size: 14px; }
    .formula-name { font-size: 12px; font-weight: 700; }
    .formula-expr { font-size: 11px; }
    .axis-label { font-size: 11px; font-style: italic; }
    .axis { stroke: #000000; stroke-width: 1; }
    .grid { stroke: #d0d0d0; stroke-width: 0.6; }
    .target-line { fill: none; stroke: #000000; stroke-width: 1.1; stroke-linejoin: miter; stroke-linecap: butt; }
    .eml-line { fill: none; stroke: #008000; stroke-width: 2.1; stroke-dasharray: 7 4; stroke-linejoin: miter; stroke-linecap: butt; }
    .unverified-eml-line { fill: none; stroke: #666666; stroke-width: 1.8; stroke-dasharray: 2 4; stroke-linejoin: miter; stroke-linecap: butt; }
    .train { fill: #0057b8; stroke: #000000; stroke-width: 0.45; }
    .validation { fill: #cc0000; stroke: #000000; stroke-width: 0.45; }
    .panel { fill: #ffffff; stroke: #888888; stroke-width: 1; }
  </style>
  <rect width="1120" height="980" fill="#ffffff"/>
  <line x1="54" y1="40" x2="98" y2="40" class="target-line"/>
  <text x="108" y="45" class="legend">target</text>
  <line x1="184" y1="40" x2="228" y2="40" class="eml-line"/>
  <text x="238" y="45" class="legend">verified EML</text>
  <line x1="364" y1="40" x2="408" y2="40" class="unverified-eml-line"/>
  <text x="418" y="45" class="legend">unverified EML trial</text>
  <circle cx="630" cy="40" r="4" class="train"/>
  <text x="642" y="45" class="legend">training data</text>
  <polygon points="790,34 784,46 796,46" class="validation"/>
  <text x="806" y="45" class="legend">validation data</text>
  <rect x="52" y="92" width="322" height="188" class="panel"/>
  <text x="65.0" y="114.0" class="formula-name">exp</text>
  <text x="65.0" y="129.0" class="formula-expr">exp(x)</text>
  <line x1="86.0" y1="146.0" x2="350.0" y2="146.0" class="grid"/>
  <line x1="86.0" y1="195.0" x2="350.0" y2="195.0" class="grid"/>
  <line x1="86.0" y1="244.0" x2="350.0" y2="244.0" class="axis"/>
  <line x1="86.0" y1="146.0" x2="86.0" y2="244.0" class="axis"/>
  <text x="342.0" y="261.0" class="axis-label">x</text>
  <text x="68.0" y="154.0" class="axis-label">y</text>
  <polyline points="86.0,237.2 88.7,237.0 91.3,236.7 94.0,236.4 96.7,236.1 99.3,235.8 102.0,235.5 104.7,235.2 107.3,234.9 110.0,234.6 112.7,234.3 115.3,234.0 118.0,233.6 120.7,233.3 123.3,232.9 126.0,232.6 128.7,232.2 131.3,231.8 134.0,231.4 136.7,231.1 139.3,230.7 142.0,230.3 144.7,229.8 147.3,229.4 150.0,229.0 152.7,228.6 155.3,228.1 158.0,227.6 160.7,227.2 163.3,226.7 166.0,226.2 168.7,225.7 171.3,225.2 174.0,224.7 176.7,224.2 179.3,223.6 182.0,223.1 184.7,222.5 187.3,222.0 190.0,221.4 192.7,220.8 195.3,220.2 198.0,219.6 200.7,218.9 203.3,218.3 206.0,217.6 208.7,217.0 211.3,216.3 214.0,215.6 216.7,214.9 219.3,214.2 222.0,213.4 224.7,212.7 227.3,211.9 230.0,211.1 232.7,210.3 235.3,209.5 238.0,208.6 240.7,207.8 243.3,206.9 246.0,206.0 248.7,205.1 251.3,204.2 254.0,203.3 256.7,202.3 259.3,201.3 262.0,200.3 264.7,199.3 267.3,198.2 270.0,197.2 272.7,196.1 275.3,195.0 278.0,193.8 280.7,192.7 283.3,191.5 286.0,190.3 288.7,189.1 291.3,187.8 294.0,186.5 296.7,185.2 299.3,183.9 302.0,182.5 304.7,181.2 307.3,179.7 310.0,178.3 312.7,176.8 315.3,175.3 318.0,173.8 320.7,172.2 323.3,170.6 326.0,169.0 328.7,167.3 331.3,165.6 334.0,163.9 336.7,162.1 339.3,160.3 342.0,158.5 344.7,156.6 347.3,154.7 350.0,152.8" class="target-line"/>
  <circle cx="86.1" cy="237.2" r="3.2" class="train"/>
  <circle cx="119.8" cy="233.4" r="3.2" class="train"/>
  <circle cx="162.0" cy="227.0" r="3.2" class="train"/>
  <circle cx="196.6" cy="219.9" r="3.2" class="train"/>
  <circle cx="239.5" cy="208.2" r="3.2" class="train"/>
  <circle cx="273.0" cy="195.9" r="3.2" class="train"/>
  <circle cx="315.4" cy="175.3" r="3.2" class="train"/>
  <circle cx="349.9" cy="152.8" r="3.2" class="train"/>
  <polygon points="112.3,228.8 106.8,239.8 117.8,239.8" class="validation"/>
  <polygon points="140.7,225.0 135.2,236.0 146.2,236.0" class="validation"/>
  <polygon points="168.4,220.3 162.9,231.3 173.9,231.3" class="validation"/>
  <polygon points="197.2,214.3 191.7,225.3 202.7,225.3" class="validation"/>
  <polygon points="239.8,202.6 234.3,213.6 245.3,213.6" class="validation"/>
  <polygon points="267.6,192.6 262.1,203.6 273.1,203.6" class="validation"/>
  <polygon points="295.3,180.4 289.8,191.4 300.8,191.4" class="validation"/>
  <polygon points="324.4,164.5 318.9,175.5 329.9,175.5" class="validation"/>
  <polyline points="86.0,237.2 88.7,237.0 91.3,236.7 94.0,236.4 96.7,236.1 99.3,235.8 102.0,235.5 104.7,235.2 107.3,234.9 110.0,234.6 112.7,234.3 115.3,234.0 118.0,233.6 120.7,233.3 123.3,232.9 126.0,232.6 128.7,232.2 131.3,231.8 134.0,231.4 136.7,231.1 139.3,230.7 142.0,230.3 144.7,229.8 147.3,229.4 150.0,229.0 152.7,228.6 155.3,228.1 158.0,227.6 160.7,227.2 163.3,226.7 166.0,226.2 168.7,225.7 171.3,225.2 174.0,224.7 176.7,224.2 179.3,223.6 182.0,223.1 184.7,222.5 187.3,222.0 190.0,221.4 192.7,220.8 195.3,220.2 198.0,219.6 200.7,218.9 203.3,218.3 206.0,217.6 208.7,217.0 211.3,216.3 214.0,215.6 216.7,214.9 219.3,214.2 222.0,213.4 224.7,212.7 227.3,211.9 230.0,211.1 232.7,210.3 235.3,209.5 238.0,208.6 240.7,207.8 243.3,206.9 246.0,206.0 248.7,205.1 251.3,204.2 254.0,203.3 256.7,202.3 259.3,201.3 262.0,200.3 264.7,199.3 267.3,198.2 270.0,197.2 272.7,196.1 275.3,195.0 278.0,193.8 280.7,192.7 283.3,191.5 286.0,190.3 288.7,189.1 291.3,187.8 294.0,186.5 296.7,185.2 299.3,183.9 302.0,182.5 304.7,181.2 307.3,179.7 310.0,178.3 312.7,176.8 315.3,175.3 318.0,173.8 320.7,172.2 323.3,170.6 326.0,169.0 328.7,167.3 331.3,165.6 334.0,163.9 336.7,162.1 339.3,160.3 342.0,158.5 344.7,156.6 347.3,154.7 350.0,152.8" class="eml-line"/>
  <rect x="408" y="92" width="322" height="188" class="panel"/>
  <text x="421.0" y="114.0" class="formula-name">log</text>
  <text x="421.0" y="129.0" class="formula-expr">log(x)</text>
  <line x1="442.0" y1="146.0" x2="706.0" y2="146.0" class="grid"/>
  <line x1="442.0" y1="195.0" x2="706.0" y2="195.0" class="grid"/>
  <line x1="442.0" y1="244.0" x2="706.0" y2="244.0" class="axis"/>
  <line x1="442.0" y1="146.0" x2="442.0" y2="244.0" class="axis"/>
  <text x="698.0" y="261.0" class="axis-label">x</text>
  <text x="424.0" y="154.0" class="axis-label">y</text>
  <polyline points="442.0,237.2 444.7,233.7 447.3,230.4 450.0,227.5 452.7,224.7 455.3,222.2 458.0,219.9 460.7,217.7 463.3,215.6 466.0,213.7 468.7,211.8 471.3,210.1 474.0,208.4 476.7,206.9 479.3,205.3 482.0,203.9 484.7,202.5 487.3,201.2 490.0,199.9 492.7,198.7 495.3,197.5 498.0,196.3 500.7,195.2 503.3,194.1 506.0,193.1 508.7,192.1 511.3,191.1 514.0,190.1 516.7,189.2 519.3,188.3 522.0,187.4 524.7,186.5 527.3,185.7 530.0,184.9 532.7,184.1 535.3,183.3 538.0,182.5 540.7,181.8 543.3,181.0 546.0,180.3 548.7,179.6 551.3,178.9 554.0,178.3 556.7,177.6 559.3,177.0 562.0,176.3 564.7,175.7 567.3,175.1 570.0,174.5 572.7,173.9 575.3,173.3 578.0,172.7 580.7,172.2 583.3,171.6 586.0,171.1 588.7,170.5 591.3,170.0 594.0,169.5 596.7,169.0 599.3,168.5 602.0,168.0 604.7,167.5 607.3,167.0 610.0,166.5 612.7,166.1 615.3,165.6 618.0,165.2 620.7,164.7 623.3,164.3 626.0,163.8 628.7,163.4 631.3,163.0 634.0,162.5 636.7,162.1 639.3,161.7 642.0,161.3 644.7,160.9 647.3,160.5 650.0,160.1 652.7,159.7 655.3,159.3 658.0,159.0 660.7,158.6 663.3,158.2 666.0,157.8 668.7,157.5 671.3,157.1 674.0,156.8 676.7,156.4 679.3,156.1 682.0,155.7 684.7,155.4 687.3,155.0 690.0,154.7 692.7,154.4 695.3,154.0 698.0,153.7 700.7,153.4 703.3,153.1 706.0,152.8" class="target-line"/>
  <circle cx="442.1" cy="237.1" r="3.2" class="train"/>
  <circle cx="475.8" cy="207.4" r="3.2" class="train"/>
  <circle cx="518.0" cy="188.7" r="3.2" class="train"/>
  <circle cx="552.6" cy="178.6" r="3.2" class="train"/>
  <circle cx="595.5" cy="169.2" r="3.2" class="train"/>
  <circle cx="629.0" cy="163.3" r="3.2" class="train"/>
  <circle cx="671.4" cy="157.1" r="3.2" class="train"/>
  <circle cx="705.9" cy="152.8" r="3.2" class="train"/>
  <polygon points="451.5,220.4 446.0,231.4 457.0,231.4" class="validation"/>
  <polygon points="482.4,198.2 476.9,209.2 487.9,209.2" class="validation"/>
  <polygon points="512.7,185.1 507.2,196.1 518.2,196.1" class="validation"/>
  <polygon points="544.1,175.3 538.6,186.3 549.6,186.3" class="validation"/>
  <polygon points="590.5,164.7 585.0,175.7 596.0,175.7" class="validation"/>
  <polygon points="620.9,159.2 615.4,170.2 626.4,170.2" class="validation"/>
  <polygon points="651.1,154.4 645.6,165.4 656.6,165.4" class="validation"/>
  <polygon points="682.9,150.1 677.4,161.1 688.4,161.1" class="validation"/>
  <polyline points="442.0,156.1 444.7,156.1 447.3,156.1 450.0,156.1 452.7,156.1 455.3,156.1 458.0,156.1 460.7,156.1 463.3,156.1 466.0,156.1 468.7,156.1 471.3,156.1 474.0,156.1 476.7,156.1 479.3,156.1 482.0,156.1 484.7,156.1 487.3,156.1 490.0,156.1 492.7,156.1 495.3,156.1 498.0,156.1 500.7,156.1 503.3,156.1 506.0,156.1 508.7,156.1 511.3,156.1 514.0,156.1 516.7,156.1 519.3,156.1 522.0,156.1 524.7,156.1 527.3,156.1 530.0,156.1 532.7,156.1 535.3,156.1 538.0,156.1 540.7,156.1 543.3,156.1 546.0,156.1 548.7,156.1 551.3,156.1 554.0,156.1 556.7,156.1 559.3,156.1 562.0,156.1 564.7,156.1 567.3,156.1 570.0,156.1 572.7,156.1 575.3,156.1 578.0,156.1 580.7,156.1 583.3,156.1 586.0,156.1 588.7,156.1 591.3,156.1 594.0,156.1 596.7,156.1 599.3,156.1 602.0,156.1 604.7,156.1 607.3,156.1 610.0,156.1 612.7,156.1 615.3,156.1 618.0,156.1 620.7,156.1 623.3,156.1 626.0,156.1 628.7,156.1 631.3,156.1 634.0,156.1 636.7,156.1 639.3,156.1 642.0,156.1 644.7,156.1 647.3,156.1 650.0,156.1 652.7,156.1 655.3,156.1 658.0,156.1 660.7,156.1 663.3,156.1 666.0,156.1 668.7,156.1 671.3,156.1 674.0,156.1 676.7,156.1 679.3,156.1 682.0,156.1 684.7,156.1 687.3,156.1 690.0,156.1 692.7,156.1 695.3,156.1 698.0,156.1 700.7,156.1 703.3,156.1 706.0,156.1" class="unverified-eml-line"/>
  <rect x="764" y="92" width="322" height="188" class="panel"/>
  <text x="777.0" y="114.0" class="formula-name">radioactive_decay</text>
  <text x="777.0" y="129.0" class="formula-expr">exp(-0.4 t)</text>
  <line x1="798.0" y1="146.0" x2="1062.0" y2="146.0" class="grid"/>
  <line x1="798.0" y1="195.0" x2="1062.0" y2="195.0" class="grid"/>
  <line x1="798.0" y1="244.0" x2="1062.0" y2="244.0" class="axis"/>
  <line x1="798.0" y1="146.0" x2="798.0" y2="244.0" class="axis"/>
  <text x="1054.0" y="261.0" class="axis-label">t</text>
  <text x="780.0" y="154.0" class="axis-label">y</text>
  <polyline points="798.0,152.8 800.7,154.7 803.3,156.6 806.0,158.5 808.7,160.3 811.3,162.1 814.0,163.9 816.7,165.6 819.3,167.3 822.0,169.0 824.7,170.6 827.3,172.2 830.0,173.8 832.7,175.3 835.3,176.8 838.0,178.3 840.7,179.7 843.3,181.2 846.0,182.5 848.7,183.9 851.3,185.2 854.0,186.5 856.7,187.8 859.3,189.1 862.0,190.3 864.7,191.5 867.3,192.7 870.0,193.8 872.7,195.0 875.3,196.1 878.0,197.2 880.7,198.2 883.3,199.3 886.0,200.3 888.7,201.3 891.3,202.3 894.0,203.3 896.7,204.2 899.3,205.1 902.0,206.0 904.7,206.9 907.3,207.8 910.0,208.6 912.7,209.5 915.3,210.3 918.0,211.1 920.7,211.9 923.3,212.7 926.0,213.4 928.7,214.2 931.3,214.9 934.0,215.6 936.7,216.3 939.3,217.0 942.0,217.6 944.7,218.3 947.3,218.9 950.0,219.6 952.7,220.2 955.3,220.8 958.0,221.4 960.7,222.0 963.3,222.5 966.0,223.1 968.7,223.6 971.3,224.2 974.0,224.7 976.7,225.2 979.3,225.7 982.0,226.2 984.7,226.7 987.3,227.2 990.0,227.6 992.7,228.1 995.3,228.6 998.0,229.0 1000.7,229.4 1003.3,229.8 1006.0,230.3 1008.7,230.7 1011.3,231.1 1014.0,231.4 1016.7,231.8 1019.3,232.2 1022.0,232.6 1024.7,232.9 1027.3,233.3 1030.0,233.6 1032.7,234.0 1035.3,234.3 1038.0,234.6 1040.7,234.9 1043.3,235.2 1046.0,235.5 1048.7,235.8 1051.3,236.1 1054.0,236.4 1056.7,236.7 1059.3,237.0 1062.0,237.2" class="target-line"/>
  <circle cx="798.1" cy="152.8" r="3.2" class="train"/>
  <circle cx="831.8" cy="174.8" r="3.2" class="train"/>
  <circle cx="874.0" cy="195.5" r="3.2" class="train"/>
  <circle cx="908.6" cy="208.2" r="3.2" class="train"/>
  <circle cx="951.5" cy="219.9" r="3.2" class="train"/>
  <circle cx="985.0" cy="226.8" r="3.2" class="train"/>
  <circle cx="1027.4" cy="233.3" r="3.2" class="train"/>
  <circle cx="1061.9" cy="237.2" r="3.2" class="train"/>
  <polygon points="805.8,152.9 800.3,163.9 811.3,163.9" class="validation"/>
  <polygon points="838.1,172.8 832.6,183.8 843.6,183.8" class="validation"/>
  <polygon points="869.7,188.2 864.2,199.2 875.2,199.2" class="validation"/>
  <polygon points="902.4,200.7 896.9,211.7 907.9,211.7" class="validation"/>
  <polygon points="950.8,214.3 945.3,225.3 956.3,225.3" class="validation"/>
  <polygon points="982.5,220.8 977.0,231.8 988.0,231.8" class="validation"/>
  <polygon points="1014.0,225.9 1008.5,236.9 1019.5,236.9" class="validation"/>
  <polygon points="1047.1,230.2 1041.6,241.2 1052.6,241.2" class="validation"/>
  <polyline points="798.0,152.8 800.7,154.7 803.3,156.6 806.0,158.5 808.7,160.3 811.3,162.1 814.0,163.9 816.7,165.6 819.3,167.3 822.0,169.0 824.7,170.6 827.3,172.2 830.0,173.8 832.7,175.3 835.3,176.8 838.0,178.3 840.7,179.7 843.3,181.2 846.0,182.5 848.7,183.9 851.3,185.2 854.0,186.5 856.7,187.8 859.3,189.1 862.0,190.3 864.7,191.5 867.3,192.7 870.0,193.8 872.7,195.0 875.3,196.1 878.0,197.2 880.7,198.2 883.3,199.3 886.0,200.3 888.7,201.3 891.3,202.3 894.0,203.3 896.7,204.2 899.3,205.1 902.0,206.0 904.7,206.9 907.3,207.8 910.0,208.6 912.7,209.5 915.3,210.3 918.0,211.1 920.7,211.9 923.3,212.7 926.0,213.4 928.7,214.2 931.3,214.9 934.0,215.6 936.7,216.3 939.3,217.0 942.0,217.6 944.7,218.3 947.3,218.9 950.0,219.6 952.7,220.2 955.3,220.8 958.0,221.4 960.7,222.0 963.3,222.5 966.0,223.1 968.7,223.6 971.3,224.2 974.0,224.7 976.7,225.2 979.3,225.7 982.0,226.2 984.7,226.7 987.3,227.2 990.0,227.6 992.7,228.1 995.3,228.6 998.0,229.0 1000.7,229.4 1003.3,229.8 1006.0,230.3 1008.7,230.7 1011.3,231.1 1014.0,231.4 1016.7,231.8 1019.3,232.2 1022.0,232.6 1024.7,232.9 1027.3,233.3 1030.0,233.6 1032.7,234.0 1035.3,234.3 1038.0,234.6 1040.7,234.9 1043.3,235.2 1046.0,235.5 1048.7,235.8 1051.3,236.1 1054.0,236.4 1056.7,236.7 1059.3,237.0 1062.0,237.2" class="eml-line"/>
  <rect x="52" y="316" width="322" height="188" class="panel"/>
  <text x="65.0" y="338.0" class="formula-name">beer_lambert</text>
  <text x="65.0" y="353.0" class="formula-expr">exp(-0.8 x)</text>
  <line x1="86.0" y1="370.0" x2="350.0" y2="370.0" class="grid"/>
  <line x1="86.0" y1="419.0" x2="350.0" y2="419.0" class="grid"/>
  <line x1="86.0" y1="468.0" x2="350.0" y2="468.0" class="axis"/>
  <line x1="86.0" y1="370.0" x2="86.0" y2="468.0" class="axis"/>
  <text x="342.0" y="485.0" class="axis-label">x</text>
  <text x="68.0" y="378.0" class="axis-label">y</text>
  <polyline points="86.0,376.8 88.7,379.0 91.3,381.2 94.0,383.3 96.7,385.3 99.3,387.4 102.0,389.3 104.7,391.3 107.3,393.1 110.0,395.0 112.7,396.8 115.3,398.5 118.0,400.2 120.7,401.9 123.3,403.5 126.0,405.1 128.7,406.6 131.3,408.1 134.0,409.6 136.7,411.1 139.3,412.5 142.0,413.8 144.7,415.2 147.3,416.5 150.0,417.7 152.7,419.0 155.3,420.2 158.0,421.4 160.7,422.5 163.3,423.7 166.0,424.8 168.7,425.8 171.3,426.9 174.0,427.9 176.7,428.9 179.3,429.9 182.0,430.9 184.7,431.8 187.3,432.7 190.0,433.6 192.7,434.4 195.3,435.3 198.0,436.1 200.7,436.9 203.3,437.7 206.0,438.5 208.7,439.2 211.3,439.9 214.0,440.6 216.7,441.3 219.3,442.0 222.0,442.7 224.7,443.3 227.3,444.0 230.0,444.6 232.7,445.2 235.3,445.8 238.0,446.3 240.7,446.9 243.3,447.4 246.0,448.0 248.7,448.5 251.3,449.0 254.0,449.5 256.7,450.0 259.3,450.5 262.0,450.9 264.7,451.4 267.3,451.8 270.0,452.2 272.7,452.6 275.3,453.1 278.0,453.5 280.7,453.8 283.3,454.2 286.0,454.6 288.7,454.9 291.3,455.3 294.0,455.6 296.7,456.0 299.3,456.3 302.0,456.6 304.7,456.9 307.3,457.2 310.0,457.5 312.7,457.8 315.3,458.1 318.0,458.4 320.7,458.7 323.3,458.9 326.0,459.2 328.7,459.4 331.3,459.7 334.0,459.9 336.7,460.2 339.3,460.4 342.0,460.6 344.7,460.8 347.3,461.0 350.0,461.2" class="target-line"/>
  <circle cx="86.1" cy="376.8" r="3.2" class="train"/>
  <circle cx="119.8" cy="401.3" r="3.2" class="train"/>
  <circle cx="162.0" cy="423.1" r="3.2" class="train"/>
  <circle cx="196.6" cy="435.7" r="3.2" class="train"/>
  <circle cx="239.5" cy="446.7" r="3.2" class="train"/>
  <circle cx="273.0" cy="452.7" r="3.2" class="train"/>
  <circle cx="315.4" cy="458.1" r="3.2" class="train"/>
  <circle cx="349.9" cy="461.2" r="3.2" class="train"/>
  <polygon points="99.1,381.7 93.6,392.7 104.6,392.7" class="validation"/>
  <polygon points="129.2,401.4 123.7,412.4 134.7,412.4" class="validation"/>
  <polygon points="158.7,416.2 153.2,427.2 164.2,427.2" class="validation"/>
  <polygon points="189.3,427.8 183.8,438.8 194.8,438.8" class="validation"/>
  <polygon points="234.5,440.1 229.0,451.1 240.0,451.1" class="validation"/>
  <polygon points="264.1,445.8 258.6,456.8 269.6,456.8" class="validation"/>
  <polygon points="293.5,450.1 288.0,461.1 299.0,461.1" class="validation"/>
  <polygon points="324.5,453.5 319.0,464.5 330.0,464.5" class="validation"/>
  <polyline points="86.0,376.8 88.7,379.0 91.3,381.2 94.0,383.3 96.7,385.3 99.3,387.4 102.0,389.3 104.7,391.3 107.3,393.1 110.0,395.0 112.7,396.8 115.3,398.5 118.0,400.2 120.7,401.9 123.3,403.5 126.0,405.1 128.7,406.6 131.3,408.1 134.0,409.6 136.7,411.1 139.3,412.5 142.0,413.8 144.7,415.2 147.3,416.5 150.0,417.7 152.7,419.0 155.3,420.2 158.0,421.4 160.7,422.5 163.3,423.7 166.0,424.8 168.7,425.8 171.3,426.9 174.0,427.9 176.7,428.9 179.3,429.9 182.0,430.9 184.7,431.8 187.3,432.7 190.0,433.6 192.7,434.4 195.3,435.3 198.0,436.1 200.7,436.9 203.3,437.7 206.0,438.5 208.7,439.2 211.3,439.9 214.0,440.6 216.7,441.3 219.3,442.0 222.0,442.7 224.7,443.3 227.3,444.0 230.0,444.6 232.7,445.2 235.3,445.8 238.0,446.3 240.7,446.9 243.3,447.4 246.0,448.0 248.7,448.5 251.3,449.0 254.0,449.5 256.7,450.0 259.3,450.5 262.0,450.9 264.7,451.4 267.3,451.8 270.0,452.2 272.7,452.6 275.3,453.1 278.0,453.5 280.7,453.8 283.3,454.2 286.0,454.6 288.7,454.9 291.3,455.3 294.0,455.6 296.7,456.0 299.3,456.3 302.0,456.6 304.7,456.9 307.3,457.2 310.0,457.5 312.7,457.8 315.3,458.1 318.0,458.4 320.7,458.7 323.3,458.9 326.0,459.2 328.7,459.4 331.3,459.7 334.0,459.9 336.7,460.2 339.3,460.4 342.0,460.6 344.7,460.8 347.3,461.0 350.0,461.2" class="eml-line"/>
  <rect x="408" y="316" width="322" height="188" class="panel"/>
  <text x="421.0" y="338.0" class="formula-name">scaled_exp_growth</text>
  <text x="421.0" y="353.0" class="formula-expr">exp(0.4 x)</text>
  <line x1="442.0" y1="370.0" x2="706.0" y2="370.0" class="grid"/>
  <line x1="442.0" y1="419.0" x2="706.0" y2="419.0" class="grid"/>
  <line x1="442.0" y1="468.0" x2="706.0" y2="468.0" class="axis"/>
  <line x1="442.0" y1="370.0" x2="442.0" y2="468.0" class="axis"/>
  <text x="698.0" y="485.0" class="axis-label">x</text>
  <text x="424.0" y="378.0" class="axis-label">y</text>
  <polyline points="442.0,461.2 444.7,460.9 447.3,460.5 450.0,460.2 452.7,459.8 455.3,459.4 458.0,459.1 460.7,458.7 463.3,458.3 466.0,457.9 468.7,457.5 471.3,457.1 474.0,456.7 476.7,456.2 479.3,455.8 482.0,455.4 484.7,454.9 487.3,454.5 490.0,454.0 492.7,453.6 495.3,453.1 498.0,452.6 500.7,452.1 503.3,451.6 506.0,451.1 508.7,450.6 511.3,450.1 514.0,449.5 516.7,449.0 519.3,448.5 522.0,447.9 524.7,447.3 527.3,446.8 530.0,446.2 532.7,445.6 535.3,445.0 538.0,444.4 540.7,443.7 543.3,443.1 546.0,442.5 548.7,441.8 551.3,441.2 554.0,440.5 556.7,439.8 559.3,439.1 562.0,438.4 564.7,437.7 567.3,436.9 570.0,436.2 572.7,435.4 575.3,434.7 578.0,433.9 580.7,433.1 583.3,432.3 586.0,431.5 588.7,430.6 591.3,429.8 594.0,428.9 596.7,428.0 599.3,427.2 602.0,426.3 604.7,425.3 607.3,424.4 610.0,423.5 612.7,422.5 615.3,421.5 618.0,420.5 620.7,419.5 623.3,418.5 626.0,417.4 628.7,416.4 631.3,415.3 634.0,414.2 636.7,413.1 639.3,411.9 642.0,410.8 644.7,409.6 647.3,408.4 650.0,407.2 652.7,406.0 655.3,404.7 658.0,403.5 660.7,402.2 663.3,400.9 666.0,399.5 668.7,398.2 671.3,396.8 674.0,395.4 676.7,394.0 679.3,392.6 682.0,391.1 684.7,389.6 687.3,388.1 690.0,386.5 692.7,385.0 695.3,383.4 698.0,381.8 700.7,380.1 703.3,378.5 706.0,376.8" class="target-line"/>
  <circle cx="442.1" cy="461.2" r="3.2" class="train"/>
  <circle cx="475.8" cy="456.4" r="3.2" class="train"/>
  <circle cx="518.0" cy="448.7" r="3.2" class="train"/>
  <circle cx="552.6" cy="440.8" r="3.2" class="train"/>
  <circle cx="595.5" cy="428.4" r="3.2" class="train"/>
  <circle cx="629.0" cy="416.2" r="3.2" class="train"/>
  <circle cx="671.4" cy="396.8" r="3.2" class="train"/>
  <circle cx="705.9" cy="376.8" r="3.2" class="train"/>
  <polygon points="461.7,453.0 456.2,464.0 467.2,464.0" class="validation"/>
  <polygon points="491.8,448.2 486.3,459.2 497.3,459.2" class="validation"/>
  <polygon points="521.3,442.5 515.8,453.5 526.8,453.5" class="validation"/>
  <polygon points="551.9,435.5 546.4,446.5 557.4,446.5" class="validation"/>
  <polygon points="597.1,422.4 591.6,433.4 602.6,433.4" class="validation"/>
  <polygon points="626.7,411.6 621.2,422.6 632.2,422.6" class="validation"/>
  <polygon points="656.1,398.9 650.6,409.9 661.6,409.9" class="validation"/>
  <polygon points="687.1,382.7 681.6,393.7 692.6,393.7" class="validation"/>
  <polyline points="442.0,461.2 444.7,460.9 447.3,460.5 450.0,460.2 452.7,459.8 455.3,459.4 458.0,459.1 460.7,458.7 463.3,458.3 466.0,457.9 468.7,457.5 471.3,457.1 474.0,456.7 476.7,456.2 479.3,455.8 482.0,455.4 484.7,454.9 487.3,454.5 490.0,454.0 492.7,453.6 495.3,453.1 498.0,452.6 500.7,452.1 503.3,451.6 506.0,451.1 508.7,450.6 511.3,450.1 514.0,449.5 516.7,449.0 519.3,448.5 522.0,447.9 524.7,447.3 527.3,446.8 530.0,446.2 532.7,445.6 535.3,445.0 538.0,444.4 540.7,443.7 543.3,443.1 546.0,442.5 548.7,441.8 551.3,441.2 554.0,440.5 556.7,439.8 559.3,439.1 562.0,438.4 564.7,437.7 567.3,436.9 570.0,436.2 572.7,435.4 575.3,434.7 578.0,433.9 580.7,433.1 583.3,432.3 586.0,431.5 588.7,430.6 591.3,429.8 594.0,428.9 596.7,428.0 599.3,427.2 602.0,426.3 604.7,425.3 607.3,424.4 610.0,423.5 612.7,422.5 615.3,421.5 618.0,420.5 620.7,419.5 623.3,418.5 626.0,417.4 628.7,416.4 631.3,415.3 634.0,414.2 636.7,413.1 639.3,411.9 642.0,410.8 644.7,409.6 647.3,408.4 650.0,407.2 652.7,406.0 655.3,404.7 658.0,403.5 660.7,402.2 663.3,400.9 666.0,399.5 668.7,398.2 671.3,396.8 674.0,395.4 676.7,394.0 679.3,392.6 682.0,391.1 684.7,389.6 687.3,388.1 690.0,386.5 692.7,385.0 695.3,383.4 698.0,381.8 700.7,380.1 703.3,378.5 706.0,376.8" class="eml-line"/>
  <rect x="764" y="316" width="322" height="188" class="panel"/>
  <text x="777.0" y="338.0" class="formula-name">scaled_exp_fast_decay</text>
  <text x="777.0" y="353.0" class="formula-expr">exp(-1.2 x)</text>
  <line x1="798.0" y1="370.0" x2="1062.0" y2="370.0" class="grid"/>
  <line x1="798.0" y1="419.0" x2="1062.0" y2="419.0" class="grid"/>
  <line x1="798.0" y1="468.0" x2="1062.0" y2="468.0" class="axis"/>
  <line x1="798.0" y1="370.0" x2="798.0" y2="468.0" class="axis"/>
  <text x="1054.0" y="485.0" class="axis-label">x</text>
  <text x="780.0" y="378.0" class="axis-label">y</text>
  <polyline points="798.0,376.8 800.7,379.4 803.3,382.0 806.0,384.5 808.7,386.9 811.3,389.3 814.0,391.5 816.7,393.8 819.3,395.9 822.0,398.0 824.7,400.0 827.3,402.0 830.0,403.9 832.7,405.7 835.3,407.5 838.0,409.2 840.7,410.9 843.3,412.6 846.0,414.1 848.7,415.7 851.3,417.2 854.0,418.6 856.7,420.0 859.3,421.4 862.0,422.7 864.7,424.0 867.3,425.2 870.0,426.4 872.7,427.6 875.3,428.7 878.0,429.8 880.7,430.9 883.3,432.0 886.0,433.0 888.7,433.9 891.3,434.9 894.0,435.8 896.7,436.7 899.3,437.6 902.0,438.4 904.7,439.2 907.3,440.0 910.0,440.8 912.7,441.5 915.3,442.2 918.0,442.9 920.7,443.6 923.3,444.3 926.0,444.9 928.7,445.5 931.3,446.1 934.0,446.7 936.7,447.3 939.3,447.8 942.0,448.4 944.7,448.9 947.3,449.4 950.0,449.9 952.7,450.3 955.3,450.8 958.0,451.2 960.7,451.7 963.3,452.1 966.0,452.5 968.7,452.9 971.3,453.3 974.0,453.6 976.7,454.0 979.3,454.3 982.0,454.7 984.7,455.0 987.3,455.3 990.0,455.6 992.7,455.9 995.3,456.2 998.0,456.5 1000.7,456.8 1003.3,457.0 1006.0,457.3 1008.7,457.6 1011.3,457.8 1014.0,458.0 1016.7,458.3 1019.3,458.5 1022.0,458.7 1024.7,458.9 1027.3,459.1 1030.0,459.3 1032.7,459.5 1035.3,459.7 1038.0,459.9 1040.7,460.0 1043.3,460.2 1046.0,460.4 1048.7,460.5 1051.3,460.7 1054.0,460.8 1056.7,461.0 1059.3,461.1 1062.0,461.2" class="target-line"/>
  <circle cx="798.1" cy="376.8" r="3.2" class="train"/>
  <circle cx="831.8" cy="405.1" r="3.2" class="train"/>
  <circle cx="874.0" cy="428.2" r="3.2" class="train"/>
  <circle cx="908.6" cy="440.4" r="3.2" class="train"/>
  <circle cx="951.5" cy="450.1" r="3.2" class="train"/>
  <circle cx="985.0" cy="455.0" r="3.2" class="train"/>
  <circle cx="1027.4" cy="459.1" r="3.2" class="train"/>
  <circle cx="1061.9" cy="461.2" r="3.2" class="train"/>
  <polygon points="808.5,381.2 803.0,392.2 814.0,392.2" class="validation"/>
  <polygon points="839.6,404.8 834.1,415.8 845.1,415.8" class="validation"/>
  <polygon points="870.2,421.0 864.7,432.0 875.7,432.0" class="validation"/>
  <polygon points="901.9,432.9 896.4,443.9 907.4,443.9" class="validation"/>
  <polygon points="948.7,444.1 943.2,455.1 954.2,455.1" class="validation"/>
  <polygon points="979.3,448.8 973.8,459.8 984.8,459.8" class="validation"/>
  <polygon points="1009.8,452.2 1004.3,463.2 1015.3,463.2" class="validation"/>
  <polygon points="1041.8,454.6 1036.3,465.6 1047.3,465.6" class="validation"/>
  <polyline points="798.0,376.8 800.7,379.4 803.3,382.0 806.0,384.5 808.7,386.9 811.3,389.3 814.0,391.5 816.7,393.8 819.3,395.9 822.0,398.0 824.7,400.0 827.3,402.0 830.0,403.9 832.7,405.7 835.3,407.5 838.0,409.2 840.7,410.9 843.3,412.6 846.0,414.1 848.7,415.7 851.3,417.2 854.0,418.6 856.7,420.0 859.3,421.4 862.0,422.7 864.7,424.0 867.3,425.2 870.0,426.4 872.7,427.6 875.3,428.7 878.0,429.8 880.7,430.9 883.3,432.0 886.0,433.0 888.7,433.9 891.3,434.9 894.0,435.8 896.7,436.7 899.3,437.6 902.0,438.4 904.7,439.2 907.3,440.0 910.0,440.8 912.7,441.5 915.3,442.2 918.0,442.9 920.7,443.6 923.3,444.3 926.0,444.9 928.7,445.5 931.3,446.1 934.0,446.7 936.7,447.3 939.3,447.8 942.0,448.4 944.7,448.9 947.3,449.4 950.0,449.9 952.7,450.3 955.3,450.8 958.0,451.2 960.7,451.7 963.3,452.1 966.0,452.5 968.7,452.9 971.3,453.3 974.0,453.6 976.7,454.0 979.3,454.3 982.0,454.7 984.7,455.0 987.3,455.3 990.0,455.6 992.7,455.9 995.3,456.2 998.0,456.5 1000.7,456.8 1003.3,457.0 1006.0,457.3 1008.7,457.6 1011.3,457.8 1014.0,458.0 1016.7,458.3 1019.3,458.5 1022.0,458.7 1024.7,458.9 1027.3,459.1 1030.0,459.3 1032.7,459.5 1035.3,459.7 1038.0,459.9 1040.7,460.0 1043.3,460.2 1046.0,460.4 1048.7,460.5 1051.3,460.7 1054.0,460.8 1056.7,461.0 1059.3,461.1 1062.0,461.2" class="eml-line"/>
  <rect x="52" y="540" width="322" height="188" class="panel"/>
  <text x="65.0" y="562.0" class="formula-name">arrhenius</text>
  <text x="65.0" y="577.0" class="formula-expr">exp(-0.8 / x)</text>
  <line x1="86.0" y1="594.0" x2="350.0" y2="594.0" class="grid"/>
  <line x1="86.0" y1="643.0" x2="350.0" y2="643.0" class="grid"/>
  <line x1="86.0" y1="692.0" x2="350.0" y2="692.0" class="axis"/>
  <line x1="86.0" y1="594.0" x2="86.0" y2="692.0" class="axis"/>
  <text x="342.0" y="709.0" class="axis-label">x</text>
  <text x="68.0" y="602.0" class="axis-label">y</text>
  <polyline points="86.0,685.2 88.7,682.8 91.3,680.5 94.0,678.2 96.7,675.9 99.3,673.7 102.0,671.6 104.7,669.6 107.3,667.6 110.0,665.6 112.7,663.7 115.3,661.9 118.0,660.2 120.7,658.5 123.3,656.8 126.0,655.2 128.7,653.7 131.3,652.2 134.0,650.7 136.7,649.3 139.3,647.9 142.0,646.6 144.7,645.3 147.3,644.0 150.0,642.8 152.7,641.6 155.3,640.5 158.0,639.4 160.7,638.3 163.3,637.2 166.0,636.2 168.7,635.2 171.3,634.2 174.0,633.3 176.7,632.4 179.3,631.5 182.0,630.6 184.7,629.7 187.3,628.9 190.0,628.1 192.7,627.3 195.3,626.5 198.0,625.8 200.7,625.0 203.3,624.3 206.0,623.6 208.7,622.9 211.3,622.3 214.0,621.6 216.7,621.0 219.3,620.3 222.0,619.7 224.7,619.1 227.3,618.5 230.0,618.0 232.7,617.4 235.3,616.9 238.0,616.3 240.7,615.8 243.3,615.3 246.0,614.8 248.7,614.3 251.3,613.8 254.0,613.3 256.7,612.9 259.3,612.4 262.0,611.9 264.7,611.5 267.3,611.1 270.0,610.6 272.7,610.2 275.3,609.8 278.0,609.4 280.7,609.0 283.3,608.6 286.0,608.2 288.7,607.9 291.3,607.5 294.0,607.1 296.7,606.8 299.3,606.4 302.0,606.1 304.7,605.8 307.3,605.4 310.0,605.1 312.7,604.8 315.3,604.5 318.0,604.1 320.7,603.8 323.3,603.5 326.0,603.2 328.7,602.9 331.3,602.7 334.0,602.4 336.7,602.1 339.3,601.8 342.0,601.5 344.7,601.3 347.3,601.0 350.0,600.8" class="target-line"/>
  <circle cx="86.1" cy="685.2" r="3.2" class="train"/>
  <circle cx="119.8" cy="659.0" r="3.2" class="train"/>
  <circle cx="162.0" cy="637.8" r="3.2" class="train"/>
  <circle cx="196.6" cy="626.2" r="3.2" class="train"/>
  <circle cx="239.5" cy="616.0" r="3.2" class="train"/>
  <circle cx="273.0" cy="610.2" r="3.2" class="train"/>
  <circle cx="315.4" cy="604.4" r="3.2" class="train"/>
  <circle cx="349.9" cy="600.8" r="3.2" class="train"/>
  <polygon points="96.5,670.6 91.0,681.6 102.0,681.6" class="validation"/>
  <polygon points="126.2,649.6 120.7,660.6 131.7,660.6" class="validation"/>
  <polygon points="155.4,635.0 149.9,646.0 160.9,646.0" class="validation"/>
  <polygon points="185.6,623.9 180.1,634.9 191.1,634.9" class="validation"/>
  <polygon points="230.3,612.4 224.8,623.4 235.8,623.4" class="validation"/>
  <polygon points="259.5,606.9 254.0,617.9 265.0,617.9" class="validation"/>
  <polygon points="288.6,602.4 283.1,613.4 294.1,613.4" class="validation"/>
  <polygon points="319.2,598.5 313.7,609.5 324.7,609.5" class="validation"/>
  <polyline points="86.0,685.2 88.7,682.8 91.3,680.5 94.0,678.2 96.7,675.9 99.3,673.7 102.0,671.6 104.7,669.6 107.3,667.6 110.0,665.6 112.7,663.7 115.3,661.9 118.0,660.2 120.7,658.5 123.3,656.8 126.0,655.2 128.7,653.7 131.3,652.2 134.0,650.7 136.7,649.3 139.3,647.9 142.0,646.6 144.7,645.3 147.3,644.0 150.0,642.8 152.7,641.6 155.3,640.5 158.0,639.4 160.7,638.3 163.3,637.2 166.0,636.2 168.7,635.2 171.3,634.2 174.0,633.3 176.7,632.4 179.3,631.5 182.0,630.6 184.7,629.7 187.3,628.9 190.0,628.1 192.7,627.3 195.3,626.5 198.0,625.8 200.7,625.0 203.3,624.3 206.0,623.6 208.7,622.9 211.3,622.3 214.0,621.6 216.7,621.0 219.3,620.3 222.0,619.7 224.7,619.1 227.3,618.5 230.0,618.0 232.7,617.4 235.3,616.9 238.0,616.3 240.7,615.8 243.3,615.3 246.0,614.8 248.7,614.3 251.3,613.8 254.0,613.3 256.7,612.9 259.3,612.4 262.0,611.9 264.7,611.5 267.3,611.1 270.0,610.6 272.7,610.2 275.3,609.8 278.0,609.4 280.7,609.0 283.3,608.6 286.0,608.2 288.7,607.9 291.3,607.5 294.0,607.1 296.7,606.8 299.3,606.4 302.0,606.1 304.7,605.8 307.3,605.4 310.0,605.1 312.7,604.8 315.3,604.5 318.0,604.1 320.7,603.8 323.3,603.5 326.0,603.2 328.7,602.9 331.3,602.7 334.0,602.4 336.7,602.1 339.3,601.8 342.0,601.5 344.7,601.3 347.3,601.0 350.0,600.8" class="eml-line"/>
  <rect x="408" y="540" width="322" height="188" class="panel"/>
  <text x="421.0" y="562.0" class="formula-name">michaelis_menten</text>
  <text x="421.0" y="577.0" class="formula-expr">2x / (0.5 + x)</text>
  <line x1="442.0" y1="594.0" x2="706.0" y2="594.0" class="grid"/>
  <line x1="442.0" y1="643.0" x2="706.0" y2="643.0" class="grid"/>
  <line x1="442.0" y1="692.0" x2="706.0" y2="692.0" class="axis"/>
  <line x1="442.0" y1="594.0" x2="442.0" y2="692.0" class="axis"/>
  <text x="698.0" y="709.0" class="axis-label">x</text>
  <text x="424.0" y="602.0" class="axis-label">y</text>
  <polyline points="442.0,685.2 444.7,677.4 447.3,670.8 450.0,665.1 452.7,660.2 455.3,655.9 458.0,652.1 460.7,648.7 463.3,645.7 466.0,643.0 468.7,640.5 471.3,638.3 474.0,636.3 476.7,634.4 479.3,632.7 482.0,631.1 484.7,629.6 487.3,628.2 490.0,627.0 492.7,625.8 495.3,624.7 498.0,623.6 500.7,622.7 503.3,621.7 506.0,620.9 508.7,620.1 511.3,619.3 514.0,618.5 516.7,617.8 519.3,617.2 522.0,616.6 524.7,616.0 527.3,615.4 530.0,614.8 532.7,614.3 535.3,613.8 538.0,613.3 540.7,612.9 543.3,612.4 546.0,612.0 548.7,611.6 551.3,611.2 554.0,610.9 556.7,610.5 559.3,610.1 562.0,609.8 564.7,609.5 567.3,609.2 570.0,608.9 572.7,608.6 575.3,608.3 578.0,608.0 580.7,607.8 583.3,607.5 586.0,607.3 588.7,607.0 591.3,606.8 594.0,606.6 596.7,606.3 599.3,606.1 602.0,605.9 604.7,605.7 607.3,605.5 610.0,605.3 612.7,605.1 615.3,605.0 618.0,604.8 620.7,604.6 623.3,604.4 626.0,604.3 628.7,604.1 631.3,604.0 634.0,603.8 636.7,603.7 639.3,603.5 642.0,603.4 644.7,603.2 647.3,603.1 650.0,603.0 652.7,602.8 655.3,602.7 658.0,602.6 660.7,602.5 663.3,602.4 666.0,602.2 668.7,602.1 671.3,602.0 674.0,601.9 676.7,601.8 679.3,601.7 682.0,601.6 684.7,601.5 687.3,601.4 690.0,601.3 692.7,601.2 695.3,601.1 698.0,601.0 700.7,600.9 703.3,600.8 706.0,600.8" class="target-line"/>
  <circle cx="442.1" cy="685.0" r="3.2" class="train"/>
  <circle cx="475.8" cy="635.0" r="3.2" class="train"/>
  <circle cx="518.0" cy="617.5" r="3.2" class="train"/>
  <circle cx="552.6" cy="611.0" r="3.2" class="train"/>
  <circle cx="595.5" cy="606.4" r="3.2" class="train"/>
  <circle cx="629.0" cy="604.1" r="3.2" class="train"/>
  <circle cx="671.4" cy="602.0" r="3.2" class="train"/>
  <circle cx="705.9" cy="600.8" r="3.2" class="train"/>
  <polygon points="443.5,675.1 438.0,686.1 449.0,686.1" class="validation"/>
  <polygon points="475.1,630.0 469.6,641.0 480.6,641.0" class="validation"/>
  <polygon points="506.2,615.3 500.7,626.3 511.7,626.3" class="validation"/>
  <polygon points="538.3,607.8 532.8,618.8 543.8,618.8" class="validation"/>
  <polygon points="585.8,601.8 580.3,612.8 591.3,612.8" class="validation"/>
  <polygon points="616.8,599.4 611.3,610.4 622.3,610.4" class="validation"/>
  <polygon points="647.8,597.6 642.3,608.6 653.3,608.6" class="validation"/>
  <polygon points="680.3,596.2 674.8,607.2 685.8,607.2" class="validation"/>
  <polyline points="442.0,685.2 444.7,677.4 447.3,670.8 450.0,665.1 452.7,660.2 455.3,655.9 458.0,652.1 460.7,648.7 463.3,645.7 466.0,643.0 468.7,640.5 471.3,638.3 474.0,636.3 476.7,634.4 479.3,632.7 482.0,631.1 484.7,629.6 487.3,628.2 490.0,627.0 492.7,625.8 495.3,624.7 498.0,623.6 500.7,622.7 503.3,621.7 506.0,620.9 508.7,620.1 511.3,619.3 514.0,618.5 516.7,617.8 519.3,617.2 522.0,616.6 524.7,616.0 527.3,615.4 530.0,614.8 532.7,614.3 535.3,613.8 538.0,613.3 540.7,612.9 543.3,612.4 546.0,612.0 548.7,611.6 551.3,611.2 554.0,610.9 556.7,610.5 559.3,610.1 562.0,609.8 564.7,609.5 567.3,609.2 570.0,608.9 572.7,608.6 575.3,608.3 578.0,608.0 580.7,607.8 583.3,607.5 586.0,607.3 588.7,607.0 591.3,606.8 594.0,606.6 596.7,606.3 599.3,606.1 602.0,605.9 604.7,605.7 607.3,605.5 610.0,605.3 612.7,605.1 615.3,605.0 618.0,604.8 620.7,604.6 623.3,604.4 626.0,604.3 628.7,604.1 631.3,604.0 634.0,603.8 636.7,603.7 639.3,603.5 642.0,603.4 644.7,603.2 647.3,603.1 650.0,603.0 652.7,602.8 655.3,602.7 658.0,602.6 660.7,602.5 663.3,602.4 666.0,602.2 668.7,602.1 671.3,602.0 674.0,601.9 676.7,601.8 679.3,601.7 682.0,601.6 684.7,601.5 687.3,601.4 690.0,601.3 692.7,601.2 695.3,601.1 698.0,601.0 700.7,600.9 703.3,600.8 706.0,600.8" class="eml-line"/>
  <rect x="764" y="540" width="322" height="188" class="panel"/>
  <text x="777.0" y="562.0" class="formula-name">logistic</text>
  <text x="777.0" y="577.0" class="formula-expr">1 / (1 + 2 exp(-1.3 x))</text>
  <line x1="798.0" y1="594.0" x2="1062.0" y2="594.0" class="grid"/>
  <line x1="798.0" y1="643.0" x2="1062.0" y2="643.0" class="grid"/>
  <line x1="798.0" y1="692.0" x2="1062.0" y2="692.0" class="axis"/>
  <line x1="798.0" y1="594.0" x2="798.0" y2="692.0" class="axis"/>
  <text x="1054.0" y="709.0" class="axis-label">x</text>
  <text x="780.0" y="602.0" class="axis-label">y</text>
  <polyline points="798.0,685.2 800.7,683.4 803.3,681.5 806.0,679.5 808.7,677.6 811.3,675.6 814.0,673.5 816.7,671.5 819.3,669.4 822.0,667.4 824.7,665.3 827.3,663.2 830.0,661.1 832.7,659.1 835.3,657.0 838.0,654.9 840.7,652.9 843.3,650.9 846.0,648.9 848.7,647.0 851.3,645.1 854.0,643.2 856.7,641.4 859.3,639.6 862.0,637.8 864.7,636.1 867.3,634.5 870.0,632.9 872.7,631.3 875.3,629.8 878.0,628.4 880.7,627.0 883.3,625.7 886.0,624.4 888.7,623.1 891.3,622.0 894.0,620.8 896.7,619.7 899.3,618.7 902.0,617.7 904.7,616.8 907.3,615.9 910.0,615.0 912.7,614.2 915.3,613.4 918.0,612.7 920.7,612.0 923.3,611.4 926.0,610.7 928.7,610.2 931.3,609.6 934.0,609.1 936.7,608.6 939.3,608.1 942.0,607.7 944.7,607.3 947.3,606.9 950.0,606.5 952.7,606.1 955.3,605.8 958.0,605.5 960.7,605.2 963.3,604.9 966.0,604.7 968.7,604.4 971.3,604.2 974.0,604.0 976.7,603.8 979.3,603.6 982.0,603.4 984.7,603.3 987.3,603.1 990.0,603.0 992.7,602.8 995.3,602.7 998.0,602.6 1000.7,602.5 1003.3,602.4 1006.0,602.3 1008.7,602.2 1011.3,602.1 1014.0,602.0 1016.7,601.9 1019.3,601.8 1022.0,601.8 1024.7,601.7 1027.3,601.6 1030.0,601.6 1032.7,601.5 1035.3,601.5 1038.0,601.4 1040.7,601.4 1043.3,601.4 1046.0,601.3 1048.7,601.3 1051.3,601.3 1054.0,601.2 1056.7,601.2 1059.3,601.2 1062.0,601.1" class="target-line"/>
  <circle cx="798.1" cy="685.2" r="3.2" class="train"/>
  <circle cx="831.8" cy="659.7" r="3.2" class="train"/>
  <circle cx="874.0" cy="630.6" r="3.2" class="train"/>
  <circle cx="908.6" cy="615.5" r="3.2" class="train"/>
  <circle cx="951.5" cy="606.3" r="3.2" class="train"/>
  <circle cx="985.0" cy="603.2" r="3.2" class="train"/>
  <circle cx="1027.4" cy="601.6" r="3.2" class="train"/>
  <circle cx="1061.9" cy="601.1" r="3.2" class="train"/>
  <polygon points="803.2,676.1 797.7,687.1 808.7,687.1" class="validation"/>
  <polygon points="836.5,650.6 831.0,661.6 842.0,661.6" class="validation"/>
  <polygon points="869.1,627.9 863.6,638.9 874.6,638.9" class="validation"/>
  <polygon points="902.9,611.9 897.4,622.9 908.4,622.9" class="validation"/>
  <polygon points="952.9,600.6 947.4,611.6 958.4,611.6" class="validation"/>
  <polygon points="985.7,597.7 980.2,608.7 991.2,608.7" class="validation"/>
  <polygon points="1018.2,596.4 1012.7,607.4 1023.7,607.4" class="validation"/>
  <polygon points="1052.4,595.7 1046.9,606.7 1057.9,606.7" class="validation"/>
  <polyline points="798.0,600.8 800.7,600.8 803.3,600.8 806.0,600.8 808.7,600.8 811.3,600.8 814.0,600.8 816.7,600.8 819.3,600.8 822.0,600.8 824.7,600.8 827.3,600.8 830.0,600.8 832.7,600.8 835.3,600.8 838.0,600.8 840.7,600.8 843.3,600.8 846.0,600.8 848.7,600.8 851.3,600.8 854.0,600.8 856.7,600.8 859.3,600.8 862.0,600.8 864.7,600.8 867.3,600.8 870.0,600.8 872.7,600.8 875.3,600.8 878.0,600.8 880.7,600.8 883.3,600.8 886.0,600.8 888.7,600.8 891.3,600.8 894.0,600.8 896.7,600.8 899.3,600.8 902.0,600.8 904.7,600.8 907.3,600.8 910.0,600.8 912.7,600.8 915.3,600.8 918.0,600.8 920.7,600.8 923.3,600.8 926.0,600.8 928.7,600.8 931.3,600.8 934.0,600.8 936.7,600.8 939.3,600.8 942.0,600.8 944.7,600.8 947.3,600.8 950.0,600.8 952.7,600.8 955.3,600.8 958.0,600.8 960.7,600.8 963.3,600.8 966.0,600.8 968.7,600.8 971.3,600.8 974.0,600.8 976.7,600.8 979.3,600.8 982.0,600.8 984.7,600.8 987.3,600.8 990.0,600.8 992.7,600.8 995.3,600.8 998.0,600.8 1000.7,600.8 1003.3,600.8 1006.0,600.8 1008.7,600.8 1011.3,600.8 1014.0,600.8 1016.7,600.8 1019.3,600.8 1022.0,600.8 1024.7,600.8 1027.3,600.8 1030.0,600.8 1032.7,600.8 1035.3,600.8 1038.0,600.8 1040.7,600.8 1043.3,600.8 1046.0,600.8 1048.7,600.8 1051.3,600.8 1054.0,600.8 1056.7,600.8 1059.3,600.8 1062.0,600.8" class="unverified-eml-line"/>
  <rect x="52" y="764" width="322" height="188" class="panel"/>
  <text x="65.0" y="786.0" class="formula-name">shockley</text>
  <text x="65.0" y="801.0" class="formula-expr">0.2 (exp(1.4 x) - 1)</text>
  <line x1="86.0" y1="818.0" x2="350.0" y2="818.0" class="grid"/>
  <line x1="86.0" y1="867.0" x2="350.0" y2="867.0" class="grid"/>
  <line x1="86.0" y1="916.0" x2="350.0" y2="916.0" class="axis"/>
  <line x1="86.0" y1="818.0" x2="86.0" y2="916.0" class="axis"/>
  <text x="342.0" y="933.0" class="axis-label">x</text>
  <text x="68.0" y="826.0" class="axis-label">y</text>
  <polyline points="86.0,909.2 88.7,909.1 91.3,908.9 94.0,908.8 96.7,908.6 99.3,908.4 102.0,908.2 104.7,908.0 107.3,907.9 110.0,907.7 112.7,907.5 115.3,907.2 118.0,907.0 120.7,906.8 123.3,906.6 126.0,906.4 128.7,906.1 131.3,905.9 134.0,905.6 136.7,905.3 139.3,905.1 142.0,904.8 144.7,904.5 147.3,904.2 150.0,903.9 152.7,903.6 155.3,903.3 158.0,903.0 160.7,902.6 163.3,902.3 166.0,901.9 168.7,901.6 171.3,901.2 174.0,900.8 176.7,900.4 179.3,900.0 182.0,899.6 184.7,899.1 187.3,898.7 190.0,898.2 192.7,897.8 195.3,897.3 198.0,896.8 200.7,896.3 203.3,895.7 206.0,895.2 208.7,894.6 211.3,894.0 214.0,893.5 216.7,892.8 219.3,892.2 222.0,891.6 224.7,890.9 227.3,890.2 230.0,889.5 232.7,888.8 235.3,888.1 238.0,887.3 240.7,886.5 243.3,885.7 246.0,884.9 248.7,884.0 251.3,883.1 254.0,882.2 256.7,881.3 259.3,880.3 262.0,879.3 264.7,878.3 267.3,877.3 270.0,876.2 272.7,875.1 275.3,874.0 278.0,872.8 280.7,871.6 283.3,870.4 286.0,869.1 288.7,867.8 291.3,866.4 294.0,865.0 296.7,863.6 299.3,862.2 302.0,860.6 304.7,859.1 307.3,857.5 310.0,855.9 312.7,854.2 315.3,852.4 318.0,850.6 320.7,848.8 323.3,846.9 326.0,845.0 328.7,843.0 331.3,840.9 334.0,838.8 336.7,836.6 339.3,834.4 342.0,832.1 344.7,829.7 347.3,827.3 350.0,824.8" class="target-line"/>
  <circle cx="86.1" cy="909.2" r="3.2" class="train"/>
  <circle cx="119.8" cy="906.9" r="3.2" class="train"/>
  <circle cx="162.0" cy="902.5" r="3.2" class="train"/>
  <circle cx="196.6" cy="897.0" r="3.2" class="train"/>
  <circle cx="239.5" cy="886.8" r="3.2" class="train"/>
  <circle cx="273.0" cy="875.0" r="3.2" class="train"/>
  <circle cx="315.4" cy="852.4" r="3.2" class="train"/>
  <circle cx="349.9" cy="824.9" r="3.2" class="train"/>
  <polygon points="92.5,903.3 87.0,914.3 98.0,914.3" class="validation"/>
  <polygon points="123.5,901.1 118.0,912.1 129.0,912.1" class="validation"/>
  <polygon points="153.9,898.0 148.4,909.0 159.4,909.0" class="validation"/>
  <polygon points="185.4,893.5 179.9,904.5 190.9,904.5" class="validation"/>
  <polygon points="231.9,883.5 226.4,894.5 237.4,894.5" class="validation"/>
  <polygon points="262.4,873.7 256.9,884.7 267.9,884.7" class="validation"/>
  <polygon points="292.7,860.2 287.2,871.2 298.2,871.2" class="validation"/>
  <polygon points="324.5,840.6 319.0,851.6 330.0,851.6" class="validation"/>
  <polyline points="86.0,909.2 88.7,909.1 91.3,908.9 94.0,908.8 96.7,908.6 99.3,908.4 102.0,908.2 104.7,908.0 107.3,907.9 110.0,907.7 112.7,907.5 115.3,907.2 118.0,907.0 120.7,906.8 123.3,906.6 126.0,906.4 128.7,906.1 131.3,905.9 134.0,905.6 136.7,905.3 139.3,905.1 142.0,904.8 144.7,904.5 147.3,904.2 150.0,903.9 152.7,903.6 155.3,903.3 158.0,903.0 160.7,902.6 163.3,902.3 166.0,901.9 168.7,901.6 171.3,901.2 174.0,900.8 176.7,900.4 179.3,900.0 182.0,899.6 184.7,899.1 187.3,898.7 190.0,898.2 192.7,897.8 195.3,897.3 198.0,896.8 200.7,896.3 203.3,895.7 206.0,895.2 208.7,894.6 211.3,894.0 214.0,893.5 216.7,892.8 219.3,892.2 222.0,891.6 224.7,890.9 227.3,890.2 230.0,889.5 232.7,888.8 235.3,888.1 238.0,887.3 240.7,886.5 243.3,885.7 246.0,884.9 248.7,884.0 251.3,883.1 254.0,882.2 256.7,881.3 259.3,880.3 262.0,879.3 264.7,878.3 267.3,877.3 270.0,876.2 272.7,875.1 275.3,874.0 278.0,872.8 280.7,871.6 283.3,870.4 286.0,869.1 288.7,867.8 291.3,866.4 294.0,865.0 296.7,863.6 299.3,862.2 302.0,860.6 304.7,859.1 307.3,857.5 310.0,855.9 312.7,854.2 315.3,852.4 318.0,850.6 320.7,848.8 323.3,846.9 326.0,845.0 328.7,843.0 331.3,840.9 334.0,838.8 336.7,836.6 339.3,834.4 342.0,832.1 344.7,829.7 347.3,827.3 350.0,824.8" class="eml-line"/>
  <rect x="408" y="764" width="322" height="188" class="panel"/>
  <text x="421.0" y="786.0" class="formula-name">damped_oscillator</text>
  <text x="421.0" y="801.0" class="formula-expr">exp(-0.15 t) cos(2.5 t + 0.2)</text>
  <line x1="442.0" y1="818.0" x2="706.0" y2="818.0" class="grid"/>
  <line x1="442.0" y1="867.0" x2="706.0" y2="867.0" class="grid"/>
  <line x1="442.0" y1="916.0" x2="706.0" y2="916.0" class="axis"/>
  <line x1="442.0" y1="818.0" x2="442.0" y2="916.0" class="axis"/>
  <text x="698.0" y="933.0" class="axis-label">t</text>
  <text x="424.0" y="826.0" class="axis-label">y</text>
  <polyline points="442.0,825.7 444.7,828.0 447.3,831.2 450.0,835.2 452.7,840.0 455.3,845.4 458.0,851.3 460.7,857.5 463.3,863.9 466.0,870.4 468.7,876.7 471.3,882.8 474.0,888.5 476.7,893.7 479.3,898.3 482.0,902.1 484.7,905.2 487.3,907.4 490.0,908.8 492.7,909.2 495.3,908.8 498.0,907.5 500.7,905.4 503.3,902.6 506.0,899.0 508.7,894.9 511.3,890.3 514.0,885.4 516.7,880.2 519.3,874.8 522.0,869.5 524.7,864.3 527.3,859.4 530.0,854.7 532.7,850.6 535.3,846.9 538.0,843.9 540.7,841.5 543.3,839.9 546.0,839.0 548.7,838.8 551.3,839.3 554.0,840.6 556.7,842.5 559.3,845.0 562.0,848.1 564.7,851.6 567.3,855.5 570.0,859.6 572.7,864.0 575.3,868.4 578.0,872.8 580.7,877.1 583.3,881.1 586.0,884.8 588.7,888.2 591.3,891.1 594.0,893.4 596.7,895.2 599.3,896.5 602.0,897.1 604.7,897.1 607.3,896.4 610.0,895.3 612.7,893.5 615.3,891.3 618.0,888.7 620.7,885.7 623.3,882.4 626.0,878.9 628.7,875.3 631.3,871.6 634.0,868.0 636.7,864.5 639.3,861.2 642.0,858.2 644.7,855.5 647.3,853.2 650.0,851.4 652.7,850.0 655.3,849.2 658.0,848.8 660.7,848.9 663.3,849.6 666.0,850.7 668.7,852.2 671.3,854.1 674.0,856.4 676.7,859.0 679.3,861.7 682.0,864.7 684.7,867.7 687.3,870.7 690.0,873.7 692.7,876.6 695.3,879.2 698.0,881.6 700.7,883.8 703.3,885.6 706.0,887.0" class="target-line"/>
  <circle cx="442.1" cy="825.7" r="3.2" class="train"/>
  <circle cx="475.8" cy="892.0" r="3.2" class="train"/>
  <circle cx="518.0" cy="877.6" r="3.2" class="train"/>
  <circle cx="552.6" cy="839.8" r="3.2" class="train"/>
  <circle cx="595.5" cy="894.5" r="3.2" class="train"/>
  <circle cx="629.0" cy="874.8" r="3.2" class="train"/>
  <circle cx="671.4" cy="854.2" r="3.2" class="train"/>
  <circle cx="705.9" cy="886.9" r="3.2" class="train"/>
  <polygon points="444.1,821.9 438.6,832.9 449.6,832.9" class="validation"/>
  <polygon points="478.0,890.6 472.5,901.6 483.5,901.6" class="validation"/>
  <polygon points="511.3,884.8 505.8,895.8 516.8,895.8" class="validation"/>
  <polygon points="545.8,833.5 540.3,844.5 551.3,844.5" class="validation"/>
  <polygon points="596.8,889.8 591.3,900.8 602.3,900.8" class="validation"/>
  <polygon points="630.1,867.7 624.6,878.7 635.6,878.7" class="validation"/>
  <polygon points="663.3,844.1 657.8,855.1 668.8,855.1" class="validation"/>
  <polygon points="698.2,876.3 692.7,887.3 703.7,887.3" class="validation"/>
  <polyline points="442.0,824.8 444.7,824.8 447.3,824.8 450.0,824.8 452.7,824.8 455.3,824.8 458.0,824.8 460.7,824.8 463.3,824.8 466.0,824.8 468.7,824.8 471.3,824.8 474.0,824.8 476.7,824.8 479.3,824.8 482.0,824.8 484.7,824.8 487.3,824.8 490.0,824.8 492.7,824.8 495.3,824.8 498.0,824.8 500.7,824.8 503.3,824.8 506.0,824.8 508.7,824.8 511.3,824.8 514.0,824.8 516.7,824.8 519.3,824.8 522.0,824.8 524.7,824.8 527.3,824.8 530.0,824.8 532.7,824.8 535.3,824.8 538.0,824.8 540.7,824.8 543.3,824.8 546.0,824.8 548.7,824.8 551.3,824.8 554.0,824.8 556.7,824.8 559.3,824.8 562.0,824.8 564.7,824.8 567.3,824.8 570.0,824.8 572.7,824.8 575.3,824.8 578.0,824.8 580.7,824.8 583.3,824.8 586.0,824.8 588.7,824.8 591.3,824.8 594.0,824.8 596.7,824.8 599.3,824.8 602.0,824.8 604.7,824.8 607.3,824.8 610.0,824.8 612.7,824.8 615.3,824.8 618.0,824.8 620.7,824.8 623.3,824.8 626.0,824.8 628.7,824.8 631.3,824.8 634.0,824.8 636.7,824.8 639.3,824.8 642.0,824.8 644.7,824.8 647.3,824.8 650.0,824.8 652.7,824.8 655.3,824.8 658.0,824.8 660.7,824.8 663.3,824.8 666.0,824.8 668.7,824.8 671.3,824.8 674.0,824.8 676.7,824.8 679.3,824.8 682.0,824.8 684.7,824.8 687.3,824.8 690.0,824.8 692.7,824.8 695.3,824.8 698.0,824.8 700.7,824.8 703.3,824.8 706.0,824.8" class="unverified-eml-line"/>
  <rect x="764" y="764" width="322" height="188" class="panel"/>
  <text x="777.0" y="786.0" class="formula-name">planck</text>
  <text x="777.0" y="801.0" class="formula-expr">x^3 / (exp(x) - 1)</text>
  <line x1="798.0" y1="818.0" x2="1062.0" y2="818.0" class="grid"/>
  <line x1="798.0" y1="867.0" x2="1062.0" y2="867.0" class="grid"/>
  <line x1="798.0" y1="916.0" x2="1062.0" y2="916.0" class="axis"/>
  <line x1="798.0" y1="818.0" x2="798.0" y2="916.0" class="axis"/>
  <text x="1054.0" y="933.0" class="axis-label">x</text>
  <text x="780.0" y="826.0" class="axis-label">y</text>
  <polyline points="798.0,909.2 800.7,907.3 803.3,905.0 806.0,902.2 808.7,899.1 811.3,895.7 814.0,892.1 816.7,888.3 819.3,884.5 822.0,880.5 824.7,876.6 827.3,872.6 830.0,868.7 832.7,864.8 835.3,861.1 838.0,857.5 840.7,854.0 843.3,850.7 846.0,847.5 848.7,844.6 851.3,841.8 854.0,839.3 856.7,836.9 859.3,834.8 862.0,832.8 864.7,831.1 867.3,829.6 870.0,828.3 872.7,827.3 875.3,826.4 878.0,825.7 880.7,825.2 883.3,824.9 886.0,824.8 888.7,824.8 891.3,825.0 894.0,825.3 896.7,825.8 899.3,826.5 902.0,827.2 904.7,828.1 907.3,829.1 910.0,830.2 912.7,831.3 915.3,832.6 918.0,833.9 920.7,835.3 923.3,836.8 926.0,838.3 928.7,839.8 931.3,841.4 934.0,843.0 936.7,844.7 939.3,846.4 942.0,848.0 944.7,849.7 947.3,851.4 950.0,853.1 952.7,854.8 955.3,856.5 958.0,858.2 960.7,859.9 963.3,861.5 966.0,863.1 968.7,864.7 971.3,866.3 974.0,867.9 976.7,869.4 979.3,870.9 982.0,872.4 984.7,873.8 987.3,875.2 990.0,876.6 992.7,877.9 995.3,879.2 998.0,880.5 1000.7,881.7 1003.3,882.9 1006.0,884.1 1008.7,885.2 1011.3,886.3 1014.0,887.3 1016.7,888.3 1019.3,889.3 1022.0,890.3 1024.7,891.2 1027.3,892.1 1030.0,892.9 1032.7,893.8 1035.3,894.6 1038.0,895.3 1040.7,896.1 1043.3,896.8 1046.0,897.4 1048.7,898.1 1051.3,898.7 1054.0,899.3 1056.7,899.9 1059.3,900.4 1062.0,901.0" class="target-line"/>
  <circle cx="798.1" cy="909.2" r="3.2" class="train"/>
  <circle cx="831.8" cy="866.1" r="3.2" class="train"/>
  <circle cx="874.0" cy="826.8" r="3.2" class="train"/>
  <circle cx="908.6" cy="829.6" r="3.2" class="train"/>
  <circle cx="951.5" cy="854.1" r="3.2" class="train"/>
  <circle cx="985.0" cy="874.0" r="3.2" class="train"/>
  <circle cx="1027.4" cy="892.1" r="3.2" class="train"/>
  <circle cx="1061.9" cy="900.9" r="3.2" class="train"/>
  <polygon points="799.6,902.6 794.1,913.6 805.1,913.6" class="validation"/>
  <polygon points="832.5,859.6 827.0,870.6 838.0,870.6" class="validation"/>
  <polygon points="864.8,825.5 859.3,836.5 870.3,836.5" class="validation"/>
  <polygon points="898.2,820.7 892.7,831.7 903.7,831.7" class="validation"/>
  <polygon points="947.7,846.1 942.2,857.1 953.2,857.1" class="validation"/>
  <polygon points="980.0,865.8 974.5,876.8 985.5,876.8" class="validation"/>
  <polygon points="1012.2,881.1 1006.7,892.1 1017.7,892.1" class="validation"/>
  <polygon points="1046.0,891.9 1040.5,902.9 1051.5,902.9" class="validation"/>
  <polyline points="798.0,850.5 800.7,850.5 803.3,850.5 806.0,850.5 808.7,850.5 811.3,850.5 814.0,850.5 816.7,850.5 819.3,850.5 822.0,850.5 824.7,850.5 827.3,850.5 830.0,850.5 832.7,850.5 835.3,850.5 838.0,850.5 840.7,850.5 843.3,850.5 846.0,850.5 848.7,850.5 851.3,850.5 854.0,850.5 856.7,850.5 859.3,850.5 862.0,850.5 864.7,850.5 867.3,850.5 870.0,850.5 872.7,850.5 875.3,850.5 878.0,850.5 880.7,850.5 883.3,850.5 886.0,850.5 888.7,850.5 891.3,850.5 894.0,850.5 896.7,850.5 899.3,850.5 902.0,850.5 904.7,850.5 907.3,850.5 910.0,850.5 912.7,850.5 915.3,850.5 918.0,850.5 920.7,850.5 923.3,850.5 926.0,850.5 928.7,850.5 931.3,850.5 934.0,850.5 936.7,850.5 939.3,850.5 942.0,850.5 944.7,850.5 947.3,850.5 950.0,850.5 952.7,850.5 955.3,850.5 958.0,850.5 960.7,850.5 963.3,850.5 966.0,850.5 968.7,850.5 971.3,850.5 974.0,850.5 976.7,850.5 979.3,850.5 982.0,850.5 984.7,850.5 987.3,850.5 990.0,850.5 992.7,850.5 995.3,850.5 998.0,850.5 1000.7,850.5 1003.3,850.5 1006.0,850.5 1008.7,850.5 1011.3,850.5 1014.0,850.5 1016.7,850.5 1019.3,850.5 1022.0,850.5 1024.7,850.5 1027.3,850.5 1030.0,850.5 1032.7,850.5 1035.3,850.5 1038.0,850.5 1040.7,850.5 1043.3,850.5 1046.0,850.5 1048.7,850.5 1051.3,850.5 1054.0,850.5 1056.7,850.5 1059.3,850.5 1062.0,850.5" class="unverified-eml-line"/>
</svg>
